<?xml version="1.0" encoding="utf-8"?>
<!-- Generator: Adobe Illustrator 16.0.0, SVG Export Plug-In . SVG Version: 6.00 Build 0)  -->
<!DOCTYPE svg PUBLIC "-//W3C//DTD SVG 1.1//EN" "http://www.w3.org/Graphics/SVG/1.1/DTD/svg11.dtd">
<svg version="1.1" id="Layer_1" xmlns="http://www.w3.org/2000/svg" xmlns:xlink="http://www.w3.org/1999/xlink" x="0px" y="0px"
	 width="595.279px" height="841.89px" viewBox="0 0 595.279 841.89" enable-background="new 0 0 595.279 841.89"
	 xml:space="preserve">
<polygon points="297.587,285.005 297.587,280.3 291.637,280.3 291.637,253.282 286.736,253.282 280.233,258.439 280.233,263.416 
	286.462,258.665 286.462,280.301 280.033,280.301 280.033,285.006 280.034,285.005 "/>
<path d="M298.915,567.228c-1.236,0-2.351,0.303-3.336,0.9c-0.981,0.602-1.747,1.463-2.301,2.59c0-3.453,0.395-6.029,1.18-7.723
	c0.798-1.695,1.891-2.541,3.278-2.541c1.621,0,2.666,1.039,3.134,3.125l4.884-0.834c-0.532-2.49-1.436-4.33-2.708-5.514
	c-1.266-1.184-3-1.779-5.197-1.779c-3.096,0-5.478,1.434-7.146,4.305c-1.659,2.848-2.489,7.104-2.489,12.762
	c0,5.15,0.817,9.035,2.45,11.662c1.646,2.611,3.999,3.916,7.059,3.916c2.725,0,4.864-0.959,6.409-2.881
	c1.55-1.922,2.32-4.57,2.32-7.943c0-3.094-0.675-5.541-2.028-7.346C303.074,568.128,301.238,567.228,298.915,567.228z
	 M300.28,581.662c-0.652,1.006-1.558,1.508-2.725,1.508c-1.165,0-2.113-0.6-2.838-1.799c-0.714-1.219-1.068-2.748-1.068-4.596
	c0-1.471,0.346-2.648,1.033-3.533c0.686-0.902,1.602-1.354,2.746-1.354c1.192,0,2.123,0.482,2.798,1.445
	c0.688,0.943,1.031,2.313,1.031,4.117C301.257,579.236,300.931,580.638,300.28,581.662z"/>
<path d="M296.578,413.782c-2.028,0.868-3.444,2.873-3.444,5.223c0,2.377,1.444,4.399,3.507,5.252v0.002c0,0,1.376,0.732,3.325,0.311
	c-0.003,0.004-0.003,0.006-0.003,0.01c2.592-0.531,4.546-2.82,4.546-5.574c-0.001-2.295-1.366-4.272-3.323-5.17l0.003-0.001
	c-2.351-1.168-4.606-0.059-4.606-0.059L296.578,413.782z M298.82,415.742c1.8,0,3.264,1.466,3.264,3.264
	c0,1.802-1.464,3.265-3.264,3.265c-1.798,0-3.266-1.464-3.266-3.265C295.554,417.208,297.022,415.742,298.82,415.742z"/>
<path d="M318.108,279.806h-12.047c0.345-0.976,0.868-1.892,1.564-2.747c0.713-0.855,1.499-1.702,2.357-2.543
	c0.859-0.839,1.745-1.705,2.652-2.589c0.924-0.885,1.756-1.831,2.509-2.835c0.748-1.022,1.363-2.133,1.842-3.334
	c0.479-1.201,0.718-2.544,0.718-4.031c0-2.821-0.747-5.013-2.246-6.572c-1.499-1.562-3.648-2.341-6.45-2.341
	c-2.591,0-4.641,0.773-6.149,2.318c-1.501,1.546-2.395,3.79-2.689,6.731l5.212,0.361c0.173-1.456,0.547-2.545,1.125-3.266
	c0.588-0.735,1.435-1.104,2.54-1.104c2.272,0,3.408,1.382,3.408,4.144c0,1.125-0.369,2.273-1.104,3.444
	c-0.726,1.171-1.991,2.657-3.813,4.457c-1.893,1.877-3.465,3.678-4.718,5.403c-1.235,1.726-2.197,3.498-2.872,5.313v4.393h18.161
	V279.806z"/>
<polygon points="239.887,304.119 233.939,304.119 233.939,277.102 229.042,277.102 222.537,282.257 222.537,287.234 
	228.766,282.484 228.766,304.12 222.332,304.12 222.332,308.823 239.887,308.823 "/>
<path d="M212.184,544.462h12.894c-2.809,4.982-4.75,8.76-5.82,11.324c-1.067,2.553-1.884,5.066-2.447,7.543
	c-0.566,2.463-0.851,5.014-0.851,7.654h5.396c0-2.521,0.221-4.906,0.662-7.162c0.456-2.26,1.071-4.463,1.845-6.594
	c0.772-2.148,1.678-4.277,2.708-6.393c1.044-2.117,2.148-4.303,3.313-6.553h0.003v-5.021h-17.703V544.462z"/>
<path d="M166.624,499.544v-0.09c1.442-0.346,2.582-1.17,3.429-2.477c0.861-1.309,1.29-2.82,1.29-4.549
	c0-2.703-0.759-4.777-2.268-6.234c-1.496-1.473-3.654-2.209-6.468-2.209c-2.751,0-4.881,0.75-6.391,2.252
	c-1.497,1.5-2.245,3.549-2.245,6.146c0,1.723,0.427,3.248,1.288,4.566c0.862,1.324,1.992,2.172,3.39,2.549v0.086
	c-1.608,0.332-2.894,1.197-3.852,2.594c-0.957,1.379-1.439,3.08-1.439,5.109c0,2.955,0.814,5.254,2.438,6.885
	c1.632,1.641,3.929,2.459,6.889,2.459c2.983,0,5.28-0.818,6.89-2.459c1.607-1.648,2.413-3.959,2.413-6.932
	c0-2.115-0.479-3.84-1.437-5.176C169.604,500.714,168.299,499.876,166.624,499.544z M162.61,488.421
	c1.144,0,1.996,0.355,2.563,1.061c0.566,0.689,0.847,1.785,0.847,3.283c0,1.621-0.281,2.785-0.847,3.49
	c-0.555,0.709-1.394,1.061-2.524,1.061c-2.26,0-3.391-1.516-3.391-4.551C159.258,489.871,160.375,488.421,162.61,488.421z
	 M165.669,510.89c-0.625,0.855-1.61,1.283-2.947,1.283c-1.365,0-2.377-0.428-3.04-1.283c-0.662-0.855-0.997-2.215-0.997-4.074
	c0-1.639,0.335-2.891,0.997-3.762c0.675-0.871,1.638-1.307,2.89-1.307c2.705,0,4.054,1.664,4.054,4.977
	C166.625,508.644,166.306,510.033,165.669,510.89z"/>
<polygon points="220.948,308.823 220.948,304.119 214.999,304.119 214.999,277.102 210.097,277.102 203.592,282.257 
	203.592,287.234 209.821,282.484 209.821,304.12 203.392,304.12 203.392,308.824 203.393,308.823 "/>
<path d="M175.25,364.108c3.005,0,5.259-1.383,6.761-4.144c1.507-2.762,2.264-6.822,2.264-12.181c0-5.447-0.711-9.531-2.136-12.246
	c-1.428-2.716-3.672-4.073-6.745-4.073c-2.134,0-3.852,0.569-5.154,1.709c-1.307,1.142-2.281,2.912-2.932,5.314
	c-0.652,2.4-0.975,5.502-0.975,9.297C166.333,358.668,169.302,364.108,175.25,364.108z M171.839,340.988
	c0.232-1.622,0.616-2.786,1.143-3.49c0.541-0.721,1.334-1.083,2.376-1.083c0.983,0,1.733,0.352,2.249,1.058
	c0.517,0.708,0.891,1.871,1.121,3.489c0.233,1.621,0.353,3.896,0.353,6.822c0,2.807-0.121,5.028-0.369,6.666
	c-0.231,1.636-0.62,2.829-1.16,3.579c-0.527,0.734-1.284,1.103-2.267,1.103c-0.994,0-1.757-0.354-2.282-1.059
	c-0.517-0.705-0.899-1.868-1.144-3.49c-0.234-1.634-0.351-3.9-0.351-6.799C171.508,344.858,171.618,342.591,171.839,340.988z"/>
<polygon points="163.773,358.948 157.822,358.948 157.822,331.932 152.925,331.932 146.422,337.089 146.422,342.063 
	152.647,337.313 152.647,358.948 146.215,358.948 146.215,363.653 163.773,363.653 "/>
<path d="M135.924,426.521c1.229,0,2.374-0.313,3.428-0.945c1.068-0.646,1.838-1.529,2.303-2.658
	c-0.023,3.334-0.428,5.85-1.215,7.543c-0.772,1.695-1.887,2.545-3.336,2.543c-1.729,0-2.833-1.102-3.312-3.311l-4.866,0.834
	c0.543,2.584,1.459,4.473,2.743,5.674c1.305,1.184,3.097,1.781,5.383,1.781c3.093,0,5.479-1.398,7.164-4.188
	c1.681-2.795,2.522-7.004,2.522-12.632c0-5.283-0.761-9.238-2.281-11.863c-1.513-2.644-3.823-3.964-6.931-3.964
	c-2.887,0-5.116,0.939-6.7,2.814c-1.575,1.876-2.359,4.479-2.359,7.812c0,3.243,0.668,5.816,2.005,7.72
	C131.825,425.576,133.642,426.521,135.924,426.521z M134.693,411.819c0.662-1.021,1.566-1.531,2.705-1.531
	c1.17,0,2.103,0.587,2.805,1.758c0.709,1.155,1.067,2.716,1.067,4.682c0,1.546-0.37,2.783-1.104,3.715
	c-0.729,0.913-1.641,1.372-2.744,1.372c-1.168,0-2.078-0.524-2.729-1.575c-0.652-1.065-0.978-2.479-0.978-4.231
	C133.715,414.221,134.041,412.825,134.693,411.819z"/>
<path d="M437.672,356.078h-12.05c0.342-0.976,0.866-1.893,1.565-2.746c0.711-0.855,1.498-1.705,2.359-2.543
	c0.858-0.842,1.743-1.705,2.65-2.59c0.921-0.885,1.757-1.831,2.509-2.836c0.747-1.022,1.357-2.133,1.84-3.333
	c0.477-1.199,0.719-2.543,0.719-4.029c0-2.821-0.75-5.013-2.248-6.574c-1.501-1.561-3.646-2.343-6.446-2.343
	c-2.592,0-4.642,0.773-6.155,2.32c-1.497,1.545-2.392,3.789-2.688,6.731l5.213,0.358c0.172-1.455,0.546-2.544,1.123-3.266
	c0.591-0.734,1.439-1.102,2.542-1.102c2.274,0,3.41,1.381,3.41,4.145c0,1.122-0.368,2.271-1.105,3.44
	c-0.725,1.172-1.998,2.658-3.812,4.458c-1.894,1.877-3.468,3.678-4.72,5.405c-1.24,1.726-2.197,3.496-2.871,5.313v4.39h18.164
	V356.078z"/>
<polygon points="386.888,304.119 380.939,304.119 380.939,277.102 376.043,277.102 369.539,282.257 369.539,287.234 
	375.766,282.484 375.766,304.12 369.333,304.12 369.333,308.823 386.888,308.823 "/>
<path d="M374.652,564.039c-1.043,0-1.906-0.309-2.596-0.922c-0.687-0.613-1.168-1.602-1.438-2.949l-5.176,0.516
	c0.368,2.715,1.331,4.799,2.894,6.236c1.571,1.428,3.657,2.143,6.262,2.143c2.983,0,5.328-0.994,7.036-2.975
	c1.719-1.998,2.58-4.676,2.58-8.039c0-3.225-0.741-5.777-2.231-7.654c-1.472-1.875-3.443-2.814-5.911-2.814
	c-1.883,0-3.443,0.676-4.697,2.027l0.421-8.012h10.908v-4.709h-15.604l-0.903,17.854h5.051c0.906-1.365,2.079-2.051,3.515-2.051
	c1.307,0,2.318,0.508,3.043,1.514c0.723,0.988,1.084,2.318,1.084,3.984c0,1.891-0.384,3.336-1.158,4.342
	C376.968,563.535,375.94,564.039,374.652,564.039z"/>
<path d="M433.284,486.826l-10.961,20.51v4.752h11.811v6.459h4.937v-6.459h3.463v-4.707h-3.464v-20.555H433.284z M434.192,494.367
	c-0.041,0.947-0.057,1.822-0.057,2.635h0.001v10.379h-7.589l6.021-11.189c0.835-1.59,1.412-2.809,1.732-3.646
	C434.276,492.818,434.24,493.419,434.192,494.367z"/>
<path d="M458.38,435.277c-2.504,0-3.928-1.52-4.258-4.566l-5.266,0.563c0.284,2.957,1.243,5.225,2.889,6.799
	c1.649,1.563,3.864,2.342,6.651,2.342c2.948,0,5.219-0.811,6.818-2.43c1.595-1.621,2.392-3.918,2.392-6.893
	c0-2.039-0.54-3.713-1.621-5.021c-1.068-1.318-2.598-2.121-4.589-2.408v-0.088c1.793-0.42,3.164-1.271,4.11-2.544
	c0.957-1.277,1.436-2.903,1.436-4.885c0-2.642-0.77-4.707-2.303-6.193c-1.521-1.5-3.641-2.251-6.356-2.251
	c-2.552,0-4.625,0.772-6.205,2.32c-1.587,1.545-2.514,3.682-2.784,6.417l5.181,0.45c0.097-1.321,0.471-2.343,1.121-3.064
	c0.661-0.718,1.532-1.079,2.598-1.079c1.144,0,2.006,0.374,2.598,1.126c0.604,0.736,0.903,1.754,0.903,3.062
	c0,1.382-0.377,2.447-1.123,3.198c-0.749,0.737-1.867,1.103-3.354,1.103h-1.697v5.109h1.808c1.646,0,2.887,0.379,3.724,1.125
	c0.835,0.754,1.251,1.83,1.251,3.244c0,1.547-0.343,2.695-1.033,3.443C460.583,434.904,459.617,435.277,458.38,435.277z"/>
<path d="M451.735,324.82l0.813,1.343l5.343-3.237l-0.661-1.089c-0.418,0.042-0.871-0.068-1.368-0.333
	c-0.493-0.264-0.886-0.547-1.187-0.844l-0.928,0.56c0.572,0.567,1.183,0.991,1.828,1.271L451.735,324.82z"/>
<path d="M454.649,328.492c-0.145,0.659-0.011,1.33,0.402,2.014c0.413,0.682,0.918,1.101,1.51,1.261
	c0.718,0.194,1.583-0.016,2.589-0.627c1.012-0.609,1.595-1.274,1.751-1.997c0.136-0.604,0-1.248-0.413-1.929
	c-0.414-0.68-0.913-1.101-1.508-1.261c-0.72-0.193-1.581,0.014-2.583,0.622C455.374,327.193,454.795,327.832,454.649,328.492z
	 M458.656,327.323c0.248-0.054,0.446-0.039,0.604,0.042c0.156,0.078,0.283,0.199,0.38,0.363c0.101,0.16,0.146,0.329,0.147,0.506
	c-0.003,0.173-0.096,0.372-0.28,0.596c-0.184,0.225-0.585,0.527-1.209,0.904c-0.625,0.379-1.097,0.602-1.413,0.667
	c-0.248,0.053-0.448,0.039-0.604-0.042c-0.155-0.08-0.282-0.201-0.383-0.363c-0.097-0.163-0.147-0.331-0.145-0.504
	c0-0.174,0.093-0.373,0.273-0.598c0.186-0.225,0.59-0.525,1.21-0.904C457.864,327.614,458.335,327.389,458.656,327.323z"/>
<path d="M483.771,414.829c-0.286-0.482-0.481-0.928-0.584-1.339l-1.081,0.002c0.198,0.781,0.498,1.456,0.908,2.034l-4.498,0.001
	v1.572l6.246-0.004v-1.276C484.386,415.641,484.055,415.31,483.771,414.829z"/>
<path d="M481.42,419.663l-0.143,1.277c0.303,0.355,0.453,0.762,0.453,1.215c0.005,0.359-0.094,0.656-0.283,0.879
	c-0.192,0.227-0.478,0.34-0.86,0.34c-0.408,0-0.711-0.113-0.915-0.34c-0.199-0.23-0.304-0.506-0.304-0.834
	c0-0.287,0.078-0.539,0.234-0.761c0.157-0.222,0.372-0.355,0.638-0.4l-0.122-1.566c-0.521,0.092-0.935,0.378-1.242,0.857
	c-0.311,0.478-0.466,1.096-0.466,1.853c0,0.949,0.278,1.689,0.827,2.225c0.402,0.393,0.859,0.586,1.371,0.586
	c0.615,0,1.113-0.242,1.496-0.729c0.388-0.484,0.577-1.078,0.577-1.775c0-0.365-0.062-0.723-0.198-1.073l1.057,0.247v2.963h1.119
	l-0.003-4.158L481.42,419.663z"/>
<path d="M385.837,260.658c-0.161,0.501-0.107,1.001,0.168,1.5c0.278,0.498,0.751,0.924,1.419,1.281
	c0.837,0.447,1.621,0.553,2.35,0.321c0.532-0.17,0.922-0.481,1.166-0.932c0.288-0.543,0.308-1.098,0.06-1.666
	c-0.242-0.566-0.677-1.017-1.29-1.344c-0.326-0.174-0.672-0.283-1.046-0.332l0.717-0.817l2.62,1.399l0.523-0.984l-3.675-1.96
	l-2.234,2.476l1.063,0.727c0.459-0.1,0.888-0.041,1.284,0.171c0.323,0.169,0.536,0.392,0.646,0.668
	c0.11,0.275,0.075,0.58-0.104,0.917c-0.195,0.361-0.439,0.575-0.733,0.646c-0.295,0.072-0.59,0.03-0.879-0.125
	c-0.252-0.134-0.442-0.324-0.561-0.565c-0.122-0.242-0.141-0.492-0.052-0.752L385.837,260.658z"/>
<path d="M296.788,235.683c-0.468-0.38-1.032-0.571-1.688-0.571c-0.581,0-1.068,0.177-1.46,0.527
	c0.061-0.715,0.203-1.187,0.434-1.413c0.23-0.225,0.508-0.34,0.845-0.34c0.246,0,0.45,0.057,0.608,0.171
	c0.156,0.113,0.252,0.288,0.289,0.525l1.523-0.126c-0.11-0.504-0.368-0.888-0.78-1.151c-0.407-0.265-0.923-0.397-1.547-0.397
	c-0.893,0-1.612,0.251-2.167,0.755c-0.558,0.503-0.836,1.326-0.836,2.467c0,1.111,0.268,1.912,0.803,2.399
	c0.531,0.489,1.215,0.732,2.041,0.732c0.776,0,1.409-0.192,1.898-0.579c0.495-0.383,0.742-0.894,0.742-1.53
	C297.493,236.551,297.259,236.061,296.788,235.683z M295.661,238.01c-0.194,0.175-0.438,0.26-0.729,0.26
	c-0.303,0-0.573-0.105-0.805-0.316c-0.235-0.211-0.356-0.509-0.356-0.896c0-0.352,0.108-0.618,0.314-0.796
	c0.209-0.181,0.467-0.27,0.767-0.27c0.315,0,0.576,0.092,0.785,0.282c0.209,0.187,0.312,0.483,0.312,0.89
	C295.948,237.557,295.853,237.838,295.661,238.01z"/>
<path d="M301.047,239.259c0.792,0,1.413-0.212,1.854-0.637c0.542-0.514,0.813-1.361,0.813-2.538c0-1.179-0.271-2.024-0.803-2.533
	c-0.447-0.43-1.07-0.645-1.863-0.645c-0.796,0-1.416,0.211-1.857,0.636c-0.54,0.515-0.811,1.36-0.811,2.529
	c0,1.195,0.247,2.025,0.735,2.49C299.603,239.027,300.248,239.259,301.047,239.259z M300.191,234.527
	c0.082-0.237,0.2-0.403,0.347-0.495c0.149-0.092,0.317-0.137,0.51-0.137c0.188,0,0.358,0.045,0.507,0.138
	c0.146,0.092,0.267,0.275,0.367,0.548c0.094,0.274,0.142,0.774,0.142,1.504s-0.054,1.249-0.158,1.554
	c-0.083,0.237-0.201,0.402-0.349,0.494c-0.151,0.093-0.321,0.138-0.51,0.138c-0.193,0-0.361-0.045-0.507-0.135
	c-0.149-0.09-0.27-0.273-0.365-0.545c-0.099-0.274-0.147-0.776-0.147-1.506S300.081,234.836,300.191,234.527z"/>
<path d="M457.361,515.353c-0.042-0.129-0.078-0.277-0.099-0.449c-0.024-0.172-0.037-0.563-0.058-1.166
	c-0.015-0.607-0.049-1.037-0.096-1.295c-0.072-0.395-0.179-0.719-0.318-0.967c-0.139-0.25-0.323-0.453-0.561-0.605
	c-0.408-0.271-0.879-0.303-1.41-0.1c-0.533,0.203-1.023,0.645-1.465,1.32c-0.405,0.615-0.623,1.211-0.66,1.779
	c-0.031,0.568,0.2,1.074,0.7,1.51l0.96-1.244c-0.274-0.213-0.419-0.441-0.439-0.688c-0.018-0.244,0.063-0.506,0.243-0.777
	c0.181-0.281,0.386-0.459,0.606-0.537c0.227-0.076,0.448-0.045,0.669,0.102c0.201,0.135,0.346,0.357,0.431,0.674
	c0.063,0.232,0.107,0.783,0.137,1.648c0.034,1.076,0.125,1.846,0.271,2.297c0.147,0.457,0.383,0.824,0.7,1.105l3.033-4.605
	l-0.927-0.609L457.361,515.353z"/>
<path d="M462.632,508.398c-0.135-0.729-0.695-1.422-1.681-2.068c-0.983-0.65-1.835-0.891-2.555-0.723
	c-0.606,0.139-1.126,0.537-1.563,1.199c-0.437,0.666-0.604,1.301-0.492,1.906c0.138,0.73,0.693,1.422,1.671,2.063
	c0.997,0.658,1.826,0.908,2.482,0.756c0.658-0.15,1.206-0.561,1.646-1.23C462.576,509.636,462.741,509.003,462.632,508.398z
	 M461.315,509.757c-0.105,0.162-0.239,0.277-0.391,0.35c-0.155,0.072-0.377,0.076-0.657,0.006c-0.283-0.068-0.732-0.305-1.337-0.705
	c-0.609-0.402-1.015-0.73-1.213-0.992c-0.153-0.199-0.228-0.385-0.225-0.563c0.011-0.174,0.063-0.342,0.167-0.5
	s0.236-0.275,0.395-0.346c0.156-0.072,0.377-0.076,0.66-0.008c0.276,0.068,0.726,0.305,1.335,0.705
	c0.608,0.402,1.014,0.73,1.209,0.99c0.153,0.199,0.227,0.389,0.218,0.563C461.474,509.429,461.417,509.599,461.315,509.757z"/>
<path d="M222.236,240.997c-23.19,9.809-44.02,23.854-61.913,41.744c-17.892,17.896-31.936,38.727-41.74,61.911
	c-10.157,24.017-15.306,49.525-15.306,75.816c0,26.294,5.149,51.802,15.306,75.816c9.806,23.189,23.85,44.02,41.74,61.913
	c17.885,17.883,38.716,31.926,61.913,41.739c24.015,10.16,49.522,15.312,75.814,15.312c26.3,0,51.809-5.151,75.818-15.312
	c23.199-9.814,44.029-23.857,61.912-41.739c17.887-17.887,31.932-38.717,41.743-61.913c10.156-24.004,15.306-49.513,15.306-75.816
	c0-26.301-5.149-51.81-15.306-75.816c-9.81-23.191-23.854-44.021-41.743-61.911c-17.889-17.889-38.719-31.933-61.912-41.744
	c-24.011-10.157-49.52-15.307-75.818-15.307C271.758,225.69,246.25,230.84,222.236,240.997z M298.05,227.145
	c106.601,0,193.327,86.725,193.328,193.323c0,106.599-86.727,193.324-193.328,193.324c-106.598,0-193.322-86.725-193.322-193.324
	C104.728,313.869,191.452,227.145,298.05,227.145z"/>
<path d="M109.079,438.393l-0.007,0.001l0.055,0.569c0.609,6.288,1.54,12.576,2.758,18.705l-0.008,0.001l0.205,1.032
	c1.238,6.059,2.819,12.18,4.693,18.202l-0.005,0.001l0.116,0.369c0.006,0.018,0.011,0.036,0.017,0.055l0.002,0.004l0.038,0.121
	c1.808,5.748,3.892,11.425,6.194,16.872c4.753,11.241,10.64,22.087,17.498,32.236c4.516,6.686,9.572,13.2,15.022,19.378
	l-0.006,0.005l0.381,0.43h0l0.278,0.314l0.003-0.002c2.514,2.821,5.032,5.499,7.491,7.958c8.597,8.596,18.046,16.393,28.085,23.174
	c8.826,5.962,18.235,11.213,27.97,15.618l-0.001,0.003l0.253,0.114c0.042,0.019,0.083,0.039,0.125,0.058l0.531,0.239l0.002-0.006
	c1.114,0.498,2.23,0.991,3.353,1.467c10.796,4.566,22.134,8.142,33.702,10.637l-0.001,0.006l1.117,0.242
	c0.269,0.06,0.538,0.12,0.808,0.175c5.779,1.182,11.762,2.104,17.789,2.749l0,0.007l0.553,0.058c6.634,0.69,13.33,1.04,19.903,1.04
	c6.438,0,12.987-0.34,19.472-1.002l0.001,0.006l0.393-0.041c0.01-0.001,0.019-0.002,0.028-0.003l0.004-0.001l0.122-0.013
	c6.166-0.646,12.298-1.588,18.224-2.8c12.198-2.498,24.183-6.22,35.621-11.06c11.245-4.754,22.092-10.64,32.238-17.493
	c7.571-5.113,14.88-10.876,21.733-17.127l0.002,0.002l0.248-0.228c0.019-0.017,0.037-0.033,0.056-0.05l0.433-0.396l-0.002-0.002
	c2.009-1.851,3.852-3.613,5.61-5.373c8.59-8.586,16.386-18.035,23.173-28.083c6.344-9.393,11.88-19.447,16.468-29.893l0.004,0.002
	l0.502-1.142c0.178-0.4,0.354-0.802,0.525-1.204c2.201-5.206,4.206-10.65,5.97-16.189l0.006,0.002l0.168-0.533
	c1.972-6.249,3.625-12.609,4.913-18.9l0.004-0.037l0.066-0.327c2.511-12.391,3.784-25.136,3.784-37.882
	c0-12.883-1.297-25.75-3.854-38.244c-1.435-7.007-3.32-14.068-5.596-20.996l0.008-0.002l-0.182-0.548
	c-1.601-4.828-3.38-9.563-5.287-14.074c-0.559-1.319-1.138-2.631-1.727-3.938l0.003-0.001l-0.123-0.271
	c-0.02-0.043-0.037-0.086-0.057-0.129l-0.231-0.51l-0.006,0.002c-4.35-9.521-9.513-18.733-15.358-27.387
	c-6.785-10.046-14.582-19.495-23.173-28.083c-6.964-6.965-14.577-13.464-22.63-19.328l0.003-0.004l-0.457-0.331
	c-0.009-0.006-0.017-0.012-0.026-0.019l-0.321-0.234l-0.001,0.001c-1.736-1.253-3.229-2.3-4.647-3.258
	c-10.158-6.86-21.005-12.747-32.238-17.497c-11.044-4.671-22.623-8.299-34.421-10.795l0.001-0.006l-1.201-0.257
	c-6.073-1.242-12.306-2.192-18.531-2.835v-0.005l-0.38-0.038c-0.009-0.001-0.017-0.002-0.025-0.003h-0.003l-0.122-0.012
	c-12.706-1.276-25.622-1.274-38.425,0.015l0-0.004l-0.331,0.034c-0.033,0.003-0.065,0.005-0.098,0.009l-0.57,0.059l0.001,0.007
	c-6.083,0.645-12.138,1.574-18.004,2.774c-0.269,0.055-0.536,0.115-0.804,0.174l-1.144,0.247l0.001,0.006
	c-5.945,1.283-11.902,2.876-17.725,4.74l-0.002-0.005l-0.389,0.125c-0.005,0.002-0.01,0.003-0.015,0.005l-0.544,0.176l0.001,0.005
	c-5.17,1.685-10.218,3.561-15.006,5.585c-0.95,0.402-1.893,0.821-2.835,1.241l-0.002-0.004l-0.491,0.219
	c-0.036,0.016-0.07,0.033-0.106,0.049l-0.315,0.14l0.002,0.003c-9.935,4.462-19.517,9.79-28.485,15.848
	c-7.098,4.795-13.898,10.094-20.306,15.819l-0.019-0.018l-0.248,0.256c-2.57,2.304-5.076,4.678-7.513,7.115
	c-6.678,6.676-12.943,13.971-18.631,21.684l-0.003-0.002l-0.221,0.301c-0.011,0.014-0.021,0.028-0.032,0.042l-0.339,0.462
	l0.002,0.001c-1.475,2.019-2.772,3.857-3.946,5.595c-6.857,10.148-12.745,20.994-17.498,32.235
	c-1.883,4.456-3.638,9.131-5.224,13.898l-0.003-0.001l-0.104,0.314c-0.008,0.025-0.017,0.05-0.025,0.075l-0.187,0.564l0.007,0.002
	c-1.933,5.913-3.588,11.981-4.924,18.056l-0.006-0.001l-0.282,1.292c-0.105,0.474-0.21,0.947-0.307,1.421
	c-2.559,12.495-3.856,25.362-3.856,38.244C108.227,426.367,108.517,432.397,109.079,438.393z M482.045,379.354l-8.638,1.946
	c-1.282-5.755-2.853-11.457-4.7-17.067l8.475-2.543C479.076,367.452,480.713,373.386,482.045,379.354z M145.068,530.671l7.186-5.284
	c3.458,4.798,7.16,9.44,11.073,13.88l-6.785,5.754C152.483,540.418,148.628,535.597,145.068,530.671z M113.288,458.56l8.858-1.609
	c1.17,5.668,2.655,11.39,4.411,17.023l-8.652,2.47C116.078,470.579,114.527,464.57,113.288,458.56z M110.371,439.423l8.997-0.642
	c0.578,5.692,1.426,11.35,2.537,16.94l-8.864,1.611C111.871,451.454,110.974,445.436,110.371,439.423z M129.287,362.228
	c1.309-3.794,2.745-7.54,4.305-11.227c4.477-10.581,10.015-20.783,16.459-30.321c6.379-9.446,13.712-18.335,21.796-26.422
	c8.079-8.076,16.968-15.41,26.42-21.796c9.543-6.447,19.746-11.984,30.326-16.458c1.765-0.747,3.542-1.465,5.332-2.154
	c14.336-5.48,29.607-9.188,45.566-10.847l0.013-0.003l0.111-0.011c6.106-0.63,12.315-0.95,18.454-0.95
	c43.744,0,85.861,16.063,118.591,45.231l0.129,0.114c9.188,8.205,17.553,17.378,24.86,27.265l0.109,0.149
	c22.74,30.833,34.76,67.378,34.76,105.686c0,12.014-1.21,24.037-3.596,35.734l-0.05,0.242c-1.215,5.909-2.763,11.854-4.602,17.675
	l-0.06,0.188c-5.675,17.891-14.132,34.726-25.135,50.041l-0.117,0.162c-3.629,5.039-7.578,9.959-11.737,14.621l-0.106,0.119
	c-4.084,4.569-8.413,8.947-12.867,13.013l-0.163,0.149c-4.693,4.272-9.72,8.373-14.939,12.19l-0.149,0.108
	c-9.97,7.273-20.688,13.511-31.854,18.543l-0.224,0.101c-5.57,2.502-11.376,4.749-17.255,6.682l-0.197,0.064
	c-5.901,1.933-11.972,3.57-18.042,4.869l-0.189,0.04c-12.179,2.591-24.683,3.905-37.166,3.905c-22.484,0-44.158-4.146-64.191-11.829
	c-1.776-0.684-3.538-1.396-5.284-2.135c-10.588-4.479-20.792-10.018-30.326-16.461c-9.461-6.395-18.351-13.729-26.42-21.8
	c-6.805-6.806-13.113-14.233-18.76-22.081l0.012-0.014l-0.313-0.399c-0.706-0.985-1.403-1.977-2.088-2.976
	c-9.648-14.17-17.38-29.925-22.777-46.953l-0.002-0.004l-0.036-0.114c-1.859-5.88-3.422-11.9-4.647-17.894l-0.045-0.223
	c-2.365-11.647-3.564-23.613-3.564-35.565C119.626,400.12,123.017,380.509,129.287,362.228z M177.479,553.614
	c4.365,3.954,8.931,7.698,13.661,11.209l-5.084,7.295c-4.987-3.69-9.799-7.636-14.411-11.807L177.479,553.614z M242.783,591.429
	c5.586,1.801,11.277,3.342,17.036,4.593l-1.868,8.722c-6.07-1.317-12.078-2.94-17.987-4.854L242.783,591.429z M336.239,596.036
	c5.739-1.244,11.479-2.789,17.083-4.599l2.933,8.371c-5.938,1.935-11.972,3.568-17.955,4.877L336.239,596.036z M404.333,565.303
	c4.983-3.662,9.781-7.577,14.281-11.65l6.219,6.221c-4.758,4.334-9.691,8.401-14.796,12.191L404.333,565.303z M432.558,539.542
	c3.923-4.428,7.653-9.078,11.103-13.841l7.254,4.973c-3.607,4.99-7.465,9.813-11.548,14.439L432.558,539.542z M469.573,474.031
	c1.747-5.599,3.222-11.279,4.388-16.905l8.692,1.655c-1.244,5.997-2.809,12.019-4.657,17.921L469.573,474.031z M474.206,455.899
	c1.157-5.791,2.044-11.758,2.63-17.761l8.787,1.283c-0.612,6.099-1.525,12.156-2.724,18.136L474.206,455.899z M476.509,399.773
	c-0.598-5.21-1.407-10.384-2.453-15.491c-0.12-0.588-0.257-1.174-0.384-1.761l8.637-1.945c1.271,5.88,2.273,11.889,2.978,17.913
	L476.509,399.773z M442.363,313.502c-3.441-4.633-7.116-9.089-10.96-13.351l6.872-5.541c3.949,4.397,7.688,8.973,11.209,13.714
	L442.363,313.502z M417.091,285.965c-4.32-3.825-8.815-7.444-13.424-10.804l5.229-7.115c4.933,3.599,9.68,7.425,14.225,11.465
	L417.091,285.965z M352.759,249.341c-5.637-1.799-11.362-3.319-17.142-4.548l1.713-8.775c6.26,1.333,12.413,2.968,18.448,4.909
	L352.759,249.341z M259.858,244.939c-5.517,1.196-10.984,2.655-16.369,4.371l-2.896-8.483c5.688-1.821,11.515-3.384,17.344-4.65
	L259.858,244.939z M192.353,275.258c-4.629,3.377-9.105,6.98-13.399,10.786l-6.441-6.226c4.688-4.187,9.638-8.183,14.73-11.89
	L192.353,275.258z M164.555,300.324c-3.869,4.298-7.533,8.783-10.967,13.423l-7.304-5.158c3.613-4.886,7.464-9.606,11.533-14.129
	L164.555,300.324z M127.425,364.274c-1.845,5.605-3.413,11.304-4.694,17.061l-8.844-1.728c1.326-5.979,2.956-11.933,4.852-17.723
	L127.425,364.274z M122.465,382.554c-0.124,0.577-0.258,1.151-0.376,1.729c-1.046,5.116-1.856,10.296-2.454,15.51l-8.927-1.307
	c0.694-5.932,1.66-11.829,2.912-17.657L122.465,382.554z M119.494,401.033c-0.695,6.451-1.056,12.95-1.056,19.451
	c0,5.691,0.279,11.386,0.814,17.053l-9.001,0.643c-0.554-5.917-0.841-11.876-0.841-17.721c0-6.921,0.389-13.848,1.148-20.731
	L119.494,401.033z M126.933,475.167c1.663,5.21,3.55,10.335,5.625,15.239c0.155,0.367,0.322,0.73,0.48,1.097l-7.983,4.102
	c-2.567-5.884-4.842-11.921-6.771-17.966L126.933,475.167z M133.54,492.651c4.325,9.84,9.552,19.341,15.58,28.265
	c0.785,1.163,1.589,2.314,2.404,3.459l-7.186,5.282c-7.336-10.294-13.654-21.356-18.782-32.903L133.54,492.651z M164.161,540.199
	c2.235,2.501,4.531,4.941,6.891,7.302c1.795,1.795,3.636,3.547,5.509,5.268l-5.841,6.706c-4.671-4.28-9.129-8.795-13.348-13.517
	L164.161,540.199z M192.149,565.559c1.809,1.323,3.634,2.623,5.489,3.876c8.219,5.556,16.934,10.436,25.961,14.556l-3.384,8.246
	c-11.617-5.281-22.764-11.798-33.153-19.381L192.149,565.559z M224.739,584.506c1.135,0.509,2.272,1.011,3.417,1.495
	c4.39,1.857,8.881,3.531,13.442,5.037l-2.819,8.464c-5.921-1.961-11.741-4.215-17.422-6.752L224.739,584.506z M261.038,596.29
	l0.047,0.01c0.261,0.059,0.522,0.116,0.786,0.17c5.437,1.111,10.949,1.959,16.5,2.563l-0.846,8.892
	c-6.115-0.663-12.281-1.644-18.351-2.919L261.038,596.29z M279.614,599.173c6.119,0.624,12.285,0.94,18.455,0.94
	c6.043,0,12.08-0.303,18.072-0.9l1.054,8.846c-12.764,1.297-25.688,1.294-38.427-0.003L279.614,599.173z M317.385,599.077
	c5.685-0.606,11.327-1.47,16.889-2.607c0.249-0.051,0.497-0.105,0.744-0.161l2.059,8.641c-6.162,1.304-12.425,2.304-18.639,2.979
	L317.385,599.077z M367.995,586.001c0.982-0.417,1.959-0.85,2.935-1.285l3.864,7.95c-5.646,2.52-11.431,4.778-17.355,6.75
	l-2.929-8.365C359.159,589.514,363.696,587.819,367.995,586.001z M372.069,584.206c9.219-4.177,18.112-9.141,26.438-14.77
	c1.467-0.99,3.052-2.107,4.818-3.389l5.699,6.754c-10.364,7.587-21.411,14.062-33.081,19.361L372.069,584.206z M419.539,552.81
	c1.912-1.756,3.782-3.538,5.554-5.31c2.169-2.169,4.399-4.531,6.634-7.02l6.805,5.566c-4.051,4.529-8.317,8.866-12.777,12.981
	L419.539,552.81z M444.395,524.691c1-1.398,1.85-2.616,2.633-3.775c6.016-8.901,11.237-18.392,15.565-28.232l8.041,3.597
	c-5.166,11.718-11.547,22.944-18.985,33.382L444.395,524.691z M463.095,491.538c0.163-0.378,0.335-0.753,0.495-1.132
	c2.067-4.89,3.949-9.996,5.604-15.183l8.423,2.67c-1.859,5.799-4.037,11.593-6.483,17.243L463.095,491.538z M485.734,438.175
	l-8.784-1.287c0.499-5.512,0.758-11.028,0.758-16.405c0-6.511-0.361-13.017-1.058-19.47l8.771-1.281
	c0.761,6.925,1.153,13.894,1.153,20.726C486.574,426.374,486.285,432.291,485.734,438.175z M468.322,363.043
	c-1.422-4.219-3-8.385-4.731-12.48c-0.519-1.226-1.055-2.445-1.602-3.66l8.052-3.626c2.51,5.574,4.777,11.361,6.748,17.225
	L468.322,363.043z M461.468,345.768c-4.1-8.945-8.938-17.578-14.439-25.717c-1.193-1.766-2.483-3.589-3.918-5.546l7.116-5.175
	c7.502,10.244,13.985,21.231,19.295,32.813L461.468,345.768z M430.571,299.219c-1.794-1.961-3.612-3.891-5.478-5.755
	c-2.187-2.186-4.564-4.428-7.063-6.671l6.014-6.439c4.689,4.223,9.156,8.672,13.393,13.328L430.571,299.219z M402.65,274.434
	c-1.374-0.987-2.752-1.964-4.144-2.903c-8.551-5.78-17.707-10.863-27.22-15.117l3.638-8.131
	c11.521,5.169,22.533,11.521,32.963,19.028L402.65,274.434z M370.143,255.906c-0.714-0.317-1.429-0.633-2.147-0.937
	c-4.598-1.946-9.292-3.687-14.049-5.243l3.015-8.403c5.716,1.881,11.328,4.028,16.823,6.449L370.143,255.906z M334.397,244.527
	c-0.041-0.009-0.082-0.019-0.123-0.027c-5.572-1.14-11.225-2.005-16.916-2.612l0.415-8.975c6.103,0.64,12.264,1.596,18.336,2.847
	L334.397,244.527z M316.111,241.752c-5.984-0.597-12.012-0.899-18.042-0.899c-5.97,0-12.03,0.309-18.023,0.906l-1.034-8.925
	c12.432-1.248,25.105-1.262,37.52-0.046L316.111,241.752z M278.804,241.888c-5.718,0.609-11.413,1.483-16.933,2.612
	c-0.266,0.054-0.529,0.117-0.794,0.173l-1.917-8.758c6.165-1.296,12.417-2.288,18.61-2.952L278.804,241.888z M242.299,249.695
	c-4.79,1.563-9.515,3.315-14.143,5.274c-0.732,0.31-1.458,0.637-2.187,0.957l-4.01-8.02c5.664-2.504,11.525-4.754,17.444-6.693
	L242.299,249.695z M224.822,256.427c-9.456,4.229-18.587,9.296-27.184,15.104c-1.44,0.973-2.862,1.975-4.274,2.99l-5.106-7.327
	c10.207-7.329,21.154-13.644,32.559-18.78L224.822,256.427z M171.577,280.651l6.438,6.226c-2.378,2.137-4.705,4.33-6.962,6.587
	c-1.932,1.932-3.818,3.914-5.662,5.934l-6.73-5.862C162.762,289.036,167.072,284.728,171.577,280.651z M152.853,314.755
	c-1.274,1.747-2.526,3.508-3.733,5.295c-5.5,8.142-10.336,16.767-14.429,25.694l-8.359-3.301
	c5.26-11.531,11.684-22.525,19.212-32.849L152.853,314.755z M134.169,346.88c-0.55,1.223-1.09,2.45-1.612,3.683
	c-1.737,4.106-3.32,8.286-4.748,12.522l-8.68-2.388c1.949-5.82,4.179-11.529,6.682-17.115L134.169,346.88z"/>
<path d="M207.944,260.634c0.165-0.437,0.45-0.765,0.843-0.982c0.319-0.176,0.623-0.237,0.911-0.177
	c0.291,0.058,0.53,0.254,0.716,0.588c0.194,0.358,0.243,0.68,0.14,0.966c-0.101,0.288-0.294,0.51-0.583,0.669
	c-0.248,0.14-0.511,0.193-0.781,0.162c-0.265-0.031-0.486-0.153-0.657-0.367l-1.313,0.866c0.334,0.411,0.788,0.636,1.351,0.673
	c0.568,0.04,1.183-0.125,1.849-0.49c0.833-0.46,1.346-1.056,1.547-1.797c0.148-0.54,0.099-1.035-0.146-1.484
	c-0.303-0.537-0.754-0.856-1.362-0.96c-0.611-0.101-1.224,0.017-1.836,0.354c-0.32,0.178-0.602,0.408-0.844,0.696l-0.298-1.044
	l2.602-1.436l-0.538-0.976l-3.646,2.011l0.861,3.226L207.944,260.634z"/>
<path d="M202.36,263.72c0.17-0.437,0.451-0.765,0.849-0.984c0.315-0.175,0.62-0.236,0.904-0.177c0.297,0.06,0.529,0.255,0.715,0.589
	c0.198,0.357,0.247,0.678,0.146,0.966c-0.104,0.287-0.298,0.511-0.587,0.67c-0.25,0.138-0.506,0.192-0.776,0.161
	c-0.268-0.033-0.489-0.153-0.659-0.368l-1.313,0.865c0.335,0.412,0.785,0.637,1.35,0.677c0.566,0.039,1.185-0.127,1.848-0.492
	c0.83-0.461,1.349-1.057,1.549-1.794c0.149-0.543,0.097-1.038-0.147-1.486c-0.296-0.536-0.753-0.857-1.363-0.959
	c-0.611-0.103-1.226,0.016-1.836,0.353c-0.317,0.177-0.602,0.409-0.842,0.695l-0.295-1.045l2.599-1.436l-0.538-0.976l-3.644,2.011
	l0.858,3.226L202.36,263.72z"/>
<path d="M136.211,332.631l0.787-1.016c-0.072-0.464,0.01-0.888,0.244-1.274c0.189-0.308,0.428-0.509,0.705-0.6
	c0.283-0.097,0.583-0.041,0.912,0.157c0.347,0.214,0.551,0.469,0.604,0.768c0.053,0.302-0.006,0.591-0.179,0.87
	c-0.15,0.246-0.349,0.422-0.599,0.528c-0.248,0.107-0.501,0.108-0.751,0.006l-0.713,1.402c0.493,0.191,0.996,0.164,1.51-0.085
	c0.511-0.246,0.963-0.692,1.359-1.339c0.496-0.809,0.645-1.587,0.456-2.327c-0.136-0.543-0.424-0.948-0.867-1.217
	c-0.52-0.32-1.073-0.372-1.656-0.16c-0.578,0.215-1.051,0.619-1.416,1.215c-0.191,0.313-0.32,0.652-0.388,1.021l-0.776-0.76
	l1.548-2.533l-0.953-0.583l-2.166,3.552L136.211,332.631z"/>
<path d="M139.265,327.281c1.021,0.622,1.856,0.847,2.51,0.67c0.652-0.175,1.185-0.602,1.601-1.282
	c0.417-0.679,0.557-1.318,0.426-1.921c-0.156-0.724-0.739-1.396-1.745-2.01c-1.006-0.615-1.866-0.828-2.58-0.639
	c-0.6,0.158-1.107,0.576-1.521,1.257c-0.414,0.679-0.559,1.318-0.43,1.918C137.687,326.002,138.266,326.671,139.265,327.281z
	 M138.796,323.872c0.102-0.162,0.226-0.282,0.383-0.362c0.156-0.077,0.377-0.087,0.66-0.027c0.284,0.061,0.736,0.28,1.358,0.659
	c0.623,0.384,1.037,0.698,1.24,0.949c0.163,0.195,0.239,0.379,0.239,0.553c0.001,0.178-0.043,0.348-0.146,0.51
	c-0.101,0.162-0.227,0.283-0.377,0.361c-0.154,0.079-0.376,0.086-0.658,0.027c-0.283-0.057-0.736-0.278-1.359-0.659
	c-0.624-0.381-1.038-0.699-1.247-0.952c-0.158-0.192-0.237-0.376-0.237-0.552C138.649,324.203,138.7,324.033,138.796,323.872z"/>
<path d="M117.092,421.113l-1.253,0.007l-0.005-1.021l-1.049,0.004l0.007,1.021l-3.949,0.014l0.005,1.321l3.969,3.545l1.043-0.002
	l-0.012-3.359l1.253-0.008L117.092,421.113z M112.673,422.658l2.126-0.014l0.004,1.889L112.673,422.658z"/>
<path d="M142.762,513.57c-0.422-0.676-0.929-1.09-1.521-1.244c-0.724-0.184-1.582,0.035-2.574,0.654
	c-1.015,0.637-1.586,1.275-1.727,1.938c-0.133,0.664,0.007,1.332,0.43,2.012c0.421,0.676,0.928,1.084,1.522,1.238
	c0.727,0.184,1.583-0.033,2.584-0.656c0.999-0.625,1.576-1.299,1.726-2.021C143.328,514.882,143.185,514.242,142.762,513.57z
	 M141.801,515.197c-0.176,0.225-0.576,0.531-1.197,0.92c-0.617,0.387-1.085,0.613-1.403,0.682c-0.245,0.057-0.445,0.047-0.603-0.033
	c-0.158-0.076-0.289-0.193-0.387-0.357c-0.103-0.162-0.15-0.328-0.153-0.502c0-0.176,0.09-0.373,0.27-0.604
	c0.182-0.225,0.581-0.529,1.2-0.918c0.617-0.385,1.089-0.615,1.405-0.686c0.243-0.055,0.45-0.045,0.605,0.033
	c0.156,0.076,0.282,0.197,0.386,0.359c0.098,0.164,0.15,0.328,0.15,0.502S141.986,514.968,141.801,515.197z"/>
<path d="M211.404,580.917l0.574-0.961l-3.574-2.127l-2.352,2.369l1.025,0.771c0.462-0.078,0.886,0.002,1.274,0.232
	c0.312,0.184,0.515,0.416,0.611,0.695c0.096,0.283,0.048,0.588-0.15,0.912c-0.21,0.352-0.461,0.553-0.762,0.609
	c-0.297,0.059-0.589,0.002-0.869-0.162c-0.25-0.15-0.425-0.344-0.535-0.594c-0.108-0.246-0.113-0.498-0.016-0.752l-1.41-0.699
	c-0.185,0.5-0.153,1,0.102,1.51c0.253,0.508,0.706,0.957,1.354,1.348c0.815,0.482,1.593,0.625,2.332,0.43
	c0.544-0.146,0.942-0.439,1.206-0.879c0.314-0.525,0.363-1.078,0.145-1.658c-0.223-0.578-0.631-1.049-1.231-1.406
	c-0.314-0.188-0.655-0.311-1.025-0.379l0.751-0.777L211.404,580.917z"/>
<path d="M296.268,604.365c0.786-0.328,1.183-0.764,1.183-1.311c0-0.383-0.191-0.727-0.577-1.033
	c-0.468-0.373-1.085-0.563-1.859-0.563c-0.452,0-0.858,0.063-1.223,0.193c-0.363,0.129-0.652,0.307-0.854,0.529
	c-0.201,0.227-0.353,0.523-0.456,0.904l1.45,0.189c0.043-0.275,0.159-0.482,0.348-0.625c0.193-0.143,0.42-0.211,0.689-0.211
	c0.271,0,0.489,0.061,0.654,0.188c0.164,0.123,0.246,0.291,0.246,0.5c0,0.244-0.11,0.443-0.334,0.592
	c-0.226,0.148-0.55,0.219-0.976,0.211l-0.175,0.975c0.281-0.063,0.521-0.094,0.721-0.094c0.311,0,0.567,0.09,0.78,0.268
	c0.214,0.172,0.32,0.41,0.32,0.711c0,0.316-0.111,0.568-0.333,0.754c-0.224,0.184-0.494,0.281-0.818,0.281
	c-0.308,0-0.563-0.078-0.776-0.234c-0.211-0.156-0.342-0.379-0.39-0.674l-1.524,0.139c0.076,0.525,0.363,0.947,0.854,1.273
	c0.492,0.324,1.102,0.486,1.847,0.486c0.781,0,1.438-0.193,1.967-0.576c0.523-0.387,0.787-0.852,0.787-1.398
	c0-0.377-0.139-0.697-0.423-0.959C297.113,604.613,296.736,604.441,296.268,604.365z"/>
<path d="M394.758,576.425c-0.612-0.111-1.224,0.004-1.838,0.332c-0.321,0.174-0.604,0.4-0.852,0.688l-0.284-1.049l2.61-1.406
	l-0.526-0.984l-3.665,1.975l0.829,3.232l1.19-0.479c0.169-0.439,0.455-0.766,0.854-0.98c0.315-0.17,0.619-0.227,0.908-0.164
	c0.288,0.061,0.527,0.26,0.705,0.596c0.197,0.357,0.24,0.682,0.134,0.967c-0.104,0.287-0.303,0.51-0.59,0.666
	c-0.252,0.133-0.511,0.184-0.78,0.15s-0.487-0.16-0.654-0.373l-1.323,0.854c0.332,0.412,0.783,0.639,1.349,0.684
	s1.184-0.107,1.852-0.469c0.834-0.449,1.357-1.043,1.563-1.781c0.154-0.539,0.108-1.033-0.134-1.482
	C395.817,576.857,395.366,576.533,394.758,576.425z"/>
<path d="M301.458,607.814c0.795,0,1.413-0.211,1.857-0.635c0.538-0.516,0.808-1.361,0.808-2.541c0-1.178-0.268-2.025-0.803-2.535
	c-0.447-0.428-1.067-0.645-1.862-0.645c-0.793,0-1.413,0.213-1.861,0.637c-0.534,0.516-0.805,1.361-0.805,2.529
	c0,1.195,0.247,2.023,0.736,2.49C300.017,607.582,300.661,607.814,301.458,607.814z M300.601,603.082
	c0.083-0.236,0.199-0.404,0.35-0.498c0.147-0.09,0.317-0.135,0.508-0.135c0.188,0,0.358,0.045,0.507,0.135
	c0.146,0.094,0.268,0.279,0.364,0.551c0.1,0.275,0.147,0.773,0.147,1.504s-0.055,1.248-0.161,1.555
	c-0.085,0.234-0.198,0.402-0.349,0.492c-0.151,0.094-0.321,0.141-0.51,0.141c-0.191,0-0.361-0.043-0.508-0.137
	c-0.146-0.092-0.269-0.271-0.365-0.549c-0.099-0.27-0.146-0.771-0.146-1.502C300.438,603.906,300.491,603.388,300.601,603.082z"/>
<path d="M388.008,582.882c0.02-0.135,0.059-0.285,0.128-0.447c0.062-0.162,0.227-0.514,0.501-1.055
	c0.271-0.535,0.45-0.932,0.53-1.186c0.124-0.381,0.184-0.715,0.178-0.998c-0.003-0.285-0.071-0.553-0.204-0.799
	c-0.234-0.438-0.634-0.689-1.198-0.756c-0.565-0.074-1.203,0.082-1.915,0.469c-0.65,0.348-1.127,0.766-1.427,1.25
	c-0.294,0.486-0.331,1.041-0.1,1.666l1.438-0.641c-0.142-0.326-0.162-0.594-0.063-0.82c0.1-0.223,0.295-0.412,0.584-0.57
	c0.291-0.158,0.552-0.217,0.79-0.178c0.234,0.033,0.413,0.168,0.538,0.4c0.117,0.213,0.133,0.48,0.063,0.797
	c-0.057,0.236-0.28,0.738-0.669,1.52c-0.478,0.963-0.765,1.678-0.85,2.15c-0.082,0.471-0.054,0.908,0.094,1.305l4.852-2.617
	l-0.521-0.979L388.008,582.882z"/>
<path d="M137.068,511.9l3.35-2.092l-0.698-1.123l-5.236-0.932l-0.887,0.553l1.779,2.854l-1.065,0.66l0.807,1.295l1.062-0.664
	l0.542,0.865l0.887-0.557L137.068,511.9z M136.264,510.605l-0.996-1.602l2.801,0.477L136.264,510.605z"/>
<path d="M114.182,419.142l0.139-1.277c-0.304-0.354-0.462-0.759-0.462-1.209c0-0.365,0.097-0.658,0.286-0.886
	c0.188-0.227,0.473-0.34,0.855-0.342c0.408-0.003,0.714,0.11,0.915,0.337c0.203,0.228,0.306,0.504,0.306,0.833
	c0.002,0.287-0.074,0.544-0.229,0.763c-0.158,0.223-0.369,0.355-0.638,0.4l0.13,1.566c0.52-0.094,0.936-0.383,1.238-0.859
	c0.308-0.48,0.462-1.098,0.455-1.854c-0.002-0.951-0.28-1.689-0.833-2.222c-0.402-0.392-0.86-0.584-1.373-0.583
	c-0.614,0.004-1.113,0.246-1.495,0.735c-0.38,0.485-0.568,1.076-0.568,1.776c0.002,0.362,0.066,0.724,0.202,1.072l-1.059-0.24
	l-0.013-2.969l-1.114,0.005l0.016,4.162L114.182,419.142z"/>
<path d="M203.923,578.41c0.844,0.125,1.402-0.051,1.685-0.52c0.195-0.332,0.21-0.725,0.03-1.186
	c-0.209-0.557-0.643-1.035-1.308-1.436c-0.388-0.227-0.774-0.383-1.15-0.459c-0.377-0.074-0.714-0.068-1.002,0.023
	c-0.293,0.088-0.576,0.266-0.856,0.541l1.15,0.904c0.176-0.213,0.386-0.332,0.618-0.357c0.237-0.023,0.466,0.033,0.702,0.17
	c0.231,0.141,0.388,0.305,0.464,0.494c0.08,0.195,0.064,0.379-0.043,0.559c-0.127,0.209-0.325,0.322-0.591,0.338
	c-0.27,0.012-0.584-0.096-0.946-0.318l-0.646,0.746c0.271,0.094,0.492,0.189,0.666,0.291c0.263,0.156,0.441,0.363,0.532,0.627
	c0.097,0.258,0.062,0.518-0.089,0.775c-0.163,0.271-0.387,0.432-0.674,0.48c-0.286,0.045-0.567-0.016-0.851-0.182
	c-0.258-0.154-0.438-0.354-0.54-0.596c-0.104-0.244-0.102-0.508,0.009-0.779l-1.382-0.662c-0.199,0.49-0.175,1.002,0.082,1.531
	c0.256,0.529,0.699,0.982,1.34,1.361c0.671,0.404,1.335,0.574,1.981,0.514c0.65-0.063,1.112-0.328,1.396-0.797
	c0.189-0.324,0.233-0.672,0.128-1.047C204.524,579.054,204.287,578.716,203.923,578.41z"/>
<path d="M489.702,339.504c-10.472-24.765-25.469-47.01-44.573-66.116c-19.099-19.1-41.344-34.098-66.117-44.575
	c-24.914-10.54-51.386-16.029-78.686-16.319l-1.624-0.021c-0.218-0.003-0.435-0.007-0.652-0.007c-28.077,0-55.316,5.5-80.962,16.347
	c-24.769,10.476-47.012,25.473-66.113,44.575c-19.099,19.098-34.096,41.343-44.575,66.116c-10.849,25.639-16.35,52.878-16.35,80.962
	c0,28.079,5.501,55.319,16.35,80.965c10.481,24.775,25.479,47.019,44.575,66.112c19.098,19.101,41.342,34.098,66.113,44.575
	c25.648,10.847,52.887,16.347,80.962,16.347c28.078,0,55.318-5.5,80.962-16.347c24.773-10.478,47.019-25.475,66.117-44.575
	c19.101-19.101,34.098-41.344,44.573-66.112c10.846-25.636,16.346-52.876,16.346-80.965
	C506.048,392.376,500.548,365.137,489.702,339.504z M299.574,215.629c112.117,0.823,203.331,92.712,203.331,204.836
	c0,112.959-91.897,204.859-204.855,204.859c-112.958,0-204.855-91.899-204.855-204.859c0-112.958,91.898-204.856,204.855-204.856
	c0.069,0,0.139,0,0.207,0.001l-0.001,0.019H299.574z"/>
</svg>
