<?xml version="1.0" encoding="utf-8"?>
<!-- Generator: Adobe Illustrator 16.0.0, SVG Export Plug-In . SVG Version: 6.00 Build 0)  -->
<!DOCTYPE svg PUBLIC "-//W3C//DTD SVG 1.1//EN" "http://www.w3.org/Graphics/SVG/1.1/DTD/svg11.dtd">
<svg version="1.1" id="Layer_1" xmlns="http://www.w3.org/2000/svg" xmlns:xlink="http://www.w3.org/1999/xlink" x="0px" y="0px"
	 width="595.279px" height="841.89px" viewBox="0 0 595.279 841.89" enable-background="new 0 0 595.279 841.89"
	 xml:space="preserve">
<path fill="#231F1F" d="M414.979,583.146l0.39,0.596l-10.921,7.129l-0.39-0.594l1.235-0.813l-18.478-20.061l11.801,24.422
	l1.029-0.674l0.392,0.598l-6.822,4.457l-0.39-0.6l5.082-3.314l-24.971-51.453l39.373,42.045L414.979,583.146z M205.088,286.801
	l-23-28.871l-3.646,2.261l-0.375-0.604l11.707-7.27l0.376,0.604l-2.042,1.266l11.043,13.864l-5.483-17.317l-0.83,0.516l-1.232,0.765
	l-0.374-0.603l1.23-0.766l3.256-2.021l5.006-3.113l4.506-2.799l0.376,0.605l-4.507,2.802l29.563,47.58l3.332-2.07l0.377,0.604
	l-11.597,7.204l-6.617,4.111l-0.375-0.604l1.448-0.898l-10.9-13.689l5.413,17.097l3.036-1.887l0.377,0.606l-3.19,1.979l0.002,0.009
	l-0.031,0.011l-4.339,2.696l-0.374-0.605l3.897-2.419L205.088,286.801z M200.391,269.608l22.861,28.698l1.39-0.863l-29.562-47.586
	l-0.79,0.489L200.391,269.608z M98.505,439.216l0.198,5.139l-0.715,0.027l-0.197-5.139l-0.272-7.082h0.014l-0.402-10.443
	l0.709-0.023l0.063,1.617l17.516-2.742l-17.761-3.803l0.092,2.403l-0.711,0.028l-0.308-7.979l0.71-0.027l0.188,4.841l19.758,4.227
	l36.249-5.674l-0.194-4.984l0.713-0.022l0.53,13.769l-0.71,0.027l-0.064-1.705l-17.29,2.709l17.536,3.746l-0.137-3.572l0.711-0.027
	l0.146,3.76h0.008l-0.005,0.029l0.194,5.105h-0.023l0.336,8.752l-0.71,0.027l-0.2-5.137L98.505,439.216z M98.241,432.134
	l55.985-2.152l-0.043-1.117l-19.531-4.18l-36.478,5.709L98.241,432.134z M496.889,402.28l-0.146-3.871l0.71-0.028l0.146,3.875
	l0.268,7.08l0.067,1.808l0.246,6.557l0.021,0.525l0.08,2.112l0.019,0.527l0.248,6.556l0.121,3.23l-0.712,0.025l-0.121-3.229
	l-55.979,2.109l0.121,3.229l-0.712,0.029l-0.368-9.787l-0.12-3.165l-0.726-19.32l0.709-0.028l0.147,3.874L496.889,402.28z
	 M441.511,420.36l0.079,2.116l55.979-2.11l-0.079-2.116L441.511,420.36z M497.156,409.362l-55.98,2.109l0.068,1.809l55.979-2.11
	L497.156,409.362z M130.516,531.228l51.478-24.609l-43.837,36.982l1.953,3.158l-0.607,0.377l-6.866-11.121l0.606-0.373l1.192,1.932
	l20.887-17.371l-24.429,11.635l0.546,0.881l-0.606,0.379l-5.858-9.488l-0.021,0.014l-3.725-6.031l0.021-0.01l-6.553-10.611
	l0.606-0.373l2.016,3.258l47.662-29.434l-1.775-2.875l0.604-0.379l10.788,17.473l0.104,0.174l5.006,8.104l-0.607,0.381l-1.387-2.252
	l-47.662,29.432L130.516,531.228z M169.519,487.777l-0.814-1.32l-47.663,29.432l0.813,1.318L169.519,487.777z M126.326,524.449
	l47.663-29.434l-0.748-1.213l-47.662,29.434L126.326,524.449z M117.297,334.181l34.608,12.839l14.999,13.188l-2.086,4.087
	l0.634,0.326l2.324-4.55l0.022-0.027l-0.007-0.003l1.71-3.349l-0.635-0.322l-1.628,3.184l-13.467-11.842l16.406,6.089l-0.778,1.52
	l0.637,0.321l6.267-12.271l-0.635-0.326l-2.269,4.444l-34.397-12.764l-15.172-13.341l2.512-4.924l-0.636-0.322l-3.613,7.084
	l0.633,0.322l0.77-1.507l13.64,11.996l-16.616-6.166l1.092-2.143l-0.634-0.319l-6.267,12.272l0.636,0.323L117.297,334.181z
	 M295.461,278.553l-5.988,0.227l-7.786,0.294l-0.024-0.714l1.704-0.065l-2.691-17.289l-3.766,17.533l3.572-0.133l0.025,0.707
	l-3.753,0.147l-0.001,0.003l-0.033-0.003l-5.104,0.19l-0.028-0.71l4.584-0.174l4.196-19.529l-5.679-36.477l-4.29,0.163l-0.026-0.714
	l4.207-0.154l7.081-0.27l2.484-0.094l0.027,0.714l-2.402,0.091l2.728,17.513l3.813-17.757l-0.977,0.037l-1.449,0.051l-0.025-0.711
	l1.447-0.053l2.64-0.101l3.35-0.128l3.206-0.118l0.525-0.023l2.115-0.076l0.525-0.021l6.556-0.248l2.64-0.099l0.025,0.712
	l-2.637,0.103l2.106,55.975l2.642-0.1l0.027,0.714l-9.195,0.349l-3.163,0.119L295.461,278.553z M297.055,221.721l2.11,55.979
	l2.113-0.08l-2.11-55.977L297.055,221.721z M292.083,277.97l-2.11-55.981l-0.928,0.037l-4.241,19.75l5.641,36.253L292.083,277.97z
	 M317.381,620.658l-10.569-56.377l-3.961,56.922l-0.884,0.035l-2.109-55.982l2.638-0.096l-0.026-0.715l-2.638,0.104l-7.082,0.266
	l-2.639,0.1l0.026,0.711l2.639-0.096l2.11,55.975l-2.639,0.102l0.025,0.713l12.358-0.469l-0.025-0.711l-1.04,0.039l1.92-26.992
	l4.817,26.738l-2.271,0.088l0.028,0.707l12.359-0.463l-0.028-0.715L317.381,620.658z M432.697,473.323l-0.629-0.342l-1.249,2.326
	l-3.364,6.238l-1.254,2.323l0.626,0.338l1.257-2.321l49.303,26.585l-1.252,2.326l0.03,0.016l-0.507,0.932l-54.629-18.267
	l46.432,33.391l-2.895,5.333l0.629,0.342l3.882-7.164l-0.629-0.341l-0.585,1.082l-21.994-15.872l25.794,8.861l-0.7,1.303
	l0.626,0.336l6.217-11.465l-0.04-0.021l4.663-8.719l-0.641-0.325l-1.036,2.017l-49.311-26.591L432.697,473.323z M236.281,550.818
	l-19.2,54.043l3.277,1.744l-0.334,0.629l-11.538-6.141l0.336-0.629l2.005,1.064l9.278-25.531l-15.229,22.367l0.916,0.486
	l-0.336,0.633l-20.604-10.969l0.333-0.629l3.789,2.016l26.318-49.449l-3.545-1.889l0.336-0.631l3.543,1.887l0.038-0.066l6.256,3.326
	l-0.037,0.072l10.563,5.621l-0.335,0.629l-2.331-1.236l-26.315,49.447l0.78,0.416L236.281,550.818z M197.209,594.285l26.315-49.451
	l-1.976-1.053l-26.318,49.449L197.209,594.285z M394.912,247.31l2.334,1.24l0.332-0.629l-2.33-1.24l-5.163-2.743l-3.428-1.823
	l-0.336,0.631l2.332,1.238l-26.289,49.464l-2.333-1.238l-0.33,0.633l10.919,5.804l0.334-0.63l-2.333-1.24L394.912,247.31z
	 M418.239,344.253l-5.434-8.823l0.607-0.374l1.989,3.234l47.701-29.373l-0.239-0.388l-1.144-1.86l-0.76-1.233l0.604-0.376
	l1.185,1.924l0.959,1.561l1.858,3.019l3.242,5.269l3.443,5.585l2.12,3.45l-0.604,0.373l-2.125-3.449l-47.7,29.372l2.335,3.797
	l-0.604,0.371l-7.439-12.075v-0.002H418.239z M419.117,344.328l1.111,1.801l47.7-29.375l-1.109-1.798L419.117,344.328z
	 M456.067,566.857c-39.163,42.23-92.424,66.68-149.977,68.846c-57.552,2.17-112.502-18.205-154.731-57.365
	c-42.229-39.162-66.68-92.426-68.848-149.975c-2.17-57.55,18.203-112.505,57.365-154.733c39.162-42.228,92.422-66.68,149.976-68.847
	c57.55-2.17,112.502,18.204,154.731,57.363c42.229,39.163,66.679,92.424,68.849,149.977
	C515.602,469.673,495.227,524.628,456.067,566.857z M510.746,390.35l-8.522,1.225c0.887,6.39,1.471,12.856,1.764,19.38l8.61-0.324
	C512.29,403.781,511.68,397.012,510.746,390.35z M506.465,368.277l-8.32,2.096c1.623,6.568,2.926,13.242,3.902,20l8.52-1.221
	C509.536,382.07,508.165,375.108,506.465,368.277z M499.879,346.771l-8.01,2.938c2.311,6.376,4.309,12.876,5.979,19.485l8.31-2.098
	C504.395,360.177,502.295,353.398,499.879,346.771z M491.072,326.078l-7.619,3.742c2.979,6.105,5.649,12.363,8.006,18.748l8-2.938
	C496.978,338.947,494.177,332.424,491.072,326.078z M480.63,307.201l-7.184,4.513c3.432,5.527,6.583,11.207,9.463,17.021
	l7.633-3.753C487.514,318.88,484.2,312.951,480.63,307.201z M467.218,288.031l-6.682,5.252c4.022,5.126,7.783,10.417,11.277,15.863
	l7.186-4.518C475.327,298.907,471.398,293.368,467.218,288.031z M446.351,277.006c4.752,4.915,9.235,10.023,13.437,15.318
	l6.677-5.249c-4.41-5.56-9.083-10.902-14.009-15.995L446.351,277.006z M436.025,255.743l-5.453,6.535
	c2.59,2.18,5.137,4.427,7.637,6.744c2.5,2.316,4.935,4.69,7.303,7.109l6.104-5.932C446.658,265.129,441.455,260.306,436.025,255.743
	z M418.08,242.206l-4.73,7.052c5.595,3.79,11.029,7.878,16.285,12.246l5.448-6.535C429.635,250.443,423.958,246.184,418.08,242.206z
	 M399.633,231.028l-3.963,7.501c5.693,3.076,11.256,6.43,16.67,10.053l4.73-7.057C411.438,237.759,405.617,234.255,399.633,231.028z
	 M378.468,221.047l-3.166,7.895c6.012,2.436,11.913,5.149,17.68,8.154l3.963-7.5C390.941,226.466,384.779,223.608,378.468,221.047z
	 M357.209,213.712l-2.326,8.196c6.542,1.87,12.981,4.065,19.295,6.574l3.158-7.879C370.775,217.985,364.061,215.68,357.209,213.712z
	 M335.299,208.644l-1.467,8.447c6.714,1.169,13.347,2.67,19.878,4.495l2.33-8.209C349.25,211.469,342.331,209.885,335.299,208.644z
	 M312.398,214.498c6.813,0.465,13.563,1.261,20.235,2.386l1.467-8.453c-6.938-1.183-13.987-2.028-21.125-2.521L312.398,214.498z
	 M291.403,205.499l0.324,8.611c6.528-0.198,13.021-0.102,19.458,0.3l0.577-8.59C305.049,205.393,298.257,205.293,291.403,205.499z
	 M268.082,207.467l1.221,8.522c6.393-0.884,12.857-1.47,19.382-1.761l-0.325-8.611C281.511,205.923,274.743,206.538,268.082,207.467
	z M246.005,211.748l2.098,8.319c6.568-1.623,13.242-2.926,19.997-3.901l-1.22-8.52C259.801,208.678,252.836,210.046,246.005,211.748
	z M224.501,218.337l2.937,8.007c6.377-2.311,12.877-4.306,19.485-5.979l-2.096-8.31
	C237.907,213.818,231.125,215.918,224.501,218.337z M203.808,227.14l3.74,7.622c6.107-2.983,12.366-5.651,18.747-8.007l-2.938-8.002
	C216.675,221.234,210.153,224.036,203.808,227.14z M184.93,237.583l4.515,7.184c5.525-3.433,11.205-6.583,17.016-9.461l-3.749-7.633
	C196.611,230.7,190.68,234.011,184.93,237.583z M165.761,250.993l5.248,6.68c5.126-4.021,10.42-7.78,15.865-11.276l-4.517-7.18
	C176.633,242.885,171.094,246.816,165.761,250.993z M148.809,265.756l5.927,6.106c4.911-4.75,10.022-9.237,15.316-13.438
	l-5.243-6.675C159.243,256.159,153.905,260.832,148.809,265.756z M133.469,282.189l6.535,5.453c2.18-2.592,4.427-5.138,6.746-7.64
	c2.317-2.498,4.689-4.931,7.107-7.299l-5.929-6.107C142.858,271.554,138.031,276.76,133.469,282.189z M119.934,300.136l7.05,4.729
	c3.794-5.596,7.879-11.032,12.248-16.286l-6.534-5.452C128.171,288.579,123.913,294.255,119.934,300.136z M108.758,318.581
	l7.5,3.962c3.075-5.692,6.428-11.253,10.051-16.668l-7.054-4.731C115.489,306.778,111.986,312.596,108.758,318.581z M98.776,339.745
	l7.894,3.166c2.435-6.01,5.148-11.912,8.155-17.68l-7.502-3.966C104.195,327.27,101.338,333.434,98.776,339.745z M91.439,361.004
	l8.197,2.325c1.872-6.538,4.061-12.98,6.574-19.293l-7.879-3.157C95.712,347.439,93.409,354.154,91.439,361.004z M86.373,382.918
	l8.444,1.465c1.17-6.716,2.671-13.35,4.497-19.879l-8.209-2.328C89.196,368.965,87.612,375.885,86.373,382.918z M83.638,405.241
	l8.587,0.574c0.465-6.81,1.262-13.564,2.388-20.237l-8.453-1.465C84.977,391.055,84.133,398.103,83.638,405.241z M83.23,426.81
	l8.608-0.322c-0.199-6.526-0.103-13.022,0.299-19.457l-8.591-0.575C83.121,413.165,83.018,419.955,83.23,426.81z M85.194,450.134
	l8.521-1.225c-0.885-6.391-1.467-12.855-1.761-19.379l-8.61,0.324C83.65,436.707,84.263,443.472,85.194,450.134z M89.481,472.21
	l8.315-2.1c-1.623-6.566-2.925-13.24-3.901-19.998l-8.52,1.221C86.406,458.416,87.776,465.38,89.481,472.21z M96.063,493.716
	l8.01-2.943c-2.311-6.373-4.308-12.873-5.98-19.48l-8.309,2.096C91.546,480.306,93.647,487.091,96.063,493.716z M104.868,514.408
	l7.62-3.742c-2.98-6.105-5.649-12.367-8.005-18.744l-8.002,2.932C98.963,501.542,101.763,508.066,104.868,514.408z M115.311,533.285
	l7.183-4.516c-3.43-5.527-6.581-11.203-9.462-17.016l-7.63,3.752C108.429,521.605,111.741,527.535,115.311,533.285z
	 M128.723,552.453l6.679-5.248c-4.019-5.123-7.781-10.418-11.275-15.861l-7.183,4.51
	C120.614,541.583,124.547,547.121,128.723,552.453z M149.59,563.48c-4.751-4.912-9.233-10.023-13.438-15.314l-6.675,5.244
	c4.408,5.563,9.083,10.9,14.009,15.996L149.59,563.48z M159.917,584.744l5.454-6.535c-2.595-2.182-5.139-4.428-7.639-6.748
	c-2.5-2.313-4.934-4.686-7.302-7.105l-6.104,5.93C149.283,575.357,154.489,580.183,159.917,584.744z M177.865,598.281l4.729-7.053
	c-5.595-3.791-11.029-7.875-16.285-12.242l-5.452,6.531C166.308,590.044,171.985,594.306,177.865,598.281z M196.312,609.455
	l3.961-7.502c-5.693-3.072-11.254-6.422-16.67-10.049l-4.73,7.057C184.507,602.726,190.323,606.23,196.312,609.455z
	 M217.476,619.437l3.164-7.893c-6.013-2.432-11.912-5.148-17.682-8.15l-3.959,7.496
	C205.002,614.023,211.165,616.878,217.476,619.437z M238.733,626.773l2.326-8.197c-6.54-1.867-12.979-4.061-19.295-6.572
	l-3.159,7.883C225.167,622.503,231.883,624.802,238.733,626.773z M260.646,631.841l1.464-8.445
	c-6.714-1.172-13.347-2.672-19.877-4.5l-2.331,8.211C246.695,629.017,253.613,630.601,260.646,631.841z M283.545,625.988
	c-6.813-0.463-13.563-1.26-20.236-2.387l-1.467,8.457c6.942,1.182,13.991,2.025,21.129,2.518L283.545,625.988z M304.54,634.986
	l-0.323-8.611c-6.529,0.199-13.021,0.102-19.459-0.299l-0.577,8.59C290.893,635.089,297.688,635.197,304.54,634.986z
	 M462.366,543.354l1.148-1.54c26.582-36.121,41.609-81.113,39.793-129.308c-4.266-113.223-99.852-201.866-213.075-197.6
	C177.01,219.172,88.368,314.757,92.635,427.984c4.268,113.219,99.851,201.861,213.074,197.596
	C370.048,623.156,426.44,591.235,462.366,543.354z M327.86,633.021l-1.221-8.523c-6.391,0.883-12.855,1.469-19.378,1.762
	l0.323,8.611C314.434,634.56,321.201,633.951,327.86,633.021z M349.941,628.736l-2.1-8.32c-6.569,1.623-13.243,2.926-19.999,3.904
	l1.221,8.518C336.142,631.806,343.108,630.437,349.941,628.736z M371.444,622.15l-2.939-8.008
	c-6.377,2.309-12.877,4.309-19.486,5.98l2.097,8.307C358.037,626.666,364.817,624.566,371.444,622.15z M392.136,613.341
	l-3.744-7.619c-6.106,2.979-12.363,5.65-18.745,8.01l2.937,8.002C379.269,619.251,385.791,616.451,392.136,613.341z M411.014,602.9
	l-4.516-7.18c-5.526,3.432-11.206,6.582-17.019,9.459l3.751,7.635C399.33,609.787,405.263,606.472,411.014,602.9z M430.183,589.49
	l-5.25-6.68c-5.126,4.021-10.42,7.783-15.864,11.275l4.516,7.184C419.31,597.599,424.847,593.667,430.183,589.49z M447.137,574.724
	l-5.931-6.1c-4.911,4.75-10.021,9.234-15.314,13.438l5.244,6.678C436.699,584.33,442.039,579.656,447.137,574.724z M462.472,558.294
	l-6.534-5.449c-2.179,2.59-4.429,5.135-6.747,7.637c-2.316,2.496-4.688,4.934-7.105,7.301l5.929,6.104
	C453.086,568.931,457.909,563.724,462.472,558.294z M476.012,540.347l-7.056-4.725c-1.337,1.972-2.725,3.915-4.137,5.846
	l0.008-0.002l-0.433,0.589c-0.02,0.026-0.038,0.054-0.058,0.08v-0.001l-0.896,1.22h0.002c-0.015,0.021-0.031,0.04-0.046,0.061
	l-0.045,0.061l-0.005,0.005c-2.135,2.854-4.343,5.668-6.637,8.428l6.533,5.449C467.774,551.908,472.031,546.228,476.012,540.347z
	 M487.189,521.902l-7.504-3.959c-3.074,5.689-6.429,11.254-10.052,16.67l7.057,4.729
	C480.453,533.708,483.958,527.888,487.189,521.902z M497.167,500.738l-7.896-3.164c-2.431,6.012-5.148,11.914-8.153,17.682
	l7.501,3.959C491.747,513.214,494.605,507.048,497.167,500.738z M504.503,479.48l-8.199-2.328
	c-1.871,6.543-4.063,12.98-6.574,19.297l7.878,3.16C500.23,493.046,502.532,486.332,504.503,479.48z M509.569,457.568l-8.444-1.465
	c-1.172,6.713-2.672,13.348-4.498,19.883l8.207,2.324C506.745,471.525,508.327,464.601,509.569,457.568z M512.304,435.246
	l-8.587-0.578c-0.466,6.811-1.265,13.566-2.389,20.238l8.454,1.463C510.965,449.433,511.809,442.384,512.304,435.246z
	 M512.713,413.674l-8.611,0.324c0.2,6.527,0.103,13.019-0.297,19.457l8.59,0.578C512.822,427.32,512.923,420.528,512.713,413.674z"
	/>
</svg>
