<?xml version="1.0" encoding="utf-8"?>
<!-- Generator: Adobe Illustrator 16.0.0, SVG Export Plug-In . SVG Version: 6.00 Build 0)  -->
<!DOCTYPE svg PUBLIC "-//W3C//DTD SVG 1.1//EN" "http://www.w3.org/Graphics/SVG/1.1/DTD/svg11.dtd">
<svg version="1.1" id="Layer_1" xmlns="http://www.w3.org/2000/svg" xmlns:xlink="http://www.w3.org/1999/xlink" x="0px" y="0px"
	 width="595.28px" height="841.89px" viewBox="0 0 595.28 841.89" enable-background="new 0 0 595.28 841.89" xml:space="preserve">
<path fill-rule="evenodd" clip-rule="evenodd" fill="#010101" d="M291.063,204.553h11.505v24.652h-11.505V204.553z M275.361,230.49
	l2.965-0.314l-2.577-24.513l-2.969,0.313L275.361,230.49z M255.634,233.853l2.919-0.618l-5.126-24.11l-2.916,0.62L255.634,233.853z
	 M236.372,239.263l2.836-0.924l-7.621-23.441l-2.833,0.923L236.372,239.263z M217.776,246.656l2.728-1.214l-10.029-22.521
	l-2.723,1.219L217.776,246.656z M183.409,267.049l2.413-1.754l-14.487-19.942l-2.412,1.754L183.409,267.049z M168.009,279.829
	l2.219-2.002l-16.495-18.315l-2.215,1.997L168.009,279.829z M154.033,294.142l1.999-2.215l-18.32-16.496l-2,2.22L154.033,294.142z
	 M141.629,309.84l1.753-2.411l-19.943-14.49l-1.753,2.415L141.629,309.84z M122.06,344.688l1.213-2.728l-22.52-10.027l-1.209,2.729
	L122.06,344.688z M115.114,363.452l0.923-2.837l-23.446-7.62l-0.92,2.838L115.114,363.452z M110.167,382.835l0.619-2.917
	l-24.111-5.124l-0.62,2.917L110.167,382.835z M107.27,402.638l0.314-2.97l-24.517-2.576l-0.309,2.968L107.27,402.638z
	 M107.75,442.598l-0.313-2.968l-24.515,2.577l0.314,2.967L107.75,442.598z M111.115,462.318l-0.619-2.916l-24.112,5.124l0.619,2.921
	L111.115,462.318z M116.523,481.584l-0.922-2.838l-23.443,7.619l0.921,2.839L116.523,481.584z M123.919,500.179l-1.214-2.727
	l-22.52,10.026l1.212,2.723L123.919,500.179z M144.31,534.546l-1.753-2.413l-19.943,14.491l1.753,2.407L144.31,534.546z
	 M157.087,549.944l-1.998-2.217l-18.317,16.494l1.996,2.212L157.087,549.944z M171.402,563.922l-2.216-1.996l-16.498,18.316l2.221,2
	L171.402,563.922z M187.104,576.328l-2.416-1.753l-14.487,19.94l2.411,1.751L187.104,576.328z M221.948,595.893l-2.727-1.213
	l-10.022,22.519l2.721,1.215L221.948,595.893z M240.711,602.844l-2.835-0.925l-7.616,23.444l2.835,0.918L240.711,602.844z
	 M260.098,607.791l-2.916-0.62l-5.124,24.108l2.916,0.619L260.098,607.791z M279.897,610.683l-2.967-0.312l-2.577,24.513
	l2.969,0.314L279.897,610.683z M319.858,610.204l-2.968,0.315l2.578,24.513l2.965-0.313L319.858,610.204z M339.578,606.84
	l-2.915,0.62l5.128,24.11l2.917-0.62L339.578,606.84z M358.846,601.43l-2.842,0.924l7.622,23.443l2.839-0.923L358.846,601.43z
	 M377.435,594.036l-2.722,1.212l10.027,22.522l2.725-1.218L377.435,594.036z M411.804,573.646l-2.413,1.753l14.488,19.94
	l2.414-1.751L411.804,573.646z M427.205,560.866l-2.215,1.999l16.489,18.317l2.219-1.997L427.205,560.866z M441.184,546.551
	l-1.995,2.217l18.321,16.494l1.99-2.218L441.184,546.551z M453.589,530.853l-1.753,2.413l19.938,14.488l1.76-2.413L453.589,530.853z
	 M473.155,496.008l-1.215,2.727l22.521,10.025l1.21-2.729L473.155,496.008z M480.102,477.245l-0.921,2.835l23.441,7.614l0.924-2.833
	L480.102,477.245z M485.049,457.856l-0.62,2.917l24.11,5.125l0.62-2.917L485.049,457.856z M487.94,438.058l-0.311,2.965
	l24.515,2.581l0.315-2.971L487.94,438.058z M487.466,398.097l0.313,2.966l24.513-2.574l-0.311-2.969L487.466,398.097z
	 M484.098,378.377l0.625,2.918l24.111-5.131l-0.623-2.917L484.098,378.377z M478.69,359.111l0.924,2.835l23.44-7.617l-0.92-2.835
	L478.69,359.111z M471.301,340.516l1.212,2.727l22.519-10.025l-1.212-2.729L471.301,340.516z M462.002,322.798l1.489,2.587
	l21.352-12.328l-1.49-2.58L462.002,322.798z M450.906,306.149l1.751,2.413l19.943-14.488l-1.756-2.417L450.906,306.149z
	 M438.129,290.751l1.995,2.216l18.319-16.491l-2-2.218L438.129,290.751z M423.811,276.773l2.218,1.993l16.493-18.314l-2.217-1.999
	L423.811,276.773z M408.111,264.366l2.415,1.754l14.488-19.943l-2.413-1.751L408.111,264.366z M391.206,253.668l2.581,1.495
	l12.323-21.348l-2.58-1.492L391.206,253.668z M373.271,244.8l2.722,1.215l10.027-22.519l-2.728-1.218L373.271,244.8z
	 M354.501,237.855l2.84,0.92l7.619-23.444l-2.84-0.924L354.501,237.855z M335.118,232.903l2.917,0.623l5.127-24.112l-2.918-0.621
	L335.118,232.903z M315.315,230.012l2.968,0.314l2.581-24.521l-2.966-0.307L315.315,230.012z M207.786,589.049l-9.965-5.753
	L185.5,604.645l9.96,5.75L207.786,589.049z M459.831,319.056l5.75,9.96l21.35-12.325l-5.754-9.96L459.831,319.056z M106.555,426.853
	v-11.5h-24.65v11.5H106.555z M466.397,510.133l-5.75,9.964l21.349,12.325l5.75-9.962L466.397,510.133z M196.406,258.09l9.961-5.75
	l-12.326-21.351l-9.96,5.75L196.406,258.09z M304.205,611.363h-11.504v24.648h11.504V611.363z M387.484,251.519l9.965,5.753
	l12.327-21.348l-9.965-5.753L387.484,251.519z M135.439,521.511l-5.753-9.958l-21.346,12.323l5.753,9.962L135.439,521.511z
	 M488.715,413.709v11.506h24.65v-11.506H488.715z M128.871,330.432l5.75-9.962l-21.347-12.325l-5.749,9.967L128.871,330.432z
	 M398.865,582.478l-9.962,5.756l12.324,21.342l9.956-5.749L398.865,582.478z M298.145,435.99c8.617,0,15.643-7.027,15.643-15.645
	c0-8.613-7.026-15.641-15.643-15.641s-15.641,7.027-15.641,15.641C282.504,428.963,289.528,435.99,298.145,435.99z M314.458,420.346
	c0-8.992-7.317-16.31-16.313-16.31c-8.996,0-16.311,7.317-16.311,16.31c0,8.996,7.314,16.313,16.311,16.313
	C307.141,436.658,314.458,429.342,314.458,420.346z M313.118,420.346c0,8.257-6.714,14.977-14.973,14.977
	c-8.255,0-14.973-6.72-14.973-14.977c0-8.253,6.717-14.972,14.973-14.972C306.404,405.374,313.118,412.093,313.118,420.346z
	 M304.418,415.794c-2.516-3.464-7.366-4.234-10.826-1.726c-3.466,2.521-4.236,7.371-1.721,10.832
	c2.514,3.467,7.361,4.234,10.826,1.72C306.161,424.104,306.932,419.258,304.418,415.794z M462.002,322.798l1.489,2.587
	l21.352-12.328l-1.49-2.58L462.002,322.798z M391.206,253.668l2.581,1.495l12.323-21.348l-2.58-1.492L391.206,253.668z
	 M298.145,435.99c8.617,0,15.643-7.027,15.643-15.645c0-8.613-7.026-15.641-15.643-15.641s-15.641,7.027-15.641,15.641
	C282.504,428.963,289.528,435.99,298.145,435.99z M314.458,420.346c0-8.992-7.317-16.31-16.313-16.31
	c-8.996,0-16.311,7.317-16.311,16.31c0,8.996,7.314,16.313,16.311,16.313C307.141,436.658,314.458,429.342,314.458,420.346z
	 M313.118,420.346c0,8.257-6.714,14.977-14.973,14.977c-8.255,0-14.973-6.72-14.973-14.977c0-8.253,6.717-14.972,14.973-14.972
	C306.404,405.374,313.118,412.093,313.118,420.346z M217.675,271.544c1.769-1.042,3.291-1.69,4.561-1.965h1.562
	c0.598,0.285,0.969,0.991,1.132,2.118c0.161,1.145,0.24,3.022,0.24,5.636v6.379c0,5.55-0.036,9.512-0.111,11.868
	c-0.074,2.365-0.273,4.171-0.575,5.389c-0.305,1.226-0.814,2.039-1.509,2.429c-0.709,0.394-1.792,0.585-3.28,0.585h-2.148v2.48
	h2.604c0.67,0,1.976-0.152,3.92-0.455c1.885-0.307,3.498-0.45,4.82-0.45c1.065,0,2.52,0.144,4.356,0.45
	c1.866,0.303,3.627,0.455,5.275,0.455h1.499v-2.48h-1.302c-1.37,0-2.399-0.104-3.094-0.312c-0.684-0.222-1.238-0.729-1.651-1.53
	c-0.412-0.804-0.703-2.088-0.869-3.847c-0.162-1.768-0.25-4.297-0.25-7.591c0-0.869,0.025-2.356,0.065-4.461
	c0.041-2.102,0.065-4.648,0.065-7.671c0-3.43,0.109-7.036,0.316-10.813c0.129-2.955,0.367-5.672,0.718-8.147h-0.718
	c-0.936,0.815-2.116,1.703-3.551,2.674c-1.434,0.964-2.986,1.898-4.638,2.811c-1.651,0.9-3.314,1.739-4.974,2.487
	c-1.653,0.753-3.236,1.37-4.745,1.86v3.385C216.252,272.372,217.01,271.949,217.675,271.544z M269.706,248.485
	c1.768-1.043,3.29-1.694,4.56-1.966h1.564c0.598,0.286,0.967,0.991,1.129,2.121c0.163,1.14,0.236,3.02,0.236,5.64v6.37
	c0,5.55-0.031,9.514-0.106,11.872c-0.074,2.364-0.271,4.169-0.575,5.387c-0.306,1.229-0.812,2.039-1.51,2.431
	c-0.704,0.394-1.792,0.589-3.281,0.589h-2.148v2.475h2.606c0.674,0,1.979-0.152,3.921-0.455c1.886-0.304,3.499-0.445,4.821-0.445
	c1.062,0,2.52,0.142,4.356,0.445c1.865,0.303,3.628,0.455,5.275,0.455h1.5v-2.475h-1.302c-1.37,0-2.402-0.11-3.096-0.314
	c-0.683-0.222-1.236-0.731-1.653-1.536c-0.412-0.801-0.703-2.084-0.867-3.84c-0.163-1.773-0.25-4.304-0.25-7.594
	c0-0.867,0.02-2.354,0.066-4.465c0.04-2.099,0.064-4.648,0.064-7.664c0-3.434,0.112-7.039,0.313-10.817
	c0.132-2.954,0.37-5.67,0.718-8.144h-0.718c-0.93,0.81-2.117,1.702-3.552,2.672c-1.43,0.966-2.982,1.896-4.634,2.809
	c-1.651,0.903-3.311,1.74-4.974,2.49c-1.651,0.747-3.238,1.367-4.748,1.858v3.388C268.282,249.313,269.042,248.891,269.706,248.485z
	 M307.686,282.427c2.594,0,5.188,0.277,7.817,0.844c2.595,0.567,4.659,0.848,6.177,0.848c1.238,0,3.043-0.261,5.408-0.78
	c0.359-2.637,1.49-6.57,3.39-11.794h-2.985c-0.437,3.866-1.869,5.798-4.288,5.798c-2.314,0-4.595-0.195-6.847-0.597
	c-1.756-0.295-3.287-0.448-4.568-0.448c-2.346,0-4.715,0.481-7.112,1.437v-0.464c3.938-3.87,7.24-7.288,9.925-10.243
	c2.672-2.965,4.815-5.605,6.396-7.908c1.586-2.291,2.727-4.373,3.421-6.231c0.706-1.85,1.055-3.672,1.055-5.452
	c0-2.304-0.57-4.203-1.694-5.713c-1.13-1.499-2.601-2.596-4.41-3.289c-1.813-0.684-3.779-1.036-5.89-1.036
	c-2.188,0-4.102,0.288-5.763,0.86c-1.65,0.575-3.16,1.337-4.531,2.283c-1.365,0.94-3.146,2.331-5.342,4.158
	c1,1.336,2.066,2.943,3.191,4.823c0.805-2.696,2.075-4.854,3.801-6.518c1.73-1.651,3.575-2.475,5.52-2.475
	c1.599,0,3.028,0.51,4.317,1.529c1.3,1.033,1.938,2.877,1.938,5.56c0,2.312-0.59,5.008-1.771,8.089
	c-1.169,3.085-2.759,6.258-4.757,9.523c-1.996,3.283-4.179,6.367-6.547,9.268c-2.369,2.898-4.702,5.343-7.003,7.343v2.147
	C299.605,282.948,303.316,282.427,307.686,282.427z M374.913,273.396c1.771-1.042,3.292-1.693,4.564-1.969h1.561
	c0.598,0.283,0.966,0.992,1.127,2.119c0.165,1.141,0.241,3.02,0.241,5.64v6.37c0,5.555-0.035,9.517-0.111,11.868
	c-0.073,2.37-0.266,4.175-0.572,5.394c-0.303,1.226-0.815,2.039-1.512,2.43c-0.703,0.391-1.791,0.589-3.277,0.589h-2.153v2.476
	h2.609c0.674,0,1.977-0.155,3.917-0.455c1.896-0.31,3.499-0.451,4.824-0.451c1.064,0,2.523,0.142,4.355,0.451
	c1.867,0.3,3.627,0.455,5.28,0.455h1.499v-2.476h-1.31c-1.364,0-2.396-0.113-3.094-0.314c-0.685-0.221-1.236-0.73-1.645-1.535
	c-0.416-0.801-0.708-2.085-0.87-3.843c-0.164-1.771-0.255-4.301-0.255-7.589c0-0.872,0.023-2.356,0.065-4.467
	c0.048-2.097,0.067-4.648,0.067-7.667c0-3.434,0.108-7.036,0.315-10.814c0.13-2.955,0.37-5.672,0.714-8.146h-0.714
	c-0.938,0.816-2.117,1.704-3.553,2.67c-1.43,0.967-2.985,1.901-4.639,2.813c-1.649,0.9-3.309,1.738-4.969,2.486
	c-1.654,0.754-3.24,1.369-4.747,1.856v3.394C373.492,274.224,374.254,273.799,374.913,273.396z M436.512,366.695
	c2.598,0,5.189,0.283,7.82,0.851c2.598,0.56,4.66,0.847,6.179,0.847c1.237,0,3.041-0.264,5.409-0.785
	c0.356-2.64,1.485-6.568,3.388-11.792h-2.988c-0.431,3.864-1.864,5.802-4.288,5.802c-2.317,0-4.595-0.197-6.84-0.598
	c-1.763-0.294-3.292-0.448-4.575-0.448c-2.342,0-4.711,0.477-7.112,1.434v-0.468c3.942-3.862,7.245-7.284,9.925-10.241
	c2.674-2.963,4.813-5.6,6.396-7.903c1.582-2.291,2.727-4.378,3.421-6.236c0.708-1.842,1.055-3.668,1.055-5.449
	c0-2.301-0.564-4.201-1.695-5.711c-1.129-1.502-2.594-2.601-4.407-3.288c-1.815-0.689-3.781-1.035-5.886-1.035
	c-2.195,0-4.107,0.28-5.77,0.859c-1.651,0.574-3.155,1.334-4.525,2.277c-1.366,0.945-3.15,2.333-5.343,4.16
	c1,1.334,2.062,2.943,3.189,4.821c0.805-2.691,2.079-4.855,3.805-6.518c1.725-1.648,3.57-2.473,5.52-2.473
	c1.589,0,3.025,0.51,4.314,1.532c1.297,1.028,1.937,2.878,1.937,5.561c0,2.311-0.588,5.005-1.773,8.089
	c-1.172,3.085-2.755,6.252-4.752,9.523c-2,3.283-4.182,6.364-6.553,9.265c-2.367,2.897-4.697,5.343-7.004,7.34v2.146
	C428.434,367.218,432.144,366.695,436.512,366.695z M458.591,419.116c1.399-0.516,2.683-0.781,3.821-0.781
	c1.739,0,3.282,0.394,4.616,1.175c1.335,0.779,2.378,1.955,3.124,3.519c0.755,1.563,1.123,3.464,1.123,5.683
	c0,2.541-0.57,4.767-1.697,6.664c-1.127,1.901-2.543,3.356-4.223,4.345c-1.683,0.983-3.322,1.485-4.896,1.485
	c-3.055,0-5.661-1.779-7.831-5.343c-0.535,1.912-1.283,4.085-2.269,6.518c2.441,0.955,5.385,1.437,8.794,1.437
	c3.473,0,6.547-0.556,9.192-1.675c2.646-1.107,4.804-2.574,6.48-4.376c1.683-1.802,2.918-3.735,3.71-5.801
	c0.808-2.051,1.207-4.039,1.207-5.937c0-1.598-0.238-3.207-0.729-4.835c-0.479-1.618-1.356-3.011-2.617-4.17
	c-1.271-1.164-2.993-1.75-5.178-1.75c-2.608,0-4.931,0.285-6.971,0.847v-0.587c7.85-3.223,11.781-7.069,11.781-11.531
	c0-2.045-0.859-3.825-2.572-5.344c-1.708-1.521-4.279-2.28-7.728-2.28c-2.552,0-4.869,0.409-6.956,1.226
	c-2.093,0.815-3.739,1.675-4.932,2.586c-1.207,0.901-2.215,1.768-3.024,2.587c0.994,1.529,1.948,3.233,2.86,5.135
	c0.978-2.541,2.333-4.647,4.084-6.312c1.739-1.659,3.575-2.486,5.492-2.486c1.168,0,2.252,0.402,3.264,1.207
	c0.996,0.793,1.496,2.215,1.496,4.269c0,1.952-0.585,3.813-1.771,5.594c-1.185,1.769-2.768,3.298-4.734,4.589
	c-1.976,1.295-4.127,2.238-6.46,2.85v3.529C456.005,420.326,457.189,419.641,458.591,419.116z M454.441,516.393v-2.475h-1.759
	c-1.291,0-2.261-0.196-2.9-0.576c-0.651-0.379-1.158-1.371-1.53-2.951c-0.374-1.592-0.585-4.109-0.654-7.551h5.811
	c0.501-2.02,1.075-4.04,1.752-6.057c-1.979,0.691-4.497,1.059-7.563,1.113v-2.017c0-7.172,0.089-12.445,0.241-15.811
	c0.161-3.371,0.402-6.334,0.739-8.909c-1.195-0.325-2.486-0.866-3.9-1.617c-4.104,4.139-8.579,9.308-13.408,15.506
	c-4.824,6.194-8.657,11.524-11.492,15.97v1.821c4.116-0.216,7.895-0.315,11.336-0.315c3.433,0,6.455,0.1,9.059,0.315v1.707
	c0,2.779-0.161,4.844-0.485,6.189c-0.319,1.348-0.764,2.212-1.327,2.605c-0.563,0.38-1.326,0.576-2.289,0.576h-1.505h-1.302v2.475
	h3.203c0.261,0,0.589-0.021,0.991-0.057c0.391-0.04,0.813-0.082,1.258-0.162c0.455-0.061,0.869-0.124,1.261-0.183
	c1.521-0.204,2.911-0.315,4.172-0.315c1.269,0,2.22,0.046,2.855,0.122c0.628,0.073,1.441,0.193,2.43,0.354
	c1,0.167,1.816,0.24,2.465,0.24H454.441L454.441,516.393z M440.239,489.289c-0.046,1.476-0.067,2.909-0.067,4.3
	c-0.043,0.778-0.065,1.79-0.065,3.008v1.3c-1.575-0.022-3.195-0.063-4.832-0.119c-1.641-0.051-2.9-0.085-3.768-0.085
	c-1.011,0-1.915,0.034-2.696,0.108c-0.781,0.064-1.434,0.096-1.943,0.096h-1.422c1.031-2.139,3.322-5.549,6.853-10.228
	c3.531-4.68,6.265-8.09,8.211-10.231h0.379l0,0C440.455,480.36,440.239,484.312,440.239,489.289z M399.652,534.69
	c-0.598,0.793-1.26,1.306-1.99,1.538c-0.726,0.231-1.68,0.352-2.864,0.352h-1.553c-2.206-0.046-3.892-0.111-5.052-0.198
	c-1.15-0.074-2.658-0.312-4.527-0.714c-0.444,2.245-0.934,4.334-1.476,6.285c-0.535,1.954-1.088,3.771-1.651,5.431
	c-0.563,1.673-1.434,4.146-2.595,7.44c1.779,0.042,3.629,0.283,5.538,0.725c1.909,0.436,3.744,1.176,5.514,2.206
	c1.765,1.022,3.205,2.456,4.357,4.295c1.136,1.832,1.717,4.066,1.717,6.71c0,2.136-0.514,4.112-1.533,5.938
	c-1.031,1.838-2.422,3.279-4.191,4.347c-1.76,1.051-3.729,1.584-5.878,1.584c-1.66,0-3.07-0.437-4.223-1.304
	c-1.162-0.869-2.246-2.13-3.269-3.789c-0.598,1.932-1.402,4.101-2.41,6.526c2.77,0.866,5.485,1.303,8.143,1.303
	c3.943,0,7.518-0.773,10.725-2.309c3.2-1.535,5.698-3.644,7.5-6.328c1.792-2.668,2.693-5.633,2.693-8.892
	c0-2.977-0.533-5.472-1.608-7.514c-1.07-2.042-2.382-3.64-3.921-4.801c-1.54-1.15-3.05-2.009-4.526-2.576
	c-1.467-0.563-2.877-0.987-4.215-1.269c-1.506-0.337-2.484-0.563-2.931-0.705c-0.457-0.144-0.813-0.383-1.086-0.716
	c-0.282-0.352-0.424-0.894-0.424-1.644c0-0.575,0.337-1.854,0.988-3.847c2.051,0.439,4.725,0.652,8.013,0.652
	c3.104,0,5.874-0.213,8.342-0.652c0.467-4.036,1.313-7.925,2.541-11.658h-2.541C400.779,532.713,400.251,533.908,399.652,534.69z
	 M296.753,560.542c-3.539,2.52-6.387,5.259-8.524,8.2c-2.14,2.935-3.705,5.875-4.668,8.81c-0.969,2.933-1.456,5.732-1.456,8.404
	c0,2.24,0.348,4.355,1.031,6.368c0.694,2.008,1.739,3.809,3.15,5.406c1.409,1.605,3.158,2.854,5.254,3.747
	c2.085,0.898,4.486,1.346,7.19,1.346c3.278,0,6.125-0.651,8.523-1.946c2.392-1.306,4.215-3.062,5.444-5.287
	c1.235-2.228,1.855-4.678,1.855-7.362c0-2.295-0.456-4.421-1.371-6.396c-0.911-1.969-2.26-3.551-4.049-4.738
	c-1.793-1.182-3.942-1.77-6.429-1.77c-2.769,0-5.376,0.549-7.832,1.628v2.608c0.914-0.911,2.131-1.368,3.652-1.368
	c1.669,0,3.114,0.491,4.333,1.465c1.214,0.978,2.138,2.306,2.778,3.98c0.641,1.671,0.967,3.549,0.967,5.622
	c0,3.607-0.719,6.318-2.162,8.146c-1.444,1.832-3.256,2.748-5.465,2.748c-1.627,0-3.101-0.641-4.406-1.932
	c-1.315-1.295-2.344-3.219-3.117-5.771c-0.759-2.552-1.138-5.633-1.138-9.242c0-3.56,0.735-7.044,2.224-10.445
	c1.49-3.411,3.682-6.507,6.582-9.283c2.91-2.792,6.365-5.064,10.359-6.801v-2.398C304.538,555.921,300.293,558.016,296.753,560.542z
	 M202.213,542.284c0.84-0.728,1.969-1.097,3.391-1.097c1.301,0,3.115,0.076,5.45,0.22c2.335,0.149,4.042,0.229,5.105,0.229
	c3.007,0,5.278-0.611,6.84-1.839l0.197,0.272c-1.976,3.694-3.561,7.019-4.756,9.981c-1.358,3.292-2.695,6.416-3.987,9.371
	c-1.3,2.954-2.477,5.528-3.518,7.732c-1.054,2.203-2.075,4.248-3.062,6.146c-0.979,1.904-1.978,3.728-2.986,5.473
	c3.051,1.198,5.049,1.999,5.991,2.401l8.667-24.817c2.324-6.6,4.237-11.432,5.725-14.508c1.497-3.071,2.954-5.583,4.374-7.525
	l-1.107-1.029c-2.063,0.629-5.884,1.021-11.466,1.173h-5.93c-4.116-0.152-7.895-0.544-11.326-1.173
	c-0.598,5.581-1.337,10.183-2.227,13.812h2.735C200.749,544.618,201.379,543.013,202.213,542.284z M152.819,496.158
	c-7.298,2.977-10.944,7.667-10.944,14.074c0,1.834,0.607,3.574,1.822,5.183c1.205,1.607,2.911,2.896,5.094,3.864
	c2.181,0.968,4.657,1.444,7.429,1.444c3.159,0,5.952-0.586,8.395-1.747c2.43-1.164,4.301-2.746,5.603-4.736
	c1.304-1.988,1.954-4.149,1.954-6.495c0-2.878-0.946-5.373-2.821-7.481c-1.891-2.117-4.529-3.988-7.939-5.603
	c2.963-1.554,5.201-3.148,6.723-4.813c1.509-1.659,2.267-3.744,2.267-6.268c0-1.453-0.371-2.918-1.127-4.387
	c-0.752-1.474-2.065-2.722-3.923-3.733c-1.868-1.012-4.308-1.521-7.318-1.521c-3.128,0-5.82,0.479-8.081,1.445
	c-2.247,0.953-3.944,2.206-5.07,3.746c-1.14,1.552-1.708,3.182-1.708,4.897c0,1.813,0.405,3.442,1.197,4.876
	c0.803,1.444,1.9,2.727,3.29,3.854C149.04,493.889,150.765,495.016,152.819,496.158L152.819,496.158z M159.261,493.291
	c-2.944-1.77-5.085-3.529-6.41-5.28c-1.325-1.745-1.986-3.333-1.986-4.755c0-1.779,0.523-3.343,1.574-4.69
	c1.053-1.343,2.737-2.021,5.062-2.021c1.64,0,3.008,0.371,4.091,1.119c1.088,0.736,1.881,1.683,2.392,2.836
	c0.5,1.152,0.75,2.321,0.75,3.54c0,1.575-0.469,3.209-1.412,4.921C162.375,490.662,161.019,492.104,159.261,493.291L159.261,493.291
	L159.261,493.291z M162.443,503.709c1.312,2.276,1.976,4.492,1.976,6.653c0,1.437-0.358,2.759-1.088,3.965
	c-0.727,1.205-1.704,2.162-2.94,2.867c-1.227,0.708-2.553,1.054-3.988,1.054c-1.596,0-3.083-0.379-4.462-1.153
	c-1.391-0.767-2.492-1.835-3.303-3.203c-0.812-1.357-1.227-2.876-1.227-4.575c0-2.647,0.826-5.004,2.466-7.077
	c1.642-2.073,3.561-3.69,5.743-4.841l0,0C158.856,499.319,161.129,501.412,162.443,503.709z M133.513,437.135
	c3.661-2.768,6.465-5.648,8.407-8.626c1.955-2.981,3.29-5.817,4.008-8.5c0.727-2.69,1.086-5.181,1.086-7.475
	c0-2.215-0.345-4.334-1.033-6.348c-0.692-2.022-1.726-3.823-3.116-5.398c-1.391-1.59-3.127-2.835-5.215-3.748
	c-2.083-0.923-4.503-1.382-7.262-1.382c-3.281,0-6.125,0.65-8.525,1.945c-2.39,1.301-4.215,3.074-5.442,5.3
	c-1.238,2.238-1.854,4.682-1.854,7.351c0,2.631,0.53,4.92,1.604,6.897c1.076,1.965,2.511,3.475,4.313,4.509
	c1.801,1.043,3.788,1.561,5.938,1.561c2.747,0,5.354-0.541,7.832-1.625v-2.674c-0.955,0.957-2.173,1.436-3.66,1.436
	c-1.443,0-2.78-0.437-4.018-1.307c-1.228-0.868-2.216-2.149-2.957-3.843c-0.738-1.694-1.106-3.693-1.106-5.996
	c0-3.516,0.729-6.212,2.181-8.078c1.467-1.866,3.282-2.802,5.456-2.802c1.604,0,3.063,0.65,4.376,1.958
	c1.312,1.299,2.358,3.233,3.125,5.783c0.772,2.566,1.152,5.65,1.152,9.266c0,2.443-0.542,5.287-1.617,8.533
	c-1.087,3.237-3.052,6.498-5.919,9.786c-2.854,3.28-6.734,5.996-11.622,8.135v2.476C125.229,442.28,129.852,439.904,133.513,437.135
	z M132.399,336.045c1.773-1.039,3.29-1.692,4.562-1.965h1.565c0.596,0.281,0.966,0.988,1.127,2.119
	c0.163,1.141,0.241,3.016,0.241,5.636v6.376c0,5.549-0.035,9.512-0.111,11.868c-0.074,2.368-0.271,4.169-0.577,5.39
	c-0.303,1.227-0.813,2.04-1.506,2.431c-0.704,0.392-1.793,0.587-3.282,0.587h-2.147v2.479h2.606c0.671,0,1.976-0.153,3.92-0.457
	c1.888-0.305,3.496-0.45,4.819-0.45c1.064,0,2.52,0.146,4.358,0.45c1.868,0.304,3.625,0.457,5.276,0.457h1.497v-2.479h-1.302
	c-1.371,0-2.397-0.111-3.096-0.315c-0.683-0.22-1.237-0.727-1.647-1.532c-0.416-0.801-0.707-2.084-0.872-3.844
	c-0.162-1.773-0.248-4.299-0.248-7.591c0-0.866,0.021-2.356,0.063-4.464c0.045-2.099,0.064-4.647,0.064-7.668
	c0-3.433,0.112-7.035,0.316-10.813c0.133-2.954,0.37-5.669,0.718-8.144h-0.718c-0.934,0.813-2.115,1.702-3.552,2.668
	c-1.431,0.966-2.983,1.901-4.636,2.815c-1.652,0.901-3.313,1.736-4.975,2.484c-1.646,0.751-3.233,1.368-4.746,1.855v3.391
	C130.976,336.872,131.737,336.45,132.399,336.045z M155.219,348.081c0,3.614,0.457,6.939,1.37,9.967
	c0.912,3.043,2.18,5.637,3.821,7.79c1.638,2.15,3.531,3.786,5.658,4.917c2.127,1.141,4.399,1.704,6.811,1.704
	c2.834,0,5.57-0.822,8.229-2.467c2.672-1.651,4.867-4.273,6.615-7.902c1.749-3.616,2.617-8.202,2.617-13.734
	c0-3.903-0.697-7.639-2.095-11.199c-1.39-3.561-3.412-6.431-6.05-8.614c-2.64-2.17-5.722-3.257-9.251-3.257
	c-2.316,0-4.529,0.495-6.66,1.487c-2.117,0.988-4.021,2.467-5.69,4.419c-1.671,1.956-2.986,4.37-3.941,7.233
	C155.7,341.291,155.219,344.509,155.219,348.081L155.219,348.081z M163.362,342.826c0-3.846,0.513-6.907,1.533-9.168
	c1.012-2.258,2.248-3.813,3.682-4.671c1.443-0.855,2.874-1.292,4.301-1.292c2.075,0,3.803,1.196,5.167,3.574
	c1.379,2.376,2.381,5.504,3.009,9.391c0.63,3.881,0.943,8.038,0.943,12.46c0,6.016-0.837,10.293-2.499,12.845
	c-1.661,2.552-3.57,3.82-5.722,3.82c-1.259,0-2.563-0.537-3.9-1.614c-1.342-1.075-2.582-2.868-3.71-5.387
	c-1.132-2.521-1.946-5.81-2.467-9.871l0,0C163.472,350.652,163.362,347.285,163.362,342.826z M189.814,271.544
	c1.766-1.042,3.29-1.69,4.557-1.965h1.565c0.598,0.285,0.967,0.991,1.132,2.118c0.16,1.145,0.237,3.022,0.237,5.636v6.379
	c0,5.55-0.033,9.512-0.109,11.868c-0.073,2.365-0.272,4.171-0.575,5.389c-0.306,1.226-0.813,2.039-1.51,2.429
	c-0.707,0.394-1.79,0.585-3.281,0.585h-2.15v2.48h2.607c0.674,0,1.978-0.152,3.921-0.455c1.888-0.307,3.499-0.45,4.821-0.45
	c1.065,0,2.521,0.144,4.358,0.45c1.863,0.303,3.625,0.455,5.275,0.455h1.499v-2.48h-1.302c-1.37,0-2.402-0.104-3.096-0.312
	c-0.684-0.222-1.236-0.729-1.649-1.53c-0.412-0.804-0.708-2.088-0.87-3.847c-0.164-1.768-0.25-4.297-0.25-7.591
	c0-0.869,0.023-2.356,0.066-4.461c0.042-2.102,0.063-4.648,0.063-7.671c0-3.43,0.109-7.036,0.315-10.813
	c0.132-2.955,0.369-5.672,0.716-8.147h-0.716c-0.932,0.815-2.119,1.703-3.55,2.674c-1.432,0.964-2.984,1.898-4.637,2.811
	c-1.65,0.9-3.313,1.739-4.973,2.487c-1.652,0.753-3.236,1.37-4.749,1.86v3.385C188.388,272.372,189.148,271.949,189.814,271.544z"/>
</svg>
