<?xml version="1.0" encoding="utf-8"?>
<!-- Generator: Adobe Illustrator 16.0.0, SVG Export Plug-In . SVG Version: 6.00 Build 0)  -->
<!DOCTYPE svg PUBLIC "-//W3C//DTD SVG 1.1//EN" "http://www.w3.org/Graphics/SVG/1.1/DTD/svg11.dtd">
<svg version="1.1" id="Layer_1" xmlns="http://www.w3.org/2000/svg" xmlns:xlink="http://www.w3.org/1999/xlink" x="0px" y="0px"
	 width="841.891px" height="595.281px" viewBox="0 0 841.891 595.281" enable-background="new 0 0 841.891 595.281"
	 xml:space="preserve">
<path fill="#010101" d="M556.05,285.811h75.19v-2.46h1.112v9.583h-1.112v-2.467h-75.19l0.007,2.439h-1.118v-9.594h1.118
	L556.05,285.811z M435.632,162.782h-2.439l-0.009-75.184h2.471v-1.123l-9.594,0.005v1.118h2.467l0.018,75.184h-2.504v1.118
	l9.591-0.007V162.782z M604.556,195.215l-65.115,37.589l-1.249-2.164l-0.971,0.559l4.799,8.312l0.962-0.559l-1.21-2.121
	l65.109-37.585l1.229,2.14l0.972-0.562l-4.792-8.305l-0.972,0.557L604.556,195.215z M554.938,292.933v9.596h1.111v-2.439h75.19
	v2.461h1.112v-9.583h-1.112v2.471h-75.19v-2.505H554.938z M438.157,162.782h-2.504v1.118l9.581-0.007v-1.111h-2.426l-0.016-75.184
	h2.466v-1.123l-9.587,0.005l-0.002,1.118h2.471L438.157,162.782z M538.176,230.61l-1.219-2.098l65.111-37.599l1.234,2.135
	l0.968-0.559l-4.794-8.305l-0.965,0.56l1.229,2.137l-65.11,37.589l-1.251-2.16l-0.972,0.555l4.802,8.305L538.176,230.61z
	 M492.239,182.984l-2.102-1.221l37.588-65.112l2.136,1.23l0.563-0.964l-8.305-4.788l-0.562,0.959l2.128,1.239l-37.584,65.112
	l-2.174-1.255l-0.555,0.968l8.313,4.795L492.239,182.984z M631.241,305.058H556.05l0.007-2.508h-1.118v9.598h1.118v-2.432h75.185
	v2.465h1.112v-9.586h-1.112V305.058z M548.918,297.748c0,34.142-13.298,66.238-37.439,90.388
	c-24.145,24.141-56.242,37.438-90.389,37.438c-34.14,0-66.241-13.297-90.386-37.438c-24.142-24.148-37.437-56.246-37.437-90.388
	c0-34.146,13.295-66.244,37.437-90.384c24.145-24.144,56.246-37.444,90.386-37.444c34.146,0,66.244,13.3,90.389,37.444
	C535.62,231.504,548.918,263.603,548.918,297.748z M548.545,297.748c0-70.282-57.176-127.455-127.455-127.455
	c-70.276,0-127.457,57.173-127.457,127.455c0,70.279,57.181,127.453,127.457,127.453
	C491.369,425.201,548.545,368.027,548.545,297.748z M421.09,294.381c-1.856,0-3.364,1.507-3.364,3.367
	c0,1.859,1.507,3.365,3.364,3.365c1.858,0,3.369-1.506,3.369-3.365C424.459,295.888,422.947,294.381,421.09,294.381z
	 M285.027,314.114h1.123v-9.588h-1.123v2.424h-75.188v-2.465h0.006v-2.297l-0.059,0.015l0.001-0.608l44.237-10.978l31.046,7.435
	l-0.009,4.533h1.117l0.004-4.266l0.002-0.775l0.007-4.549h-1.116l-0.005,4.282l-29.307-7.09l29.325-7.282l-0.003,2.372h1.112
	l0.002-2.294l0.009-5.67v-1.624h-1.111l-0.005,2.26l-39.249,9.835l-13.316-3.22c-7.384-1.776-19.229-4.573-22.715-5.396l0.005-4.392
	l-1.114-0.005l-0.014,9.592h1.116l0.007-4.335l34.252,8.205l-34.22,8.57v-1.909h-0.049v-0.596h-1.115l-0.002,2.362v0.436
	l-0.013,6.793h0.064v10.188h1.108v-2.463h75.188V314.114z M410.246,131.824l-7.396,31.055h-4.526v1.114h9.589v-1.114h-4.28
	l7.048-29.316L418,162.879h-2.368v1.112h9.59v-1.112h-2.267l-9.888-39.24l3.206-13.32c1.764-7.388,4.544-19.237,5.365-22.72h4.39
	V86.48h-9.584v1.118h4.333l-8.157,34.263l-8.635-34.258h2.523v-1.116h-9.595v1.116h2.292L410.246,131.824z M301.282,124.489
	l31.874,32.579l9.314,30.537l-3.912,2.289l0.563,0.962l3.684-2.155l0.664-0.389v-0.002l3.929-2.301l-0.564-0.961l-3.693,2.164
	l-8.732-28.861l21.132,21.6l-2.044,1.196l0.563,0.957l1.978-1.155l4.894-2.867l1.402-0.82l-0.562-0.959l-1.953,1.146l-28.366-28.863
	l-3.965-13.113c-2.211-7.272-5.794-18.904-6.856-22.323l3.792-2.221l-0.559-0.964l-8.28,4.85l0.566,0.964l3.742-2.194l10.272,33.69
	l-24.76-25.201l0.778-0.457l1.396-0.819l-0.562-0.963l-2.042,1.196l-0.378,0.22l-5.86,3.433l0.566,0.964L301.282,124.489z
	 M542.622,470.199l-54.684-56.598l-2.614,1.518l1.079,3.66l0.006,0.01v-0.004l0.247,0.852l0.032,0.096l14.286,48.324
	c2.148,7.232,5.631,18.789,6.687,22.295l-4.052,1.633l0.4,1.037l3.975-1.602l0.004,0.006l0.024-0.016l4.995-2.012l-0.416-1.029
	l-4.149,1.666l-20.87-70.043l-0.036-0.035l0.029,0.006l0.007,0.029l50.898,52.605l-1.973,1.139l0.561,0.963l6.341-3.66h0.003
	l1.377-0.799l0.046-0.025l0.536-0.307l-0.559-0.971L542.622,470.199z M453.3,505.877l-23.135-74.299l-2.992,0.152l-0.679,3.697
	l-0.001,0.011l0.002-0.004l-0.16,0.859l-0.014,0.1l-8.936,48.83c-1.329,7.313-3.408,19.021-4.038,22.572l-4.317-0.395l-0.109,1.091
	l4.234,0.387l0,0.008l0.029-0.004l5.321,0.486l0.092-1.09l-4.418-0.408l12.807-70.852l-0.016-0.048l0.022,0.018l-0.007,0.03
	l21.566,69.09l-2.254,0.11l0.066,1.097l7.248-0.352l0.002,0.002l1.576-0.081l0.052-0.001l0.611-0.027l-0.061-1.104L453.3,505.877z
	 M326.596,109.69l37.596,65.119l-2.169,1.25l0.552,0.964l8.313-4.799l-0.556-0.959l-2.109,1.212l-37.587-65.107l2.133-1.237
	l-0.566-0.966l-8.302,4.795l0.555,0.969L326.596,109.69z M544.388,356.308l1.248-2.091l64.558,38.541l-1.263,2.115l0.958,0.572
	l4.911-8.228l-0.956-0.572l-1.267,2.121l-64.559-38.542l1.285-2.152l-0.96-0.573l-4.915,8.236L544.388,356.308z M607.049,397.846
	l-75.465-22.325l-1.529,2.603l2.742,2.649l0.011,0.012l0.706,0.684l36.232,35.021c5.435,5.235,14.155,13.577,16.802,16.112
	l-2.722,3.417l0.855,0.705l2.674-3.352l0.004,0.002l0.014-0.024l3.361-4.208l-0.872-0.693l-2.787,3.495l-52.657-50.683l-0.055-0.014
	l0.031-0.009l0.023,0.022l70.201,20.715l-1.155,1.965l0.96,0.558l3.714-6.306l0.006,0.003l0.81-1.379l0.022-0.04l0.313-0.535
	l-0.962-0.567L607.049,397.846z M412.658,431.362l-9.572-0.618l-0.072,1.117l2.502,0.16l-4.816,75.035l-2.465-0.158l-0.07,1.111
	l9.562,0.615l0.071-1.114l-2.458-0.158l4.815-75.032l2.43,0.156L412.658,431.362z M349.01,498.391l13.906-76.564l-2.723-1.251
	l-2.313,2.963l-0.006,0.01l0.003-0.003l-0.54,0.688l-0.058,0.081l-30.535,39.14c-4.564,5.865-11.83,15.279-14.033,18.135
	l-3.644-2.349l-0.602,0.916l3.574,2.304l-0.003,0.008l0.027,0.01l4.49,2.896l0.586-0.924l-3.727-2.407l44.165-56.864l0.008-0.05
	l0.012,0.025l-0.02,0.024l-12.884,71.222l-2.049-0.945l-0.449,1.002l6.587,3.045l0.001,0.002l1.434,0.659l0.047,0.022l0.554,0.26
	l0.458-1.008L349.01,498.391z M347.801,413.698l-8.197-4.98l-0.581,0.956l2.144,1.301l-39.02,64.272l-2.112-1.281l-0.576,0.952
	l8.189,4.974l0.579-0.954l-2.105-1.278l39.019-64.271l2.081,1.264L347.801,413.698z M338.855,408.171l-8.197-4.981l-0.581,0.957
	l2.144,1.301l-39.02,64.272l-2.112-1.282l-0.577,0.953l8.19,4.974l0.579-0.955l-2.105-1.278l39.018-64.271l2.082,1.264
	L338.855,408.171z M262.564,435.638l52.12-57.784l-1.657-2.497l-3.526,1.303l-0.01,0.004l0.004-0.001l-0.821,0.301l-0.092,0.038
	l-46.563,17.211c-6.968,2.585-18.101,6.767-21.477,8.035l-1.862-3.914l-0.993,0.462l1.826,3.84l-0.006,0.004l0.018,0.023
	l2.293,4.825l0.985-0.478l-1.901-4.007l67.48-25.109l0.033-0.038l-0.004,0.027l-0.029,0.011l-48.438,53.779l-1.245-1.882
	l-0.909,0.615l3.999,6.057l0,0.002l0.873,1.314l0.029,0.044l0.333,0.513l0.92-0.615L262.564,435.638z M306.11,362.987l-4.348-8.549
	l-0.998,0.508l1.138,2.234l-67.004,34.115l-1.122-2.201l-0.991,0.506l4.347,8.539l0.994-0.506l-1.117-2.195l67.003-34.114
	l1.104,2.17L306.11,362.987z M301.411,353.581l-4.348-8.551l-0.999,0.509l1.139,2.234l-67.004,34.114l-1.121-2.201l-0.991,0.508
	l4.346,8.539l0.995-0.508l-1.117-2.194l67.002-34.115l1.105,2.171L301.411,353.581z M296.618,344.454l-4.348-8.55l-0.998,0.508
	l1.139,2.234l-67.005,34.115l-1.121-2.201l-0.992,0.507l4.346,8.539l0.995-0.508l-1.117-2.194l67.002-34.115l1.105,2.171
	L296.618,344.454z M233.173,202.623l43.717,12.893l23.027,22.109l-2.296,3.906l0.961,0.566l2.162-3.679l0.391-0.666l2.309-3.924
	l-0.962-0.563l-2.169,3.692l-21.704-20.932l28.985,8.541l-1.202,2.042l0.958,0.566l1.161-1.978l2.877-4.89l0.822-1.398l-0.959-0.564
	l-1.147,1.951l-38.84-11.356l-9.857-9.512c-5.48-5.267-14.283-13.67-16.875-16.141l2.228-3.788l-0.964-0.563l-4.859,8.266
	l0.964,0.566l2.196-3.737l25.407,24.394l-33.908-9.917l0.458-0.777l0.817-1.398l-0.961-0.566l-1.201,2.04l-0.218,0.375l-3.445,5.856
	l0.967,0.566L233.173,202.623z M292.813,350.626l-0.02,0.012l0.035-0.008L292.813,350.626z M340.571,410.054l-0.011,0.012
	l0.004-0.01L340.571,410.054z M486.403,418.777l0.006,0.008l-0.008-0.002L486.403,418.777z M411.867,435.429l-0.005,0.014v-0.008
	L411.867,435.429z M341.528,410.164l-0.009,0.012l0.004-0.01L341.528,410.164z M292.71,350.585l-0.013,0.002l0.006-0.002H292.71z
	 M670.517,297.743c0,137.756-111.667,249.43-249.428,249.43c-137.758,0-249.428-111.674-249.428-249.43
	c0-137.751,111.675-249.416,249.428-249.416C558.85,48.327,670.522,159.992,670.517,297.743z M655.511,273.553l-15.891,1.714
	c0.646,6.4,1.006,12.856,1.095,19.354h15.981C656.602,287.52,656.216,280.49,655.511,273.553z M651.716,249.187l-15.619,3.358
	c1.502,7.173,2.642,14.434,3.414,21.759l15.85-1.709l0.032-0.048C654.552,264.637,653.323,256.841,651.716,249.187z
	 M645.371,225.292l-15.178,5.002c2.26,7.011,4.164,14.114,5.699,21.302l15.616-3.36C649.844,240.441,647.79,232.786,645.371,225.292
	z M636.533,202.172l-14.612,6.598c0.517,1.164,1.071,2.298,1.567,3.474c2.383,5.638,4.509,11.354,6.405,17.13l15.177-5.004
	C642.591,216.792,639.738,209.388,636.533,202.172z M626.672,182.513l-13.872,8c3.157,5.643,6.059,11.435,8.721,17.374l14.626-6.602
	C633.263,194.865,630.096,188.61,626.672,182.513z M611.987,159.583l-12.922,9.446c3.786,5.231,7.363,10.601,10.674,16.146
	l13.853-7.989C619.98,171.137,616.106,165.269,611.987,159.583z M596.439,140.338l-11.82,10.778
	c4.935,5.488,9.554,11.206,13.888,17.126l12.911-9.439C606.731,152.392,601.734,146.229,596.439,140.338z M579.061,122.896
	l-10.612,11.952c2.708,2.458,5.367,4.977,7.964,7.578c2.6,2.594,5.12,5.251,7.568,7.957l11.817-10.769
	C590.502,133.763,584.91,128.185,579.061,122.896z M559.911,107.33l-9.339,12.986c5.924,4.333,11.646,8.959,17.143,13.9
	l10.619-11.965C572.452,116.979,566.303,112,559.911,107.33z M541.526,95.176l-8.005,13.841c5.583,3.331,10.998,6.925,16.265,10.74
	l9.347-12.998C553.448,102.644,547.573,98.777,541.526,95.176z M517.352,82.602l-6.526,14.66c5.93,2.655,11.725,5.547,17.355,8.698
	l8.015-13.866C530.075,88.661,523.796,85.489,517.352,82.602z M494.312,73.715l-4.855,15.225c5.78,1.896,11.495,4.022,17.135,6.407
	c1.131,0.482,2.228,1.016,3.349,1.512l6.519-14.65C509.26,79.019,501.868,76.182,494.312,73.715z M470.475,67.297l-3.228,15.648
	c7.186,1.535,14.279,3.438,21.283,5.7l4.859-15.228C485.91,71.002,478.263,68.957,470.475,67.297z M446.107,63.418l-1.566,15.907
	c7.327,0.773,14.586,1.917,21.762,3.417l3.224-15.653C461.851,65.485,454.036,64.257,446.107,63.418z M424.112,78.121
	L424.112,78.121c6.535,0.091,13.026,0.448,19.464,1.096l1.568-15.902c-6.881-0.701-13.854-1.08-20.895-1.171h-0.138V78.121z
	 M396.893,63.332l1.671,15.889c6.416-0.648,12.884-1.007,19.395-1.096V62.143h-0.134c-7.032,0.096-13.996,0.479-20.87,1.178
	L396.893,63.332z M372.526,67.123l3.301,15.632c7.178-1.505,14.438-2.644,21.77-3.421l-1.669-15.899
	C388.004,64.278,380.197,65.512,372.526,67.123z M348.642,73.462l4.936,15.205c7.004-2.267,14.104-4.17,21.289-5.708l-3.292-15.63
	C363.781,68.995,356.133,71.05,348.642,73.462z M325.632,82.25l6.507,14.657c1.154-0.511,2.284-1.066,3.45-1.56
	c5.611-2.374,11.309-4.492,17.061-6.381l-4.936-15.198C340.18,76.231,332.807,79.062,325.632,82.25z M305.889,92.148l8.012,13.866
	c5.634-3.149,11.42-6.047,17.344-8.705l-6.511-14.664C318.292,85.532,312.012,88.712,305.889,92.148z M282.927,106.848l9.417,12.947
	c5.248-3.81,10.648-7.398,16.214-10.717l-7.993-13.847C294.501,98.843,288.62,102.726,282.927,106.848z M263.74,122.344
	l10.699,11.892c5.485-4.929,11.199-9.548,17.106-13.877l-9.406-12.936C275.755,112.093,269.612,117.072,263.74,122.344z
	 M246.271,139.743l11.881,10.692c2.464-2.726,4.999-5.4,7.614-8.009c2.587-2.592,5.236-5.102,7.934-7.546l-10.688-11.888
	C257.153,128.295,251.565,133.882,246.271,139.743z M230.695,158.892l12.965,9.369c4.32-5.902,8.934-11.605,13.852-17.085
	l-11.89-10.703C240.346,146.354,235.367,152.503,230.695,158.892z M218.527,177.3l13.853,7.984
	c3.321-5.57,6.909-10.974,10.718-16.228l-12.976-9.375C226.005,165.369,222.133,171.244,218.527,177.3z M205.941,201.492
	l14.668,6.491c2.663-5.929,5.556-11.723,8.708-17.36l-13.868-8C212.012,188.75,208.835,195.042,205.941,201.492z M197.066,224.5
	l15.209,4.901c1.896-5.786,4.023-11.508,6.414-17.158c0.483-1.137,1.022-2.244,1.522-3.372l-14.659-6.486
	C202.365,209.576,199.535,216.956,197.066,224.5z M190.65,248.332l15.621,3.337c1.535-7.2,3.439-14.318,5.704-21.339l-15.207-4.903
	C194.358,232.902,192.31,240.545,190.65,248.332z M186.77,272.715l15.894,1.627c0.773-7.313,1.908-14.559,3.404-21.723
	l-15.626-3.335C188.836,256.962,187.606,264.778,186.77,272.715z M185.483,294.72h15.981c0.089-6.516,0.443-12.991,1.09-19.409
	l-15.896-1.629C185.958,280.608,185.571,287.628,185.483,294.72z M186.673,321.964l15.893-1.705
	c-0.652-6.41-1.009-12.877-1.096-19.387h-15.987C185.578,307.982,185.966,315.021,186.673,321.964z M190.466,346.308l15.628-3.305
	c-1.506-7.182-2.645-14.443-3.422-21.775l-15.883,1.705C187.629,330.851,188.861,338.648,190.466,346.308z M196.8,370.16
	l15.196-4.939c-2.262-7.002-4.16-14.092-5.697-21.273l-15.624,3.33C192.342,355.052,194.39,362.689,196.8,370.16z M205.603,393.214
	l14.619-6.57c-0.502-1.135-1.049-2.246-1.532-3.395c-2.38-5.627-4.501-11.33-6.392-17.096l-15.196,4.938
	C199.573,378.642,202.409,386.021,205.603,393.214z M215.488,412.931l13.864-8.004c-3.16-5.648-6.063-11.451-8.727-17.391
	l-14.637,6.568C208.879,400.544,212.055,406.818,215.488,412.931z M230.204,435.917l12.916-9.451
	c-3.804-5.244-7.391-10.641-10.708-16.201l-13.841,7.998C222.19,424.33,226.071,430.218,230.204,435.917z M245.695,455.097
	l11.872-10.709c-4.931-5.49-9.556-11.209-13.889-17.125l-12.902,9.439C235.444,443.085,240.423,449.226,245.695,455.097z
	 M263.109,472.585l10.667-11.896c-2.723-2.471-5.397-5.004-8.011-7.617c-2.598-2.596-5.111-5.246-7.561-7.945L246.34,455.83
	C251.649,461.687,257.244,467.281,263.109,472.585z M282.271,488.16l9.38-12.945c-5.922-4.332-11.64-8.955-17.14-13.889
	l-10.67,11.906C269.726,478.505,275.88,483.486,282.271,488.16z M300.599,500.281l7.988-13.846
	c-5.54-3.307-10.913-6.873-16.139-10.66l-9.39,12.959C288.723,492.837,294.572,496.683,300.599,500.281z M324.848,512.894
	l6.511-14.658c-5.957-2.666-11.771-5.572-17.43-8.736l-7.999,13.865C312.071,506.81,318.379,509.996,324.848,512.894z
	 M347.891,521.781l4.916-15.205c-5.81-1.898-11.552-4.033-17.218-6.434c-1.13-0.477-2.228-1.012-3.347-1.506l-6.511,14.646
	C332.939,516.474,340.33,519.312,347.891,521.781z M371.665,528.181l3.313-15.627c-7.168-1.527-14.254-3.426-21.245-5.678
	l-4.916,15.205C356.274,524.482,363.901,526.525,371.665,528.181z M396.023,532.062l1.677-15.893
	c-4.683-0.49-9.333-1.149-13.954-1.942l0.001,0.004l-0.474-0.082c-0.037-0.007-0.074-0.012-0.11-0.019v-0.001l-0.109-0.019v0.001
	c-0.06-0.011-0.119-0.022-0.179-0.032l-0.426-0.074v-0.003c-2.179-0.384-4.354-0.788-6.517-1.241l-3.314,15.629
	C380.286,529.994,388.095,531.222,396.023,532.062z M418.06,517.371c-6.515-0.088-12.984-0.443-19.396-1.092l-1.678,15.895
	c6.937,0.703,13.968,1.09,21.073,1.18V517.371z M421.09,517.037c120.921,0,219.291-98.373,219.291-219.289
	c0-120.916-98.37-219.293-219.291-219.293c-120.918,0-219.292,98.377-219.292,219.293c0,107.908,78.35,197.853,181.148,215.958
	l0.279,0.049C395.529,515.906,408.179,517.037,421.09,517.037z M445.309,532.16l-1.673-15.893c-6.42,0.648-12.901,1.01-19.419,1.098
	v15.971l0.029,0.018C431.346,533.255,438.373,532.867,445.309,532.16z M469.677,528.365l-3.311-15.631
	c-7.179,1.506-14.438,2.65-21.767,3.424l1.668,15.893C454.196,531.208,462.004,529.972,469.677,528.365z M493.538,522.023
	l-4.963-15.188c-6.993,2.258-14.084,4.16-21.257,5.697l3.311,15.621C478.413,526.494,486.054,524.443,493.538,522.023z
	 M516.53,513.244l-6.532-14.637c-1.139,0.506-2.258,1.053-3.407,1.535c-5.622,2.383-11.323,4.502-17.085,6.393l4.956,15.189
	C501.992,519.261,509.352,516.431,516.53,513.244z M536.304,503.333l-7.998-13.865c-5.655,3.164-11.47,6.072-17.422,8.738
	l6.539,14.648C523.881,509.957,530.174,506.775,536.304,503.333z M559.241,488.644l-9.455-12.906
	c-5.225,3.791-10.6,7.363-16.138,10.666l7.982,13.848C547.685,496.64,553.56,492.769,559.241,488.644z M578.423,473.164
	l-10.732-11.859c-5.486,4.928-11.199,9.549-17.113,13.871l9.448,12.902C566.409,483.408,572.55,478.431,578.423,473.164z
	 M595.948,455.701l-11.92-10.643c-2.469,2.725-5.002,5.4-7.616,8.012c-2.604,2.604-5.27,5.135-7.98,7.594l10.716,11.854
	C585.026,467.199,590.634,461.583,595.948,455.701z M611.485,436.593l-12.945-9.393c-4.321,5.918-8.945,11.631-13.872,17.119
	l11.929,10.654C601.858,449.103,606.826,442.968,611.485,436.593z M623.664,418.173l-13.841-7.998
	c-3.327,5.57-6.909,10.977-10.713,16.229l12.954,9.396C616.182,430.111,620.056,424.232,623.664,418.173z M636.245,393.976
	l-14.664-6.51c-2.652,5.934-5.545,11.727-8.694,17.365l13.855,8.008C630.18,406.714,633.358,400.425,636.245,393.976z
	 M645.128,370.943l-15.224-4.855c-1.899,5.787-4.025,11.516-6.416,17.162c-0.473,1.125-1.012,2.215-1.503,3.332l14.648,6.508
	C639.826,385.884,642.661,378.501,645.128,370.943z M651.536,347.121l-15.632-3.277c-1.539,7.195-3.438,14.309-5.705,21.32
	l15.229,4.854C647.838,362.544,649.878,354.9,651.536,347.121z M655.409,322.783l-15.893-1.643
	c-0.773,7.328-1.908,14.58-3.41,21.756l15.639,3.273C653.344,338.507,654.574,330.705,655.409,322.783z M656.697,300.773h-15.981
	c-0.084,6.516-0.443,12.986-1.089,19.4l15.896,1.646C656.222,314.89,656.61,307.865,656.697,300.773z"/>
</svg>
