<?xml version="1.0" encoding="utf-8"?>
<!-- Generator: Adobe Illustrator 16.0.0, SVG Export Plug-In . SVG Version: 6.00 Build 0)  -->
<!DOCTYPE svg PUBLIC "-//W3C//DTD SVG 1.1//EN" "http://www.w3.org/Graphics/SVG/1.1/DTD/svg11.dtd">
<svg version="1.1" id="Layer_1" xmlns="http://www.w3.org/2000/svg" xmlns:xlink="http://www.w3.org/1999/xlink" x="0px" y="0px"
	 width="595.28px" height="841.89px" viewBox="0 0 595.28 841.89" enable-background="new 0 0 595.28 841.89" xml:space="preserve">
<path fill="#010101" d="M293.113,610.906v29.584c0,6.686,10.369,6.686,10.369,0v-29.584
	C303.482,604.221,293.113,604.221,293.113,610.906z M199.268,583.016l-15.666,25.371c-3.524,5.707,5.446,10.91,8.951,5.235
	l15.665-25.374C211.744,582.544,202.774,577.339,199.268,583.016z M130.393,510.505l-25.662,15.292
	c-5.738,3.42-0.521,12.385,5.234,8.955l25.662-15.292C141.359,516.041,136.153,507.074,130.393,510.505z M106.984,414.876H77.856
	c-6.686,0-6.686,10.368,0,10.368h29.128C113.676,425.244,113.676,414.876,106.984,414.876z M136.001,319.826l-26.036-14.467
	c-5.853-3.251-11.078,5.707-5.234,8.954l26.036,14.467C136.616,332.03,141.845,323.074,136.001,319.826z M206.725,251.599
	l-14.172-25.104c-3.287-5.821-12.246-0.598-8.955,5.233l14.175,25.104C201.062,262.653,210.017,257.428,206.725,251.599z
	 M303.482,228.819v-29.202c0-6.685-10.369-6.685-10.369,0v29.202C293.113,235.506,303.482,235.506,303.482,228.819z M399,257.658
	l13.992-25.93c3.176-5.884-5.774-11.119-8.953-5.233l-13.992,25.93C386.869,258.308,395.822,263.543,399,257.658z M466.187,329.604
	l25.665-15.292c5.733-3.419,0.523-12.385-5.231-8.954l-25.665,15.293C455.22,324.07,460.432,333.036,466.187,329.604z
	 M489.081,425.244h29.654c6.688,0,6.688-10.368,0-10.368h-29.654C482.397,414.876,482.397,425.244,489.081,425.244z
	 M461.338,520.305l25.287,14.445c5.815,3.32,11.039-5.641,5.234-8.953l-25.29-14.445
	C460.754,508.032,455.53,516.992,461.338,520.305z M389.302,587.396l14.731,26.221c3.277,5.828,12.237,0.602,8.957-5.232
	l-14.738-26.223C394.98,576.336,386.022,581.563,389.302,587.396z M299.492,406.831h-0.729c-7.064,0-12.958,5.894-12.958,12.96
	s5.894,12.961,12.958,12.961h0.729c7.066,0,12.961-5.896,12.961-12.961S306.559,406.831,299.492,406.831z M136.965,423.008
	c-0.742,0.256-1.423,0.447-2.034,0.575c-0.611,0.126-1.162,0.19-1.649,0.19c-2.443,0-4.577-0.656-6.395-1.969
	c-2.241-1.604-3.356-3.895-3.356-6.871c0-3.451,1.146-6.055,3.427-7.819c1.918-1.482,4.416-2.223,7.488-2.223
	c2.445,0,4.618,0.941,6.527,2.825c2.005,1.967,3.011,4.35,3.024,7.144c0.012,3.038-0.577,5.985-1.768,8.84
	c-1.288,3.097-3.048,5.437-5.282,7.018c-0.938,0.655-2.404,1.439-4.396,2.35c-2.282,1.033-3.899,1.55-4.849,1.55
	c-0.713,0-1.309-0.256-1.785-0.767c-0.436-0.474-0.653-1.026-0.653-1.657c0-0.972,0.583-1.714,1.747-2.224
	c0.994-0.316,1.993-0.638,2.991-0.966c1.773-0.681,3.166-1.454,4.181-2.325C135.196,425.813,136.125,424.588,136.965,423.008z
	 M133.919,409.247c-1.795,0-3.148,0.447-4.047,1.34c-0.898,0.894-1.352,2.24-1.366,4.038c0,1.458,0.527,2.593,1.584,3.409
	c0.96,0.728,2.197,1.093,3.719,1.093c0.608,0,1.328-0.188,2.162-0.565c0.829-0.377,1.775-0.942,2.835-1.696
	c0.119-0.85,0.181-1.518,0.181-2.005c-0.012-1.275-0.592-2.54-1.732-3.792C136.125,409.854,135.009,409.247,133.919,409.247z
	 M292.043,276.333l-7.234-0.018c-2.297,0-3.447-0.723-3.447-2.168c0-1.627,1.285-2.443,3.846-2.443c0.244,0,0.514,0.007,0.806,0.02
	v-16.167c-1.058,0.728-1.743,1.095-2.057,1.095c-0.683,0-1.277-0.245-1.779-0.731c-0.507-0.485-0.756-1.051-0.756-1.695
	c0-0.667,0.405-1.352,1.221-2.059l2.059-1.496l2.224-1.784c0.913-0.656,1.791-0.984,2.646-0.984c1.092,0,1.638,0.656,1.638,1.969
	c0,1.444-0.06,3.481-0.185,6.105c-0.119,2.625-0.178,6.374-0.178,11.245v4.413h1.198c0.707,0,1.3,0.224,1.778,0.672
	c0.482,0.45,0.722,1.007,0.722,1.677c0,0.668-0.239,1.228-0.722,1.676C293.343,276.108,292.75,276.333,292.043,276.333z
	 M318.221,276.352c-0.307,0-0.779-0.051-1.414-0.154c-0.64-0.104-1.099-0.156-1.379-0.156l-5.356-0.019
	c-0.462,0-1.158,0.058-2.099,0.174c-0.933,0.116-1.638,0.173-2.11,0.173c-0.136,0-0.332-0.026-0.587-0.074
	c-0.252-0.048-0.446-0.072-0.583-0.072c-1.088,0-1.832-0.443-2.224-1.331c-0.243-0.558-0.363-1.421-0.363-2.588
	c0-2.272,0.503-4.173,1.514-5.705c0.779-1.178,2.033-2.357,3.773-3.537c1.64-1.08,3.276-2.156,4.902-3.224
	c1.918-1.398,2.88-2.984,2.88-4.758c0-0.462-0.385-0.921-1.146-1.377c-0.765-0.455-1.513-0.683-2.243-0.683
	c-1.288,0-2.65,0.575-4.093,1.722c-1.439,1.149-2.428,1.722-2.961,1.722c-0.648,0-1.212-0.158-1.695-0.472
	c-0.609-0.391-0.913-0.93-0.913-1.624c0-0.741,0.304-1.379,0.913-1.914c1.47-1.301,2.753-2.248,3.846-2.842
	c1.578-0.864,3.213-1.294,4.903-1.294c2.104,0,3.996,0.552,5.685,1.659c1.935,1.264,2.9,2.916,2.9,4.957
	c0,2.066-0.476,3.822-1.421,5.268c-0.743,1.154-1.915,2.277-3.521,3.372c-1.518,0.959-3.033,1.912-4.555,2.862
	c-2.311,1.505-3.549,3.226-3.72,5.157c0.67-0.084,1.651-0.183,2.954-0.292c2.59-0.133,4.442-0.201,5.559-0.201
	c1.045,0,2.076,0.227,3.099,0.676c1.266,0.559,1.897,1.276,1.897,2.15c0,0.632-0.229,1.187-0.675,1.658
	C319.513,276.098,318.923,276.352,318.221,276.352z M299.699,595.951c-3.441,0-5.979-1.215-7.623-3.645
	c-1.311-1.944-1.968-4.498-1.968-7.656c0-5.916,2.516-11.045,7.548-15.381c0.633-0.609,1.264-1.211,1.893-1.807
	c0.886-0.789,1.623-1.184,2.206-1.184c0.669,0,1.258,0.229,1.768,0.683c0.511,0.456,0.782,1.006,0.802,1.65
	c0.026,0.606-0.668,1.586-2.075,2.933c-1.01,0.927-2.013,1.843-3.007,2.754c-1.121,1.094-1.926,2.162-2.424,3.209
	c0.657-0.258,1.263-0.445,1.832-0.566c0.563-0.123,1.083-0.182,1.556-0.182c3.039,0,5.387,0.792,7.056,2.378
	c1.662,1.587,2.495,3.794,2.495,6.625c0,2.941-0.878,5.353-2.639,7.235C305.256,594.967,302.786,595.951,299.699,595.951z
	 M299.699,581.682c-0.903,0-1.708,0.145-2.428,0.436c-0.377,0.157-1.068,0.541-2.078,1.146c-0.046,0.501-0.069,0.963-0.069,1.387
	c0,2.296,0.386,4.02,1.164,5.167c0.779,1.149,1.946,1.724,3.498,1.724c1.595,0,2.828-0.533,3.7-1.606
	c0.838-1.019,1.26-2.411,1.26-4.172c0-1.36-0.422-2.381-1.26-3.062C302.647,582.02,301.385,581.682,299.699,581.682z
	 M466.935,417.087c2.505,1.397,3.756,3.633,3.756,6.707c0,2.479-0.918,4.582-2.753,6.307c-1.836,1.728-4.065,2.587-6.691,2.587
	c-1.954,0-3.716-0.393-5.285-1.184c-1.81-0.924-3.03-2.236-3.662-3.938c-0.097-0.256-0.147-0.529-0.147-0.818
	c0-0.683,0.278-1.246,0.818-1.694c0.514-0.414,1.097-0.622,1.751-0.622c0.768,0,1.382,0.305,1.844,0.912
	c0.776,1.045,1.227,1.615,1.349,1.712c0.75,0.608,1.864,0.912,3.333,0.912c1.153,0,2.167-0.347,3.039-1.038
	c0.868-0.692,1.301-1.525,1.301-2.498c0-3.025-2.033-4.739-6.106-5.14c-1.784-0.17-2.681-0.917-2.681-2.242
	c0-1.008,0.694-1.742,2.08-2.205c1.312-0.292,2.619-0.589,3.918-0.894c0.827-0.254,1.444-0.589,1.86-1.002
	c0.411-0.413,0.626-0.905,0.638-1.476c0.048-1.81-1.369-2.716-4.247-2.716c-0.948,0-1.988,0.362-3.115,1.084
	c-1.134,0.724-1.906,1.085-2.317,1.085c-0.69,0-1.282-0.248-1.767-0.748c-0.487-0.497-0.731-1.063-0.731-1.696
	c0-1.03,1.023-2.059,3.062-3.079c1.825-0.912,3.31-1.366,4.451-1.366c2.755,0,4.974,0.594,6.653,1.785
	c1.832,1.312,2.75,3.184,2.75,5.614c0,1.336-0.261,2.476-0.776,3.416C468.741,415.795,467.969,416.541,466.935,417.087z"/>
</svg>
