<?xml version="1.0" encoding="utf-8"?>
<!-- Generator: Adobe Illustrator 16.0.0, SVG Export Plug-In . SVG Version: 6.00 Build 0)  -->
<!DOCTYPE svg PUBLIC "-//W3C//DTD SVG 1.1//EN" "http://www.w3.org/Graphics/SVG/1.1/DTD/svg11.dtd">
<svg version="1.1" id="Layer_1" xmlns="http://www.w3.org/2000/svg" xmlns:xlink="http://www.w3.org/1999/xlink" x="0px" y="0px"
	 width="595.28px" height="841.89px" viewBox="0 0 595.28 841.89" enable-background="new 0 0 595.28 841.89" xml:space="preserve">
<path fill="#010101" d="M291.869,202.258l1.658,29.259h9.951l1.659-29.259H291.869L291.869,202.258z M278.468,203.165l-5.519,0.596
	l3.55,21.691l3.033-0.31L278.468,203.165L278.468,203.165z M318.537,203.165l-1.064,21.978l3.032,0.309l3.551-21.69L318.537,203.165
	L318.537,203.165z M255.898,206.455l-5.444,1.142l5.805,21.227l2.98-0.649l-3.341-21.716V206.455z M341.107,206.455l-3.343,21.744
	l2.98,0.621l5.779-21.198L341.107,206.455L341.107,206.455z M233.765,212.081l-5.261,1.709l7.956,20.499l2.929-0.957
	L233.765,212.081L233.765,212.081z M363.213,212.081l-5.597,21.276l2.929,0.932l7.957-20.499L363.213,212.081L363.213,212.081z
	 M212.356,219.984l-5.053,2.253l10.057,19.541l2.798-1.244L212.356,219.984L212.356,219.984z M384.623,219.984l-7.777,20.577
	l2.801,1.245l10.053-19.568l-5.076-2.255V219.984z M195.256,228.149l-11.506,6.634l16.067,24.515l8.629-4.976L195.256,228.149
	L195.256,228.149z M401.75,228.149l-13.217,26.173l8.632,4.976l16.067-24.515L401.75,228.149L401.75,228.149z M172.599,242.272
	l-4.484,3.24l13.916,17.026l2.465-1.789L172.599,242.272L172.599,242.272z M424.372,242.272l-11.897,18.503l2.49,1.787
	l13.915-17.028L424.372,242.272L424.372,242.272z M154.69,256.396l-4.122,3.706l15.603,15.473l2.28-2.022L154.69,256.396z
	 M442.296,256.423l-13.759,17.13l2.254,2.047l15.628-15.472L442.296,256.423L442.296,256.423z M138.356,272.334l-3.731,4.121
	l17.156,13.761l2.046-2.28L138.356,272.334L138.356,272.334z M458.631,272.334l-15.473,15.627l2.047,2.255l17.133-13.761
	L458.631,272.334L458.631,272.334z M123.765,289.879l-3.265,4.484l18.478,11.896l1.813-2.49L123.765,289.879L123.765,289.879z
	 M473.223,289.906l-17.027,13.89l1.787,2.488l18.505-11.896L473.223,289.906L473.223,289.906z M113.017,305.507l-6.633,11.506
	l26.173,13.192l4.976-8.63L113.017,305.507z M483.952,305.507l-24.515,16.067l4.975,8.63l26.174-13.192L483.952,305.507z
	 M100.474,329.038l-2.255,5.08l20.553,7.801l1.242-2.8L100.474,329.038L100.474,329.038z M496.497,329.063l-19.543,10.082
	l1.243,2.773l20.555-7.773L496.497,329.063L496.497,329.063z M92.027,350.236l-1.71,5.287l21.252,5.599l0.958-2.901L92.027,350.236
	L92.027,350.236z M504.943,350.262l-20.475,7.984l0.934,2.902l21.25-5.598L504.943,350.262L504.943,350.262z M85.828,372.215
	l-1.14,5.416l21.715,3.344l0.648-2.979l-21.227-5.78H85.828z M511.126,372.24l-21.229,5.779l0.647,2.981l21.718-3.344l-1.14-5.416
	H511.126z M81.966,394.708l-0.57,5.497l21.951,1.062l0.336-3.033L81.966,394.708L81.966,394.708z M514.984,394.737l-21.717,3.522
	l0.338,3.034l21.95-1.063L514.984,394.737L514.984,394.737z M80.479,413.63v13.268l29.261-1.66v-9.949L80.479,413.63L80.479,413.63z
	 M516.452,413.63l-29.259,1.658v9.949l29.259,1.66V413.63L516.452,413.63z M103.336,439.207l-21.95,1.06l0.571,5.523l21.715-3.526
	L103.336,439.207L103.336,439.207z M493.596,439.232l-0.338,3.059l21.717,3.524l0.572-5.52l-21.954-1.063H493.596z M106.384,459.502
	l-21.718,3.34l1.14,5.441l21.225-5.775L106.384,459.502L106.384,459.502z M490.533,459.525l-0.648,3.005l21.227,5.778l1.142-5.441
	L490.533,459.525L490.533,459.525z M111.547,479.378l-21.25,5.597l1.71,5.263l20.473-7.959L111.547,479.378L111.547,479.378z
	 M485.386,479.402l-0.96,2.9l20.498,7.96l1.713-5.263l-21.253-5.598H485.386z M118.761,498.582l-20.55,7.798l2.256,5.057
	l19.538-10.059L118.761,498.582L118.761,498.582z M478.188,498.607l-1.243,2.798l19.542,10.056l2.253-5.053L478.188,498.607
	L478.188,498.607z M132.557,510.32l-26.173,13.19l6.633,11.482l24.516-16.068L132.557,510.32z M464.412,510.32l-4.975,8.604
	l24.515,16.068l6.634-11.482L464.412,510.32z M138.991,534.24l-18.503,11.894l3.264,4.486l17.029-13.916L138.991,534.24
	L138.991,534.24z M457.996,534.269l-1.814,2.458l17.027,13.916l3.264-4.48L457.996,534.269L457.996,534.269z M151.769,550.28
	l-17.128,13.764l3.705,4.121l15.471-15.602L151.769,550.28L151.769,550.28z M445.18,550.309l-2.048,2.278l15.473,15.604l3.733-4.122
	L445.18,550.309z M166.163,564.899l-15.628,15.496l4.121,3.708l13.76-17.159L166.163,564.899L166.163,564.899z M430.789,564.925
	l-2.283,2.048l13.762,17.153l4.121-3.73L430.789,564.925z M182.005,577.96l-13.918,17.026l4.511,3.239l11.894-18.476L182.005,577.96
	L182.005,577.96z M414.928,577.96l-2.462,1.815l11.896,18.477l4.484-3.266L414.928,577.96L414.928,577.96z M199.804,581.226
	l-16.067,24.493l11.505,6.63l13.191-26.147L199.804,581.226z M397.145,581.226l-8.63,4.976l13.218,26.147l11.48-6.63
	L397.145,581.226L397.145,581.226z M217.318,598.719l-10.057,19.538l5.08,2.255l7.773-20.55L217.318,598.719L217.318,598.719z
	 M379.601,598.719l-2.798,1.246l7.801,20.575l5.054-2.255l-10.057-19.569V598.719z M236.416,606.236l-7.955,20.473l5.286,1.708
	l5.598-21.249L236.416,606.236L236.416,606.236z M360.502,606.236l-2.928,0.932l5.623,21.277l5.26-1.714L360.502,606.236
	L360.502,606.236z M293.507,608.984l-1.657,29.256h13.269l-1.658-29.256H293.507L293.507,608.984z M256.216,611.702l-5.781,21.199
	l5.418,1.166l3.343-21.741L256.216,611.702L256.216,611.702z M340.701,611.702l-2.98,0.624l3.343,21.741l5.442-1.166
	L340.701,611.702L340.701,611.702z M276.456,615.074l-3.55,21.69l5.519,0.566l1.064-21.946L276.456,615.074z M320.459,615.074
	l-3.03,0.311l1.063,21.946l5.521-0.566L320.459,615.074z M132.43,433.693c-4.627,0-7.957-0.555-9.993-1.664
	c-2.035-1.107-2.944-2.869-2.728-5.287v-0.535h6.542v0.535c0,1.339,0.522,2.354,1.571,3.05c1.049,0.69,2.585,1.041,4.608,1.041
	c3.396,0,5.529-0.595,6.396-1.786c0.771-1.064,1.193-3.455,1.266-7.171c-2.916,1.25-6,1.869-9.252,1.859
	c-4.097,0-7.018-0.6-8.764-1.794c-1.746-1.197-2.621-3.198-2.621-5.996v-1.002c0-2.714,1.102-4.746,3.306-6.096
	c2.207-1.351,5.523-2.026,9.956-2.026c5.422,0,9.077,0.743,10.969,2.229c1.891,1.487,2.825,4.37,2.799,8.644v3.141
	c-0.024,5.055-1,8.462-2.927,10.222C141.655,432.812,137.946,433.693,132.43,433.693L132.43,433.693z M139.872,414.867
	c0-1.969-0.48-3.31-1.444-4.023c-0.962-0.714-2.783-1.069-5.458-1.069c-2.481,0-4.251,0.389-5.311,1.171
	c-1.061,0.78-1.59,2.089-1.59,3.921v1.004c0,1.734,0.542,2.986,1.625,3.753c1.086,0.767,2.845,1.154,5.276,1.154
	c2.266,0,3.981-0.42,5.151-1.254c1.167-0.837,1.751-2.056,1.751-3.653V414.867L139.872,414.867z M470.145,413.298
	c0-1.301-0.496-2.228-1.482-2.781c-0.988-0.549-2.652-0.824-4.989-0.824c-2.118,0-3.726,0.335-4.822,1.011
	c-1.098,0.675-1.606,1.633-1.536,2.874v0.779h-6.613v-0.779c-0.264-2.157,0.729-3.821,2.982-4.994
	c2.252-1.171,5.594-1.753,10.027-1.753c4.265,0,7.502,0.497,9.72,1.496s3.325,2.456,3.325,4.375v0.764
	c0,2.231-0.975,3.805-2.926,4.721c-1.109,0.533-2.699,0.904-4.772,1.116c2.241,0.208,3.892,0.575,4.952,1.094
	c1.83,0.881,2.746,2.589,2.746,5.13v1.45c0,2.24-1.164,3.925-3.486,5.047c-2.326,1.118-5.824,1.68-10.498,1.68
	c-4.265,0-7.51-0.606-9.737-1.82c-2.229-1.215-3.272-2.943-3.127-5.185v-0.782h6.54v0.782c-0.048,1.397,0.441,2.44,1.465,3.112
	c1.022,0.672,2.605,1.012,4.752,1.012c2.576,0,4.479-0.357,5.709-1.068c1.229-0.711,1.842-1.803,1.842-3.279v-1.451
	c0-1.313-0.612-2.338-1.842-3.076c-1.23-0.74-2.939-1.107-5.131-1.107h-1.953v-3.007h0.688c2.842,0,4.914-0.301,6.216-0.902
	c1.298-0.605,1.952-1.561,1.952-2.873V413.298L470.145,413.298z M307.223,238.673c-4.578,0-7.92,0.539-10.064,1.627
	c-2.142,1.092-3.083,2.724-2.82,4.916v0.786h6.601v-0.786c-0.072-1.401,0.365-2.356,1.28-2.908c0.914-0.552,2.569-0.844,5.003-0.844
	c1.877,0,3.408,0.316,4.563,0.96c1.157,0.645,1.746,1.522,1.746,2.588c0,1.896-1.441,4.082-4.332,6.571
	c-2.893,2.493-8.037,5.93-15.383,10.353v3.199h26.781v-2.849h-20.271c7.303-4.474,12.357-7.882,15.151-10.236
	c3.108-2.639,4.653-5.014,4.653-7.096c0-2.056-1.092-3.616-3.287-4.682c-2.191-1.076-5.408-1.599-9.625-1.599H307.223z
	 M285.378,238.945c-1.541,0.793-2.968,1.408-4.246,1.891c-1.252,0.471-2.841,0.992-4.768,1.512v3.141
	c2.577-0.681,4.707-1.358,6.367-1.977l1.31-0.496v22.131h6.601v-26.202H285.378L285.378,238.945z M298.974,568.463
	c4.626,0,7.956,0.555,9.993,1.664c2.034,1.111,2.944,2.87,2.727,5.287v0.54h-6.541v-0.54c0-1.338-0.523-2.354-1.572-3.049
	c-1.047-0.693-2.584-1.039-4.606-1.039c-3.084,0-5.095,0.668-6.034,2.008c-0.82,1.15-1.266,3.418-1.338,6.799
	c2.916-1.14,6.095-1.708,9.539-1.708c3.878,0,6.65,0.597,8.313,1.795c1.662,1.195,2.492,3.192,2.492,5.994v1.003
	c0,2.713-1.124,4.747-3.376,6.095c-2.254,1.351-5.634,2.027-10.139,2.027c-4.672,0-8.088-0.682-10.244-2.048
	c-2.157-1.361-3.235-3.514-3.235-6.466v-3.139c0.024-6.293,0.929-10.409,2.711-12.344
	C289.421,569.425,293.192,568.463,298.974,568.463L298.974,568.463z M291.564,587.293c0,1.969,0.483,3.308,1.446,4.024
	c0.963,0.708,2.771,1.068,5.42,1.068c2.483,0,4.253-0.394,5.314-1.173c1.059-0.782,1.59-2.088,1.59-3.924v-1.002
	c0-1.733-0.543-2.986-1.627-3.753c-1.084-0.771-2.842-1.152-5.277-1.152c-2.24,0-3.946,0.416-5.111,1.254
	c-1.168,0.836-1.755,2.054-1.755,3.651v1.002V587.293z M205.459,261.966c-1.542,0.793-2.968,1.435-4.246,1.919
	c-1.252,0.47-2.841,0.963-4.767,1.484v3.139c2.576-0.681,4.704-1.327,6.366-1.947l1.31-0.494v22.13h6.601v-26.23H205.459
	L205.459,261.966z M227.648,261.966c-1.541,0.793-2.94,1.435-4.216,1.919c-1.253,0.47-2.842,0.963-4.769,1.484v3.139
	c2.578-0.681,4.676-1.327,6.339-1.947l1.309-0.494v22.13h6.63v-26.23H227.648L227.648,261.966z M167.867,322.454
	c-4.579,0-7.945,0.569-10.148,1.715c-2.205,1.146-3.315,2.913-3.315,5.291v12.359c0,2.405,1.153,4.254,3.488,5.553
	c2.335,1.303,5.662,1.952,9.976,1.952c4.409,0,7.79-0.643,10.089-1.921c2.301-1.276,3.432-3.129,3.432-5.584v-12.358
	c0-2.477-1.049-4.283-3.169-5.38C176.1,322.986,172.637,322.454,167.867,322.454L167.867,322.454z M146.347,322.716
	c-1.543,0.793-2.94,1.436-4.217,1.919c-1.253,0.47-2.841,0.962-4.767,1.483v3.14c2.576-0.681,4.703-1.327,6.366-1.949l1.28-0.522
	v22.16h6.631v-26.23H146.347L146.347,322.716z M167.867,325.333c2.433,0,4.208,0.314,5.292,0.958
	c1.083,0.644,1.627,1.708,1.627,3.169v12.358c0,1.487-0.575,2.628-1.745,3.404c-1.168,0.774-2.91,1.132-5.175,1.132
	c-2.336,0-4.058-0.36-5.176-1.103c-1.12-0.745-1.687-1.884-1.687-3.433V329.46c0-1.535,0.531-2.62,1.542-3.226
	C163.557,325.626,165.313,325.333,167.867,325.333L167.867,325.333z M163.604,504.59c2.218,0.248,3.854,0.662,4.915,1.243
	c1.831,1.009,2.748,2.949,2.748,5.821v-0.559c0,2.38-1.186,4.24-3.561,5.586c-2.373,1.345-5.667,2.017-9.884,2.017
	c-4.554,0-7.926-0.62-10.119-1.857c-2.191-1.238-3.288-3.152-3.288-5.745v0.559c0-2.688,1.012-4.586,3.035-5.688
	c1.253-0.683,3.061-1.145,5.42-1.395c-1.926-0.271-3.467-0.691-4.625-1.264c-2.022-1.017-3.036-2.624-3.036-4.832v0.521
	c0-2.291,1.103-4.062,3.308-5.308c2.204-1.243,5.342-1.869,9.415-1.869c4.432,0,7.665,0.574,9.703,1.721
	c2.033,1.145,3.052,2.964,3.052,5.456v-0.521c0,2.208-0.927,3.822-2.783,4.854C166.82,503.922,165.387,504.34,163.604,504.59
	L163.604,504.59z M157.932,503.123c2.096,0,3.643-0.369,4.643-1.117c1-0.742,1.5-1.889,1.5-3.436v0.52
	c0-1.562-0.481-2.687-1.446-3.374c-0.963-0.686-2.527-1.031-4.696-1.031c-2.025,0-3.549,0.371-4.572,1.107
	c-1.024,0.737-1.536,1.836-1.536,3.298v-0.52c0,1.547,0.505,2.693,1.517,3.436C154.329,502.754,155.858,503.123,157.932,503.123z
	 M157.822,506.061c-2.456,0-4.204,0.385-5.239,1.157c-1.037,0.776-1.553,2.071-1.553,3.878v-0.558c0,2.008,0.474,3.379,1.426,4.107
	c0.953,0.733,2.741,1.099,5.369,1.099c2.456,0,4.208-0.399,5.256-1.201c1.048-0.798,1.572-2.134,1.572-4.005v0.558
	c0-1.945-0.479-3.271-1.446-3.979c-0.938-0.705-2.733-1.056-5.382-1.056H157.822z M206.549,574.241l17.056-23.362h-19.586v-2.861
	h25.477v2.861l-15.104,23.362H206.549L206.549,574.241z M394.469,566.819c0,2.96-0.967,5.048-2.909,6.254
	c-1.94,1.21-5.282,1.813-10.028,1.813c-4.696,0-7.968-0.441-9.813-1.319c-1.84-0.881-2.871-2.484-3.087-4.816v-0.781h6.54v0.781
	c0.146,1.103,0.669,1.91,1.572,2.426c0.902,0.516,2.269,0.771,4.1,0.771c2.795,0,4.674-0.379,5.641-1.139
	c0.963-0.766,1.445-2.249,1.445-4.453v-1.747c0-1.646-0.44-2.798-1.318-3.448c-0.881-0.65-2.441-0.977-4.682-0.977
	c-2.145,0-3.739,0.295-4.789,0.884c-1.045,0.589-1.547,1.47-1.5,2.646h-6.757l0.47-15.443h23.85v2.955h-17.814l-0.253,8.348
	c1.132-0.584,2.071-1.017,2.819-1.3c1.684-0.633,3.746-0.952,6.18-0.952c3.854,0,6.539,0.569,8.059,1.703
	c1.518,1.136,2.275,3.148,2.275,6.053V566.819L394.469,566.819z M441.961,508.584h-18.395v-2.717l15.828-17.077h9.182v16.93h5.852
	v2.864h-5.852v6.43h-6.615V508.584L441.961,508.584z M441.961,505.72v-13.679l-12.538,13.679H441.961z M453.36,327.632
	c0,2.082-1.554,4.443-4.661,7.081c-2.796,2.354-7.842,5.769-15.145,10.241h20.275v2.862h-26.777v-3.196
	c7.348-4.424,12.468-7.881,15.359-10.372c2.891-2.49,4.334-4.683,4.334-6.578c0-1.067-0.578-1.921-1.733-2.565
	c-1.155-0.646-2.675-0.967-4.554-0.967c-2.432,0-4.107,0.274-5.021,0.827c-0.916,0.551-1.338,1.527-1.265,2.927v0.779h-6.614v-0.779
	c-0.266-2.193,0.674-3.835,2.82-4.926c2.143-1.092,5.504-1.634,10.08-1.634c4.217,0,7.422,0.54,9.613,1.614
	c2.193,1.066,3.289,2.627,3.289,4.683L453.36,327.632z M382.413,286.879v-22.135l-1.303,0.502c-1.661,0.62-3.781,1.269-6.357,1.95
	v-3.14c1.923-0.52,3.517-1.017,4.767-1.487c1.279-0.483,2.688-1.12,4.229-1.914h5.275v26.225h-6.612L382.413,286.879z
	 M309.125,420.442c0,5.88-4.766,10.644-10.645,10.644c-5.879,0-10.645-4.764-10.645-10.644c0-5.881,4.766-10.647,10.645-10.647
	C304.359,409.795,309.125,414.562,309.125,420.442z"/>
</svg>
