<?xml version="1.0" encoding="utf-8"?>
<!-- Generator: Adobe Illustrator 16.0.0, SVG Export Plug-In . SVG Version: 6.00 Build 0)  -->
<!DOCTYPE svg PUBLIC "-//W3C//DTD SVG 1.1//EN" "http://www.w3.org/Graphics/SVG/1.1/DTD/svg11.dtd">
<svg version="1.1" id="Layer_1" xmlns="http://www.w3.org/2000/svg" xmlns:xlink="http://www.w3.org/1999/xlink" x="0px" y="0px"
	 width="841.891px" height="595.281px" viewBox="0 0 841.891 595.281" enable-background="new 0 0 841.891 595.281"
	 xml:space="preserve">
<path d="M442.457,509.427v2.611h-9.03v-2.611c0.847,0.238,1.657-0.115,2.423-1.061c0.768-0.947,1.15-2.689,1.15-5.211
	c0-1.66-0.026-3.223-0.075-4.684c-0.065-1.465-0.139-2.506-0.204-3.137l-4.831-40.934l-7.271,55.01l3.229,0.014v2.611h-13.151
	v-2.611h3.153l10.123-75.932h2.846l7.337,61.365c0.563,4.82,0.966,7.816,1.212,9.002
	C440.094,507.335,441.125,509.191,442.457,509.427z M403.539,158.802h0.002c-1.535,0-2.523-0.573-2.969-1.717
	c-0.448-1.147-0.667-3.141-0.667-5.981c0-0.792,0.161-1.978,0.485-3.556c0.172-0.789,0.454-1.973,0.857-3.551l3.818-15.285
	l7.082,30.091h-2.546v2.607h11.792v-2.595l-2.012,0.028l-9.607-41.503l4.011-16.94c1.289-5.371,2.403-9.042,3.332-11.019
	c0.928-1.973,2.104-2.959,3.519-2.959v-2.606H410.27v2.606c1.01,0,1.766,0.63,2.271,1.896c0.507,1.263,0.76,2.922,0.76,4.975
	c0,0.869-0.144,2.153-0.426,3.849c-0.282,1.699-0.567,3.102-0.85,4.207l-3.133,12.578l-6.463-27.483l3.168-0.021v-2.606h-12.604
	v2.606h1.938l9.292,39.073l-5.17,20.515c-1.38,5.531-2.498,8.985-3.368,10.364c-0.867,1.384-1.91,2.193-3.121,2.43v2.607h10.973
	V158.802z M399.722,437.048h3.579v72.377h-3.579v2.611h13.7v-2.611h-3.576v-72.377h3.576v-2.605h-13.7V437.048z M339.933,492.213
	c0.49-1.107,1.907-3.778,4.254-8.026l29.749-54.171l-2.314-1.656l-52.425,55.854l-2.564-1.835l-1.52,2.123l10.694,7.654l1.52-2.123
	l-2.618-1.892l37.929-40.5l-19.895,36.098c-0.314,0.551-0.86,1.44-1.66,2.67c-0.811,1.217-1.698,2.502-2.665,3.852
	c-1.468,2.051-2.793,3.245-3.969,3.568c-1.172,0.323-2.038,0.139-2.587-0.548l-1.52,2.123l7.343,5.257l1.52-2.124
	C338.26,497.571,338.503,495.461,339.933,492.213z M346.581,414.808l2.911,2.083l-42.125,58.856l-2.91-2.084l-1.52,2.124
	l11.141,7.974l1.521-2.123l-2.909-2.082l42.124-58.855l2.909,2.082l1.516-2.119l-11.141-7.974L346.581,414.808z M332.868,404.624
	l2.911,2.083l-42.125,58.856l-2.91-2.084l-1.52,2.124l11.141,7.974l1.521-2.123l-2.909-2.082l42.124-58.855l2.909,2.082l1.516-2.119
	l-11.141-7.974L332.868,404.624z M435.913,86.42h3.579v72.382h-3.579v2.607h13.702v-2.607h-3.579V86.42h3.579v-2.606h-13.702V86.42z
	 M538.89,474.253l-46.73-60.701l-2.468,1.426l24.328,56.813c1.919,4.453,3.075,7.254,3.453,8.404
	c1.106,3.373,1.145,5.488,0.104,6.363l1.306,2.26l7.821-4.521l-1.3-2.252c-0.622,0.627-1.497,0.729-2.637,0.289
	c-1.135-0.436-2.338-1.748-3.604-3.941c-0.827-1.434-1.58-2.801-2.273-4.09c-0.674-1.299-1.138-2.236-1.389-2.82l-16.282-37.859
	l33.803,44.002l-2.79,1.631l1.3,2.26l11.393-6.578l-1.3-2.256L538.89,474.253z M607.237,400.266l-70.744-29.386l-1.432,2.465
	l49.38,37.164c3.88,2.907,6.278,4.761,7.178,5.571c2.639,2.374,3.725,4.19,3.257,5.467l2.258,1.311l4.532-7.815l-2.248-1.306
	c-0.228,0.854-0.936,1.377-2.143,1.563c-1.201,0.187-2.897-0.354-5.088-1.625c-1.431-0.832-2.764-1.643-4.007-2.416
	c-1.231-0.791-2.1-1.373-2.609-1.755l-32.965-24.731l51.22,21.339l-1.609,2.803l2.253,1.313l6.606-11.376l-2.25-1.31
	L607.237,400.266z M666.099,297.768c0,67.657-27.424,128.911-71.76,173.249c-44.338,44.338-105.59,71.762-173.248,71.762
	c-67.655,0-128.908-27.424-173.25-71.762c-44.338-44.338-71.761-105.592-71.761-173.249c0-67.656,27.423-128.908,71.761-173.248
	c44.341-44.338,105.595-71.762,173.25-71.762c67.657,0,128.91,27.424,173.248,71.762
	C638.676,168.86,666.099,230.112,666.099,297.768z M644.88,390.367c11.806-28.51,18.32-59.787,18.32-92.599
	c0-32.812-6.516-64.086-18.32-92.597c-12.268-29.608-30.259-56.269-52.587-78.603c-22.336-22.332-48.996-40.321-78.602-52.583
	c-28.51-11.81-59.787-18.329-92.6-18.329c-32.816,0-64.089,6.519-92.6,18.329c-29.607,12.262-56.268,30.252-78.604,52.583
	c-22.331,22.334-40.319,48.995-52.584,78.603c-11.81,28.51-18.325,59.785-18.325,92.597c0,32.812,6.517,64.089,18.325,92.599
	c12.265,29.607,30.253,56.266,52.584,78.602c43.811,43.813,104.346,70.91,171.201,70.91c32.813,0,64.091-6.52,92.601-18.328
	c29.604-12.262,56.265-30.25,78.601-52.582C614.621,446.632,632.612,419.974,644.88,390.367z M670.191,297.768
	c0,33.718-6.713,65.894-18.873,95.251c-12.63,30.5-31.134,57.934-54.087,80.889c-22.956,22.955-50.392,41.459-80.894,54.094
	c-29.354,12.156-61.528,18.867-95.246,18.867c-33.727,0-65.895-6.711-95.254-18.867c-30.497-12.635-57.932-31.139-80.888-54.094
	c-22.955-22.955-41.455-50.389-54.089-80.895c-12.162-29.352-18.872-61.521-18.872-95.246c0-33.724,6.71-65.895,18.872-95.248
	c12.634-30.501,31.134-57.938,54.089-80.892c22.956-22.954,50.391-41.454,80.888-54.088c29.359-12.162,61.527-18.871,95.254-18.871
	c33.721,0,65.894,6.709,95.251,18.871c30.502,12.634,57.933,31.134,80.889,54.088c22.953,22.955,41.457,50.391,54.087,80.892
	C663.479,231.874,670.191,264.049,670.191,297.768z M667.295,297.768c0-67.988-27.56-129.537-72.109-174.091
	c-44.557-44.553-106.105-72.11-174.094-72.11S291.554,79.124,247,123.677c-44.552,44.554-72.11,106.103-72.11,174.091
	c0,67.987,27.56,129.542,72.11,174.093c44.555,44.553,106.104,72.109,174.092,72.109c67.987,0,129.537-27.559,174.094-72.109
	C639.735,427.31,667.295,365.755,667.295,297.768z M498.862,180.134l-3.097-1.79l36.193-62.685l3.094,1.79l1.305-2.257l-11.86-6.851
	l-1.308,2.258l3.102,1.786l-36.197,62.688l-3.092-1.787l-1.308,2.256l11.863,6.85L498.862,180.134z M609.159,193.928l-62.687,36.193
	l-1.787-3.099l-2.256,1.305l6.85,11.863l2.256-1.305l-1.783-3.094l62.684-36.193l1.787,3.096l2.257-1.304l-6.853-11.861
	l-2.257,1.302L609.159,193.928z M560.04,278.036h-2.604v13.697h2.604v-3.575h72.383v3.575h2.608v-13.697h-2.608v3.577H560.04
	V278.036z M542.017,227.617l2.259-1.305l-1.788-3.096l62.686-36.191l1.787,3.096l2.259-1.304l-6.849-11.863l-2.258,1.304
	l1.784,3.097l-62.685,36.188l-1.784-3.096l-2.256,1.304L542.017,227.617z M632.423,296.851H560.04v-3.579h-2.604v13.698h2.604
	v-3.572h72.383v3.572h2.608v-13.698h-2.608V296.851z M424.974,158.802h-2.764v2.607h12.882v-2.607h-3.572V86.42h3.572v-2.606
	h-13.698v2.606h3.58V158.802z M408.148,297.768c0,7.128,5.813,12.942,12.942,12.942c7.131,0,12.944-5.813,12.944-12.942
	c0-7.129-5.813-12.945-12.944-12.945C413.963,284.823,408.148,290.64,408.148,297.768z M632.423,312.085H560.04v-3.578h-2.604
	v13.699h2.604v-3.576h72.383v3.576h2.608v-13.699h-2.608V312.085z M614.903,386.584l-62.684-36.191l1.789-3.098l-2.258-1.303
	l-6.854,11.865l2.259,1.301l1.785-3.096l62.687,36.191l-1.786,3.096l2.253,1.305l6.854-11.863l-2.258-1.307L614.903,386.584z
	 M214.597,284.438c1.265-0.506,2.925-0.756,4.977-0.756c0.867,0,2.151,0.144,3.851,0.427c1.693,0.281,3.1,0.562,4.204,0.845
	l12.576,3.131l-27.48,6.467l-0.021-3.173h-2.608v12.611h2.608v-1.939h-0.003l39.071-9.293l20.515,5.169
	c5.528,1.376,8.985,2.496,10.366,3.361c1.383,0.871,2.191,1.91,2.426,3.121h2.609v-10.969h-2.609c0,1.537-0.571,2.525-1.717,2.971
	c-1.145,0.445-3.136,0.668-5.981,0.668c-0.79,0-1.973-0.165-3.551-0.488c-0.794-0.169-1.977-0.455-3.556-0.858l-15.283-3.816
	l30.089-7.084v2.546h2.609v-12.61h-2.609l0.042,2.832l-41.5,9.607l-16.939-4.011c-5.372-1.295-9.044-2.407-11.021-3.335
	c-1.976-0.928-2.959-2.103-2.959-3.514h-2.608v10.366h2.608C212.703,285.701,213.332,284.944,214.597,284.438z M246.748,405.289
	l62.688-36.193l1.785,3.1l2.261-1.303l-6.851-11.863l-2.26,1.303l1.789,3.098l-62.683,36.191l-1.79-3.104l-2.256,1.311l6.849,11.859
	l2.257-1.297L246.748,405.289z M239.013,391.886l62.685-36.188l1.787,3.096l2.257-1.303l-6.849-11.865l-2.256,1.299l1.788,3.102
	l-62.688,36.191l-1.786-3.098l-2.258,1.301l6.852,11.867l2.255-1.307L239.013,391.886z M371.333,163.55l-3.097,1.79l-36.193-62.689
	l3.096-1.787l-1.302-2.257l-11.861,6.851l1.302,2.257l3.096-1.789l36.19,62.685l-3.098,1.787l0.008,0.014l0.704-0.417l1.299,2.251
	l11.16-6.44L371.333,163.55z M231.276,378.484l62.683-36.191l1.788,3.098l2.258-1.305l-6.85-11.863l-2.257,1.307l1.787,3.096
	L228,372.816l-1.788-3.102l-2.261,1.309l6.855,11.861l2.256-1.305L231.276,378.484z M321.693,383.222l-70.822,29.201l-1.575-2.727
	l-2.259,1.301l6.574,11.391l2.26-1.301l-1.603-2.813l51.276-21.201l-33.03,24.646c-0.512,0.377-1.385,0.963-2.619,1.74
	c-1.24,0.781-2.575,1.584-4.016,2.41c-2.182,1.268-3.882,1.807-5.084,1.613c-1.207-0.193-1.916-0.711-2.136-1.566l-2.256,1.305
	l4.516,7.816l2.254-1.299c-0.457-1.275,0.635-3.1,3.28-5.465c0.904-0.805,3.298-2.65,7.193-5.553l49.472-37.029L321.693,383.222z
	 M300.358,120.943l27.588,29.191l5.778,20.352c1.575,5.475,2.328,9.027,2.268,10.661c-0.058,1.63-0.557,2.853-1.49,3.663
	l1.305,2.256l9.503-5.483l-1.304-2.258c-1.329,0.764-2.477,0.764-3.433-0.002c-0.956-0.771-2.146-2.386-3.571-4.849
	c-0.393-0.684-0.845-1.789-1.354-3.321c-0.247-0.769-0.592-1.936-1.03-3.505L330.28,152.5l21.183,22.523l-2.206,1.272l1.307,2.258
	l10.21-5.9v0l0.705-0.403l-0.001-0.003l-0.704,0.406l-1.297-2.241l-1.729,1.028l-29.071-31.138l-5-16.676
	c-1.565-5.297-2.438-9.033-2.621-11.209c-0.185-2.176,0.341-3.615,1.563-4.323l-1.3-2.256l-8.979,5.183l1.306,2.255
	c0.872-0.503,1.845-0.335,2.917,0.509c1.065,0.84,2.114,2.148,3.142,3.928c0.436,0.752,0.955,1.936,1.555,3.545
	c0.605,1.612,1.061,2.969,1.371,4.067l3.575,12.459l-19.343-20.571l2.742-1.602l-1.305-2.257l-10.921,6.304l1.305,2.256
	L300.358,120.943z M232.979,203.477l38.482,11.487l15.184,14.737c4.098,3.955,6.529,6.652,7.294,8.096
	c0.76,1.444,0.94,2.749,0.541,3.916l2.26,1.307l5.485-9.502l-2.256-1.305c-0.771,1.328-1.759,1.899-2.978,1.713
	c-1.211-0.188-3.047-0.993-5.511-2.414c-0.687-0.395-1.63-1.126-2.837-2.196c-0.599-0.543-1.481-1.383-2.649-2.521l-11.327-10.946
	l29.604,8.908l-1.273,2.208l2.255,1.302l6.307-10.921l-2.255-1.302l-1.382,2.467l-40.747-12.429L254.51,194.14
	c-4.007-3.804-6.63-6.604-7.874-8.396c-1.249-1.792-1.519-3.301-0.807-4.526l-2.259-1.304l-5.182,8.978l2.255,1.305
	c0.507-0.877,1.435-1.216,2.782-1.021c1.344,0.195,2.907,0.803,4.685,1.829c0.752,0.436,1.794,1.202,3.125,2.293
	c1.325,1.095,2.4,2.042,3.216,2.836l9.325,9.004l-27.037-8.14l1.57-2.762l-2.255-1.3l-6.305,10.918l2.255,1.305L232.979,203.477z
	 M285.079,319.152h2.609v-13.701h-2.609v3.58h-72.378v-3.58h-2.608v13.701h2.608v-3.576h72.378V319.152z M633.726,401.912h0.004
	l-0.164,0.332c-0.093,0.188-0.184,0.379-0.278,0.566c-0.003,0-0.005-0.004-0.008-0.006l-1.752,3.48
	c0.002,0.002,0.002,0.002,0.005,0.002c-0.045,0.084-0.093,0.172-0.135,0.256l-0.1,0.199l-0.006-0.002
	c-11.243,21.645-25.723,41.336-42.813,58.42c-42.834,42.842-102.018,69.334-167.39,69.334c-65.373,0-124.555-26.492-167.392-69.334
	c-42.841-42.834-69.336-102.02-69.336-167.393c0-65.37,26.496-124.554,69.336-167.393c42.837-42.841,102.019-69.335,167.392-69.335
	c65.372,0,124.556,26.494,167.39,69.335c42.846,42.84,69.339,102.024,69.339,167.394
	C657.819,335.14,649.147,370.484,633.726,401.912z M644.742,371.835l-9.682-3.129c-2.193,6.621-4.684,13.104-7.457,19.438
	l9.285,4.156C639.813,385.634,642.436,378.804,644.742,371.835z M651.219,348.181l-9.94-2.156
	c-1.493,6.84-3.299,13.563-5.395,20.156l9.663,3.184C647.754,362.439,649.651,355.373,651.219,348.181z M655.209,323.728
	l-10.115-1.066c-0.767,6.967-1.847,13.834-3.23,20.592l9.943,2.158C653.266,338.296,654.404,331.062,655.209,323.728z
	 M656.511,305.06l-10.067-5.242c-0.063,6.785-0.422,13.494-1.067,20.125l10.106,1.184
	C656.003,315.822,656.346,310.462,656.511,305.06z M655.494,274.532l-10.115,1.082c0.654,6.702,1.015,13.494,1.067,20.36
	l-0.536,0.267l0.536-0.258v-0.009l10.071-5.037v-0.292C656.354,285.228,656.013,279.854,655.494,274.532z M651.811,250.168
	l-9.952,2.103c1.388,6.764,2.47,13.642,3.235,20.614l10.108-1.121C654.399,264.457,653.266,257.257,651.811,250.168z
	 M645.568,226.247l-9.66,3.194c2.089,6.574,3.892,13.282,5.376,20.106l9.955-2.101C649.674,240.25,647.773,233.18,645.568,226.247z
	 M636.871,203.198l-9.293,4.141c2.775,6.33,5.268,12.813,7.462,19.428l9.707-3.05C642.433,216.726,639.803,209.881,636.871,203.198z
	 M628.571,186.194l-11.339,0.516c3.335,5.877,6.416,11.921,9.225,18.111l9.299-4.125
	C633.524,195.766,631.125,190.932,628.571,186.194z M612.427,160.383l-8.219,5.995c3.943,5.485,7.647,11.158,11.098,16.998
	l4.756-6.968l1.514-2.289l-0.167-0.297C618.565,169.236,615.569,164.754,612.427,160.383z M597.031,141.175l-7.538,6.827
	c4.611,5.181,8.989,10.58,13.114,16.173l8.242-5.956C606.504,152.321,601.892,146.635,597.031,141.175z M579.676,123.619
	l-6.731,7.624c2.556,2.332,5.061,4.721,7.509,7.167c2.436,2.437,4.813,4.932,7.136,7.476l7.659-6.694
	c-2.476-2.717-5.011-5.377-7.606-7.973C585.047,128.624,582.388,126.091,579.676,123.619z M560.657,108.025l-5.956,8.244
	c5.568,4.104,10.939,8.458,16.101,13.046l6.86-7.506C572.215,116.957,566.541,112.358,560.657,108.025z M535.525,103.37l0.482,0.491
	L536,103.866c5.649,3.356,11.145,6.948,16.463,10.77l6.053-8.175c-4.382-3.154-8.883-6.16-13.483-9.014l-0.304-0.152L535.525,103.37
	z M518.166,83.106l-4.115,9.302c6.083,2.76,12.024,5.785,17.808,9.056l0.506-11.335C527.721,87.635,522.989,85.289,518.166,83.106z
	 M495.193,74.131l-3.141,9.676c6.618,2.194,13.099,4.684,19.428,7.458l4.211-9.261C509.015,79.071,502.177,76.444,495.193,74.131z
	 M469.314,77.576c6.814,1.486,13.511,3.282,20.08,5.369l3.264-9.639c-6.952-2.214-14.045-4.118-21.262-5.688L469.314,77.576z
	 M446.051,73.775c6.961,0.767,13.832,1.849,20.588,3.235l2.09-9.957c-7.092-1.457-14.299-2.591-21.605-3.395L446.051,73.775z
	 M423.021,72.417c6.827,0.057,13.581,0.417,20.248,1.067l1.028-10.12c-5.357-0.522-10.77-0.867-16.227-1.027L423.021,72.417z
	 M397.846,63.369l1.139,10.109c6.629-0.646,13.344-1.001,20.128-1.061l-5.012-10.079C408.635,62.498,403.214,62.844,397.846,63.369z
	 M373.398,67.067l2.229,9.926c6.74-1.38,13.593-2.458,20.536-3.22l-1.051-10.118C387.768,64.459,380.523,65.601,373.398,67.067z
	 M349.59,73.285l3.201,9.658c6.565-2.085,13.259-3.88,20.069-5.365l-2.051-9.964C363.606,69.178,356.528,71.077,349.59,73.285z
	 M326.448,82.021l4.179,9.276c6.341-2.78,12.835-5.277,19.464-7.476l-3.176-9.665C339.943,76.468,333.115,79.092,326.448,82.021z
	 M309.691,90.196l0.541,11.321c5.832-3.302,11.823-6.354,17.96-9.136l-4.171-9.279C319.152,85.307,314.375,87.676,309.691,90.196z
	 M283.725,106.422l6.006,8.209c5.388-3.872,10.955-7.511,16.685-10.905l-0.005-0.002l0.366-0.275l-9.238-6.098l-0.542,0.193
	C292.47,100.357,288.042,103.318,283.725,106.422z M264.463,121.856l6.816,7.551c5.199-4.629,10.611-9.018,16.224-13.156
	l-5.976-8.23C275.623,112.371,269.928,116.987,264.463,121.856z M246.956,139.168l7.598,6.766c2.336-2.563,4.728-5.072,7.181-7.525
	c2.449-2.448,4.957-4.837,7.514-7.173l-6.825-7.541c-2.684,2.448-5.313,4.956-7.881,7.524
	C251.951,133.81,249.423,136.46,246.956,139.168z M231.353,158.192l8.253,5.947c4.115-5.58,8.479-10.963,13.078-16.132l-7.603-6.752
	C240.252,146.682,235.67,152.334,231.353,158.192z M220.74,173.876l6.146,9.486c3.426-5.803,7.105-11.434,11.021-16.886
	l-8.262-5.935C226.531,164.879,223.56,169.324,220.74,173.876z M206.453,200.641l9.313,4.097c2.771-6.107,5.811-12.067,9.098-17.87
	l-11.193-0.785C211.104,190.841,208.695,195.695,206.453,200.641z M197.44,223.703l9.7,3.071c2.196-6.625,4.691-13.114,7.47-19.449
	l-9.33-4.052C202.362,209.927,199.744,216.745,197.44,223.703z M190.951,247.416l9.944,2.135c1.491-6.833,3.292-13.546,5.384-20.129
	l-9.682-3.117C194.4,233.21,192.511,240.25,190.951,247.416z M186.977,271.787l10.118,1.04c0.762-6.94,1.84-13.787,3.22-20.523
	l-9.919-2.261C188.927,257.178,187.785,264.432,186.977,271.787z M185.675,290.421l10.063,5.353
	c0.061-6.842,0.422-13.611,1.078-20.291l-10.12-1C186.18,279.747,185.839,285.06,185.675,290.421z M186.7,321.099l10.108-1.127
	c-0.646-6.609-1.006-13.305-1.069-20.066l-10.082,4.711C185.815,310.16,186.165,315.658,186.7,321.099z M190.38,345.417l9.938-2.174
	c-1.388-6.771-2.47-13.652-3.234-20.631l-10.106,1.121C187.78,331.066,188.919,338.3,190.38,345.417z M196.613,369.279l9.656-3.195
	c-2.102-6.613-3.907-13.355-5.398-20.213l-9.93,2.201C192.508,355.267,194.405,362.343,196.613,369.279z M205.287,392.287
	l9.275-4.186c-2.765-6.313-5.248-12.777-7.437-19.375l-9.663,3.178C199.762,378.845,202.377,385.646,205.287,392.287z
	 M213.458,409.052l11.272-0.621c-3.259-5.77-6.276-11.691-9.026-17.76l-9.262,4.203
	C208.624,399.687,210.967,404.416,213.458,409.052z M229.738,435.126l8.182-6.045c-3.924-5.465-7.61-11.107-11.042-16.92
	l-6.244,9.334C223.513,426.15,226.551,430.697,229.738,435.126z M245.135,454.345l7.568-6.795
	c-4.629-5.199-9.019-10.615-13.157-16.229l-8.237,5.965C235.655,443.189,240.268,448.88,245.135,454.345z M262.496,471.91
	l6.749-7.615c-2.558-2.332-5.063-4.723-7.511-7.168c-2.462-2.463-4.865-4.982-7.211-7.555l-7.565,6.801
	c2.465,2.707,4.993,5.355,7.583,7.945C257.131,466.91,259.786,469.441,262.496,471.91z M281.543,487.529l6.015-8.205
	c-5.635-4.15-11.07-8.559-16.287-13.203l-6.792,7.572C269.943,478.558,275.639,483.177,281.543,487.529z M306.747,492.011
	c-5.846-3.445-11.52-7.156-17.011-11.102l-6.01,8.209c4.453,3.201,9.021,6.25,13.698,9.143l-0.013,0.01l0.07,0.047l0.015-0.01
	c-0.023-0.016-0.048-0.031-0.071-0.047l4.602-3.037L306.747,492.011z M323.967,512.41l4.11-9.309
	c-6.021-2.73-11.902-5.727-17.625-8.959l-0.533,11.316C314.514,507.925,319.196,510.248,323.967,512.41z M347.036,521.421
	l3.099-9.686c-6.646-2.203-13.154-4.707-19.508-7.494l-4.174,9.275C333.156,516.46,340.024,519.099,347.036,521.421z
	 M372.995,517.992c-6.892-1.498-13.666-3.314-20.307-5.43l-3.056,9.701c6.931,2.205,13.998,4.1,21.188,5.664L372.995,517.992z
	 M396.209,521.775c-7.003-0.771-13.908-1.857-20.703-3.254l-2.012,9.969c7.106,1.457,14.329,2.596,21.652,3.396L396.209,521.775z
	 M418.993,523.123c-6.812-0.063-13.548-0.426-20.201-1.078l-0.959,10.121c5.396,0.529,10.841,0.879,16.337,1.035L418.993,523.123z
	 M444.264,532.173l-0.984-10.117c-6.582,0.641-13.249,1-19.981,1.066l5.233,10.059C433.822,533.017,439.068,532.681,444.264,532.173
	z M468.706,528.486l-2.135-9.941c-6.772,1.387-13.66,2.471-20.639,3.234l1.231,10.092
	C454.452,531.07,461.636,529.937,468.706,528.486z M492.652,522.234l-3.215-9.652c-6.619,2.104-13.366,3.914-20.234,5.408
	l2.264,9.914C478.657,526.335,485.723,524.439,492.652,522.234z M515.74,513.513l-4.255-9.238
	c-6.357,2.785-12.871,5.285-19.519,7.486l3.271,9.631C502.221,519.078,509.062,516.447,515.74,513.513z M532.893,505.128
	l-0.674-11.256c-5.909,3.355-11.983,6.455-18.211,9.277l4.259,9.234C523.238,510.132,528.115,507.708,532.893,505.128z
	 M534.233,491.314l1.412-0.826c10.242-6.102,19.948-13.005,29.054-20.607l0.992-0.842l0,0c4.811-4.063,9.461-8.31,13.911-12.76
	c13.482-13.482,25.256-28.678,34.968-45.225l-1.676-2.535l3.036,0.184c18.444-32.322,29.073-69.682,29.321-109.506l-2.646-1.376
	l2.651-1.268c-0.215-39.928-10.86-77.386-29.362-109.784l-3.001,0.137l1.666-2.44c-9.709-16.545-21.479-31.734-34.958-45.21
	c-13.325-13.329-28.329-24.98-44.656-34.625l-0.764-0.374l-2.205,1.458v-0.013l-0.32,0.217l0.141-3.118
	c-32.296-18.378-69.606-28.963-109.371-29.196l-1.368,2.729l-1.355-2.729c-39.78,0.243-77.103,10.843-109.406,29.246l0.144,2.985
	l-0.233-0.159l0.001,0.038l-2.257-1.491l-0.334,0.18c-16.475,9.688-31.608,21.419-45.039,34.853
	c-13.483,13.481-25.255,28.677-34.965,45.225l1.748,2.702l-3.18-0.223c-18.411,32.314-29.015,69.652-29.25,109.448l2.943,1.567
	l-2.94,1.373c0.272,39.627,10.822,76.807,29.123,109.01l3.495-0.193l-1.937,2.895c9.71,16.549,21.48,31.74,34.963,45.221
	c13.493,13.494,28.701,25.271,45.267,34.986l2.834-1.93l-0.163,3.471c32.217,18.305,69.41,28.855,109.051,29.123l1.489-3.117
	l1.621,3.115c39.743-0.275,77.022-10.889,109.296-29.291l0.167-0.098l-0.16-2.717l1.143,0.756L534.233,491.314z M558.566,489.041
	l-6.015-8.203c-5.268,3.787-10.707,7.352-16.302,10.682l-0.904,0.529l0.924,0.609c0-0.002,0-0.002,0-0.002l8.486,5.605
	C549.472,495.349,554.077,492.271,558.566,489.041z M560.508,487.628c5.98-4.398,11.744-9.072,17.274-14.006l-6.855-7.512
	c-1.242,1.104-2.504,2.188-3.771,3.265l0.008,0.005l-0.418,0.35c-0.074,0.063-0.147,0.129-0.222,0.192
	c-0.001-0.001-0.002-0.003-0.003-0.004l-0.758,0.635l0.001,0.001c-0.022,0.019-0.045,0.036-0.067,0.055l-0.392,0.328l-0.006-0.005
	c-3.483,2.904-7.044,5.721-10.701,8.413l5.135,7.217L560.508,487.628l-0.013,0.006l0.013,0.016l0.009-0.01L560.508,487.628z
	 M595.783,456.65l-0.447-0.396h-0.002l-0.365-0.326l-7.234-6.432c-2.37,2.6-4.796,5.143-7.281,7.631
	c-2.487,2.486-5.037,4.916-7.639,7.287l6.845,7.52c2.722-2.477,5.384-5.014,7.982-7.615c2.627-2.627,5.192-5.314,7.692-8.063
	l0.444,0.4L595.783,456.65z M610.896,437.257l-8.249-5.951c-4.155,5.639-8.564,11.08-13.217,16.301l7.593,6.768
	C601.903,448.892,606.534,443.181,610.896,437.257z M621.513,421.548l-6.207-9.385c-3.468,5.873-7.193,11.576-11.162,17.088
	l8.237,5.967C615.577,430.775,618.625,426.216,621.513,421.548z M635.771,394.81l-9.319-4.086
	c-2.797,6.174-5.867,12.197-9.193,18.059l11.253,0.682c0.646-1.201,1.279-2.412,1.902-3.625l1.81-3.576
	C633.448,399.8,634.635,397.32,635.771,394.81z"/>
</svg>
