<?xml version="1.0" encoding="utf-8"?>
<!-- Generator: Adobe Illustrator 13.0.0, SVG Export Plug-In . SVG Version: 6.00 Build 14948)  -->
<!DOCTYPE svg PUBLIC "-//W3C//DTD SVG 1.1//EN" "http://www.w3.org/Graphics/SVG/1.1/DTD/svg11.dtd">
<svg version="1.1" xmlns="http://www.w3.org/2000/svg" xmlns:xlink="http://www.w3.org/1999/xlink" x="0px" y="0px"
	 width="688.487px" height="539.462px" viewBox="0 0 688.487 539.462" enable-background="new 0 0 688.487 539.462"
	 xml:space="preserve">
<g id="Layer_1">
	<g>
		<path d="M158.734,233.479v-5.842c-2.369-0.854-3.956-2.381-3.956-4.132c0-1.72,1.533-3.227,3.842-4.089
			c-1.114-3.398-1.802-8.062-1.802-13.208c0-7.107,1.313-13.291,3.244-16.496c-1.491-1.18-2.475-3.204-2.475-5.504
			c0-2.552,1.207-4.761,2.975-5.857h-0.61c-0.48,0-0.905-0.311-1.051-0.768c-0.001-0.003-0.614-1.935-1.401-4.156
			c-0.773-2.205-1.762-4.752-2.357-5.729c-0.717-1.208-2.838-3.676-4.722-5.738c-1.896-2.078-3.585-3.806-3.586-3.809
			c-0.396-0.41-0.42-1.056-0.046-1.49c0.003-0.004,1.92-2.246,4.021-4.942c2.091-2.672,4.387-5.893,4.995-7.446
			c1.994-4.933,3.545-16.093,4.527-25.87c0.991-9.802,1.459-18.286,1.463-18.302c0.034-0.584,0.522-1.045,1.107-1.042
			c0.062,0,0.12,0.022,0.179,0.033c0.061-0.01,0.117-0.033,0.18-0.033c0.584-0.003,1.075,0.458,1.107,1.042
			c0.002,0.016,0.471,8.5,1.463,18.302c0.98,9.777,2.534,20.937,4.531,25.87c0.604,1.553,2.897,4.774,4.994,7.446
			c2.098,2.697,4.014,4.938,4.018,4.942c0.372,0.434,0.349,1.08-0.047,1.49c-0.003,0.003-1.691,1.731-3.585,3.809
			c-1.886,2.062-4.008,4.53-4.723,5.738c-0.594,0.978-1.583,3.525-2.36,5.729c-0.785,2.221-1.396,4.152-1.398,4.156
			c-0.145,0.457-0.571,0.768-1.053,0.768h-0.608c1.766,1.096,2.974,3.306,2.974,5.857c0,2.3-0.981,4.324-2.472,5.504
			c1.932,3.205,3.24,9.389,3.24,16.496c0,5.146-0.687,9.81-1.8,13.208c2.31,0.862,3.845,2.37,3.845,4.089
			c0,1.75-1.588,3.278-3.961,4.132v5.842c7.033,1.912,12.214,8.326,12.214,15.964c0,9.144-7.414,16.557-16.558,16.557
			c-9.146,0-16.558-7.413-16.558-16.557C146.522,241.804,151.706,235.39,158.734,233.479z"/>
		<path d="M97.869,233.122v-6.174c-1.845-0.564-3.107-1.693-3.107-2.996c0-1.002,0.748-1.897,1.927-2.517
			c-2.307-5.899-2.401-18.426-2.401-32.921c0-17.239,2.048-31.682,4.805-35.519c-1.935-0.963-3.333-3.785-3.333-7.118
			c0-2.876,1.042-5.371,2.567-6.618H97.42c-0.479,0-0.905-0.313-1.05-0.77c-0.002-0.004-0.613-1.935-1.401-4.153
			c-0.773-2.208-1.761-4.754-2.357-5.732c-0.717-1.208-2.838-3.678-4.723-5.738c-1.897-2.075-3.585-3.805-3.588-3.81
			c-0.392-0.41-0.417-1.054-0.044-1.489c0.003-0.004,1.92-2.245,4.015-4.942c2.098-2.671,4.394-5.894,4.995-7.445
			c1.999-4.933,3.55-16.094,4.534-25.871c0.988-9.801,1.458-28.249,1.461-28.269c0.035-0.584,0.523-1.044,1.106-1.041
			c0.064,0,0.12,0.022,0.181,0.033c0.06-0.01,0.118-0.033,0.175-0.033c0.589-0.003,1.077,0.457,1.112,1.041
			c0.002,0.02,0.473,18.468,1.462,28.269c0.978,9.777,2.534,20.938,4.527,25.871c0.608,1.552,2.904,4.774,4.994,7.445
			c2.103,2.697,4.018,4.938,4.022,4.942c0.37,0.435,0.349,1.079-0.05,1.489c-0.002,0.005-1.686,1.734-3.583,3.81
			c-1.889,2.061-4.009,4.53-4.722,5.738c-0.596,0.978-1.584,3.524-2.362,5.732c-0.783,2.218-1.396,4.149-1.396,4.153
			c-0.145,0.457-0.57,0.77-1.05,0.77h-0.912c1.532,1.248,2.575,3.742,2.575,6.618c0,3.333-1.404,6.155-3.334,7.118
			c2.753,3.837,4.8,18.28,4.8,35.519c0,14.492-0.104,27.013-2.41,32.916c1.186,0.619,1.937,1.518,1.937,2.522
			c0,1.303-1.257,2.431-3.103,2.996v6.174c7.866,1.283,13.876,8.091,13.876,16.321c0,9.144-7.412,16.557-16.558,16.557
			c-9.147,0-16.557-7.413-16.557-16.557C83.994,241.213,90.002,234.405,97.869,233.122z"/>
	</g>
	<g>
		<path fill-rule="evenodd" clip-rule="evenodd" d="M26.473,519.253c-0.657-1.317-1.522-2.549-2.619-3.646
			c-1.488-1.493-3.234-2.558-5.088-3.236v-0.85c0.166-3.149,0.121-6.297,0-9.45V476.3c0.027-0.184,0.063-0.366,0.089-0.553
			c5.306-1.981,9.093-7.08,9.093-13.079c0-6.252-4.107-11.543-9.77-13.33c12.07-68.568-8.854-137.141-3.552-205.712
			c14.417-6.447,5.021-21.018,3.239-31.2c-4.19-23.958-4.305-54.243-3.803-73.261c-0.565-0.567-2.918-0.871-3.954-0.021
			c0.164,21.578,1.524,49.429-2.822,73.425c-1.885,10.411-10.94,26.453,2.822,31.056c5.484,68.771-16.54,137.546-1.884,206.316
			C3.377,452.135,0,457,0,462.668c0,6.032,3.83,11.158,9.184,13.115v36.588c-1.857,0.679-3.604,1.743-5.092,3.236
			c-5.456,5.451-5.456,14.305,0,19.758c5.458,5.458,14.307,5.458,19.762,0c3.208-3.209,4.517-7.588,3.95-11.76
			C27.722,522.074,27.298,520.594,26.473,519.253z"/>
		<path fill-rule="evenodd" clip-rule="evenodd" d="M61.86,513.566c12.285-31.355-8.894-63.245-2.311-94.552h-0.106
			c17.167-6.861,6.682-21.938,4.451-32.363c-5.326-24.913-6.611-56.168-5.974-75.943c-0.718-0.594-3.709-0.909-5.022-0.025
			c0.207,22.439,0.677,51.79-4.848,76.746c-2.388,10.787-12.566,27.011,4.674,31.859c4.785,31.369-14.475,62.929-2.512,94.248
			c-4.899,2.125-8.317,6.856-8.317,12.36c0,7.492,6.317,13.566,14.107,13.566c7.792,0,14.106-6.074,14.106-13.566
			C70.109,520.417,66.726,515.709,61.86,513.566z"/>
	</g>
	<g>
		<path d="M608.468,233.877v-74.805c-1.731-15.195-5.26-27.47-11.018-34.097c11.382-11.427,12.845-77.71,12.873-77.817h1.871
			c0.028,0.107,1.443,66.391,12.82,77.817c-5.751,6.626-9.285,18.898-11.018,34.094v74.808c6.794,1.297,11.932,7.258,11.934,14.429
			c-0.002,8.117-6.579,14.694-14.696,14.694c-8.116,0-14.694-6.577-14.694-14.694C596.54,241.135,601.675,235.174,608.468,233.877z"
			/>
		<path d="M560.393,233.877v-49.274c-1.814-14.925-6.668-27.159-15.441-33.329c15.036-9.229,17.175-52.856,17.218-52.941h1.978
			c0.043,0.085,2.183,43.712,17.213,52.941c-8.769,6.17-13.621,18.404-15.437,33.329v49.274c6.794,1.297,11.932,7.258,11.932,14.429
			c0,8.117-6.582,14.694-14.701,14.694c-8.109,0-14.693-6.577-14.693-14.694C548.46,241.135,553.6,235.174,560.393,233.877z"/>
	</g>
	<path fill-rule="evenodd" clip-rule="evenodd" d="M277.2,466.098c0.656-8.671,2.546-16.918,3.084-25.288
		c1.762-27.386-1.785-52.269-3.084-79.561c-1.729-36.3-5.702-108.94-5.677-109.788h-2.002c0.024,0.847-3.949,73.488-5.678,109.788
		c-1.299,27.292-4.847,52.175-3.085,79.561c0.54,8.37,2.429,16.617,3.085,25.288c1.484,19.547-6.239,32.179-5.553,47.493
		c0.482,10.729,5.519,21.894,12.186,25.813v0.058c0.014-0.016,0.03-0.024,0.046-0.032c0.015,0.008,0.029,0.017,0.046,0.032v-0.058
		c6.665-3.92,11.701-15.085,12.183-25.813C283.438,498.277,275.714,485.645,277.2,466.098z"/>
	<path fill-rule="evenodd" clip-rule="evenodd" fill="#FFFFFF" d="M273.853,507.305c0,1.838-1.491,3.334-3.33,3.334
		c-1.84,0-3.331-1.496-3.331-3.334s1.49-3.327,3.331-3.327C272.361,503.978,273.853,505.467,273.853,507.305z"/>
	<path fill-rule="evenodd" clip-rule="evenodd" d="M242.322,378.501c-1.878-16.85-5.55-49.955-5.55-50.571h-1.802
		c0,0.616-3.674,33.722-5.552,50.571c-1.813,16.278-5.464,33.225-4.933,49.955c0.453,14.263,5.149,29.396,4.319,44.397
		c-1.344,24.219-11.253,51.745,7.06,66.602l0,0c0.002,0.003,0.004,0.005,0.007,0.007v-0.002c0.001,0,0.002,0.002,0.002,0.002
		c0.002-0.002,0.003-0.004,0.005-0.007l0,0c18.31-14.856,8.4-42.383,7.061-66.602c-0.831-15.001,3.861-30.135,4.314-44.397
		C247.785,411.726,244.137,394.78,242.322,378.501z"/>
	<path fill-rule="evenodd" clip-rule="evenodd" fill="#FFFFFF" d="M239.201,507.305c0,1.838-1.493,3.334-3.331,3.334
		c-1.841,0-3.329-1.496-3.329-3.334s1.488-3.327,3.329-3.327C237.708,503.978,239.201,505.467,239.201,507.305z"/>
	<g>
		<g>
			<path fill-rule="evenodd" clip-rule="evenodd" d="M665.654,538.572c3.154-112.689,5.541-225.245,8.327-337.749
				c0.914-0.715,5.266-0.715,6.182,0c2.784,112.504,5.171,225.06,8.324,337.749C684.548,539.758,669.595,539.758,665.654,538.572z"
				/>
			<circle fill-rule="evenodd" clip-rule="evenodd" fill="#FFFFFF" cx="677.071" cy="495.412" r="5.091"/>
		</g>
		<g>
			<path fill-rule="evenodd" clip-rule="evenodd" d="M614.977,538.847c4.06-78.221,7.135-156.349,10.719-234.44
				c1.18-0.498,6.783-0.498,7.961,0c3.586,78.092,6.661,156.22,10.721,234.44C639.305,539.667,620.049,539.667,614.977,538.847z"/>
			<circle fill-rule="evenodd" clip-rule="evenodd" fill="#FFFFFF" cx="629.677" cy="497.384" r="5.091"/>
		</g>
	</g>
	<g>
		<path d="M470.785,495.714c0-4.607,2.469-8.628,6.153-10.837V318.442h12.964v166.433c3.687,2.21,6.159,6.23,6.159,10.84
			c0,4.605-2.473,8.624-6.159,10.828v32.92h-12.964v-32.922C473.254,504.335,470.785,500.319,470.785,495.714z"/>
		<path d="M418.281,482.749c0-4.603,2.473-8.628,6.159-10.832V240.662h12.959v231.252c3.686,2.205,6.158,6.23,6.158,10.834
			c0,4.608-2.473,8.633-6.158,10.838v45.876H424.44v-45.877C420.754,491.375,418.281,487.356,418.281,482.749z"/>
	</g>
	<g>
		<path fill-rule="evenodd" clip-rule="evenodd" d="M466.815,190.733V132.12h0.674c17.642-5.393,6.575-16.881,4.192-24.857
			c-5.75-19.283-7.135-43.472-6.447-58.777c-0.775-0.458-4.006-0.702-5.422-0.019c0.224,17.368,0.729,40.082-5.233,59.396
			c-2.491,8.076-12.854,20.078,3.312,24.256h1.604v58.613c-5.341,1.579-9.24,6.515-9.24,12.367c0,7.125,5.774,12.9,12.901,12.9
			c7.125,0,12.897-5.775,12.897-12.9C476.053,197.248,472.153,192.312,466.815,190.733z"/>
		<path fill-rule="evenodd" clip-rule="evenodd" d="M422.302,190.733V84.076h0.675c17.643-5.395,6.575-16.878,4.198-24.857
			c-5.756-19.28-7.141-43.471-6.454-58.777c-0.771-0.458-4-0.699-5.419-0.021c0.224,17.37,0.731,40.084-5.23,59.397
			c-2.497,8.076-12.853,20.082,3.309,24.257h1.601v106.657c-5.338,1.579-9.238,6.515-9.238,12.367c0,7.125,5.778,12.9,12.903,12.9
			c7.122,0,12.896-5.775,12.896-12.9C431.542,197.248,427.644,192.312,422.302,190.733z"/>
	</g>
	<g>
		<path d="M302.676,184.76l6.56-21.487l-7.73-163.113l-2.578,0.076l-7.729,163.347l6.213,21.233
			c-7.342,1.325-12.921,7.735-12.921,15.461c0,8.685,7.04,15.724,15.73,15.724c8.683,0,15.723-7.039,15.723-15.724
			C315.943,192.428,310.188,185.941,302.676,184.76z"/>
		<path d="M255.831,184.91l9.232-20.094l-10.81-106.381l-3.18-0.095l-11.14,106.476l9.903,19.978
			c-7.414,1.267-13.065,7.705-13.065,15.482c0,8.685,7.041,15.724,15.729,15.724c8.684,0,15.724-7.039,15.724-15.724
			C268.224,192.732,262.913,186.442,255.831,184.91z"/>
	</g>
</g>
<g id="Layer_2">
</g>
</svg>
