<?xml version="1.0" encoding="utf-8"?>
<!-- Generator: Adobe Illustrator 16.0.0, SVG Export Plug-In . SVG Version: 6.00 Build 0)  -->
<!DOCTYPE svg PUBLIC "-//W3C//DTD SVG 1.1//EN" "http://www.w3.org/Graphics/SVG/1.1/DTD/svg11.dtd">
<svg version="1.1" id="Layer_1" xmlns="http://www.w3.org/2000/svg" xmlns:xlink="http://www.w3.org/1999/xlink" x="0px" y="0px"
	 width="595.28px" height="841.89px" viewBox="0 0 595.28 841.89" enable-background="new 0 0 595.28 841.89" xml:space="preserve">
<path d="M298.467,660.939c-132.7,0-240.659-107.957-240.659-240.655c0-132.699,107.959-240.662,240.659-240.662
	c132.697,0,240.658,107.963,240.658,240.662C539.125,552.982,431.164,660.939,298.467,660.939 M298.467,212.818
	c-114.397,0-207.464,93.072-207.464,207.466c0,114.396,93.067,207.462,207.464,207.462c114.395,0,207.463-93.066,207.463-207.462
	C505.93,305.891,412.861,212.818,298.467,212.818 M298.467,592.034c-94.704,0-171.753-77.046-171.753-171.748
	c0-94.706,77.049-171.757,171.753-171.757c94.703,0,171.75,77.051,171.75,171.757C470.217,514.988,393.17,592.034,298.467,592.034
	 M298.467,255.172c-91.042,0-165.114,74.07-165.114,165.114c0,91.039,74.072,165.108,165.114,165.108
	c91.043,0,165.113-74.069,165.113-165.108C463.58,329.242,389.51,255.172,298.467,255.172 M298.467,532.79
	c-62.039,0-112.507-50.47-112.507-112.504c0-62.039,50.469-112.509,112.507-112.509c62.035,0,112.508,50.47,112.508,112.509
	C410.975,482.32,360.502,532.79,298.467,532.79 M298.467,314.417c-58.377,0-105.87,47.492-105.87,105.869
	c0,58.373,47.493,105.87,105.87,105.87c58.375,0,105.867-47.497,105.867-105.87C404.334,361.909,356.842,314.417,298.467,314.417
	 M298.396,617.328c-1.558,0-3.113-0.017-4.664-0.054c0,0,3.253-21.521,4.734-21.521c1.131,0,3.959,21.53,3.959,21.53l-0.198,0.005
	C300.945,617.317,299.67,617.328,298.396,617.328 M314.328,616.693l-1.051-13.232c2.652-0.213,5.336-0.487,7.975-0.811l1.633,13.174
	C320.049,616.176,317.174,616.467,314.328,616.693 M281.719,616.635c-2.865-0.244-5.74-0.553-8.548-0.912l1.694-13.169
	c2.615,0.338,5.294,0.618,7.969,0.847L281.719,616.635z M334.767,613.985l-2.425-13.055c2.601-0.484,5.238-1.033,7.839-1.64
	l3.003,12.936C340.391,612.873,337.559,613.467,334.767,613.985 M261.289,613.828c-2.787-0.533-5.612-1.14-8.401-1.794l3.056-12.925
	c2.606,0.618,5.24,1.182,7.84,1.678L261.289,613.828z M354.814,609.148l-3.785-12.729c2.533-0.748,5.1-1.575,7.623-2.45l4.35,12.543
	C360.29,607.454,357.535,608.341,354.814,609.148 M241.264,608.896c-2.737-0.827-5.493-1.734-8.188-2.683l4.404-12.523
	c2.517,0.888,5.084,1.726,7.637,2.499L241.264,608.896z M374.249,602.228l-5.108-12.253c2.459-1.027,4.915-2.112,7.307-3.237
	l5.642,12.019C379.523,599.959,376.887,601.129,374.249,602.228 M221.836,601.869c-2.635-1.119-5.277-2.304-7.862-3.529l5.704-11.99
	c2.407,1.146,4.87,2.252,7.323,3.285L221.836,601.869z M392.807,593.32l-6.365-11.652c2.337-1.277,4.669-2.617,6.94-3.992
	l6.866,11.367C397.814,590.514,395.314,591.952,392.807,593.32 M203.261,592.838c-2.509-1.384-5.013-2.844-7.44-4.33l6.931-11.324
	c2.262,1.388,4.594,2.741,6.932,4.036L203.261,592.838z M410.34,582.517l-7.543-10.927c2.179-1.508,4.362-3.085,6.486-4.69
	l8.017,10.582C415.023,579.209,412.68,580.897,410.34,582.517 M185.749,581.92c-2.352-1.641-4.687-3.349-6.946-5.076l8.076-10.543
	c2.103,1.608,4.28,3.203,6.471,4.732L185.749,581.92z M426.662,569.933l-8.643-10.081c2.012-1.723,4.021-3.523,5.967-5.348
	l9.072,9.698C430.971,566.153,428.819,568.083,426.662,569.933 M169.477,569.244c-2.152-1.866-4.297-3.807-6.373-5.767l9.121-9.651
	c1.938,1.83,3.941,3.64,5.946,5.38L169.477,569.244z M441.594,555.719l-9.647-9.127c1.827-1.937,3.642-3.931,5.385-5.944
	l10.028,8.703C445.491,551.504,443.549,553.646,441.594,555.719 M154.617,554.948c-1.963-2.096-3.893-4.251-5.735-6.396
	l10.077-8.647c1.721,2,3.517,4.011,5.349,5.965L154.617,554.948z M454.966,540.021l-10.538-8.076
	c1.619-2.119,3.218-4.293,4.738-6.469l10.879,7.604C458.416,535.418,456.707,537.752,454.966,540.021 M141.331,539.194
	c-1.73-2.28-3.426-4.62-5.037-6.953l10.92-7.552c1.501,2.176,3.084,4.358,4.699,6.483L141.331,539.194z M466.642,523.01
	l-11.325-6.932c1.391-2.271,2.748-4.604,4.037-6.932l11.62,6.428C469.588,518.075,468.135,520.573,466.642,523.01 M129.761,522.15
	c-1.479-2.435-2.92-4.938-4.285-7.44l11.65-6.37c1.274,2.332,2.617,4.662,3.991,6.934L129.761,522.15z M476.482,504.861
	l-11.989-5.705c1.147-2.415,2.256-4.88,3.29-7.321l12.228,5.172C478.901,499.633,477.713,502.273,476.482,504.861 M120.036,503.995
	c-1.212-2.578-2.379-5.215-3.48-7.837l12.256-5.119c1.02,2.449,2.11,4.906,3.241,7.311L120.036,503.995z M484.367,485.768
	l-12.523-4.41c0.885-2.523,1.729-5.093,2.504-7.633l12.701,3.852C486.223,480.311,485.32,483.065,484.367,485.768 M112.266,484.91
	c-0.932-2.697-1.822-5.447-2.638-8.184l12.725-3.796c0.76,2.55,1.587,5.115,2.461,7.628L112.266,484.91z M490.189,465.967
	l-12.919-3.077c0.616-2.575,1.181-5.212,1.678-7.834l13.044,2.498C491.455,460.366,490.848,463.196,490.189,465.967
	 M106.547,465.097c-0.646-2.778-1.238-5.609-1.762-8.413l13.051-2.438c0.488,2.613,1.04,5.254,1.644,7.846L106.547,465.097z
	 M493.895,445.677l-13.172-1.697c0.34-2.624,0.622-5.307,0.854-7.97l13.227,1.121C494.563,439.986,494.257,442.861,493.895,445.677
	 M102.938,444.793c-0.353-2.83-0.645-5.702-0.876-8.546l13.236-1.062c0.215,2.654,0.49,5.333,0.814,7.979L102.938,444.793z
	 M495.451,425.125c0,0-21.515-3.283-21.515-4.771c0-1.19,21.53-4.249,21.53-4.249l0.01,0.463c0.023,1.233,0.038,2.511,0.038,3.786
	C495.515,421.946,495.493,423.539,495.451,425.125 M101.462,424.272L101.458,424c-0.023-1.238-0.038-2.515-0.038-3.79
	c0-1.524,0.02-3.045,0.053-4.566c0,0,21.523,3.142,21.523,4.566C122.996,421.4,101.462,424.272,101.462,424.272 M481.617,405.2
	c-0.213-2.639-0.49-5.324-0.823-7.974l13.177-1.653c0.357,2.85,0.652,5.722,0.884,8.551L481.617,405.2z M115.341,404.741
	l-13.229-1.109c0.24-2.844,0.542-5.722,0.901-8.546l13.171,1.682C115.848,399.402,115.562,402.085,115.341,404.741 M479.063,386.144
	c-0.494-2.632-1.05-5.269-1.651-7.849l12.93-3.014c0.645,2.765,1.239,5.591,1.77,8.406L479.063,386.144z M117.946,385.691
	l-13.041-2.482c0.535-2.821,1.138-5.65,1.794-8.412l12.919,3.063C119.007,380.431,118.446,383.065,117.946,385.691 M474.525,367.457
	c-0.76-2.545-1.59-5.106-2.464-7.624l12.538-4.362c0.94,2.699,1.83,5.453,2.646,8.177L474.525,367.457z M122.536,367.021
	l-12.712-3.844c0.83-2.741,1.73-5.503,2.679-8.193l12.527,4.401C124.149,361.895,123.306,364.466,122.536,367.021 M468.049,349.36
	c-1.031-2.463-2.121-4.922-3.247-7.307l12.011-5.66c1.205,2.559,2.379,5.197,3.486,7.835L468.049,349.36z M129.076,348.902
	l-12.231-5.161c1.114-2.638,2.298-5.283,3.521-7.859l11.996,5.693C131.219,343.979,130.116,346.447,129.076,348.902
	 M459.721,332.066c-1.27-2.312-2.616-4.644-4.001-6.935l11.354-6.88c1.484,2.45,2.927,4.951,4.286,7.43L459.721,332.066z
	 M137.487,331.578l-11.625-6.415c1.383-2.507,2.839-5.007,4.329-7.441l11.327,6.921
	C140.132,326.914,138.777,329.244,137.487,331.578 M449.613,315.729c-1.498-2.171-3.082-4.351-4.698-6.479l10.569-8.033
	c1.736,2.283,3.433,4.623,5.046,6.951L449.613,315.729z M147.663,315.244l-10.886-7.598c1.63-2.337,3.333-4.673,5.073-6.947
	l10.545,8.069C150.778,310.882,149.186,313.065,147.663,315.244 M437.857,300.523c-1.721-2.002-3.527-4.008-5.358-5.966l9.683-9.081
	c1.965,2.091,3.894,4.24,5.74,6.388L437.857,300.523z M159.479,300.06l-10.037-8.693c1.861-2.147,3.802-4.295,5.764-6.37
	l9.653,9.111C163.029,296.051,161.218,298.05,159.479,300.06 M424.575,286.616c-1.944-1.833-3.948-3.646-5.951-5.38l8.685-10.038
	c2.148,1.855,4.292,3.794,6.379,5.759L424.575,286.616z M172.81,286.188l-9.08-9.686c2.081-1.949,4.229-3.879,6.392-5.739
	l8.656,10.072C176.758,282.565,174.751,284.369,172.81,286.188 M409.914,274.158c-2.114-1.616-4.299-3.209-6.482-4.729l7.593-10.894
	c2.341,1.632,4.675,3.336,6.945,5.069L409.914,274.158z M187.503,273.782l-8.026-10.576c2.271-1.723,4.61-3.42,6.956-5.04
	l7.553,10.917C191.803,270.595,189.622,272.176,187.503,273.782 M394.029,263.287c-2.277-1.388-4.611-2.741-6.942-4.025
	l6.415-11.624c2.496,1.374,4.998,2.828,7.441,4.314L394.029,263.287z M203.396,262.982l-6.878-11.353
	c2.436-1.481,4.94-2.924,7.434-4.289l6.377,11.647C208.006,260.263,205.671,261.605,203.396,262.982 M377.093,254.141
	c-2.413-1.145-4.88-2.248-7.331-3.281l5.158-12.233c2.63,1.104,5.274,2.291,7.859,3.518L377.093,254.141z M220.318,253.906
	l-5.651-12.01c2.574-1.212,5.208-2.383,7.837-3.481l5.12,12.249C225.177,251.688,222.717,252.779,220.318,253.906 M359.279,246.813
	c-2.518-0.88-5.089-1.72-7.637-2.487l3.838-12.715c2.734,0.827,5.49,1.726,8.195,2.674L359.279,246.813z M238.103,246.658
	l-4.358-12.54c2.705-0.942,5.457-1.826,8.182-2.646l3.803,12.724C243.19,244.955,240.625,245.779,238.103,246.658 M340.81,241.415
	c-2.589-0.611-5.228-1.173-7.839-1.669l2.479-13.043c2.803,0.529,5.633,1.136,8.41,1.791L340.81,241.415z M256.571,241.319
	l-3.016-12.934c2.786-0.651,5.614-1.243,8.417-1.768l2.44,13.055C261.804,240.157,259.167,240.71,256.571,241.319 M321.888,237.99
	c-2.625-0.337-5.309-0.617-7.97-0.838l1.098-13.23c2.857,0.235,5.732,0.538,8.551,0.897L321.888,237.99z M275.501,237.942
	l-1.643-13.177c2.816-0.352,5.692-0.646,8.544-0.875l1.075,13.233C280.813,237.336,278.125,237.616,275.501,237.942
	 M298.467,244.813c-1.167,0-4.027-21.532-4.027-21.532l0.228-0.005c2.874-0.054,5.589-0.048,8.337,0.011
	C303.004,223.287,299.887,244.813,298.467,244.813 M355.51,317.911c0.717-1.109,1.19-1.761,1.427-1.959
	c0.235-0.199,0.632-0.219,1.183-0.063c0.984,0.306,1.684,0.136,2.1-0.513l17.692-27.512c0.417-0.646,0.657-1.184,0.716-1.618
	c0.057-0.43-0.104-0.923-0.49-1.478c-0.278-0.42-0.418-0.72-0.416-0.91c-0.002-0.181,0.118-0.461,0.356-0.829l0.788-1.232
	c0.311-0.479,0.717-0.553,1.229-0.225l11.101,7.136c0.417,0.272,0.653,0.499,0.706,0.686c0.056,0.189-0.09,0.553-0.441,1.093
	c-0.527,0.822-0.896,1.304-1.11,1.448c-0.216,0.146-0.483,0.146-0.806,0.005c-1.068-0.444-1.938-0.142-2.613,0.909l-17.915,27.855
	c-0.378,0.589-0.329,1.274,0.148,2.06c0.308,0.507,0.453,0.872,0.438,1.102c-0.016,0.229-0.16,0.552-0.428,0.968l-0.582,0.904
	c-0.316,0.499-0.542,0.745-0.675,0.747c-0.132,0-0.394-0.122-0.779-0.368l-11.308-7.276
	C355.396,318.566,355.289,318.255,355.51,317.911 M389.699,346.719c-0.328,0.235-0.348,0.561-0.052,0.977l7.739,10.996
	c0.266,0.377,0.461,0.59,0.582,0.638c0.123,0.048,0.427-0.097,0.906-0.439l0.881-0.618c0.404-0.283,0.658-0.529,0.76-0.739
	c0.101-0.203,0.104-0.603,0.009-1.184c-0.146-0.905,0.066-1.563,0.639-1.963l27.081-19.065c1.02-0.72,1.941-0.668,2.762,0.145
	c0.246,0.252,0.496,0.352,0.75,0.298c0.253-0.057,0.777-0.363,1.576-0.927c0.523-0.368,0.797-0.648,0.816-0.845
	c0.023-0.195-0.111-0.492-0.396-0.9l-7.597-10.789c-0.347-0.498-0.758-0.579-1.222-0.248l-1.195,0.838
	c-0.361,0.252-0.574,0.465-0.644,0.635c-0.073,0.172-0.057,0.509,0.044,0.999c0.147,0.657,0.115,1.179-0.104,1.553
	c-0.215,0.383-0.64,0.788-1.271,1.232l-26.742,18.83c-0.634,0.441-1.346,0.34-2.141-0.314c-0.453-0.352-0.826-0.484-1.12-0.394
	C391.467,345.531,390.781,345.957,389.699,346.719 M432.785,344.123l-28.961,15.206c-0.682,0.356-1.377,0.163-2.08-0.592
	c-0.402-0.405-0.756-0.584-1.061-0.527c-0.303,0.051-1.039,0.388-2.211,0.999c-0.354,0.188-0.417,0.514-0.176,0.967l6.248,11.911
	c0.215,0.398,0.381,0.64,0.497,0.696c0.114,0.067,0.433-0.037,0.954-0.312l0.951-0.498c0.44-0.23,0.723-0.443,0.853-0.635
	c0.126-0.189,0.177-0.584,0.158-1.171c-0.025-0.923,0.271-1.543,0.893-1.869l29.321-15.396c1.105-0.579,2.01-0.414,2.72,0.504
	c0.209,0.279,0.444,0.41,0.705,0.391c0.255-0.02,0.819-0.258,1.68-0.712c0.569-0.3,0.88-0.544,0.923-0.733s-0.049-0.507-0.278-0.942
	l-6.136-11.688c-0.279-0.532-0.675-0.674-1.18-0.404l-1.291,0.677c-0.39,0.207-0.632,0.391-0.724,0.55
	c-0.091,0.164-0.118,0.492-0.085,0.997c0.063,0.67-0.037,1.178-0.303,1.523C433.941,343.412,433.467,343.765,432.785,344.123
	 M417.295,401.949c-0.219-0.53-0.479-0.83-0.783-0.89c-0.3-0.063-1.107-0.028-2.424,0.104c-0.402,0.042-0.578,0.314-0.525,0.83
	l1.351,13.382c0.044,0.452,0.108,0.733,0.194,0.835c0.082,0.102,0.416,0.124,1.002,0.065l1.068-0.108
	c0.493-0.048,0.837-0.139,1.028-0.27c0.188-0.131,0.383-0.475,0.587-1.027c0.319-0.864,0.825-1.331,1.521-1.405l32.95-3.316
	c1.245-0.128,2.022,0.368,2.338,1.48c0.09,0.341,0.258,0.548,0.509,0.629c0.246,0.071,0.854,0.063,1.823-0.031
	c0.641-0.067,1.016-0.181,1.128-0.339c0.115-0.156,0.145-0.485,0.095-0.978l-1.32-13.137c-0.063-0.601-0.377-0.872-0.945-0.815
	l-1.451,0.144c-0.437,0.046-0.731,0.128-0.876,0.244c-0.146,0.112-0.294,0.413-0.45,0.892c-0.193,0.644-0.479,1.079-0.85,1.303
	c-0.377,0.221-0.947,0.371-1.715,0.451l-32.543,3.28C418.238,403.349,417.67,402.909,417.295,401.949 M458.595,417.771l-1.462-0.046
	c-0.44-0.011-0.74,0.028-0.9,0.124c-0.158,0.098-0.346,0.369-0.56,0.825c-0.28,0.617-0.616,1.011-1.017,1.184
	c-0.401,0.171-0.986,0.243-1.76,0.222l-32.691-1.001c-0.77-0.021-1.277-0.531-1.523-1.534c-0.148-0.555-0.369-0.881-0.66-0.983
	c-0.289-0.104-1.095-0.17-2.418-0.213c-0.402-0.009-0.612,0.241-0.629,0.757l-0.41,13.438c-0.016,0.459,0.013,0.742,0.082,0.854
	c0.071,0.12,0.398,0.179,0.988,0.2l1.076,0.03c0.494,0.014,0.842-0.03,1.049-0.137c0.205-0.102,0.443-0.413,0.717-0.94
	c0.43-0.813,0.992-1.209,1.692-1.186l33.104,1.008c1.25,0.039,1.956,0.629,2.123,1.773c0.046,0.352,0.186,0.58,0.419,0.688
	c0.237,0.11,0.84,0.179,1.813,0.207c0.645,0.023,1.033-0.04,1.165-0.184c0.133-0.142,0.208-0.462,0.222-0.96l0.402-13.19
	C459.438,418.1,459.162,417.791,458.595,417.771 M457.555,438.664l-1.439-0.238c-0.438-0.068-0.74-0.068-0.908,0.008
	c-0.173,0.074-0.394,0.324-0.668,0.746c-0.356,0.572-0.741,0.918-1.16,1.036c-0.421,0.119-1.011,0.116-1.773-0.011l-32.279-5.274
	c-0.758-0.124-1.195-0.696-1.307-1.719c-0.074-0.576-0.25-0.93-0.525-1.065c-0.273-0.14-1.064-0.314-2.371-0.524
	c-0.398-0.067-0.639,0.153-0.721,0.66l-2.168,13.271c-0.076,0.452-0.084,0.741-0.029,0.861c0.055,0.117,0.373,0.229,0.95,0.319
	l1.063,0.181c0.488,0.074,0.842,0.076,1.061,0.003c0.216-0.076,0.492-0.356,0.835-0.841c0.53-0.753,1.139-1.07,1.831-0.957
	l32.685,5.339c1.233,0.198,1.856,0.882,1.873,2.039c-0.003,0.354,0.108,0.599,0.325,0.737c0.221,0.135,0.811,0.283,1.771,0.441
	c0.634,0.104,1.027,0.094,1.18-0.03c0.146-0.126,0.265-0.431,0.346-0.918l2.129-13.027
	C458.352,439.104,458.114,438.754,457.555,438.664 M447.639,478.466l-1.336-0.592c-0.404-0.179-0.695-0.255-0.883-0.227
	c-0.182,0.03-0.457,0.209-0.828,0.549c-0.488,0.468-0.95,0.706-1.385,0.714c-0.438,0.006-1.007-0.146-1.713-0.455l-29.894-13.276
	c-0.706-0.312-0.983-0.975-0.833-1.995c0.075-0.571-0.006-0.959-0.239-1.16c-0.23-0.204-0.95-0.572-2.156-1.111
	c-0.373-0.163-0.659-0.011-0.868,0.459l-5.454,12.291c-0.188,0.422-0.268,0.696-0.247,0.824c0.021,0.133,0.303,0.317,0.84,0.555
	l0.983,0.438c0.452,0.197,0.79,0.291,1.021,0.273c0.232-0.02,0.568-0.224,1.021-0.603c0.705-0.593,1.377-0.745,2.017-0.465
	l30.27,13.44c1.142,0.503,1.573,1.319,1.296,2.446c-0.09,0.335-0.047,0.604,0.131,0.796c0.176,0.185,0.709,0.479,1.598,0.873
	c0.588,0.261,0.973,0.352,1.148,0.27c0.178-0.083,0.365-0.349,0.567-0.803l5.356-12.068
	C448.299,479.088,448.158,478.695,447.639,478.466 M438.797,497.412l-1.25-0.762c-0.375-0.229-0.656-0.343-0.842-0.338
	c-0.186,0.007-0.486,0.15-0.895,0.438c-0.549,0.402-1.035,0.574-1.468,0.526c-0.429-0.051-0.979-0.274-1.638-0.677l-27.92-17.04
	c-0.658-0.399-0.848-1.094-0.563-2.086c0.145-0.558,0.117-0.951-0.084-1.184c-0.205-0.232-0.869-0.69-2-1.379
	c-0.346-0.207-0.652-0.097-0.918,0.339l-7.007,11.479c-0.238,0.394-0.355,0.657-0.349,0.787c0.003,0.131,0.256,0.354,0.756,0.657
	l0.919,0.56c0.425,0.259,0.753,0.398,0.982,0.406c0.23,0.012,0.591-0.145,1.089-0.465c0.773-0.492,1.461-0.561,2.059-0.195
	l28.27,17.253c1.07,0.648,1.387,1.512,0.969,2.591c-0.136,0.329-0.127,0.599,0.025,0.808c0.149,0.206,0.639,0.567,1.471,1.076
	c0.551,0.335,0.919,0.474,1.104,0.417c0.188-0.063,0.409-0.304,0.667-0.726l6.877-11.268
	C439.366,498.114,439.283,497.709,438.797,497.412 M426.438,514.118c-0.342-0.28-0.607-0.429-0.792-0.444
	c-0.186-0.02-0.5,0.085-0.947,0.316c-0.591,0.323-1.099,0.437-1.52,0.332c-0.427-0.108-0.937-0.404-1.535-0.89l-25.448-20.541
	c-0.604-0.487-0.699-1.2-0.289-2.145c0.216-0.538,0.24-0.932,0.068-1.184c-0.168-0.259-0.77-0.799-1.801-1.629
	c-0.315-0.258-0.63-0.179-0.956,0.219l-8.444,10.463c-0.29,0.354-0.438,0.601-0.451,0.731c-0.013,0.133,0.208,0.381,0.669,0.75
	l0.835,0.68c0.386,0.309,0.69,0.484,0.918,0.526c0.229,0.041,0.607-0.062,1.143-0.317c0.832-0.388,1.52-0.364,2.065,0.074
	l25.771,20.801c0.972,0.785,1.179,1.684,0.617,2.697c-0.175,0.306-0.2,0.572-0.077,0.805c0.119,0.229,0.562,0.646,1.319,1.258
	c0.5,0.405,0.847,0.588,1.04,0.558c0.188-0.037,0.441-0.244,0.752-0.632l8.295-10.271c0.377-0.468,0.346-0.884-0.097-1.24
	L426.438,514.118z M413.138,529.98c-0.305-0.32-0.546-0.502-0.727-0.544c-0.182-0.046-0.508,0.02-0.979,0.188
	c-0.631,0.243-1.148,0.287-1.552,0.126c-0.403-0.158-0.874-0.521-1.406-1.075l-22.544-23.696c-0.529-0.562-0.532-1.284-0.002-2.168
	c0.283-0.495,0.359-0.887,0.221-1.161c-0.133-0.276-0.656-0.895-1.566-1.852c-0.279-0.292-0.607-0.264-0.98,0.09l-9.742,9.268
	c-0.332,0.317-0.514,0.542-0.541,0.669c-0.031,0.13,0.157,0.408,0.563,0.832l0.74,0.779c0.34,0.36,0.622,0.574,0.84,0.646
	c0.223,0.067,0.611,0.011,1.176-0.17c0.878-0.27,1.558-0.159,2.037,0.348l22.828,23.997c0.861,0.903,0.948,1.821,0.26,2.756
	c-0.213,0.277-0.275,0.541-0.184,0.784c0.094,0.238,0.473,0.714,1.145,1.419c0.444,0.466,0.764,0.698,0.957,0.686
	c0.197-0.007,0.473-0.179,0.833-0.522l9.561-9.096c0.442-0.42,0.464-0.834,0.072-1.243L413.138,529.98z M381.068,557.359
	c-0.066-0.092-0.128-0.193-0.186-0.307c-0.082-0.164-0.158-0.34-0.231-0.526c-0.04-0.122-0.087-0.244-0.147-0.357
	c-0.17-0.342-0.318-0.549-0.445-0.617c-0.128-0.068-0.401-0.125-0.829-0.155c-0.828-0.061-1.524-0.463-2.08-1.213l-22.737-29.588
	c-0.75-0.975-1.237-1.538-1.451-1.68c-0.213-0.142-0.426-0.153-0.641-0.048l-4.955,2.464c-0.312,0.153-0.441,0.332-0.383,0.526
	l0.576,2.147l9.521,35.267c0.287,1.068,0.426,1.76,0.408,2.061c-0.012,0.303-0.182,0.741-0.512,1.316
	c-0.139,0.209-0.183,0.416-0.129,0.611c0.058,0.196,0.277,0.681,0.66,1.448c0.324,0.651,0.553,1.043,0.688,1.167
	s0.342,0.122,0.619-0.018l6.104-3.033c0.327-0.165,0.483-0.356,0.46-0.583c-0.021-0.228-0.211-0.703-0.575-1.437l-0.196-0.394
	c-0.04-0.121-0.09-0.241-0.145-0.352c-0.122-0.249-0.514-0.368-1.169-0.368c-1.038,0.02-1.717-0.3-2.044-0.957
	c-0.092-0.185-0.162-0.363-0.211-0.544l-5.684-20.943l12.871,17.38c0.164,0.206,0.291,0.399,0.38,0.578
	c0.376,0.759,0.288,1.486-0.263,2.191c-0.242,0.301-0.324,0.567-0.252,0.796c0.43,0.946,0.649,1.432,0.656,1.447
	c0.34,0.684,0.701,0.931,1.078,0.743l11.218-5.58c0.396-0.195,0.459-0.563,0.192-1.103L381.068,557.359z M330.512,577.088
	c-0.027-0.108-0.057-0.222-0.07-0.35c-0.023-0.181-0.035-0.373-0.043-0.574c0.005-0.131-0.002-0.258-0.018-0.383
	c-0.045-0.379-0.117-0.623-0.214-0.733c-0.095-0.104-0.339-0.246-0.731-0.419c-0.764-0.332-1.283-0.943-1.559-1.838l-11.575-35.475
	c-0.382-1.176-0.653-1.864-0.806-2.068c-0.154-0.2-0.35-0.289-0.588-0.261l-5.494,0.672c-0.346,0.046-0.523,0.165-0.537,0.377
	l-0.172,2.21l-2.777,36.425c-0.086,1.103-0.187,1.796-0.302,2.076c-0.113,0.28-0.422,0.641-0.922,1.074
	c-0.205,0.152-0.312,0.328-0.325,0.535c-0.011,0.198,0.036,0.728,0.139,1.583c0.089,0.719,0.175,1.164,0.259,1.328
	c0.087,0.165,0.286,0.23,0.595,0.188l6.759-0.825c0.365-0.045,0.577-0.178,0.633-0.39c0.055-0.222,0.035-0.737-0.067-1.553
	l-0.047-0.436c0-0.126-0.006-0.25-0.021-0.381c-0.036-0.271-0.36-0.516-0.979-0.733c-0.986-0.328-1.52-0.854-1.609-1.586
	c-0.027-0.204-0.031-0.394-0.019-0.583l1.623-21.637l6.343,20.676c0.084,0.247,0.14,0.477,0.162,0.672
	c0.105,0.836-0.223,1.495-0.98,1.978c-0.325,0.206-0.492,0.431-0.5,0.665c0.092,1.036,0.135,1.563,0.138,1.58
	c0.091,0.757,0.351,1.114,0.771,1.063l12.436-1.518c0.439-0.058,0.621-0.38,0.547-0.98L330.512,577.088z M299.239,536.834
	l-13.429-0.689c-0.457-0.023-0.743,0-0.855,0.064c-0.115,0.07-0.188,0.396-0.218,0.986l-0.055,1.072
	c-0.024,0.494,0.012,0.847,0.112,1.051c0.1,0.21,0.41,0.453,0.928,0.74c0.805,0.447,1.19,1.016,1.154,1.716l-1.699,33.077
	c-0.065,1.247-0.671,1.938-1.82,2.082c-0.349,0.041-0.583,0.174-0.694,0.405c-0.113,0.232-0.197,0.839-0.245,1.81
	c-0.036,0.642,0.02,1.031,0.159,1.164c0.14,0.137,0.457,0.222,0.953,0.244l13.182,0.681c0.606,0.028,0.922-0.241,0.952-0.808
	l0.075-1.459c0.021-0.442-0.013-0.742-0.105-0.901c-0.093-0.161-0.365-0.356-0.813-0.581c-0.609-0.291-0.997-0.636-1.162-1.038
	c-0.164-0.402-0.225-0.991-0.187-1.765l1.681-32.662c0.038-0.771,0.559-1.267,1.567-1.489c0.559-0.137,0.891-0.352,0.997-0.641
	c0.108-0.286,0.193-1.093,0.264-2.413C300,537.078,299.753,536.86,299.239,536.834 M261.07,529.939l-5.2-1.896
	c-0.323-0.125-0.542-0.097-0.645,0.079l-1.161,1.897l-19.05,31.169c-0.581,0.943-0.981,1.513-1.215,1.714
	c-0.227,0.198-0.666,0.377-1.31,0.531c-0.251,0.046-0.426,0.154-0.532,0.329c-0.102,0.176-0.303,0.666-0.596,1.471
	c-0.25,0.685-0.375,1.118-0.375,1.303c0.003,0.185,0.147,0.335,0.438,0.439l6.401,2.345c0.343,0.125,0.591,0.103,0.741-0.064
	c0.15-0.17,0.366-0.641,0.648-1.408l0.149-0.413c0.064-0.111,0.113-0.227,0.159-0.349c0.095-0.258-0.084-0.624-0.537-1.103
	c-0.728-0.735-0.967-1.449-0.713-2.139c0.073-0.195,0.154-0.367,0.252-0.528l11.293-18.53l-3.768,21.294
	c-0.035,0.264-0.085,0.486-0.159,0.678c-0.288,0.792-0.878,1.231-1.769,1.311c-0.385,0.037-0.634,0.162-0.75,0.369
	c-0.39,0.96-0.593,1.452-0.596,1.473c-0.265,0.716-0.197,1.149,0.201,1.297l11.765,4.3c0.415,0.156,0.728-0.051,0.93-0.614
	l0.136-0.363c0.019-0.11,0.048-0.222,0.093-0.343c0.062-0.173,0.136-0.349,0.225-0.529c0.061-0.113,0.112-0.232,0.157-0.351
	c0.132-0.363,0.179-0.609,0.142-0.751c-0.036-0.139-0.191-0.378-0.459-0.709c-0.53-0.64-0.711-1.421-0.549-2.343l5.836-36.854
	c0.194-1.221,0.267-1.956,0.224-2.209C261.43,530.189,261.293,530.022,261.07,529.939 M225.076,558.138
	c0.039-0.433,0.248-0.987,0.632-1.657l16.3-28.358c0.385-0.665,1.073-0.876,2.07-0.62c0.559,0.136,0.956,0.09,1.183-0.116
	c0.224-0.205,0.668-0.887,1.328-2.034c0.199-0.349,0.077-0.653-0.371-0.906l-11.658-6.705c-0.395-0.224-0.663-0.337-0.796-0.325
	c-0.129,0.008-0.343,0.267-0.634,0.776l-0.537,0.935c-0.248,0.427-0.373,0.76-0.378,0.988c-0.006,0.23,0.16,0.59,0.494,1.077
	c0.514,0.764,0.598,1.446,0.249,2.054l-16.503,28.715c-0.622,1.083-1.477,1.425-2.564,1.03c-0.332-0.124-0.599-0.106-0.806,0.049
	c-0.205,0.156-0.551,0.658-1.035,1.505c-0.321,0.552-0.449,0.927-0.386,1.109c0.063,0.185,0.311,0.402,0.741,0.648l11.441,6.577
	c0.527,0.298,0.931,0.204,1.214-0.285l0.728-1.269c0.219-0.381,0.326-0.666,0.315-0.853c-0.01-0.185-0.163-0.479-0.461-0.885
	C225.228,559.053,225.041,558.568,225.076,558.138 M228.443,519.879c0.468-0.617,1.179-0.73,2.136-0.346
	c0.537,0.205,0.934,0.213,1.184,0.037c0.25-0.179,0.776-0.79,1.579-1.838c0.249-0.322,0.168-0.643-0.242-0.954l-10.682-8.169
	c-0.365-0.274-0.613-0.422-0.745-0.429c-0.13-0.009-0.376,0.22-0.733,0.686l-0.656,0.853c-0.299,0.4-0.467,0.705-0.502,0.934
	s0.082,0.604,0.346,1.135c0.415,0.821,0.408,1.513-0.017,2.065l-20.116,26.311c-0.758,0.994-1.65,1.221-2.68,0.691
	c-0.308-0.165-0.58-0.185-0.805-0.061c-0.225,0.131-0.633,0.585-1.224,1.352c-0.394,0.513-0.569,0.863-0.53,1.054
	c0.041,0.196,0.258,0.438,0.65,0.742l10.485,8.014c0.482,0.37,0.894,0.328,1.242-0.125l0.884-1.161
	c0.27-0.349,0.41-0.615,0.425-0.799c0.013-0.187-0.098-0.498-0.342-0.941c-0.338-0.583-0.463-1.088-0.368-1.512
	c0.092-0.425,0.374-0.946,0.844-1.559L228.443,519.879z M204.168,491.861c0.851-0.893,1.331-1.462,1.437-1.691
	c0.104-0.229,0.088-0.45-0.052-0.641l-3.208-4.513c-0.198-0.283-0.394-0.385-0.581-0.296l-2.029,0.905l-33.35,14.898
	c-1.012,0.451-1.671,0.694-1.973,0.727c-0.301,0.033-0.762-0.065-1.382-0.304c-0.231-0.105-0.44-0.113-0.623-0.028
	c-0.184,0.085-0.627,0.376-1.327,0.872c-0.593,0.422-0.943,0.711-1.047,0.863c-0.102,0.154-0.064,0.357,0.115,0.612l3.95,5.552
	c0.209,0.301,0.427,0.422,0.645,0.368c0.219-0.057,0.663-0.32,1.33-0.795l0.358-0.253c0.113-0.06,0.224-0.128,0.324-0.201
	c0.227-0.155,0.285-0.561,0.182-1.21c-0.182-1.017,0.028-1.741,0.629-2.169c0.168-0.119,0.335-0.216,0.507-0.292l19.799-8.877
	l-15.166,15.42c-0.176,0.195-0.347,0.35-0.511,0.468c-0.689,0.489-1.423,0.513-2.205,0.082c-0.336-0.193-0.612-0.232-0.824-0.128
	c-0.869,0.572-1.31,0.861-1.326,0.876c-0.623,0.441-0.813,0.832-0.566,1.182l7.26,10.213c0.255,0.36,0.627,0.363,1.119,0.015
	l0.311-0.222c0.08-0.078,0.17-0.154,0.272-0.229c0.151-0.104,0.312-0.207,0.483-0.309c0.118-0.063,0.229-0.125,0.333-0.198
	c0.31-0.227,0.492-0.402,0.54-0.539c0.048-0.136,0.057-0.416,0.02-0.845c-0.067-0.826,0.224-1.577,0.877-2.239L204.168,491.861z
	 M161.158,497.977c0.097-0.162,0.127-0.493,0.102-0.994c-0.052-0.672,0.055-1.179,0.321-1.524c0.272-0.34,0.749-0.686,1.44-1.034
	l29.179-14.771c0.691-0.35,1.378-0.146,2.073,0.62c0.398,0.413,0.747,0.597,1.049,0.546c0.304-0.048,1.047-0.371,2.227-0.968
	c0.363-0.183,0.427-0.508,0.194-0.967l-5.897-11.65l-4.45-11.791l-3.256-12.573c-0.116-0.442-0.223-0.708-0.322-0.796
	c-0.097-0.088-0.431-0.06-1,0.088l-1.041,0.272c-0.481,0.121-0.801,0.259-0.971,0.415c-0.17,0.159-0.309,0.527-0.427,1.11
	c-0.184,0.904-0.613,1.439-1.29,1.612l-32.061,8.305c-1.209,0.311-2.055-0.053-2.535-1.11c-0.14-0.319-0.34-0.505-0.596-0.541
	c-0.255-0.037-0.857,0.065-1.799,0.309c-0.625,0.161-0.98,0.328-1.063,0.502c-0.089,0.179-0.069,0.501,0.053,0.985l3.311,12.777
	c0.152,0.586,0.504,0.804,1.054,0.662l1.413-0.361c0.428-0.114,0.704-0.236,0.83-0.369c0.125-0.139,0.228-0.459,0.308-0.957
	c0.093-0.662,0.307-1.139,0.646-1.413c0.334-0.278,0.876-0.513,1.623-0.706l31.664-8.203c0.675-0.172,1.252,0.122,1.739,0.834
	c-0.013,0.096-0.033,0.158-0.042,0.266c-0.088,0.915-0.455,1.492-1.11,1.739l-30.983,11.697c-1.172,0.443-2.051,0.168-2.643-0.829
	c-0.174-0.307-0.392-0.468-0.651-0.473c-0.256-0.015-0.844,0.152-1.751,0.498c-0.604,0.227-0.939,0.431-1.009,0.614
	c-0.066,0.185-0.013,0.505,0.162,0.969l4.661,12.351c0.212,0.563,0.587,0.75,1.118,0.546l1.367-0.513
	c0.414-0.159,0.674-0.309,0.783-0.459c0.113-0.15,0.181-0.476,0.207-0.974c0.023-0.678,0.184-1.17,0.489-1.481
	c0.303-0.309,0.817-0.604,1.541-0.876l30.597-11.554c0.661-0.243,1.269-0.008,1.835,0.664c-0.003,0.096-0.015,0.17-0.014,0.282
	c0.014,0.918-0.292,1.538-0.915,1.853l-29.55,14.959c-1.116,0.566-2.018,0.381-2.715-0.541c-0.204-0.287-0.438-0.425-0.697-0.402
	c-0.259,0.015-0.824,0.243-1.691,0.685c-0.573,0.29-0.883,0.53-0.934,0.72c-0.05,0.188,0.04,0.505,0.264,0.946l5.961,11.777
	c0.272,0.542,0.665,0.68,1.171,0.425l1.303-0.66C160.82,498.316,161.064,498.134,161.158,497.977 M141.52,429.446
	c0.248-0.625,0.566-1.036,0.955-1.226c0.394-0.19,0.976-0.295,1.747-0.307l32.702-0.583c0.769-0.015,1.304,0.47,1.596,1.456
	c0.174,0.55,0.411,0.866,0.705,0.954c0.297,0.088,1.105,0.116,2.425,0.094c0.404-0.006,0.605-0.267,0.593-0.782l-0.238-13.442
	c-0.009-0.462-0.051-0.745-0.125-0.853c-0.039-0.061-0.155-0.098-0.343-0.122c0.036-0.088,0.066-0.178,0.087-0.291l1.025-6.566
	c0.056-0.343,0.016-0.567-0.117-0.672c-0.132-0.102-0.596-0.218-1.395-0.342c-0.925-0.147-1.455-0.179-1.589-0.098
	c-0.131,0.08-0.258,0.188-0.37,0.317c-0.521,0.607-0.956,0.882-1.301,0.825c-0.417-0.065-1.051-0.396-1.908-0.995l-6.558-4.442
	l7.467-1.384c0.694-0.133,1.303-0.158,1.827-0.076c0.42,0.065,0.754,0.42,1.008,1.054c0.21,0.556,0.586,0.876,1.132,0.957
	l1.742,0.275c0.508,0.081,0.809-0.173,0.901-0.754l1.8-11.514c0.07-0.434-0.058-0.748-0.38-0.938
	c-0.323-0.189-0.895-0.349-1.711-0.477c-0.563-0.09-0.958-0.085-1.188,0.006c-0.229,0.097-0.493,0.34-0.799,0.74
	c-0.256,0.334-0.473,0.535-0.654,0.608c-0.177,0.076-0.575,0.179-1.188,0.301l-20.828,3.843l-12.831-8.692
	c-0.253-0.167-0.501-0.533-0.748-1.094c-0.245-0.558-0.554-0.866-0.916-0.923l-1.933-0.301c-0.487-0.082-0.768,0.111-0.839,0.563
	l-0.99,6.314c-0.06,0.379,0.021,0.629,0.242,0.748c0.225,0.121,0.775,0.243,1.644,0.381c0.781,0.126,1.306-0.035,1.582-0.479
	c0.302-0.509,0.644-0.733,1.024-0.67c0.432,0.067,1.657,0.805,3.669,2.217l4.235,3.009l-6.856,1.266
	c-0.826,0.17-1.467,0.218-1.92,0.15c-0.345-0.057-0.581-0.383-0.711-0.98c-0.117-0.558-0.419-0.872-0.91-0.951l-1.88-0.289
	c-0.523-0.088-0.824,0.102-0.895,0.555l-1.791,11.415c-0.107,0.705,0.118,1.107,0.68,1.195l1.66,0.258
	c0.272,0.042,0.56-0.08,0.865-0.365c0.673-0.598,1.384-0.963,2.128-1.088l20.706-3.835l11.546,7.645
	c0.945,0.632,1.567,1.097,1.874,1.397c0.304,0.3,0.547,0.711,0.725,1.242c0.235,0.652,0.502,0.998,0.813,1.046l0.167,0.028
	c-0.036,0.014-0.088,0.018-0.113,0.033c-0.2,0.114-0.421,0.439-0.671,0.979c-0.39,0.829-0.932,1.258-1.63,1.271l-33.116,0.589
	c-1.251,0.02-1.984-0.535-2.205-1.669c-0.063-0.348-0.214-0.574-0.455-0.668c-0.239-0.096-0.847-0.139-1.82-0.119
	c-0.642,0.011-1.028,0.094-1.153,0.241c-0.126,0.15-0.184,0.47-0.177,0.969l0.237,13.193c0.011,0.608,0.301,0.904,0.87,0.896
	l1.459-0.023c0.439-0.014,0.736-0.07,0.891-0.175C141.152,430.197,141.324,429.911,141.52,429.446 M151.576,355.678l1.476,0.799
	c0.247,0.131,0.558,0.11,0.943-0.057c0.831-0.344,1.62-0.45,2.368-0.32l20.797,3.269l8.35,11.053
	c0.679,0.909,1.114,1.558,1.302,1.938c0.189,0.386,0.281,0.857,0.272,1.413c0.004,0.693,0.143,1.113,0.416,1.261l1.793,0.966
	c0.455,0.249,0.816,0.118,1.087-0.386l3.151-5.847c0.165-0.303,0.205-0.529,0.112-0.67c-0.089-0.148-0.49-0.409-1.201-0.79
	c-0.824-0.443-1.314-0.652-1.467-0.618c-0.153,0.028-0.302,0.088-0.456,0.175c-0.691,0.394-1.193,0.511-1.5,0.346
	c-0.371-0.198-0.858-0.722-1.467-1.575l-4.708-6.364l7.502,1.179c0.697,0.103,1.279,0.277,1.749,0.532
	c0.371,0.199,0.571,0.644,0.6,1.326c0.014,0.595,0.263,1.019,0.748,1.282l1.553,0.837c0.45,0.242,0.819,0.106,1.098-0.411
	l5.53-10.26c0.209-0.388,0.193-0.725-0.049-1.012c-0.24-0.285-0.73-0.625-1.454-1.019c-0.502-0.272-0.876-0.396-1.125-0.386
	c-0.248,0.012-0.579,0.155-1,0.432c-0.352,0.226-0.625,0.348-0.816,0.358c-0.195,0.009-0.603-0.028-1.224-0.112l-20.918-3.306
	l-9.211-12.466c-0.18-0.241-0.293-0.668-0.34-1.277c-0.051-0.611-0.234-1.006-0.555-1.179l-1.723-0.927
	c-0.436-0.237-0.764-0.15-0.983,0.252l-3.032,5.629c-0.185,0.339-0.187,0.6-0.019,0.787c0.173,0.185,0.645,0.487,1.422,0.907
	c0.694,0.376,1.244,0.398,1.65,0.073c0.454-0.383,0.852-0.479,1.192-0.295c0.386,0.207,1.291,1.312,2.719,3.313l2.996,4.253
	l-6.888-1.094c-0.833-0.113-1.454-0.283-1.857-0.499c-0.308-0.167-0.422-0.552-0.346-1.159c0.072-0.563-0.108-0.966-0.543-1.197
	l-1.676-0.904c-0.466-0.251-0.812-0.178-1.029,0.228l-5.482,10.174C150.992,354.958,151.072,355.406,151.576,355.678
	 M182.764,311.465c0.184,0.207,0.486,0.295,0.904,0.264c0.902-0.042,1.681,0.125,2.339,0.496l18.488,10.068l4.155,13.212
	c0.332,1.084,0.524,1.837,0.572,2.263c0.052,0.428-0.023,0.901-0.219,1.426c-0.228,0.65-0.237,1.092-0.028,1.322l1.366,1.518
	c0.344,0.38,0.729,0.38,1.152,0l4.927-4.447c0.259-0.231,0.374-0.434,0.337-0.597c-0.04-0.165-0.327-0.544-0.871-1.148
	c-0.626-0.696-1.019-1.056-1.173-1.075c-0.153-0.02-0.316-0.011-0.486,0.011c-0.788,0.145-1.299,0.083-1.53-0.176
	c-0.283-0.313-0.569-0.971-0.854-1.974l-2.294-7.58l6.67,3.629c0.619,0.334,1.108,0.699,1.465,1.09
	c0.286,0.318,0.325,0.797,0.121,1.454c-0.187,0.561-0.095,1.051,0.275,1.458l1.178,1.312c0.345,0.376,0.737,0.374,1.171-0.02
	l8.658-7.807c0.328-0.294,0.425-0.617,0.295-0.972c-0.13-0.346-0.476-0.827-1.027-1.445c-0.383-0.422-0.691-0.668-0.929-0.741
	c-0.236-0.07-0.599-0.048-1.086,0.073c-0.409,0.096-0.702,0.116-0.889,0.057c-0.184-0.051-0.558-0.224-1.116-0.512l-18.59-10.141
	l-4.49-14.837c-0.084-0.286-0.052-0.728,0.108-1.317c0.16-0.592,0.119-1.02-0.127-1.297l-1.309-1.453
	c-0.333-0.365-0.671-0.396-1.011-0.091l-4.745,4.283c-0.286,0.255-0.382,0.501-0.283,0.736c0.099,0.226,0.443,0.672,1.034,1.329
	c0.526,0.585,1.037,0.796,1.526,0.622c0.561-0.2,0.965-0.161,1.226,0.128c0.293,0.32,0.776,1.665,1.448,4.03l1.392,5.008
	l-6.122-3.337c-0.747-0.391-1.273-0.758-1.581-1.099c-0.232-0.258-0.213-0.662,0.061-1.206c0.259-0.505,0.225-0.946-0.106-1.314
	l-1.276-1.411c-0.356-0.396-0.706-0.436-1.044-0.127l-8.584,7.735c-0.531,0.48-0.609,0.935-0.225,1.356L182.764,311.465z
	 M207.747,290.094c0.237,0.378,0.436,0.604,0.606,0.681c0.167,0.082,0.501,0.082,1,0.006c0.661-0.11,1.178-0.052,1.545,0.184
	c0.365,0.234,0.756,0.683,1.163,1.334l17.41,27.687c0.409,0.655,0.274,1.364-0.423,2.126c-0.378,0.431-0.529,0.798-0.451,1.099
	c0.081,0.294,0.471,1.003,1.174,2.124c0.215,0.341,0.542,0.374,0.975,0.102l11.388-7.154c0.388-0.247,0.607-0.431,0.666-0.552
	c0.05-0.12-0.08-0.429-0.391-0.927l-0.574-0.912c-0.264-0.416-0.496-0.683-0.696-0.799c-0.202-0.112-0.596-0.128-1.185-0.067
	c-0.912,0.099-1.555-0.147-1.927-0.737l-17.629-28.039c-0.665-1.059-0.57-1.974,0.291-2.755c0.264-0.232,0.376-0.477,0.334-0.731
	c-0.042-0.255-0.322-0.796-0.839-1.618c-0.341-0.546-0.609-0.835-0.803-0.866c-0.191-0.028-0.5,0.085-0.919,0.353l-11.174,7.023
	c-0.51,0.32-0.619,0.726-0.314,1.21L207.747,290.094z M294.135,303.428c0.014,0,0.021-0.013,0.031-0.016
	c0.091,0.235,0.329,0.359,0.717,0.372l13.44,0.359c0.174,0.009,0.295,0,0.421-0.009c0.071,0.028,0.146,0.051,0.236,0.065
	l13.298,1.999c0.455,0.065,0.74,0.072,0.862,0.016c0.118-0.057,0.221-0.375,0.312-0.953l0.156-1.068
	c0.076-0.489,0.073-0.84-0.006-1.059c-0.08-0.215-0.363-0.487-0.852-0.823c-0.758-0.522-1.084-1.125-0.98-1.819l4.922-32.749
	c0.183-1.238,0.856-1.869,2.01-1.9c0.354-0.004,0.596-0.113,0.734-0.335c0.137-0.224,0.275-0.813,0.422-1.775
	c0.092-0.637,0.077-1.028-0.046-1.179c-0.13-0.147-0.437-0.263-0.928-0.333l-13.05-1.961c-0.599-0.091-0.943,0.145-1.027,0.711
	l-0.217,1.444c-0.064,0.433-0.061,0.737,0.018,0.906c0.074,0.17,0.326,0.388,0.752,0.655c0.577,0.348,0.928,0.73,1.053,1.146
	c0.122,0.42,0.127,1.012,0.012,1.771l-4.859,32.344c-0.115,0.766-0.683,1.207-1.705,1.334c-0.317,0.046-0.548,0.128-0.729,0.232
	c-0.154-0.172-0.397-0.359-0.813-0.572c-0.811-0.428-1.212-0.985-1.191-1.688l0.896-33.106c0.033-1.245,0.623-1.956,1.769-2.126
	c0.347-0.048,0.576-0.189,0.685-0.426c0.107-0.235,0.174-0.838,0.201-1.813c0.018-0.646-0.046-1.027-0.189-1.161
	c-0.145-0.136-0.463-0.207-0.96-0.221l-13.192-0.359c-0.604-0.013-0.917,0.264-0.933,0.832l-0.037,1.459
	c-0.013,0.439,0.028,0.742,0.128,0.903c0.092,0.156,0.369,0.34,0.823,0.555c0.617,0.276,1.011,0.612,1.183,1.012
	c0.174,0.4,0.251,0.983,0.23,1.756l-0.886,32.695c-0.021,0.769-0.53,1.284-1.53,1.527c-0.239,0.068-0.417,0.152-0.569,0.244
	c-0.062-0.193-0.13-0.335-0.208-0.431c-0.156-0.196-0.47-0.381-0.938-0.556c-0.392-0.149-0.649-0.3-0.771-0.447
	c-0.124-0.15-0.336-0.501-0.632-1.058l-9.683-18.832l4.62-14.792c0.091-0.288,0.366-0.634,0.833-1.03
	c0.462-0.399,0.671-0.778,0.621-1.145l-0.268-1.938c-0.068-0.492-0.332-0.705-0.786-0.64l-6.331,0.872
	c-0.382,0.054-0.594,0.2-0.644,0.45c-0.048,0.25-0.015,0.81,0.104,1.682c0.111,0.783,0.413,1.241,0.918,1.377
	c0.572,0.142,0.887,0.405,0.939,0.785c0.062,0.436-0.296,1.818-1.065,4.152l-1.663,4.926l-3.189-6.201
	c-0.399-0.741-0.628-1.342-0.692-1.797c-0.048-0.347,0.197-0.664,0.729-0.962c0.501-0.271,0.716-0.653,0.648-1.146l-0.259-1.884
	c-0.074-0.529-0.338-0.756-0.792-0.696l-11.449,1.58c-0.709,0.1-1.027,0.431-0.946,0.994l0.228,1.666
	c0.036,0.271,0.238,0.513,0.6,0.722c0.769,0.471,1.322,1.045,1.658,1.726l9.64,18.717l-3.99,13.262
	c-0.331,1.083-0.597,1.815-0.793,2.198c-0.201,0.379-0.525,0.728-0.982,1.051c-0.554,0.41-0.813,0.767-0.769,1.084l0.277,2.018
	c0.073,0.507,0.388,0.725,0.95,0.646l6.584-0.909c0.343-0.046,0.547-0.147,0.609-0.307c0.06-0.158,0.035-0.634-0.073-1.436
	c-0.128-0.93-0.251-1.441-0.365-1.552c-0.121-0.103-0.258-0.189-0.414-0.259c-0.732-0.324-1.117-0.662-1.164-1.008
	c-0.06-0.419,0.075-1.124,0.402-2.112l2.361-7.561l3.479,6.749c0.325,0.624,0.528,1.199,0.601,1.729
	c0.058,0.418-0.185,0.841-0.716,1.267c-0.473,0.361-0.67,0.814-0.592,1.361l0.239,1.745c0.07,0.51,0.396,0.725,0.979,0.643
	L294.135,303.428z M298.467,417.952c-1.29,0-2.335,1.046-2.335,2.334c0,1.286,1.045,2.335,2.335,2.335
	c1.289,0,2.331-1.049,2.331-2.335C300.798,418.998,299.756,417.952,298.467,417.952"/>
</svg>
