<?xml version="1.0" encoding="utf-8"?>
<!-- Generator: Adobe Illustrator 16.0.0, SVG Export Plug-In . SVG Version: 6.00 Build 0)  -->
<!DOCTYPE svg PUBLIC "-//W3C//DTD SVG 1.1//EN" "http://www.w3.org/Graphics/SVG/1.1/DTD/svg11.dtd">
<svg version="1.1" id="Layer_1" xmlns="http://www.w3.org/2000/svg" xmlns:xlink="http://www.w3.org/1999/xlink" x="0px" y="0px"
	 width="841.89px" height="595.28px" viewBox="0 0 841.89 595.28" enable-background="new 0 0 841.89 595.28" xml:space="preserve">
<path fill="#010101" d="M253.817,391.688c-0.392,0.744-0.651,1.192-0.797,1.334c-0.665-0.564-1.096-1.023-1.294-1.38
	c-0.362-0.663-0.997-2.181-1.897-4.543c0.232,0.342,0.918,0.379,2.056,0.116c0.944-0.219,1.723-0.496,2.335-0.834l23.062-12.688
	c0.441-0.243,1.068-0.646,1.866-1.201c0.802-0.559,1.426-0.954,1.865-1.2c0.443-0.244,1.127-0.596,2.047-1.052
	c0.926-0.458,1.608-0.811,2.048-1.053c0.307-0.167,0.581-0.317,0.815-0.448c0.402-0.887,0.684-1.538,0.851-1.963
	c1.948,2.818,3.022,4.402,3.214,4.762c0.241,0.433,0.42,0.832,0.533,1.207c-1.034-0.032-1.791-0.113-2.266-0.253
	c-0.641,0.12-1.592,0.524-2.85,1.219l-30.565,16.818C254.428,390.753,254.088,391.142,253.817,391.688z M250.564,382.76
	l30.565-16.813c1.258-0.694,2.208-1.102,2.853-1.223c0.474,0.139,1.229,0.22,2.265,0.252c-0.115-0.372-0.293-0.774-0.531-1.205
	c-0.197-0.359-1.268-1.942-3.217-4.761c-0.165,0.422-0.448,1.077-0.85,1.963c-0.236,0.128-0.511,0.278-0.816,0.448
	c-0.438,0.243-1.121,0.594-2.048,1.053c-0.921,0.457-1.604,0.805-2.048,1.049c-0.439,0.243-1.062,0.646-1.864,1.201
	c-0.799,0.557-1.421,0.957-1.862,1.2l-23.066,12.692c-0.611,0.334-1.391,0.612-2.33,0.832c-1.143,0.264-1.827,0.222-2.057-0.115
	c0.9,2.362,1.532,3.877,1.897,4.54c0.196,0.357,0.626,0.816,1.291,1.385c0.143-0.146,0.406-0.595,0.797-1.337
	C249.817,383.369,250.153,382.983,250.564,382.76z M238.154,308.385c-0.624,0-1.111-0.25-1.46-0.744
	c-0.428,2.008-0.64,2.953-0.64,2.84c0,0.844,0.155,2.036,0.464,3.581c0.779-0.669,1.96-1.221,3.555-1.66
	c1.36-0.377,2.72-0.742,4.076-1.094c9.087-2.764,13.899-4.147,14.443-4.147c0.232,0,3.187,0.989,8.854,2.97
	c5.398,1.866,8.599,2.993,9.607,3.388c1.012,0.394,1.552,0.923,1.632,1.592c0-0.374,0.02-0.946,0.059-1.703
	c0.037-0.755,0.055-1.322,0.055-1.705c0-0.316-0.018-0.583-0.055-0.784c-0.972,0.32-1.594,0.481-1.863,0.481
	c-0.543,0-2.779-0.714-6.702-2.142c-3.685-1.34-7.321-2.24-8.333-2.708c-0.117-0.057-1.465-0.133-1.465-0.218v-0.091
	c4-0.373,4.533-1.147,8.572-2.313c4.191-1.225,7.076-1.834,7.37-1.834c0.289,0,0.817,0.191,1.708,0.567
	c0.273-0.813,0.35-2.112,0.35-3.886v-1.4c0-0.607,0.346-1.09,0.385-1.438c-0.233,0.088-0.43,0.374-0.973,0.853
	c-0.541,0.479-1.03,0.834-1.652,1.071c-1.125,0.374-4.742,1.41-10.957,3.098c-6.405,1.745-9.798,2.624-10.224,2.624
	c-0.431,0-3.078-0.893-7.973-2.668c-4.734-1.717-7.542-2.779-8.437-3.187c-0.971-0.757-1.646-1.357-2.034-1.791
	c-0.312,1.167-0.463,1.893-0.463,2.185c0,0.727,0.192,1.6,0.581,2.617c0.701-0.696,1.205-1.046,1.519-1.046
	c0.344,0,2.075,0.539,5.18,1.614c2.72,0.964,4.523,1.618,5.418,1.967c1.242,0.523,2.13,0.945,2.677,1.266
	c-0.893,0.407-3.123,1.139-6.699,2.187C240.969,307.832,238.77,308.385,238.154,308.385z M322.612,159.028
	c0.754,0.611,1.332,1.201,1.739,1.77l15.21,21.484c0.289,0.411,0.677,1.042,1.153,1.895c0.479,0.851,0.863,1.481,1.153,1.896
	c0.294,0.413,0.753,1.026,1.385,1.836c0.628,0.815,1.091,1.43,1.382,1.841c0.203,0.289,0.383,0.541,0.538,0.762
	c-0.024,0.969-0.059,1.683-0.094,2.136c2.982-1.686,4.641-2.644,4.972-2.881c0.404-0.286,0.739-0.569,1.005-0.853
	c-0.946-0.425-1.66-0.677-2.147-0.762c-0.523-0.389-1.203-1.17-2.032-2.346l-20.162-28.466c-0.265-0.38-0.404-0.879-0.414-1.492
	c-0.022-0.842-0.064-1.355-0.13-1.547c-0.848,0.218-1.436,0.441-1.768,0.677c-0.618,0.441-1.85,1.523-3.69,3.257
	C321.068,158.03,321.7,158.297,322.612,159.028z M257.147,235.89c1.382,0.289,2.759,0.587,4.125,0.901
	c9.341,1.702,14.256,2.68,14.74,2.932c0.207,0.102,2.376,2.333,6.506,6.693c3.942,4.129,6.276,6.599,6.99,7.412
	c0.72,0.813,0.961,1.532,0.72,2.164c0.173-0.337,0.453-0.83,0.833-1.489c0.383-0.652,0.66-1.151,0.833-1.484
	c0.145-0.287,0.249-0.526,0.308-0.729c-1.012-0.156-1.637-0.303-1.878-0.425c-0.484-0.249-2.139-1.909-4.971-4.974
	c-2.665-2.881-4.339-4.753-5.024-5.637c-0.077-0.102-0.094-0.193-0.054-0.271l0.039-0.076c0.9,0.036,3.411,0.461,7.532,1.276
	c4.288,0.836,6.563,1.317,6.82,1.45c0.257,0.134,0.696,0.575,1.32,1.32c0.611-0.599,1.325-1.688,2.141-3.269
	c0.105-0.207,0.32-0.624,0.641-1.244c0.243-0.563,0.467-0.985,0.659-1.279c-0.246-0.028-0.719,0.045-1.425,0.224
	c-0.701,0.179-1.385,0.227-2.041,0.152c-1.176-0.185-4.909-0.943-11.203-2.291c-6.498-1.383-9.934-2.167-10.313-2.365
	c-0.383-0.195-2.337-2.207-5.872-6.025c-3.425-3.699-5.438-5.934-6.044-6.706c-0.52-1.114-0.845-1.955-0.992-2.527
	c-0.81,0.896-1.283,1.473-1.416,1.731c-0.331,0.648-0.562,1.512-0.686,2.594c0.942-0.301,1.553-0.377,1.83-0.235
	c0.309,0.161,1.597,1.428,3.866,3.81c1.975,2.1,3.276,3.51,3.911,4.231c0.864,1.035,1.467,1.819,1.805,2.352
	c-0.982-0.048-3.301-0.419-6.956-1.124c-3.853-0.745-6.057-1.258-6.609-1.545c-0.552-0.283-0.871-0.725-0.957-1.325
	c-1.297,1.59-1.923,2.335-1.869,2.229c-0.386,0.751-0.793,1.885-1.228,3.396C254.23,235.499,255.533,235.55,257.147,235.89z
	 M311.423,174.445c7.509,5.815,11.423,8.948,11.733,9.39c0.138,0.189,1.033,3.172,2.691,8.942c1.599,5.48,2.527,8.743,2.791,9.797
	c0.264,1.051,0.142,1.804-0.356,2.249c0.305-0.215,0.781-0.53,1.422-0.935c0.643-0.405,1.115-0.717,1.422-0.938
	c0.267-0.183,0.464-0.35,0.611-0.5c-0.824-0.607-1.312-1.022-1.47-1.244c-0.314-0.444-1.023-2.677-2.125-6.704
	c-1.039-3.785-1.657-6.22-1.86-7.313c-0.023-0.127,0.007-0.219,0.079-0.269l0.067-0.052c0.78,0.45,2.813,1.982,6.096,4.605
	c3.423,2.717,5.218,4.192,5.385,4.428c0.173,0.241,0.357,0.829,0.563,1.778c0.824-0.249,1.958-0.887,3.411-1.915
	c0.189-0.133,0.566-0.405,1.141-0.808c0.474-0.385,0.868-0.661,1.175-0.831c-0.206-0.14-0.661-0.292-1.366-0.457
	c-0.705-0.17-1.335-0.436-1.884-0.81c-0.96-0.7-3.926-3.096-8.895-7.192c-5.126-4.221-7.812-6.503-8.061-6.852
	c-0.248-0.346-1.06-3.03-2.437-8.05c-1.334-4.857-2.094-7.77-2.278-8.735c0.057-1.227,0.154-2.125,0.285-2.699
	c-1.131,0.422-1.816,0.713-2.052,0.883c-0.595,0.423-1.194,1.086-1.804,1.991c0.977,0.165,1.555,0.374,1.729,0.63
	c0.202,0.286,0.764,2.009,1.678,5.163c0.787,2.772,1.292,4.628,1.529,5.558c0.285,1.317,0.459,2.291,0.51,2.917
	c-0.85-0.492-2.733-1.893-5.653-4.203c-3.078-2.433-4.799-3.903-5.158-4.41c-0.356-0.507-0.434-1.048-0.232-1.62
	c-1.887,0.813-2.785,1.188-2.686,1.122c-0.691,0.487-1.577,1.303-2.656,2.447c0.997,0.248,2.13,0.895,3.407,1.942
	C309.271,172.642,310.355,173.536,311.423,174.445z M424.911,131.159c0.261,0.936,0.39,1.751,0.393,2.45l-0.052,26.323
	c-0.003,0.503-0.053,1.241-0.158,2.213c-0.103,0.97-0.154,1.707-0.158,2.213c0,0.507,0.02,1.272,0.064,2.299
	c0.039,1.028,0.061,1.797,0.061,2.301c-0.002,0.354-0.002,0.663-0.004,0.933c-0.58,0.775-1.021,1.337-1.313,1.687
	c3.407,0.354,5.313,0.534,5.722,0.532c0.495,0.001,0.932-0.035,1.313-0.112c-0.525-0.895-0.961-1.514-1.309-1.865
	c-0.201-0.62-0.303-1.65-0.297-3.089l0.061-34.883c0.004-0.463,0.18-0.951,0.527-1.456c0.469-0.699,0.732-1.143,0.791-1.336
	c-0.818-0.314-1.426-0.473-1.834-0.473c-0.759,0.001-2.39,0.17-4.895,0.516C424.231,129.451,424.592,130.035,424.911,131.159z
	 M432.911,131.159c0.261,0.936,0.39,1.751,0.393,2.45l-0.052,26.323c-0.003,0.503-0.053,1.241-0.158,2.213
	c-0.103,0.97-0.154,1.707-0.158,2.213c0,0.507,0.02,1.272,0.064,2.299c0.039,1.028,0.061,1.797,0.061,2.301
	c-0.002,0.354-0.002,0.663-0.004,0.933c-0.58,0.775-1.021,1.337-1.313,1.687c3.407,0.354,5.313,0.534,5.722,0.532
	c0.495,0.001,0.932-0.035,1.313-0.112c-0.525-0.895-0.961-1.514-1.309-1.865c-0.201-0.62-0.303-1.65-0.297-3.089l0.061-34.883
	c0.004-0.463,0.18-0.951,0.527-1.456c0.469-0.699,0.732-1.143,0.791-1.336c-0.818-0.314-1.426-0.473-1.834-0.473
	c-0.759,0.001-2.39,0.17-4.895,0.516C432.231,129.451,432.592,130.035,432.911,131.159z M406.859,137.242
	c2.75,9.09,4.125,13.911,4.123,14.451c0.002,0.234-0.996,3.184-2.988,8.848c-1.873,5.393-3.006,8.59-3.402,9.602
	c-0.394,1.01-0.93,1.553-1.594,1.627c0.373,0.001,0.944,0.021,1.701,0.062c0.758,0.043,1.324,0.063,1.703,0.06
	c0.323,0.006,0.581-0.017,0.788-0.054c-0.319-0.973-0.476-1.593-0.477-1.865c0.001-0.545,0.717-2.774,2.152-6.695
	c1.346-3.688,2.253-6.029,2.721-7.039c0.055-0.116,0.132-0.174,0.22-0.173l0.085-0.003c0.375,0.819,1.145,3.246,2.3,7.285
	c1.215,4.198,1.823,6.44,1.823,6.729c0.001,0.297-0.189,0.883-0.571,1.775c0.816,0.274,2.109,0.412,3.89,0.416
	c0.231,0.001,0.696-0.002,1.397,0.003c0.609-0.04,1.091-0.036,1.439,0.003c-0.088-0.233-0.37-0.621-0.849-1.164
	c-0.477-0.547-0.836-1.129-1.066-1.751c-0.377-1.127-1.406-4.798-3.082-11.016c-1.732-6.41-2.599-9.827-2.6-10.255
	c-0.002-0.426,0.892-3.084,2.679-7.973c1.727-4.732,2.795-7.546,3.204-8.439c0.757-0.967,1.357-1.643,1.797-2.035
	c-1.167-0.312-1.894-0.472-2.184-0.47c-0.729,0.001-1.603,0.193-2.624,0.578c0.7,0.7,1.05,1.206,1.044,1.516
	c-0.001,0.351-0.542,2.08-1.625,5.18c-0.965,2.716-1.628,4.521-1.974,5.416c-0.531,1.239-0.953,2.134-1.274,2.673
	c-0.407-0.894-1.131-3.126-2.172-6.701c-1.099-3.767-1.649-5.962-1.649-6.583c0.003-0.62,0.254-1.105,0.75-1.455
	c-2.009-0.432-2.958-0.646-2.839-0.642c-0.846-0.004-2.041,0.147-3.583,0.455c0.669,0.78,1.217,1.964,1.651,3.558
	C406.15,134.524,406.516,135.882,406.859,137.242z M630.509,314.99c0,28.225-5.529,55.604-16.428,81.383
	c-10.533,24.896-25.607,47.255-44.809,66.455c-19.203,19.202-41.561,34.277-66.459,44.808
	c-25.777,10.902-53.155,16.431-81.382,16.431c-28.226,0-55.604-5.528-81.383-16.431c-24.892-10.53-47.253-25.605-66.459-44.808
	c-19.198-19.2-34.271-41.56-44.8-66.455c-10.141-23.97-15.625-49.325-16.346-75.456h0.92c0.721,26.007,6.179,51.243,16.269,75.097
	c1.319,3.118,2.709,6.195,4.171,9.232l9.755-5.063c-11.831-24.652-18.417-51.686-19.177-79.715v-4.551h-0.069
	c-0.001-0.31-0.011-0.617-0.011-0.927c0-26.727,5.293-52.637,15.365-76.547l-9.714-5.207c-0.104,0.245-0.216,0.485-0.319,0.73
	c-10.854,25.659-16.357,52.919-16.357,81.023c0,0.31,0.01,0.617,0.011,0.927h-0.92c-0.001-0.31-0.011-0.617-0.011-0.927
	c0-28.226,5.528-55.607,16.435-81.383c10.528-24.896,25.602-47.257,44.8-66.456c19.206-19.204,41.567-34.278,66.459-44.81
	c24.849-10.506,51.186-16.008,78.333-16.393v-0.032h2.651c0.133,0,0.266-0.005,0.398-0.005s0.265,0.005,0.398,0.005h5.551v0.085
	c26.125,0.723,51.47,6.208,75.433,16.34c24.898,10.531,47.256,25.605,66.459,44.81c19.201,19.199,34.275,41.561,44.809,66.456
	C624.979,259.383,630.509,286.765,630.509,314.99z M613.233,233.967c-1.592-3.767-3.303-7.467-5.102-11.114l-9.748,5.058
	c12.754,25.857,19.689,54.401,20.141,84.007h11.029C629.167,284.899,623.69,258.688,613.233,233.967z M568.618,167.8
	c-7.488-7.49-15.467-14.341-23.887-20.546l-6.345,9.004c7.878,5.83,15.378,12.284,22.437,19.343
	c13.443,13.441,24.691,28.488,33.596,44.7l9.766-5.063C594.698,197.866,582.79,181.968,568.618,167.8z M427.381,106.92v10.997
	h-1.293c38.059,0.876,74.315,12.489,105.292,33.392l6.346-9.01c-11.07-7.471-22.854-13.859-35.271-19.11
	C478.61,113.104,453.383,107.644,427.381,106.92z M306.078,141.68l6.342,8.997c31.207-20.798,67.701-32.202,105.962-32.779v-11.03
	c-27.025,0.385-53.241,5.863-77.974,16.321C328.34,128.292,316.876,134.478,306.078,141.68z M242.992,230.969
	c9.579-20.308,22.699-39.021,39.047-55.368c7.33-7.33,15.142-14.002,23.354-20.006l-6.347-9.006
	c-8.756,6.379-17.043,13.451-24.805,21.211c-16.986,16.985-30.72,36.459-40.927,57.979L242.992,230.969z M225.222,314.99
	c0,52.409,20.407,101.684,57.466,138.741c36.342,36.339,84.426,56.657,135.693,57.434v-1.248h9v1.188
	c35.893-1.063,70.135-11.722,99.772-30.754l0.596-0.42l0.016,0.021c11.566-7.489,22.434-16.246,32.408-26.221
	c37.061-37.058,57.471-86.332,57.471-138.741s-20.41-101.684-57.471-138.744c-37.059-37.058-86.332-57.465-138.742-57.465
	c-52.409,0-101.681,20.407-138.743,57.465C245.629,213.307,225.222,262.581,225.222,314.99z M274.242,462.178
	c10.371,10.371,21.673,19.521,33.794,27.408l6.344-9.004c-11.539-7.493-22.382-16.242-32.341-26.2
	c-14.112-14.113-25.814-29.991-34.915-47.132l-9.745,5.053C247.07,430.626,259.414,447.354,274.242,462.178z M527.331,494.235
	l-6.354-9.017c-28.203,16.558-60.187,25.82-93.597,26.804v10.895h-9v-10.834c-34.534-0.521-67.625-9.869-96.692-26.979l-6.353,9.016
	c8.032,4.763,16.393,9.001,25.071,12.672c25.663,10.852,52.92,16.357,81.023,16.357c28.104,0,55.365-5.506,81.023-16.357
	C511.063,503.15,519.358,498.95,527.331,494.235z M603.874,415.297l-9.762-5.061c-8.855,15.999-20,30.856-33.289,44.146
	c-10.014,10.013-20.92,18.804-32.529,26.323l6.334,8.992l-0.395,0.279c12.348-7.974,23.848-17.258,34.385-27.799
	C582.64,448.165,594.438,432.451,603.874,415.297z M629.556,317.917h-11.029c-0.434,29.876-7.467,58.675-20.422,84.726l9.744,5.054
	c1.904-3.83,3.709-7.721,5.385-11.683C623.708,371.244,629.187,344.982,629.556,317.917z M211.381,315.917v5h1.062
	c-0.046-1.663-0.07-3.33-0.077-5H211.381z M224.381,320.917v-0.449c-0.041-1.514-0.062-3.031-0.069-4.551h-11.026
	c0.007,1.67,0.032,3.337,0.078,5H224.381z M331.307,434.49c0.771-1.212,1.405-2.025,1.912-2.445
	c0.482-0.104,1.182-0.396,2.102-0.869c-0.274-0.269-0.625-0.538-1.042-0.802c-0.346-0.218-2.048-1.09-5.112-2.62
	c0.056,0.45,0.125,1.158,0.201,2.13c-0.146,0.227-0.313,0.49-0.502,0.788c-0.266,0.425-0.696,1.06-1.283,1.905
	c-0.586,0.848-1.017,1.482-1.289,1.91c-0.266,0.425-0.619,1.075-1.053,1.951c-0.434,0.873-0.785,1.523-1.054,1.952l-14.091,22.231
	c-0.378,0.596-0.922,1.209-1.646,1.858c-0.87,0.778-1.49,1.076-1.855,0.892c1.929,1.634,3.212,2.654,3.853,3.063
	c0.346,0.216,0.943,0.414,1.798,0.586c0.057-0.195,0.073-0.714,0.054-1.549c-0.024-0.615,0.089-1.122,0.337-1.513L331.307,434.49z
	 M259.114,398.299l30.564-16.816c1.258-0.696,2.21-1.104,2.85-1.223c0.474,0.138,1.231,0.22,2.266,0.252
	c-0.118-0.369-0.291-0.771-0.531-1.205c-0.193-0.359-1.267-1.942-3.212-4.765c-0.168,0.429-0.454,1.083-0.854,1.967
	c-0.237,0.128-0.509,0.278-0.814,0.448c-0.439,0.243-1.122,0.592-2.045,1.051c-0.927,0.455-1.607,0.81-2.051,1.053
	c-0.439,0.244-1.063,0.64-1.864,1.199c-0.799,0.555-1.422,0.957-1.863,1.2l-23.064,12.695c-0.613,0.331-1.392,0.609-2.334,0.829
	c-1.14,0.261-1.825,0.225-2.057-0.115c0.901,2.365,1.534,3.877,1.9,4.54c0.195,0.357,0.628,0.816,1.292,1.383
	c0.144-0.145,0.407-0.59,0.792-1.334C258.363,398.907,258.703,398.522,259.114,398.299z M286.554,410.118
	c0.204-0.28,0.58-0.698,1.131-1.269c0.552-0.571,1.306-1.235,2.263-1.994c1.775-1.443,3.909-3.279,6.403-5.518
	c2.058-1.896,4.122-3.781,6.192-5.65c-0.047-0.736-0.234-1.399-0.558-1.986c-0.267-0.485-0.74-1.022-1.419-1.61
	c-1.598,0.313-3.521,0.807-5.768,1.478c-1.911,0.55-3.815,1.116-5.713,1.697c-0.94,0.149-2.313,0.424-4.132,0.826
	c-4.116,1.134-10.319,2.835-18.599,5.1c-0.082,0.011-1.117,0.346-3.102,1.008c-1.303,0.45-2.303,0.686-3.002,0.705
	c-0.295,0.028-0.641-0.079-1.043-0.322c-0.561-0.292-0.892-0.457-1.003-0.496l-0.764,0.422l-0.01,0.103
	c0.11,0.204,0.314,0.459,0.612,0.759c0.303,0.301,0.501,0.542,0.599,0.72c0.194,0.357,0.424,0.895,0.688,1.615
	c0.264,0.718,0.487,1.245,0.668,1.573c0.113,0.21,0.402,0.411,0.872,0.618c0.745-0.742,1.151-1.128,1.215-1.169
	c0.14-0.074,0.635-0.179,1.49-0.315c1.055-0.181,1.638-0.289,1.754-0.32c3.611-0.923,8.259-2.184,13.938-3.781
	c7.624-2.169,12.284-3.483,13.977-3.951c1.047-0.275,2.22-0.439,3.522-0.489c0.055,0.501-1.246,1.846-3.895,4.036
	c-1.566,1.263-3.537,2.994-5.914,5.2c-3.043,2.767-4.99,4.54-5.852,5.311c-0.244,0.202-2.058,1.864-5.433,4.984
	c-3.028,2.796-4.626,4.24-4.796,4.334c-0.547,0.298-1.292,0.313-2.24,0.037c0.195,0.918,0.558,1.866,1.096,2.839
	c0.097,0.179,0.207,0.331,0.323,0.468c0.067-0.041,0.255-0.023,0.555,0.042c0.368-0.867,0.781-1.523,1.237-1.975
	c0.462-0.456,1.532-1.444,3.221-2.971c1.686-1.523,4.244-3.765,7.674-6.713C283.631,412.736,284.907,411.626,286.554,410.118z
	 M437.961,499.981c-0.408-0.23-0.414-0.483-0.533-0.755c-0.32-0.624-0.467-1.614-0.699-2.972c-0.379-2.059-0.525-3.127-0.553-3.203
	c-2.012-8.348-3.477-14.599-4.469-18.754c-0.521-1.784-0.93-3.124-1.25-4.017c-0.408-1.94-0.822-3.884-1.258-5.826
	c-0.492-2.289-0.98-4.21-1.48-5.765c-0.84-0.31-1.541-0.464-2.096-0.464c-0.668,0-1.338,0.154-2.006,0.464
	c-0.643,2.717-1.297,5.438-1.967,8.154c-0.757,3.261-1.34,6.018-1.748,8.271c-0.203,1.198-0.42,2.184-0.653,2.939
	c-0.232,0.757-0.42,1.292-0.57,1.604c-0.521,2.173-0.885,3.82-1.091,4.949c-0.932,4.424-1.656,7.746-2.184,9.956
	c-0.526,2.215-0.876,3.631-1.048,4.251c-0.172,0.623-0.553,1.303-1.136,2.039c0.204,0.234,0.307,0.389,0.307,0.468
	c0.172,0.039,0.364,0.059,0.568,0.059c1.107,0,2.11-0.138,3.011-0.409c-0.696-0.7-1.047-1.36-1.047-1.98
	c0-0.193,0.494-2.292,1.486-6.289c1.104-4.463,1.688-6.852,1.745-7.162c0.266-1.128,0.878-3.69,1.835-7.688
	c0.788-3.145,1.355-5.708,1.705-7.688c0.641-3.38,1.195-5.166,1.66-5.359c0.584,1.164,1.002,2.27,1.266,3.32
	c0.408,1.707,1.5,6.424,3.275,14.15c1.34,5.748,2.475,10.426,3.41,14.037c0.029,0.117,0.215,0.681,0.566,1.692
	c0.289,0.81,0.436,1.294,0.436,1.452c0,0.077-0.146,0.621-0.436,1.631c0.408,0.31,0.725,0.466,0.959,0.466
	c0.381,0,0.951-0.06,1.703-0.174c0.76-0.118,1.344-0.175,1.748-0.175c0.203,0,0.514,0.057,0.918,0.175
	c0.021,0.006,0.026,0.011,0.045,0.017v-0.771C438.381,500.546,438.488,500.33,437.961,499.981z M296.381,315.917v-4h-9v4H296.381z
	 M437.195,308.025c3.758,8.767-0.324,18.952-9.088,22.705c-2.166,0.926-4.455,1.399-6.798,1.399
	c-6.932,0-13.176-4.119-15.904-10.491c-3.753-8.768,0.326-18.95,9.093-22.7c2.169-0.93,4.455-1.402,6.798-1.402
	C428.227,297.536,434.467,301.651,437.195,308.025z M434.313,309.26c-2.23-5.215-7.344-8.585-13.017-8.585
	c-1.918,0-3.787,0.385-5.566,1.145c-7.174,3.073-10.514,11.408-7.443,18.586c2.234,5.218,7.345,8.586,13.023,8.586
	c1.919,0,3.789-0.383,5.564-1.142C434.047,324.776,437.387,316.438,434.313,309.26z M421.431,179.434
	c36.209,0,70.251,14.103,95.855,39.702c24.877,24.877,38.893,57.724,39.668,92.781h0.428v4h-0.402
	c-0.238,35.86-14.309,69.543-39.693,94.924c-25.143,25.145-58.426,39.182-93.905,39.68v1.396h-3v-1.386
	c-35.814-0.271-69.446-14.333-94.801-39.69c-25.604-25.6-39.703-59.644-39.703-95.851c0-36.208,14.1-70.252,39.703-95.854
	C351.183,193.536,385.224,179.434,421.431,179.434z M421.431,180.351c-2.131,0-4.254,0.053-6.369,0.15l0.533,10.099
	c1.59-0.073,3.186-0.112,4.787-0.125v-8.558h3v8.568c1.34,0.021,2.676,0.057,4.008,0.118l0.535-10.098
	C425.769,180.404,423.604,180.351,421.431,180.351z M514.511,397.708l7.515,6.766c1.297-1.453,2.563-2.928,3.79-4.428l-7.859-6.363
	C516.841,395.046,515.688,396.386,514.511,397.708z M526.581,399.091c1.221-1.52,2.407-3.06,3.555-4.623l-8.182-5.943
	c-1.045,1.422-2.124,2.821-3.232,4.203L526.581,399.091z M530.855,393.474c1.139-1.58,2.241-3.182,3.307-4.805l-8.483-5.508
	c-0.969,1.475-1.971,2.932-3.006,4.369L530.855,393.474z M534.829,387.645c1.054-1.637,2.068-3.295,3.047-4.973l-8.761-5.057
	c-0.89,1.524-1.812,3.033-2.769,4.521L534.829,387.645z M538.493,381.614c0.965-1.69,1.889-3.401,2.777-5.129l-9.014-4.594
	c-0.809,1.571-1.646,3.128-2.523,4.665L538.493,381.614z M541.833,375.396c0.875-1.737,1.705-3.494,2.5-5.267l-9.242-4.115
	c-0.725,1.611-1.479,3.21-2.272,4.789L541.833,375.396z M544.831,369.012c0.779-1.781,1.523-3.577,2.227-5.39l-9.445-3.629
	c-0.639,1.649-1.316,3.282-2.025,4.902L544.831,369.012z M547.487,362.473c0.684-1.818,1.332-3.649,1.938-5.498l-9.622-3.127
	c-0.55,1.681-1.14,3.347-1.761,5L547.487,362.473z M549.794,355.805c0.586-1.852,1.135-3.717,1.641-5.596l-9.771-2.617
	c-0.459,1.708-0.959,3.403-1.49,5.088L549.794,355.805z M551.747,349.024c0.486-1.878,0.932-3.769,1.338-5.671l-9.893-2.103
	c-0.369,1.729-0.775,3.448-1.217,5.155L551.747,349.024z M553.339,342.152c0.387-1.899,0.73-3.812,1.037-5.733l-9.99-1.582
	c-0.277,1.747-0.59,3.486-0.941,5.214L553.339,342.152z M554.569,335.209c0.287-1.916,0.527-3.845,0.732-5.78l-10.057-1.057
	c-0.188,1.76-0.404,3.513-0.666,5.256L554.569,335.209z M555.433,328.211c0.188-1.929,0.328-3.866,0.432-5.811l-10.098-0.527
	c-0.096,1.768-0.225,3.528-0.393,5.28L555.433,328.211z M545.745,307.746l10.098-0.531c-0.109-1.942-0.254-3.88-0.445-5.806
	l-10.059,1.054C545.513,304.216,545.644,305.979,545.745,307.746z M555.263,300.191c-0.211-1.935-0.459-3.86-0.75-5.776l-9.99,1.585
	c0.266,1.74,0.49,3.49,0.682,5.248L555.263,300.191z M554.319,293.206c-0.311-1.92-0.662-3.83-1.053-5.729l-9.895,2.103
	c0.355,1.726,0.674,3.462,0.957,5.207L554.319,293.206z M553.013,286.279c-0.41-1.9-0.863-3.789-1.355-5.665l-9.771,2.618
	c0.447,1.705,0.859,3.421,1.232,5.148L553.013,286.279z M551.345,279.429c-0.51-1.875-1.064-3.734-1.654-5.582l-9.621,3.126
	c0.535,1.68,1.041,3.37,1.504,5.074L551.345,279.429z M549.321,272.68c-0.607-1.846-1.264-3.674-1.951-5.489l-9.446,3.624
	c0.624,1.649,1.22,3.312,1.774,4.987L549.321,272.68z M546.933,266.044c-0.705-1.809-1.447-3.602-2.23-5.378l-9.244,4.114
	c0.711,1.615,1.387,3.246,2.027,4.89L546.933,266.044z M544.196,259.548c-0.799-1.767-1.631-3.52-2.508-5.251l-9.016,4.591
	c0.797,1.574,1.553,3.168,2.28,4.774L544.196,259.548z M541.122,253.204c-0.893-1.722-1.819-3.427-2.787-5.111l-8.761,5.058
	c0.88,1.531,1.722,3.082,2.533,4.647L541.122,253.204z M537.72,247.036c-0.98-1.672-1.998-3.323-3.054-4.955l-8.483,5.508
	c0.958,1.484,1.883,2.985,2.775,4.505L537.72,247.036z M533.997,241.054c-1.067-1.617-2.174-3.213-3.313-4.788l-8.183,5.946
	c1.035,1.431,2.04,2.88,3.01,4.349L533.997,241.054z M529.968,235.275c-1.149-1.558-2.338-3.09-3.559-4.604l-7.861,6.362
	c1.109,1.376,2.19,2.77,3.235,4.185L529.968,235.275z M525.644,229.716c-1.229-1.495-2.498-2.963-3.795-4.412l-7.516,6.767
	c1.178,1.316,2.331,2.649,3.447,4.008L525.644,229.716z M508.833,227.585c-23.344-23.349-54.386-36.205-87.402-36.205
	c-33.016,0-64.056,12.856-87.404,36.205c-23.348,23.343-36.205,54.387-36.205,87.405c0,12.928,1.98,25.549,5.781,37.527l0.006-0.002
	l0.379,1.164l-0.016,0.005c0.546,1.665,1.134,3.315,1.751,4.953l0.021-0.008l0.438,1.142l-0.027,0.011
	c0.634,1.633,1.305,3.251,2.008,4.855l0.033-0.015l0.496,1.119l-0.03,0.013c0.72,1.597,1.468,3.181,2.256,4.746l0.041-0.021
	l0.555,1.092l-0.031,0.016c0.803,1.556,1.636,3.097,2.507,4.618l0.034-0.02l0.615,1.059l-0.033,0.019
	c0.884,1.51,1.799,3.003,2.749,4.478l0.027-0.018l0.67,1.027l-0.027,0.018c0.96,1.459,1.955,2.898,2.98,4.32l0.02-0.015l0.724,0.996
	l-0.022,0.016c1.036,1.406,2.107,2.792,3.206,4.159l0.016-0.013l0.771,0.954l-0.02,0.016c1.106,1.35,2.25,2.676,3.418,3.984
	l0.013-0.012l0.822,0.914l-0.016,0.015c1.174,1.29,2.382,2.557,3.616,3.804l0.014-0.014l0.869,0.867l-0.016,0.017
	c1.247,1.236,2.515,2.444,3.805,3.621l0.023-0.026l0.909,0.82l-0.021,0.023c1.309,1.171,2.634,2.317,3.984,3.427l0.034-0.042
	l0.952,0.771l-0.031,0.038c1.367,1.101,2.752,2.175,4.159,3.213l0.038-0.053l0.991,0.716l-0.039,0.054
	c1.424,1.029,2.866,2.027,4.327,2.992l0.046-0.071l1.026,0.663l-0.048,0.074c1.474,0.952,2.966,1.87,4.475,2.755l0.051-0.088
	l1.062,0.614l-0.053,0.092c1.522,0.873,3.063,1.708,4.618,2.513l0.052-0.103l1.094,0.561l-0.055,0.108
	c1.565,0.79,3.149,1.54,4.745,2.262l0.051-0.115l1.12,0.498l-0.053,0.119c1.605,0.706,3.225,1.377,4.858,2.013l0.048-0.126
	l1.141,0.439l-0.046,0.121c1.64,0.619,3.291,1.209,4.957,1.758l0.042-0.13l1.166,0.381l-0.039,0.119
	c1.669,0.531,3.35,1.029,5.044,1.489l0.033-0.122l1.184,0.317l-0.031,0.116c1.694,0.442,3.398,0.849,5.114,1.218l0.024-0.113
	l1.194,0.255l-0.023,0.11c1.716,0.353,3.442,0.666,5.177,0.945l0.016-0.101l1.207,0.192l-0.016,0.102
	c1.729,0.261,3.469,0.481,5.215,0.669l0.01-0.091l1.218,0.128l-0.01,0.098c1.739,0.17,3.487,0.297,5.24,0.395l0.004-0.082
	l1.224,0.06l-0.004,0.088c1.927,0.089,3.861,0.137,5.802,0.137c13.004,0,25.699-2.003,37.741-5.848l0,0l1.164-0.379l0.002,0.009
	c1.666-0.55,3.316-1.142,4.955-1.763v-0.002l1.141-0.442l0.003,0.006c1.633-0.637,3.253-1.308,4.857-2.015l-0.002-0.005l0.762-0.337
	c13.529-6.077,25.979-14.628,36.779-25.43c23.348-23.349,36.205-54.387,36.205-87.402
	C545.038,281.972,532.181,250.928,508.833,227.585z M428.627,439.307l0.529,10.093c1.947-0.109,3.887-0.254,5.816-0.445
	l-1.059-10.052C432.159,439.076,430.396,439.206,428.627,439.307z M436.193,448.819c1.937-0.21,3.865-0.457,5.783-0.749
	l-1.584-9.983c-1.743,0.265-3.496,0.489-5.256,0.681L436.193,448.819z M443.188,447.876c1.922-0.311,3.835-0.66,5.736-1.053
	l-2.102-9.889c-1.729,0.355-3.467,0.674-5.215,0.957L443.188,447.876z M450.121,446.57c1.904-0.411,3.797-0.864,5.676-1.357
	l-2.615-9.767c-1.709,0.447-3.43,0.86-5.161,1.234L450.121,446.57z M456.984,444.898l-0.502,0.135
	c8.977-2.404,17.657-5.73,25.923-9.937l-0.238,0.12l-4.594-9.006c-1.58,0.799-3.178,1.559-4.787,2.288l4.111,9.237l-1.119,0.495
	l-4.11-9.228c-1.619,0.714-3.254,1.391-4.902,2.034l3.62,9.431l-1.143,0.439l-3.62-9.433c-1.654,0.627-3.319,1.225-5,1.779
	l3.123,9.604l-1.168,0.38l-3.123-9.614c-1.684,0.538-3.379,1.044-5.088,1.509L456.984,444.898z M483.251,434.656
	c1.727-0.894,3.434-1.823,5.121-2.793l-5.055-8.758c-1.535,0.881-3.088,1.727-4.656,2.54L483.251,434.656z M489.431,431.245
	c1.676-0.982,3.33-2.004,4.965-3.063l-5.505-8.481c-1.487,0.962-2.993,1.892-4.516,2.786L489.431,431.245z M495.425,427.514
	c1.619-1.07,3.218-2.18,4.795-3.322l-5.943-8.181c-1.435,1.039-2.887,2.049-4.36,3.022L495.425,427.514z M501.214,423.472
	c1.561-1.152,3.096-2.345,4.611-3.568l-6.363-7.857c-1.379,1.112-2.774,2.198-4.193,3.247L501.214,423.472z M506.78,419.136
	c1.498-1.231,2.969-2.504,4.42-3.805l-6.765-7.516c-1.319,1.184-2.657,2.34-4.02,3.461L506.78,419.136z M512.112,414.509
	c1.431-1.306,2.838-2.646,4.221-4.02l-7.15-7.15c-1.258,1.249-2.537,2.469-3.838,3.657L512.112,414.509z M297.105,322.001
	l-10.094,0.529c0.106,1.944,0.247,3.883,0.436,5.811l10.054-1.058C297.33,325.53,297.202,323.769,297.105,322.001z M287.581,329.558
	c0.207,1.936,0.45,3.862,0.738,5.777l9.985-1.579c-0.262-1.743-0.482-3.495-0.671-5.255L287.581,329.558z M288.513,336.545
	c0.307,1.922,0.653,3.833,1.042,5.732l9.89-2.101c-0.353-1.729-0.667-3.467-0.947-5.214L288.513,336.545z M289.808,343.478
	c0.408,1.902,0.856,3.792,1.345,5.669l9.768-2.614c-0.444-1.708-0.852-3.427-1.223-5.156L289.808,343.478z M328.613,231.977
	l-7.512-6.767c-1.298,1.448-2.567,2.915-3.796,4.409l7.858,6.364C326.281,234.626,327.434,233.292,328.613,231.977z
	 M316.536,230.574c-1.222,1.513-2.413,3.045-3.563,4.602l8.179,5.945c1.048-1.415,2.132-2.809,3.243-4.185L316.536,230.574z
	 M312.254,236.167c-1.141,1.574-2.249,3.168-3.317,4.783l8.482,5.507c0.972-1.468,1.979-2.915,3.015-4.346L312.254,236.167z
	 M308.268,241.979c-1.056,1.63-2.076,3.28-3.058,4.95l8.76,5.055c0.893-1.517,1.82-3.017,2.779-4.498L308.268,241.979z
	 M304.594,247.985c-0.97,1.685-1.899,3.389-2.792,5.11l9.012,4.592c0.813-1.563,1.657-3.112,2.537-4.643L304.594,247.985z
	 M301.237,254.183c-0.878,1.732-1.714,3.485-2.515,5.253l9.24,4.115c0.729-1.606,1.489-3.2,2.288-4.775L301.237,254.183z
	 M298.215,260.55c-0.786,1.776-1.527,3.57-2.234,5.379l9.444,3.625c0.643-1.644,1.317-3.273,2.031-4.888L298.215,260.55z
	 M295.541,267.072c-0.69,1.815-1.345,3.644-1.955,5.489l9.621,3.122c0.556-1.676,1.15-3.337,1.777-4.986L295.541,267.072z
	 M293.215,273.726c-0.592,1.847-1.149,3.706-1.661,5.581l9.768,2.618c0.466-1.703,0.974-3.394,1.512-5.073L293.215,273.726z
	 M291.242,280.495c-0.493,1.875-0.948,3.761-1.36,5.659l9.89,2.103c0.376-1.727,0.791-3.441,1.239-5.146L291.242,280.495z
	 M289.628,287.356c-0.394,1.896-0.747,3.805-1.059,5.724l9.985,1.581c0.285-1.744,0.605-3.479,0.963-5.203L289.628,287.356z
	 M288.375,294.29c-0.293,1.914-0.543,3.84-0.755,5.773l10.053,1.057c0.194-1.757,0.421-3.507,0.688-5.247L288.375,294.29z
	 M287.485,301.283c-0.193,1.926-0.34,3.862-0.452,5.805l10.094,0.529c0.103-1.766,0.236-3.525,0.412-5.276L287.485,301.283z
	 M414.367,190.665l-0.53-10.098c-1.939,0.107-3.873,0.248-5.796,0.437l1.06,10.058C410.849,190.891,412.605,190.763,414.367,190.665
	z M406.823,181.139c-1.932,0.207-3.856,0.45-5.769,0.739l1.584,9.987c1.738-0.262,3.487-0.481,5.242-0.67L406.823,181.139z
	 M399.844,182.071c-1.917,0.308-3.825,0.653-5.721,1.042l2.103,9.893c1.724-0.353,3.458-0.666,5.2-0.946L399.844,182.071z
	 M392.926,183.366c-1.898,0.407-3.785,0.855-5.659,1.343l2.616,9.771c1.704-0.442,3.418-0.85,5.144-1.221L392.926,183.366z
	 M386.079,185.022c-1.873,0.506-3.731,1.055-5.576,1.642l3.125,9.62c1.679-0.532,3.37-1.032,5.073-1.493L386.079,185.022z
	 M379.332,187.034c-1.843,0.604-3.669,1.254-5.483,1.938l3.623,9.445c1.649-0.621,3.311-1.213,4.987-1.763L379.332,187.034z
	 M372.698,189.405c-1.809,0.702-3.601,1.444-5.376,2.225l4.12,9.239c1.613-0.707,3.241-1.382,4.883-2.019L372.698,189.405z
	 M366.205,192.128c-1.769,0.796-3.523,1.625-5.257,2.498l4.595,9.014c1.576-0.793,3.17-1.546,4.778-2.27L366.205,192.128z
	 M359.862,195.19c-1.723,0.888-3.43,1.811-5.116,2.774l5.06,8.758c1.533-0.876,3.085-1.714,4.652-2.521L359.862,195.19z
	 M353.689,198.581c-1.672,0.978-3.326,1.99-4.958,3.042l5.507,8.482c1.484-0.955,2.988-1.876,4.508-2.765L353.689,198.581z
	 M347.705,202.291c-1.619,1.063-3.216,2.165-4.793,3.302l5.945,8.181c1.433-1.032,2.884-2.032,4.354-3L347.705,202.291z
	 M341.918,206.312c-1.559,1.146-3.095,2.331-4.61,3.548l6.364,7.857c1.378-1.106,2.774-2.184,4.192-3.226L341.918,206.312z
	 M336.355,210.623c-1.497,1.226-2.969,2.491-4.42,3.786l6.768,7.512c1.318-1.176,2.654-2.325,4.014-3.438L336.355,210.623z
	 M331.021,215.221c-1.432,1.301-2.836,2.641-4.221,4.009l7.15,7.147c1.258-1.242,2.534-2.459,3.834-3.641L331.021,215.221z
	 M516.151,219.312c-1.381-1.368-2.785-2.706-4.215-4.006l-6.769,7.514c1.298,1.183,2.573,2.398,3.829,3.641L516.151,219.312z
	 M511.022,214.489c-1.449-1.296-2.919-2.563-4.415-3.789l-6.366,7.857c1.359,1.115,2.695,2.268,4.014,3.445L511.022,214.489z
	 M505.649,209.933c-1.513-1.217-3.047-2.403-4.604-3.55l-5.947,8.18c1.416,1.043,2.81,2.122,4.186,3.229L505.649,209.933z
	 M500.052,205.663c-1.575-1.138-3.171-2.24-4.788-3.305l-5.509,8.481c1.469,0.968,2.918,1.971,4.35,3.004L500.052,205.663z
	 M494.238,201.69c-1.632-1.053-3.284-2.068-4.956-3.047l-5.06,8.759c1.519,0.89,3.021,1.812,4.505,2.769L494.238,201.69z
	 M488.222,198.024c-1.684-0.965-3.389-1.889-5.111-2.778l-4.594,9.012c1.566,0.81,3.117,1.65,4.649,2.527L488.222,198.024z
	 M482.023,194.682c-1.731-0.874-3.483-1.704-5.249-2.501l-4.119,9.24c1.605,0.725,3.198,1.478,4.772,2.271L482.023,194.682z
	 M475.655,191.678c-1.775-0.781-3.568-1.524-5.377-2.228l-3.63,9.443c1.644,0.64,3.273,1.314,4.888,2.024L475.655,191.678z
	 M469.132,189.015c-1.813-0.686-3.64-1.337-5.483-1.943l-3.132,9.618c1.677,0.553,3.339,1.146,4.989,1.771L469.132,189.015z
	 M462.484,186.702c-1.848-0.589-3.709-1.142-5.584-1.65l-2.619,9.771c1.703,0.463,3.395,0.965,5.073,1.5L462.484,186.702z
	 M455.715,184.74c-1.872-0.489-3.758-0.939-5.654-1.349l-2.107,9.893c1.727,0.372,3.44,0.782,5.145,1.227L455.715,184.74z
	 M448.861,183.139c-1.896-0.391-3.805-0.739-5.723-1.048l-1.584,9.988c1.744,0.281,3.478,0.598,5.201,0.952L448.861,183.139z
	 M441.932,181.897c-1.914-0.291-3.839-0.537-5.771-0.746l-1.059,10.057c1.756,0.19,3.504,0.413,5.242,0.677L441.932,181.897z
	 M434.943,181.018c-1.923-0.19-3.855-0.334-5.795-0.442l-0.532,10.098c1.763,0.1,3.521,0.229,5.269,0.401L434.943,181.018z
	 M321.92,224.302l7.514,6.767c1.186-1.298,2.401-2.574,3.647-3.828l-7.148-7.15C324.562,221.47,323.225,222.874,321.92,224.302z
	 M286.797,314.99c0,2.114,0.053,4.22,0.149,6.317l10.094-0.527c-0.087-1.923-0.136-3.853-0.136-5.79c0-2.059,0.05-4.108,0.149-6.15
	l-10.094-0.532C286.852,310.525,286.797,312.754,286.797,314.99z M423.381,439.917v9.684c1.521-0.021,3.04-0.061,4.553-0.132
	l-0.531-10.094c-1.982,0.093-3.973,0.143-5.971,0.143c-1.958,0-3.908-0.049-5.851-0.138l-0.524,10.009l-1.225-0.061l0.525-10.015
	c-1.77-0.099-3.533-0.227-5.288-0.398l-1.047,9.956l-1.218-0.126l1.047-9.964c-1.762-0.19-3.518-0.412-5.263-0.676l-1.564,9.881
	l-1.21-0.192l1.567-9.882c-1.751-0.281-3.493-0.599-5.225-0.953l-2.076,9.775l-1.198-0.249l2.08-9.779
	c-1.731-0.373-3.452-0.783-5.161-1.229l-2.587,9.647l-1.186-0.316l2.587-9.643c-1.709-0.464-3.405-0.968-5.09-1.504l-3.086,9.495
	l-1.164-0.38l3.081-9.485c-1.681-0.554-3.348-1.148-5.002-1.773l-3.577,9.315l-1.145-0.441l3.579-9.309
	c-1.648-0.642-3.283-1.319-4.902-2.031l-4.061,9.114l-1.118-0.496l4.061-9.12c-1.611-0.729-3.209-1.485-4.789-2.282l-4.533,8.896
	l-1.096-0.559l4.538-8.903c-1.57-0.813-3.124-1.655-4.66-2.536l-5.002,8.663l-1.059-0.611l5.001-8.67
	c-1.523-0.893-3.029-1.819-4.516-2.779l-5.457,8.405l-1.028-0.669l5.461-8.404c-1.475-0.973-2.929-1.979-4.366-3.019l-5.901,8.126
	l-0.992-0.72l5.902-8.123c-1.42-1.048-2.817-2.131-4.197-3.242l-6.333,7.818l-0.952-0.771l6.33-7.814
	c-1.362-1.119-2.7-2.275-4.021-3.457l-6.745,7.488l-0.905-0.818l6.74-7.488c-1.302-1.188-2.582-2.406-3.841-3.654l-7.134,7.131
	l-0.864-0.866l7.132-7.134c-1.246-1.259-2.464-2.538-3.649-3.84l-7.498,6.747l-0.818-0.909l7.498-6.754
	c-1.179-1.321-2.333-2.659-3.45-4.021l-7.838,6.343l-0.771-0.952l7.841-6.348c-1.109-1.38-2.19-2.778-3.235-4.197l-8.155,5.926
	l-0.723-0.994l8.156-5.929c-1.035-1.435-2.038-2.888-3.007-4.36l-8.454,5.491l-0.667-1.031l8.451-5.487
	c-0.958-1.488-1.882-2.994-2.773-4.519l-8.729,5.043l-0.611-1.065l8.723-5.035c-0.879-1.536-1.719-3.091-2.529-4.66l-8.98,4.574
	l-0.555-1.093l8.971-4.568c-0.795-1.58-1.55-3.179-2.276-4.79l-9.21,4.098l-0.495-1.115l9.206-4.1
	c-0.71-1.619-1.387-3.252-2.027-4.899l-9.415,3.614l-0.437-1.145l9.419-3.614c-0.623-1.653-1.216-3.318-1.768-4.999l-9.605,3.119
	l-0.374-1.164l9.61-3.122c-0.534-1.683-1.035-3.377-1.497-5.084l-9.768,2.615c6.06,22.428,17.894,42.987,34.766,59.86
	c25.181,25.179,58.582,39.148,94.15,39.419v-9.694H423.381z M521.212,405.391l-7.516-6.766c-1.186,1.304-2.404,2.583-3.65,3.844
	l7.15,7.15C518.567,408.232,519.909,406.825,521.212,405.391z M556.06,315.917h-10.113c-0.01,1.583-0.049,3.162-0.119,4.735
	l10.1,0.526C556.005,319.431,556.048,317.677,556.06,315.917z M556.034,311.917c-0.027-1.163-0.066-2.323-0.121-3.481l-10.1,0.533
	c0.047,0.98,0.084,1.963,0.107,2.948H556.034z M517.02,220.177l-7.151,7.15c1.244,1.256,2.461,2.533,3.646,3.831l7.517-6.768
	C519.728,222.962,518.39,221.558,517.02,220.177z M338.795,439.233c0.771-1.208,1.409-2.024,1.91-2.441
	c0.487-0.107,1.187-0.398,2.107-0.872c-0.28-0.266-0.628-0.535-1.046-0.802c-0.346-0.215-2.047-1.087-5.114-2.617
	c0.059,0.451,0.127,1.158,0.204,2.128c-0.146,0.229-0.31,0.489-0.499,0.788c-0.27,0.424-0.7,1.062-1.285,1.908
	c-0.59,0.842-1.018,1.481-1.29,1.906c-0.269,0.424-0.62,1.076-1.054,1.951c-0.433,0.872-0.784,1.521-1.057,1.951l-14.088,22.235
	c-0.374,0.592-0.924,1.21-1.644,1.855c-0.875,0.779-1.491,1.079-1.854,0.893c1.926,1.634,3.209,2.656,3.853,3.062
	c0.34,0.215,0.94,0.413,1.798,0.587c0.054-0.196,0.071-0.709,0.051-1.553c-0.025-0.612,0.088-1.116,0.34-1.511L338.795,439.233z
	 M419.245,310.027c-2.654,1.136-3.886,4.206-2.75,6.86s4.212,3.886,6.863,2.75c2.658-1.139,3.887-4.208,2.748-6.862
	C424.973,310.118,421.899,308.89,419.245,310.027z M355.474,444.011c-0.47-0.296-1.142-0.539-2.023-0.727
	c-1.245,1.042-2.695,2.402-4.339,4.077c-1.407,1.401-2.8,2.817-4.188,4.24c-0.748,0.579-1.818,1.483-3.218,2.716
	c-3.063,2.977-7.673,7.451-13.843,13.434c-0.065,0.046-0.808,0.839-2.229,2.374c-0.924,1.025-1.688,1.714-2.291,2.065
	c-0.243,0.169-0.601,0.24-1.068,0.217c-0.63,0.018-1.003,0.035-1.119,0.052l-0.468,0.74l0.043,0.093
	c0.198,0.127,0.496,0.249,0.907,0.368c0.404,0.118,0.693,0.235,0.868,0.343c0.344,0.221,0.805,0.58,1.383,1.085
	c0.575,0.505,1.025,0.855,1.346,1.06c0.195,0.124,0.55,0.163,1.059,0.121c0.296-1.011,0.462-1.546,0.503-1.611
	c0.083-0.133,0.466-0.464,1.149-0.997c0.835-0.665,1.297-1.04,1.385-1.122c2.72-2.552,6.18-5.896,10.392-10.032
	c5.635-5.578,9.079-8.977,10.339-10.203c0.785-0.742,1.731-1.45,2.848-2.124c0.291,0.416-0.198,2.221-1.466,5.413
	c-0.762,1.86-1.656,4.331-2.677,7.406c-1.327,3.892-2.18,6.383-2.565,7.476c-0.116,0.295-0.9,2.623-2.357,6.988
	c-1.304,3.905-2.008,5.941-2.112,6.109c-0.331,0.521-0.979,0.892-1.945,1.107c0.617,0.713,1.393,1.365,2.325,1.957
	c0.175,0.111,0.346,0.196,0.516,0.258c0.039-0.068,0.209-0.145,0.503-0.231c-0.096-0.936-0.048-1.714,0.131-2.329
	c0.189-0.621,0.652-2.003,1.395-4.152c0.741-2.149,1.903-5.343,3.485-9.583c0.431-1.062,1.007-2.648,1.729-4.764
	c0.041-0.343,0.169-0.892,0.376-1.657c0.207-0.764,0.55-1.714,1.021-2.835c0.859-2.121,1.846-4.762,2.95-7.923
	c0.89-2.653,1.79-5.299,2.702-7.938C356.52,444.859,356.038,444.372,355.474,444.011z M550.108,249.218
	c0.168-0.426,0.447-1.077,0.85-1.964c0.238-0.131,0.51-0.281,0.813-0.447c0.445-0.241,1.127-0.596,2.049-1.051
	c0.92-0.459,1.605-0.811,2.047-1.055c0.443-0.243,1.064-0.642,1.865-1.2c0.805-0.553,1.42-0.958,1.865-1.201l23.063-12.689
	c0.615-0.337,1.393-0.615,2.338-0.833c1.137-0.263,1.826-0.224,2.055,0.113c-0.904-2.362-1.535-3.875-1.9-4.538
	c-0.193-0.356-0.625-0.818-1.291-1.382c-0.145,0.146-0.41,0.59-0.795,1.332c-0.277,0.552-0.615,0.935-1.023,1.164l-30.563,16.815
	c-1.26,0.694-2.209,1.101-2.855,1.219c-0.473-0.136-1.229-0.221-2.264-0.246c0.117,0.367,0.289,0.77,0.529,1.203
	C547.087,244.813,548.161,246.401,550.108,249.218z M586.315,233.233l-30.566,16.816c-1.26,0.693-2.211,1.099-2.852,1.218
	c-0.473-0.133-1.229-0.221-2.262-0.246c0.113,0.368,0.291,0.768,0.529,1.201c0.195,0.356,1.27,1.945,3.219,4.761
	c0.166-0.422,0.445-1.076,0.848-1.963c0.238-0.127,0.508-0.277,0.816-0.448c0.443-0.243,1.125-0.594,2.045-1.053
	c0.92-0.456,1.604-0.805,2.047-1.049c0.445-0.243,1.066-0.645,1.865-1.203c0.803-0.555,1.422-0.955,1.867-1.198l23.061-12.689
	c0.615-0.337,1.391-0.615,2.334-0.833c1.143-0.266,1.83-0.227,2.057,0.113c-0.9-2.362-1.529-3.877-1.896-4.54
	c-0.195-0.357-0.629-0.816-1.293-1.383c-0.141,0.145-0.406,0.593-0.795,1.334C587.063,232.622,586.724,233.01,586.315,233.233z
	 M529.952,467.621c-0.467,0.02-0.822-0.054-1.068-0.22c-0.6-0.355-1.367-1.04-2.291-2.063c-1.422-1.538-2.164-2.332-2.232-2.383
	c-6.162-5.974-10.777-10.451-13.836-13.432c-1.396-1.226-2.471-2.133-3.225-2.716c-1.377-1.423-2.773-2.833-4.182-4.24
	c-1.646-1.669-3.092-3.031-4.342-4.073c-0.879,0.188-1.555,0.431-2.023,0.728c-0.561,0.356-1.047,0.848-1.445,1.47
	c0.916,2.635,1.814,5.283,2.703,7.935c1.107,3.164,2.094,5.801,2.951,7.922c0.475,1.127,0.814,2.071,1.02,2.835
	c0.209,0.766,0.338,1.318,0.379,1.658c0.721,2.118,1.295,3.705,1.729,4.767c1.584,4.237,2.742,7.43,3.484,9.582
	c0.742,2.147,1.203,3.532,1.391,4.152c0.188,0.618,0.229,1.394,0.133,2.328c0.299,0.085,0.465,0.165,0.508,0.233
	c0.166-0.063,0.34-0.15,0.508-0.259c0.939-0.592,1.713-1.243,2.328-1.956c-0.961-0.216-1.609-0.59-1.941-1.111
	c-0.107-0.164-0.811-2.2-2.115-6.107c-1.453-4.364-2.238-6.692-2.357-6.986c-0.383-1.094-1.238-3.584-2.563-7.476
	c-1.02-3.076-1.914-5.546-2.68-7.407c-1.264-3.197-1.754-5.002-1.465-5.412c1.115,0.671,2.066,1.379,2.846,2.126
	c1.262,1.225,4.709,4.623,10.344,10.2c4.207,4.136,7.668,7.481,10.389,10.029c0.09,0.083,0.549,0.457,1.383,1.125
	c0.684,0.533,1.066,0.863,1.152,0.998c0.039,0.063,0.209,0.601,0.5,1.61c0.514,0.041,0.863,0.004,1.061-0.124
	c0.324-0.204,0.773-0.553,1.348-1.06c0.578-0.501,1.039-0.861,1.381-1.079c0.174-0.11,0.463-0.227,0.869-0.342
	c0.406-0.126,0.707-0.244,0.906-0.369l0.041-0.099l-0.467-0.733C530.956,467.649,530.583,467.636,529.952,467.621z M575.692,304.026
	c-0.973-0.104-1.711-0.017-2.219-0.017c-0.502,0-1.27-0.093-2.297-0.046c-1.031,0.043-1.799-0.047-2.301-0.047h-0.934
	c-0.773,0-1.338-0.846-1.689-1.131c-0.348,3.405-0.523,5.404-0.523,5.806c0,0.493,0.039,1.11,0.115,1.489
	c0.896-0.524,1.516-0.782,1.865-1.13c0.619-0.204,1.648-0.034,3.09-0.034h34.885c0.465,0,0.949-0.096,1.453,0.254
	c0.699,0.462,1.146,0.586,1.34,0.648c0.309-0.816,0.467-1.496,0.467-1.904c0-0.76-0.174-2.419-0.527-4.926
	c-0.037,0.407-0.619,0.496-1.744,0.816c-0.932,0.264-1.748,0.111-2.447,0.111h-26.322
	C577.399,303.917,576.657,304.131,575.692,304.026z M508.31,199.952c-0.039-0.45-0.078-1.162-0.115-2.137
	c0.154-0.221,0.33-0.479,0.529-0.765c0.285-0.414,0.74-1.03,1.363-1.854c0.619-0.819,1.074-1.439,1.359-1.858
	c0.287-0.411,0.664-1.048,1.135-1.903c0.467-0.855,0.844-1.492,1.131-1.91l14.969-21.65c0.396-0.578,0.965-1.176,1.713-1.79
	c0.904-0.746,1.537-1.018,1.891-0.816c-1.859-1.714-3.102-2.784-3.727-3.212c-0.332-0.235-0.924-0.456-1.771-0.662
	c-0.066,0.191-0.104,0.711-0.117,1.549c0,0.611-0.133,1.109-0.396,1.495l-19.832,28.696c-0.818,1.184-1.488,1.972-2.008,2.367
	c-0.488,0.089-1.199,0.349-2.139,0.788c0.27,0.278,0.605,0.559,1.014,0.842C503.642,197.363,505.31,198.303,508.31,199.952z
	 M591.546,389.088c-0.945-0.222-1.723-0.498-2.332-0.835l-23.064-12.69c-0.445-0.243-1.064-0.643-1.867-1.201
	c-0.799-0.558-1.426-0.96-1.863-1.2c-0.445-0.244-1.129-0.593-2.049-1.052c-0.924-0.456-1.607-0.81-2.047-1.053
	c-0.305-0.167-0.578-0.317-0.816-0.448c-0.4-0.883-0.684-1.54-0.852-1.96c-1.943,2.815-3.018,4.401-3.213,4.759
	c-0.24,0.434-0.416,0.835-0.529,1.204c1.033-0.025,1.789-0.113,2.262-0.25c0.643,0.122,1.594,0.53,2.85,1.221l30.568,16.813
	c0.408,0.227,0.748,0.615,1.023,1.162c0.389,0.748,0.652,1.192,0.793,1.334c0.668-0.562,1.096-1.023,1.295-1.38
	c0.365-0.665,0.996-2.176,1.896-4.54C593.372,389.309,592.687,389.352,591.546,389.088z M606.673,312.24
	c-0.932,0.261-1.748-0.323-2.447-0.323h-26.322c-0.504,0-1.246,0.644-2.211,0.542c-0.973-0.107-1.711,0.198-2.219,0.198
	c-0.502,0-1.27-0.417-2.297-0.372c-1.031,0.042-1.799-0.368-2.301-0.368h-0.934c-0.773,0-1.338-0.409-1.689-0.704
	c-0.348,3.41-0.523,5.622-0.523,6.03c0,0.492,0.039,1.25,0.115,1.633c0.896-0.525,1.516-0.641,1.865-0.992
	c0.619-0.207,1.648,0.033,3.09,0.033h34.885c0.465,0,0.949-0.16,1.453,0.182c0.699,0.469,1.146,0.562,1.34,0.621
	c0.309-0.815,0.467-1.513,0.467-1.919c0-0.762-0.174-2.433-0.527-4.936C608.38,312.271,607.798,311.92,606.673,312.24z
	 M589.501,396.186c-0.113,0.04-0.447,0.204-1.008,0.496c-0.4,0.243-0.746,0.354-1.039,0.322c-0.701-0.016-1.699-0.251-3.002-0.705
	c-1.986-0.657-3.021-0.99-3.104-1.008c-8.281-2.261-14.484-3.963-18.6-5.096c-1.814-0.402-3.195-0.681-4.129-0.83
	c-1.898-0.577-3.805-1.141-5.717-1.693c-2.242-0.675-4.166-1.164-5.768-1.481c-0.676,0.59-1.148,1.127-1.414,1.612
	c-0.324,0.585-0.512,1.251-0.561,1.984c2.072,1.873,4.133,3.757,6.193,5.654c2.492,2.234,4.625,4.075,6.404,5.515
	c0.957,0.762,1.711,1.428,2.262,1.994c0.549,0.569,0.928,0.994,1.127,1.271c1.652,1.507,2.926,2.62,3.813,3.343
	c3.43,2.945,5.986,5.187,7.672,6.716c1.689,1.523,2.76,2.515,3.221,2.966c0.459,0.452,0.875,1.109,1.238,1.978
	c0.303-0.065,0.486-0.08,0.555-0.044c0.119-0.133,0.227-0.291,0.326-0.47c0.533-0.969,0.898-1.915,1.094-2.839
	c-0.945,0.275-1.695,0.267-2.238-0.037c-0.172-0.09-1.768-1.536-4.797-4.33c-3.377-3.124-5.188-4.781-5.436-4.984
	c-0.857-0.771-2.809-2.545-5.85-5.314c-2.375-2.204-4.348-3.937-5.912-5.194c-2.652-2.192-3.949-3.539-3.895-4.039
	c1.303,0.05,2.477,0.215,3.521,0.489c1.689,0.465,6.35,1.782,13.975,3.955c5.68,1.591,10.326,2.854,13.941,3.777
	c0.117,0.028,0.697,0.137,1.75,0.317c0.855,0.139,1.352,0.244,1.488,0.32c0.068,0.034,0.475,0.426,1.217,1.17
	c0.471-0.209,0.76-0.416,0.873-0.62c0.182-0.331,0.408-0.855,0.668-1.575c0.264-0.72,0.492-1.26,0.691-1.614
	c0.098-0.181,0.295-0.42,0.596-0.723c0.293-0.3,0.502-0.552,0.613-0.757l-0.008-0.104L589.501,396.186z M402.611,500.293
	c2.449,0.633,4.047,0.99,4.801,1.077c0.405,0.045,1.03-0.037,1.874-0.258c-0.033-0.196-0.243-0.669-0.629-1.418
	c-0.288-0.541-0.408-1.042-0.357-1.507l3.965-34.661c0.163-1.425,0.381-2.438,0.652-3.031c0.385-0.306,0.895-0.872,1.512-1.7
	c-0.366-0.122-0.795-0.21-1.288-0.266c-0.405-0.045-2.319-0.088-5.74-0.131c0.245,0.38,0.617,0.991,1.106,1.829
	c-0.031,0.269-0.067,0.58-0.106,0.924c-0.056,0.499-0.163,1.262-0.326,2.28c-0.157,1.017-0.269,1.774-0.326,2.278
	c-0.057,0.498-0.092,1.241-0.099,2.215c-0.009,0.977-0.042,1.715-0.1,2.218l-2.988,26.155c-0.077,0.691-0.302,1.485-0.667,2.385
	C403.45,499.767,403.019,500.301,402.611,500.293z M606.673,321.177c-0.932,0.261-1.748-0.26-2.447-0.26h-26.322
	c-0.504,0-1.246,0.576-2.211,0.476c-0.973-0.106-1.711,0.159-2.219,0.159c-0.502,0-1.27-0.36-2.297-0.317
	c-1.031,0.044-1.799-0.317-2.301-0.317h-0.934c-0.773,0-1.338-0.479-1.689-0.771c-0.348,3.409-0.523,5.583-0.523,5.995
	c0,0.492,0.039,1.266,0.115,1.646c0.896-0.527,1.516-0.623,1.865-0.969c0.619-0.203,1.648,0.098,3.09,0.098h34.885
	c0.465,0,0.949-0.227,1.453,0.119c0.699,0.465,1.146,0.522,1.34,0.579c0.309-0.815,0.467-1.526,0.467-1.932
	c0-0.759-0.174-2.442-0.527-4.946C608.38,321.146,607.798,320.854,606.673,321.177z M278.858,316.128
	c-0.892,0.525-1.512,1.107-1.862,1.455c-0.622,0.205-1.649,0.334-3.085,0.334h-34.889c-0.464,0-0.948-0.203-1.453-0.549
	c-0.699-0.467-1.146-0.743-1.34-0.8c-0.312,0.813-0.467,1.414-0.467,1.824c0,0.76,0.173,2.383,0.527,4.891
	c0.037-0.411,0.617-1.218,1.744-1.535c0.932-0.261,1.748-0.831,2.448-0.831h20.393l16.104,0.051c0.665,0.242,1.158,1.52,1.476,1.78
	c0.346-3.403,0.521-5.048,0.521-5.456C278.974,316.8,278.934,316.505,278.858,316.128z"/>
</svg>
