<?xml version="1.0" encoding="utf-8"?>
<!-- Generator: Adobe Illustrator 16.0.0, SVG Export Plug-In . SVG Version: 6.00 Build 0)  -->
<!DOCTYPE svg PUBLIC "-//W3C//DTD SVG 1.1//EN" "http://www.w3.org/Graphics/SVG/1.1/DTD/svg11.dtd">
<svg version="1.1" id="Layer_1" xmlns="http://www.w3.org/2000/svg" xmlns:xlink="http://www.w3.org/1999/xlink" x="0px" y="0px"
	 width="595.28px" height="841.89px" viewBox="0 0 595.28 841.89" enable-background="new 0 0 595.28 841.89" xml:space="preserve">
<path fill="#010101" d="M455.635,308.579c-3.305-0.102-5.974,0.943-8.007,3.134c-1.981,2.146-3.017,4.583-3.099,7.313
	c-0.103,3.306,0.918,5.974,3.062,8.005c2.192,1.984,4.655,3.019,7.386,3.102c1.437,0.044,2.785-0.177,4.047-0.667l-3.752,5.137
	l-0.432-0.014c-4.167-0.128-7.713-1.745-10.64-4.857c-2.875-3.157-4.251-6.77-4.128-10.842c0.127-4.167,1.674-7.692,4.639-10.574
	c3.013-2.879,6.699-4.253,11.059-4.121c2.73,0.083,5.225,0.83,7.482,2.243c2.309,1.364,4.096,3.242,5.365,5.63
	c1.318,2.389,1.934,4.972,1.851,7.752c-0.097,3.114-1.046,5.938-2.849,8.472l-19.276,25.949l21.483,0.657l-0.137,4.452
	l-29.963-0.915l24.379-32.841c1.252-1.783,1.912-3.753,1.979-5.909c0.092-3.016-0.859-5.587-2.857-7.71
	C461.232,309.803,458.701,308.671,455.635,308.579 M374.967,570.771l2.238-18.643l17.396-0.193l0.049,4.385l-13.514,0.148
	l-1.055,8.784l0.721-0.011c2.826-0.029,5.514,0.491,8.068,1.566c2.552,1.027,4.7,2.417,6.445,4.17
	c1.742,1.755,3.182,3.919,4.313,6.494c1.179,2.574,1.782,5.205,1.812,7.889c0.041,3.642-0.832,7.053-2.615,10.237
	c-1.741,3.134-4.18,5.653-7.322,7.558c-3.143,1.856-6.559,2.805-10.25,2.846c-3.066,0.034-5.852-0.559-8.358-1.777l1.97-3.901
	c1.975,0.839,4.088,1.247,6.341,1.222c4.646-0.052,8.438-1.699,11.375-4.942c2.982-3.246,4.451-6.976,4.405-11.192
	c-0.051-4.457-1.697-8.203-4.941-11.233c-3.199-3.077-6.929-4.595-11.194-4.546C378.887,569.652,376.925,570.033,374.967,570.771
	 M134.774,501.381c-2.193-2.17-3.25-4.812-3.166-7.924c0.078-2.969,1.2-5.481,3.363-7.533c2.164-2.053,4.732-3.037,7.702-2.959
	c2.013,0.056,3.796,0.605,5.349,1.652c1.557,0.954,2.815,2.256,3.78,3.914c0.961,1.654,1.416,3.488,1.362,5.502
	c-0.083,3.113-1.302,5.693-3.658,7.741c3.507,1.53,6.27,3.929,8.292,7.196c2.071,3.266,3.054,6.842,2.95,10.722
	c-0.137,5.173-2.126,9.603-5.962,13.288c-3.839,3.684-8.369,5.457-13.59,5.316c-5.175-0.138-9.604-2.125-13.289-5.963
	c-3.685-3.837-5.457-8.392-5.316-13.662c0.039-1.436,0.168-2.703,0.389-3.799c0.221-1.098,0.738-2.522,1.552-4.273
	c0.864-1.8,2.18-3.539,3.951-5.217C130.253,503.705,132.353,502.371,134.774,501.381 M142.555,487.42
	c-1.773-0.045-3.298,0.561-4.579,1.818c-1.28,1.263-1.943,2.707-1.985,4.336c-0.048,1.771,0.558,3.322,1.818,4.649
	c1.308,1.235,2.777,1.872,4.405,1.916c1.727,0.047,3.229-0.56,4.509-1.821c1.28-1.259,1.943-2.729,1.987-4.404
	c0.046-1.725-0.515-3.227-1.679-4.504s-2.655-1.94-4.477-1.988 M142.099,504.524c-4.455-0.12-8.065,1.343-10.833,4.385
	c-2.716,2.995-4.123,6.288-4.221,9.882c-0.116,4.408,1.323,7.994,4.317,10.759c2.994,2.766,6.312,4.196,9.953,4.294
	c4.455,0.119,8.042-1.32,10.758-4.315c2.764-2.995,4.196-6.311,4.292-9.954c0.11-4.119-1.211-7.632-3.961-10.531
	C149.653,506.141,146.219,504.633,142.099,504.524 M211.679,247.438l-0.74,53.981l-4.46-0.061l0.664-48.23l-4.766,1.515l0.059-4.24
	L211.679,247.438 M224.033,247.608l-0.742,53.983l-4.457-0.063l0.663-48.232l-4.766,1.517l0.058-4.241L224.033,247.608
	 M398.396,241.469l-1.119,53.975l-4.455-0.092l1-48.225l-4.777,1.483l0.088-4.24L398.396,241.469 M458.096,495.939l-11.885,19.613
	l11.5,0.226L458.096,495.939 M461.82,533.689l-4.456-0.088l0.261-13.439l-19.117-0.373l24.368-40.291l-0.708,36.366l6.324,0.123
	l-0.084,4.385l-6.325-0.124L461.82,533.689 M216.97,551.854l-16.366,0.877l-0.234-4.379l22.467-1.203l-14.562,54.772l-4.307-1.138
	L216.97,551.854 M126.621,310.171l-0.46,53.984l-4.456-0.038l0.41-48.234l-4.758,1.542l0.037-4.241L126.621,310.171
	 M157.967,309.076c3.833,0.034,7.469,0.807,10.906,2.321c3.44,1.467,6.417,3.457,8.937,5.971c2.52,2.514,4.505,5.573,5.959,9.18
	c1.456,3.559,2.167,7.23,2.135,11.018c-0.034,3.786-0.807,7.397-2.32,10.835c-1.468,3.438-3.506,6.44-6.116,9.005
	c-2.562,2.518-5.574,4.506-9.038,5.962c-3.462,1.456-7.112,2.168-10.944,2.136c-3.737-0.033-7.325-0.782-10.763-2.249
	c-3.392-1.467-6.392-3.53-9.007-6.186c-2.565-2.659-4.576-5.695-6.032-9.109c-1.456-3.463-2.167-7.087-2.135-10.875
	c0.031-3.737,0.78-7.349,2.249-10.834c1.468-3.533,3.505-6.561,6.115-9.078c2.66-2.565,5.743-4.553,9.253-5.959
	C150.676,309.756,154.276,309.045,157.967,309.076 M157.929,313.533c-6.759-0.057-12.432,2.243-17.025,6.9
	c-4.543,4.66-6.843,10.223-6.899,16.69c-0.059,6.807,2.243,12.504,6.899,17.097c4.66,4.544,10.198,6.843,16.62,6.898
	c6.757,0.058,11.852-1.672,15.284-5.188c3.433-3.566,5.739-6.806,6.913-9.72c1.176-2.961,1.774-5.856,1.8-8.683
	c0.056-6.757-2.268-12.432-6.971-17.026C169.89,315.911,164.351,313.587,157.929,313.533 M465.201,446.219
	c2.684,1.535,5.487,2.303,8.412,2.303c2.923,0,5.633-0.719,8.122-2.158c2.54-1.438,4.553-3.426,6.04-5.967
	c1.484-2.587,2.228-5.343,2.228-8.266c0-2.971-0.743-5.702-2.228-8.195c-1.438-2.492-3.429-4.48-5.967-5.967
	c-2.541-1.485-5.272-2.227-8.195-2.227h-4.1l9.992-13.157h-11.214v-4.457h19.912l-10.278,13.66c3.115,0.67,5.918,1.988,8.412,3.954
	c2.538,1.915,4.527,4.311,5.965,7.189c1.438,2.872,2.157,5.94,2.157,9.2c0,3.689-0.934,7.164-2.804,10.424
	c-1.869,3.21-4.41,5.749-7.619,7.619c-3.164,1.869-6.639,2.804-10.424,2.804c-3.787,0-7.284-0.957-10.496-2.876L465.201,446.219
	 M296.131,584.523c0.767-0.19,1.628-0.357,2.587-0.502c0.958-0.145,1.87-0.216,2.732-0.216c3.644,0,7.044,0.935,10.207,2.803
	c3.163,1.869,5.681,4.386,7.55,7.549c1.868,3.116,2.805,6.519,2.805,10.208c-0.004,3.594-0.937,6.973-2.805,10.137
	c-1.821,3.112-4.314,5.629-7.477,7.547c-3.162,1.916-6.59,2.873-10.28,2.873c-3.835,0-7.285-0.908-10.351-2.73
	c-3.021-1.82-5.488-4.335-7.404-7.547c-1.869-3.213-2.806-6.639-2.806-10.279c0-4.41,1.296-8.459,3.882-12.15l17.254-22.859
	l3.594,2.59L296.131,584.523 M301.45,588.262c-3.068,0-5.822,0.741-8.267,2.23c-2.444,1.436-4.361,3.424-5.75,5.966
	c-1.391,2.491-2.086,5.127-2.086,7.907c0,3.068,0.719,5.822,2.157,8.267c1.487,2.396,3.474,4.313,5.967,5.751
	c2.493,1.39,5.151,2.084,7.979,2.084c3.066,0,5.798-0.719,8.196-2.157c2.395-1.437,4.312-3.401,5.75-5.894
	c1.437-2.492,2.156-5.176,2.156-8.051c0-3.114-0.744-5.848-2.228-8.194c-1.487-2.396-3.476-4.315-5.968-5.753
	C306.866,588.98,304.23,588.262,301.45,588.262 M126.724,438.34c-1.627,0.382-3.064,0.572-4.311,0.572
	c-3.835,0-7.285-0.908-10.353-2.731c-3.068-1.868-5.535-4.385-7.404-7.547c-1.869-3.163-2.805-6.589-2.805-10.279
	c0-3.691,0.911-7.094,2.732-10.208c1.87-3.163,4.362-5.68,7.477-7.549c3.164-1.87,6.615-2.803,10.353-2.803
	c3.641,0,7.044,0.933,10.207,2.803c3.164,1.869,5.679,4.386,7.547,7.549c1.871,3.114,2.806,6.517,2.806,10.208
	c0,4.265-1.294,8.315-3.882,12.149l-19.771,23.436l-3.521-2.662L126.724,438.34 M122.413,434.455c3.068,0,5.799-0.717,8.193-2.154
	c2.397-1.438,4.314-3.404,5.753-5.895c1.438-2.492,2.157-5.178,2.157-8.052c0-3.114-0.744-5.846-2.229-8.196
	c-1.485-2.395-3.474-4.314-5.967-5.75c-2.491-1.437-5.126-2.156-7.907-2.156c-1.63,0-3.093,0.167-4.386,0.502
	c-1.246,0.335-2.803,1.077-4.672,2.229c-1.821,1.15-3.45,2.995-4.888,5.536c-1.439,2.491-2.158,5.103-2.158,7.834
	c0,3.068,0.719,5.822,2.158,8.267c1.486,2.396,3.475,4.313,5.965,5.75C116.925,433.762,119.585,434.455,122.413,434.455
	 M288.609,216.492v53.987h-4.457v-48.237l-4.745,1.583v-4.242L288.609,216.492 M307.004,220.165c-3.307,0-5.941,1.126-7.908,3.377
	c-1.917,2.205-2.874,4.672-2.874,7.406c0,3.307,1.103,5.942,3.306,7.907c2.252,1.916,4.744,2.875,7.477,2.875
	c1.437,0,2.779-0.262,4.024-0.792l-3.593,5.248h-0.432c-4.17,0-7.764-1.508-10.782-4.527c-2.972-3.068-4.457-6.637-4.457-10.711
	c0-4.17,1.438-7.738,4.313-10.711c2.923-2.97,6.565-4.456,10.927-4.456c2.73,0,5.246,0.67,7.548,2.013
	c2.349,1.293,4.194,3.114,5.536,5.463c1.389,2.348,2.083,4.913,2.083,7.691c0,3.115-0.862,5.966-2.587,8.556l-18.477,26.526h21.496
	v4.455h-29.977l23.363-33.571c1.197-1.82,1.797-3.81,1.797-5.966c0-3.02-1.031-5.559-3.092-7.62
	C312.635,221.218,310.07,220.165,307.004,220.165 M286.771,655.709c-0.042,0-0.081-0.002-0.122-0.004c-0.003,0-0.006,0-0.006,0
	c-0.053-0.004-0.105-0.006-0.158-0.013l-25.025-2.585c-0.035-0.004-0.069-0.008-0.102-0.012c-0.003,0-0.004,0-0.007,0
	c-0.004-0.002-0.007-0.002-0.008-0.002c-0.063-0.008-0.123-0.021-0.184-0.033l-24.592-5.265c-0.057-0.013-0.112-0.027-0.169-0.042
	c0,0-0.003,0-0.006-0.004c-0.003,0-0.006,0-0.008-0.001c-0.037-0.01-0.077-0.021-0.113-0.034l-23.874-7.885
	c-0.047-0.015-0.092-0.031-0.137-0.049c-0.003-0.004-0.007-0.003-0.007-0.004c-0.004,0-0.007-0.002-0.009-0.004
	c-0.003,0-0.005-0.002-0.007-0.004l0,0c-0.042-0.014-0.083-0.032-0.125-0.051l-22.89-10.409c-0.105-0.048-0.207-0.101-0.304-0.163
	l-21.853-12.97c-0.09-0.056-0.177-0.113-0.259-0.176l-20.051-15.141c-0.081-0.063-0.156-0.125-0.228-0.194l-18.333-17.18
	c-0.083-0.078-0.164-0.164-0.237-0.253l-16.378-18.985c-0.078-0.089-0.146-0.182-0.21-0.278l-14.414-20.919
	c-0.009-0.009-0.014-0.02-0.021-0.03c0,0-0.001-0.001-0.003-0.004l-0.001-0.003c-0.048-0.074-0.096-0.15-0.136-0.229l-11.877-22.143
	c-0.046-0.089-0.09-0.178-0.125-0.273l-9.428-23.274c-0.042-0.103-0.079-0.206-0.109-0.314l-6.876-24.19
	c-0.027-0.096-0.051-0.197-0.068-0.297l-4.224-24.805c-0.019-0.098-0.03-0.195-0.034-0.297l-1.537-25.117
	c-0.005-0.068-0.008-0.14-0.005-0.209l0,0c0-0.001,0-0.004,0-0.007c0-0.001,0-0.003,0-0.004v-0.002c0,0,0-0.004,0-0.006v-0.002
	c0-0.002,0-0.003,0-0.007l0,0c0-0.025,0.002-0.051,0.004-0.077l1.236-25.476c0.004-0.109,0.016-0.216,0.034-0.321l3.928-24.83
	c0.019-0.121,0.044-0.238,0.08-0.353l6.561-24.177c0.026-0.104,0.06-0.211,0.101-0.314l9.146-23.37
	c0.02-0.056,0.042-0.113,0.067-0.168c0.03-0.067,0.063-0.133,0.097-0.197l11.594-22.248c0.026-0.052,0.058-0.105,0.089-0.157v-0.001
	c0-0.001,0.001-0.004,0.002-0.005c0,0,0,0,0.002-0.003c0,0,0.002-0.001,0.002-0.003c0.002-0.003,0.002-0.004,0.003-0.004
	c0.001-0.004,0.001-0.004,0.001-0.006c0.001,0,0.003-0.001,0.003-0.003h0.001c0.019-0.032,0.037-0.06,0.059-0.088l14.192-21.13
	c0.056-0.083,0.118-0.166,0.184-0.243l16.179-19.211c0.023-0.03,0.045-0.057,0.072-0.083l0,0c0.002-0.002,0.003-0.004,0.004-0.006
	c0-0.003,0.003-0.003,0.004-0.006l0.003-0.002l0,0c0.04-0.042,0.08-0.084,0.122-0.122l18.082-17.353
	c0.042-0.045,0.089-0.088,0.136-0.129c0.06-0.051,0.121-0.1,0.181-0.146l19.828-15.348c0.094-0.071,0.189-0.136,0.292-0.195
	l21.664-13.208c0.071-0.045,0.147-0.088,0.225-0.127c0-0.001,0.004-0.003,0.007-0.004c0.022-0.011,0.044-0.02,0.066-0.032
	l22.763-10.678c0.09-0.043,0.184-0.079,0.28-0.113l23.734-8.152c0.106-0.038,0.214-0.071,0.325-0.096l24.546-5.559
	c0.001,0,0.001,0,0.001,0c0.003-0.002,0.004-0.002,0.008-0.003c0.004-0.001,0.008,0.001,0.011-0.002c0.002,0,0.007,0,0.007-0.003
	c0.003,0,0.007,0,0.01-0.003h0.001c0.088-0.015,0.173-0.029,0.259-0.039l25-2.882c0.099-0.012,0.2-0.018,0.301-0.018l25.492-0.153
	c0.065-0.002,0.138,0.003,0.207,0.008c0.004,0.001,0.006,0.001,0.008,0.001s0.005-0.001,0.01,0c0.024,0,0.052,0.003,0.078,0.007
	l24.98,2.579c0.079,0.007,0.158,0.019,0.24,0.033c0.054,0.008,0.106,0.02,0.159,0.031l24.544,5.254
	c0.064,0.014,0.131,0.031,0.194,0.05c0.003,0.002,0.007,0.001,0.007,0.001c0.005,0.001,0.006,0.001,0.006,0.001
	c0.031,0.008,0.061,0.02,0.091,0.028l23.87,7.884c0.094,0.031,0.189,0.068,0.283,0.109l22.896,10.413
	c0.104,0.048,0.205,0.1,0.303,0.161l21.854,12.97c0.091,0.055,0.179,0.113,0.262,0.177l20.047,15.142
	c0.096,0.069,0.181,0.144,0.266,0.226l18.277,17.129c0.041,0.037,0.078,0.074,0.115,0.113c0.049,0.05,0.1,0.105,0.143,0.159
	l16.369,18.976c0.066,0.075,0.129,0.156,0.188,0.241l14.439,20.958c0.032,0.045,0.063,0.092,0.092,0.14l0,0
	c0.002,0,0.004,0.004,0.005,0.007c0,0,0,0,0.001,0c0,0.003,0,0.004,0.002,0.006c0,0,0,0.001,0.002,0.001c0,0,0,0.004,0.002,0.007
	c0,0,0.003,0.001,0.003,0.004h0.001c0.002,0.003,0.003,0.004,0.003,0.008c0,0,0,0,0,0.001c0.021,0.031,0.038,0.061,0.054,0.097
	l11.885,22.156c0.047,0.089,0.09,0.18,0.127,0.272l9.424,23.266c0.041,0.101,0.077,0.206,0.109,0.313l6.878,24.205
	c0.026,0.096,0.048,0.195,0.063,0.292l4.227,24.805c0.021,0.118,0.031,0.24,0.037,0.358l1.533,25.059
	c0.006,0.106,0.006,0.211,0,0.315c0.008,0.104,0.008,0.21,0.003,0.314l-1.239,25.145c0,0.023-0.003,0.043-0.003,0.064
	c0,0,0,0,0,0.001c-0.001,0.002-0.001,0.007-0.001,0.007v0.002c0,0.003,0,0.004,0,0.008v0.002c0,0.002,0,0.003,0,0.004
	c0,0-0.002,0.004-0.002,0.005c0,0.003,0,0.004,0,0.004c0,0.003,0,0.005,0,0.005c-0.001,0.001-0.001,0.002-0.001,0.004
	s0,0.004,0,0.006c0,0,0,0.003,0,0.004c0,0,0,0.002,0,0.004v0.003c-0.002,0.002-0.002,0.007-0.002,0.007v0.003
	c0,0-0.001,0.003-0.001,0.007l0,0c0,0.004,0,0.005-0.002,0.008l0,0c0,0.004,0,0.007-0.001,0.007v0.001c0,0.005,0,0.006-0.001,0.009
	v0.001c0,0.002,0,0.005,0,0.008l0,0c-0.004,0.043-0.01,0.084-0.016,0.126l-3.93,24.844c-0.016,0.099-0.037,0.198-0.063,0.295
	l-6.588,24.272c-0.016,0.051-0.029,0.103-0.043,0.152l0,0c-0.002,0.002-0.003,0.005-0.005,0.007c0,0.001,0,0.003,0,0.003
	c-0.001,0.002-0.003,0.004-0.003,0.005c-0.002,0.002-0.002,0.005-0.002,0.007c-0.002,0.004-0.002,0.005-0.002,0.008l-0.002,0.002
	c-0.001,0-0.001,0.005-0.001,0.006v0.002c-0.013,0.034-0.027,0.068-0.04,0.104l-9.163,23.418c-0.042,0.107-0.087,0.211-0.143,0.309
	l-11.567,22.197c-0.053,0.109-0.115,0.216-0.184,0.318l-14.169,21.094c-0.043,0.064-0.088,0.128-0.135,0.189
	c-0.037,0.047-0.073,0.09-0.112,0.133l-16.141,19.168c-0.063,0.077-0.132,0.15-0.203,0.219l-18.126,17.395
	c-0.071,0.069-0.147,0.135-0.226,0.197l-19.875,15.381c-0.08,0.064-0.164,0.122-0.252,0.176l-21.674,13.215
	c-0.104,0.066-0.213,0.128-0.328,0.182l-22.77,10.68c-0.092,0.044-0.186,0.081-0.279,0.113l-23.771,8.164
	c-0.074,0.026-0.148,0.051-0.225,0.07c-0.01,0.003-0.012,0.003-0.018,0.004c-0.004,0-0.006-0.001-0.009,0.002
	c-0.005,0-0.007-0.002-0.007,0c-0.014,0.005-0.025,0.008-0.039,0.012l-24.54,5.557c-0.099,0.025-0.199,0.041-0.298,0.051
	l-24.996,2.884c-0.006,0-0.007,0-0.007,0c-0.003,0-0.007,0-0.01,0c-0.002,0-0.005,0-0.007,0l0,0
	c-0.093,0.011-0.187,0.015-0.281,0.015l-25.494,0.154C286.786,655.709,286.778,655.709,286.771,655.709z M290.201,642.515
	l-0.548,7.802l19.715-0.117l-0.64-7.795L290.201,642.515z M264.866,648.057l19.418,2.005l0.548-7.812l-18.636-1.906L264.866,648.057
	z M314.093,642.077l0.642,7.805l19.393-2.236l-1.42-7.697L314.093,642.077z M240.471,643.135l19.085,4.086l1.33-7.719l-18.32-3.912
	L240.471,643.135z M338.004,639.047l1.422,7.701l19.035-4.314l-2.184-7.517L338.004,639.047z M216.756,635.61l18.529,6.12
	l2.093-7.548l-17.792-5.874L216.756,635.61z M361.448,633.448l2.183,7.521l18.455-6.34l-2.915-7.268L361.448,633.448z
	 M264.401,634.758l23.422,2.395l23.22-0.137l23.398-2.676l22.977-5.19l22.283-7.653l21.335-10.02l19.864-12.102l18.66-14.422
	l17.018-16.328l15.191-18.053l12.973-19.303l10.913-20.904l8.591-21.941l6.165-22.746l3.659-23.268l1.125-23.349l-1.402-23.346
	l-3.938-23.229l-6.431-22.651l-8.851-21.844l-11.156-20.765l-13.203-19.153l-15.4-17.868L437.6,254.079l-18.832-14.202
	l-20.006-11.865l-21.45-9.766l-22.365-7.386l-23.035-4.917l-23.438-2.399l-23.218,0.136l-23.403,2.675l-22.973,5.193l-22.285,7.652
	l-21.334,10.02l-19.863,12.102l-18.661,14.422l-17.022,16.333l-15.188,18.047l-12.977,19.309l-10.91,20.898l-8.589,21.941
	l-6.164,22.737l-3.661,23.267l-1.135,23.192l1.412,23.512l3.937,23.222l6.43,22.658l8.853,21.843l11.156,20.766l13.207,19.158
	l15.397,17.863l17.22,16.133l18.825,14.195l20.006,11.865l21.444,9.763l22.38,7.39L264.401,634.758z M193.993,625.574l17.759,8.078
	l2.828-7.301l-17.06-7.768L193.993,625.574z M384.15,625.346l2.914,7.266l17.664-8.285l-3.611-6.948L384.15,625.346z
	 M172.302,613.035l16.928,10.049l3.526-6.983l-15.959-9.466L172.302,613.035z M405.854,614.836l3.607,6.942l16.809-10.249
	l-4.57-6.348L405.854,614.836z M152.272,598.292l15.562,11.753l4.502-6.409l-14.973-11.29L152.272,598.292z M426.123,602.131
	l4.577,6.355l15.422-11.938l-5.161-5.887L426.123,602.131z M133.931,581.497l14.228,13.335l5.093-5.951l-13.685-12.819
	L133.931,581.497z M445.031,587.15l5.162,5.891l14.069-13.502l-5.698-5.371L445.031,587.15z M117.474,562.855l12.736,14.764
	l5.635-5.436l-12.242-14.205L117.474,562.855z M462.239,570.246l5.697,5.371l12.562-14.918l-6.186-4.801L462.239,570.246z
	 M103.023,542.388l11.167,16.208l6.124-4.871l-10.534-15.275L103.023,542.388z M477.55,551.607l6.183,4.795l10.973-16.338
	l-6.804-3.859L477.55,551.607z M90.997,520.61l9.219,17.192l6.767-3.945l-8.871-16.515L90.997,520.61z M490.643,531.58l6.811,3.865
	l9.018-17.298l-7.152-3.185L490.643,531.58z M81.39,497.662l7.324,18.084l7.116-3.27l-7.04-17.365L81.39,497.662z M501.543,510.07
	l7.154,3.184l7.107-18.168l-7.43-2.465L501.543,510.07z M74.311,473.808l5.335,18.771l7.4-2.553l-5.116-18.022L74.311,473.808z
	 M510.061,487.516l7.432,2.467l5.108-18.832l-7.64-1.716L510.061,487.516z M69.848,449.324l3.277,19.242l7.618-1.806l-3.131-18.47
	L69.848,449.324z M516.088,464.178l7.636,1.717l3.05-19.28l-7.774-0.942L516.088,464.178z M68.045,424.496l1.192,19.488l7.758-1.034
	l-1.124-18.698L68.045,424.496z M519.552,440.326l7.771,0.94l0.959-19.5l-3.758-0.073l-4.081,0.127L519.552,440.326z
	 M68.974,399.431l-0.955,19.688l7.815-0.244l0.906-18.506L68.974,399.431z M520.41,416.239l4.082,0.08l3.757-0.118l-1.191-19.487
	l-7.759,1.031L520.41,416.239z M69.521,394.082l7.773,0.942l2.914-18.506l-7.638-1.715L69.521,394.082z M515.551,373.936
	l3.131,18.468l7.764-1.031l-3.276-19.242L515.551,373.936z M73.692,369.545l7.641,1.719l4.901-18.084l-7.431-2.467L73.692,369.545z
	 M509.248,350.671l5.117,18.022l7.619-1.806l-5.334-18.771L509.248,350.671z M80.488,345.609l7.432,2.466l6.831-17.45l-7.153-3.184
	L80.488,345.609z M500.466,328.219l7.036,17.366l7.404-2.552l-7.324-18.083L500.466,328.219z M89.824,322.549l7.151,3.184
	l8.675-16.618l-6.811-3.863L89.824,322.549z M489.311,306.838l8.871,16.515l7.115-3.268l-9.219-17.192L489.311,306.838z
	 M101.59,300.631l6.803,3.861l10.351-15.403l-6.18-4.796L101.59,300.631z M475.98,286.97l10.533,15.278l6.758-3.94l-11.168-16.208
	L475.98,286.97z M115.796,279.995l6.185,4.804l12.073-14.35l-5.698-5.371L115.796,279.995z M460.449,268.513l12.243,14.205
	l6.129-4.875l-12.735-14.765L460.449,268.513z M132.031,261.156l5.7,5.372l13.531-12.982l-5.163-5.889L132.031,261.156z
	 M443.043,251.814l13.684,12.821l5.637-5.438l-14.229-13.333L443.043,251.814z M150.173,244.148l5.161,5.886l14.836-11.467
	l-4.575-6.357L150.173,244.148z M423.96,237.062l14.971,11.291l5.091-5.947l-15.561-11.754L423.96,237.062z M170.025,229.167
	l4.572,6.347l15.845-9.653l-3.609-6.943L170.025,229.167z M403.539,224.595l15.959,9.465l4.494-6.4l-16.928-10.049L403.539,224.595z
	 M191.566,216.37l3.612,6.949l16.967-7.966l-2.915-7.268L191.566,216.37z M381.713,214.345l17.059,7.766l3.529-6.991l-17.76-8.074
	L381.713,214.345z M214.211,206.067l2.913,7.268l17.723-6.086l-2.183-7.519L214.211,206.067z M358.917,206.512l17.791,5.875
	l2.829-7.302l-18.526-6.119L358.917,206.512z M237.834,198.261l2.184,7.519l18.273-4.13l-1.425-7.7L237.834,198.261z
	 M335.408,201.192l18.32,3.913l2.096-7.544l-19.084-4.086L335.408,201.192z M262.168,193.052l1.422,7.696l18.61-2.128l-0.639-7.803
	L262.168,193.052z M311.465,198.446l18.633,1.908l1.332-7.714l-19.418-2.005L311.465,198.446z M286.928,190.497l0.639,7.794
	l18.529-0.109l0.545-7.802L286.928,190.497z M307.561,415.909c0,6.553-5.313,11.864-11.864,11.864
	c-6.555,0-11.866-5.312-11.866-11.864c0-6.553,5.311-11.866,11.866-11.866C302.248,404.043,307.561,409.356,307.561,415.909z"/>
</svg>
