<?xml version="1.0" encoding="utf-8"?>
<!-- Generator: Adobe Illustrator 16.0.0, SVG Export Plug-In . SVG Version: 6.00 Build 0)  -->
<!DOCTYPE svg PUBLIC "-//W3C//DTD SVG 1.1//EN" "http://www.w3.org/Graphics/SVG/1.1/DTD/svg11.dtd">
<svg version="1.1" id="Layer_1" xmlns="http://www.w3.org/2000/svg" xmlns:xlink="http://www.w3.org/1999/xlink" x="0px" y="0px"
	 width="595.28px" height="841.89px" viewBox="0 0 595.28 841.89" enable-background="new 0 0 595.28 841.89" xml:space="preserve">
<path fill="#010101" d="M505.948,332.059c-11.39-26.92-27.686-51.098-48.447-71.858c-20.765-20.761-44.942-37.061-71.866-48.447
	c-27.872-11.789-57.479-17.767-88.001-17.767c-30.52,0-60.127,5.978-88.001,17.767c-26.921,11.387-51.1,27.686-71.861,48.447
	c-20.765,20.76-37.063,44.938-48.451,71.858c-11.791,27.869-17.769,57.476-17.769,87.994c0,30.52,5.978,60.125,17.769,87.995
	c11.388,26.92,27.686,51.097,48.451,71.86c20.762,20.759,44.94,37.061,71.861,48.445c27.874,11.789,57.481,17.767,88.001,17.767
	c30.522,0,60.129-5.978,88.001-17.767c26.924-11.385,51.102-27.687,71.866-48.445c20.762-20.764,37.058-44.94,48.447-71.86
	c11.79-27.87,17.767-57.476,17.767-87.995C523.715,389.534,517.738,359.928,505.948,332.059z M473.648,549.66l3.538,2.574
	c-4.331,5.865-8.942,11.512-13.813,16.918l-3.213-2.896C464.939,560.929,469.437,555.393,473.648,549.66z M474.523,548.458
	c4.036-5.576,7.802-11.337,11.291-17.269l3.855,2.221c-3.596,6.066-7.471,11.945-11.605,17.626L474.523,548.458z M487.301,528.633
	c3.398-5.969,6.523-12.103,9.364-18.404l4.136,1.846c-2.924,6.428-6.144,12.696-9.643,18.783L487.301,528.633z M297.376,635.979
	c-118.803,0-215.456-96.646-215.456-215.443c0-118.795,96.653-215.441,215.456-215.441c118.805,0,215.457,96.646,215.457,215.441
	C512.833,539.332,416.181,635.979,297.376,635.979z M405.359,610.516l2.089,3.617c-6.102,3.463-12.378,6.648-18.812,9.535
	l-1.686-3.802C393.252,617.029,399.39,613.909,405.359,610.516z M407.918,609.03c5.926-3.479,11.681-7.233,17.255-11.261
	l2.479,3.406c-5.689,4.092-11.575,7.926-17.646,11.481L407.918,609.03z M426.397,596.877c5.718-4.193,11.244-8.676,16.563-13.438
	l2.858,3.173c-5.419,4.826-11.071,9.391-16.941,13.68L426.397,596.877z M251.371,634.172l-0.824,3.911
	c-7.15-1.54-14.171-3.428-21.048-5.641l1.22-3.78C237.516,630.842,244.404,632.682,251.371,634.172z M252.784,634.467
	c6.965,1.446,14.01,2.548,21.119,3.303l-0.414,4.014c-7.285-0.787-14.468-1.926-21.529-3.401L252.784,634.467z M275.388,637.928
	c6.81,0.676,13.682,1.033,20.602,1.076v4.074c-7.088-0.055-14.099-0.434-21.018-1.135L275.388,637.928z M298.956,639.004
	c6.921-0.05,13.791-0.412,20.6-1.096l0.42,4.066c-6.918,0.691-13.93,1.063-21.02,1.104V639.004z M321.043,637.75
	c7.096-0.76,14.123-1.865,21.079-3.313l0.842,4.018c-7.054,1.462-14.228,2.588-21.502,3.363L321.043,637.75z M343.609,634.127
	c6.947-1.5,13.82-3.339,20.6-5.52l1.271,3.93c-6.873,2.196-13.888,4.072-21.029,5.603L343.609,634.127z M168.484,596.97
	l-2.301,3.167c-5.861-4.289-11.504-8.859-16.914-13.686l2.631-2.918C157.226,588.297,162.756,592.777,168.484,596.97z
	 M169.71,597.863c5.577,4.023,11.338,7.775,17.27,11.25l-1.959,3.4c-6.056-3.555-11.927-7.388-17.601-11.482L169.71,597.863z
	 M189.541,610.598c5.974,3.393,12.119,6.51,18.425,9.338l-1.603,3.613c-6.427-2.895-12.694-6.084-18.782-9.555L189.541,610.598z
	 M107.492,528.705l-3.464,2.008c-3.491-6.084-6.703-12.344-9.621-18.768l3.714-1.649C100.96,516.6,104.09,522.735,107.492,528.705z
	 M108.99,531.271c3.497,5.942,7.272,11.711,11.32,17.298l-3.213,2.321c-4.126-5.678-7.992-11.557-11.581-17.617L108.99,531.271z
	 M121.174,549.752c4.205,5.721,8.696,11.245,13.47,16.562l-2.93,2.642c-4.845-5.394-9.432-11.024-13.743-16.875L121.174,549.752z
	 M83.72,374.551l-4.273-0.914c1.524-7.17,3.394-14.215,5.59-21.115l4.198,1.361C87.054,360.688,85.216,367.581,83.72,374.551z
	 M83.419,376.006c-1.446,6.979-2.548,14.04-3.301,21.166l-4.317-0.446c0.764-7.322,1.881-14.541,3.34-21.636L83.419,376.006z
	 M79.964,398.62c-0.676,6.822-1.031,13.701-1.069,20.631h-4.304c0.025-7.108,0.385-14.138,1.062-21.076L79.964,398.62z
	 M78.897,422.218c0.051,6.929,0.42,13.808,1.108,20.626l-4.217,0.437c-0.719-6.934-1.119-13.958-1.188-21.063H78.897z
	 M80.163,444.328c0.766,7.109,1.881,14.154,3.333,21.117l-4.08,0.874c-1.498-7.069-2.658-14.26-3.467-21.556L80.163,444.328z
	 M83.802,466.892c1.508,6.979,3.36,13.88,5.558,20.688l-3.917,1.272c-2.239-6.888-4.151-13.921-5.719-21.083L83.802,466.892z
	 M120.964,291.608l-3.675-2.659c4.301-5.899,8.887-11.58,13.732-17.025l3.409,3.074
	C129.656,280.331,125.167,285.871,120.964,291.608z M120.094,292.801c-4.038,5.593-7.804,11.366-11.292,17.317l-3.882-2.26
	c3.563-6.097,7.406-12.007,11.513-17.719L120.094,292.801z M107.332,312.653c-3.399,5.984-6.522,12.139-9.357,18.454l-4.076-1.809
	c2.889-6.462,6.078-12.761,9.547-18.882L107.332,312.653z M189.395,230.557l-2.378-4.126c6.103-3.5,12.385-6.72,18.829-9.642
	l1.969,4.414C201.509,224.038,195.367,227.161,189.395,230.557z M186.788,232.07c-5.931,3.484-11.691,7.245-17.264,11.275
	l-2.752-3.804c5.68-4.129,11.558-7.996,17.623-11.583L186.788,232.07z M168.295,244.239c-5.745,4.216-11.293,8.721-16.634,13.511
	l-3.11-3.45c5.428-4.886,11.098-9.51,16.985-13.854L168.295,244.239z M343.669,206.959l1.062-4.934
	c7.184,1.55,14.245,3.449,21.156,5.674l-1.558,4.804C357.527,210.312,350.64,208.463,343.669,206.959z M342.244,206.661
	c-6.979-1.457-14.038-2.568-21.161-3.334l0.518-5.023c7.339,0.788,14.573,1.932,21.677,3.415L342.244,206.661z M319.599,203.169
	c-6.826-0.686-13.708-1.052-20.643-1.099v-5.042c7.137,0.041,14.196,0.417,21.162,1.116L319.599,203.169z M295.989,202.067
	c-6.932,0.044-13.816,0.402-20.642,1.083l-0.514-4.974c6.963-0.71,14.021-1.095,21.155-1.146V202.067z M273.862,203.306
	c-7.114,0.758-14.163,1.861-21.13,3.309l-1.017-4.837c7.092-1.493,14.311-2.643,21.633-3.439L273.862,203.306z M251.285,206.917
	c-6.978,1.499-13.875,3.345-20.685,5.53l-1.511-4.654c6.917-2.239,13.981-4.149,21.174-5.71L251.285,206.917z M426.585,244.334
	l2.937-4.041c5.895,4.333,11.564,8.95,16.995,13.829l-3.338,3.705C437.853,253.043,432.317,248.544,426.585,244.334z
	 M425.364,243.441c-5.587-4.048-11.359-7.819-17.305-11.314l2.51-4.349c6.101,3.597,12.019,7.478,17.731,11.623L425.364,243.441z
	 M405.505,230.637c-5.968-3.399-12.105-6.524-18.406-9.364l2.057-4.604c6.453,2.915,12.744,6.129,18.854,9.625L405.505,230.637z
	 M487.479,312.761l4.266-2.479c3.476,6.123,6.671,12.421,9.565,18.887l-4.5,2.008C493.98,324.873,490.867,318.732,487.479,312.761z
	 M486.002,310.202c-3.485-5.947-7.243-11.72-11.276-17.309l3.999-2.907c4.118,5.714,7.971,11.632,11.546,17.732L486.002,310.202z
	 M473.855,291.7c-4.206-5.749-8.701-11.3-13.482-16.644l3.696-3.331c4.869,5.458,9.478,11.154,13.8,17.072L473.855,291.7z
	 M514.79,398.637l4.821-0.497c0.68,6.95,1.042,13.99,1.064,21.111h-4.814C515.821,412.33,515.467,405.456,514.79,398.637z
	 M514.641,397.19c-0.754-7.118-1.856-14.171-3.297-21.144l4.77-1.022c1.462,7.108,2.583,14.334,3.351,21.668L514.641,397.19z
	 M511.037,374.591c-1.49-6.966-3.322-13.851-5.5-20.647l4.662-1.516c2.204,6.909,4.078,13.962,5.607,21.143L511.037,374.591z
	 M510.959,466.853l4.568,0.982c-1.57,7.172-3.487,14.215-5.732,21.113l-4.386-1.417
	C507.604,480.725,509.454,473.828,510.959,466.853z M511.264,465.408c1.453-6.96,2.563-13.996,3.331-21.097l4.719,0.488
	c-0.807,7.306-1.976,14.51-3.479,21.587L511.264,465.408z M514.751,442.824c0.686-6.813,1.054-13.686,1.107-20.606h4.81
	c-0.068,7.115-0.471,14.153-1.193,21.098L514.751,442.824z M509.749,351.02l-4.671,1.51c-1.887-5.746-4.012-11.428-6.382-17.033
	c-0.417-0.99-0.854-1.968-1.285-2.948l4.515-2.004C504.856,337.207,507.472,344.037,509.749,351.02z M463.086,270.63l-3.69,3.324
	c-2.437-2.688-4.94-5.325-7.523-7.905c-2.48-2.48-5.013-4.896-7.597-7.245l3.337-3.699
	C453.023,260.026,458.184,265.209,463.086,270.63z M387.773,216.056l-2.045,4.618c-1.099-0.487-2.198-0.977-3.306-1.444
	c-5.489-2.324-11.059-4.409-16.683-6.263l1.558-4.807C374.282,210.46,381.114,213.1,387.773,216.056z M227.652,208.268l1.502,4.651
	c-5.675,1.867-11.288,3.968-16.825,6.311c-1.054,0.446-2.096,0.912-3.14,1.373l-1.967-4.426
	C213.869,213.217,220.684,210.575,227.652,208.268z M147.463,255.286l3.101,3.439c-2.613,2.374-5.175,4.814-7.683,7.324
	c-2.549,2.549-5.029,5.152-7.438,7.811l-3.404-3.068C136.927,265.376,142.072,260.2,147.463,255.286z M93.291,330.663l4.086,1.813
	c-0.443,1.004-0.892,2.007-1.32,3.02c-2.365,5.588-4.485,11.256-6.366,16.984l-4.204-1.365
	C87.759,344.142,90.367,337.318,93.291,330.663z M85.907,490.254l3.917-1.271c1.847,5.596,3.923,11.131,6.234,16.596
	c0.48,1.135,0.98,2.258,1.478,3.381l-3.725,1.654C90.855,503.988,88.215,497.196,85.907,490.254z M132.717,570.066l2.924-2.635
	c2.347,2.58,4.76,5.111,7.24,7.59c2.578,2.58,5.214,5.084,7.9,7.52l-2.625,2.91C142.765,580.576,137.612,575.441,132.717,570.066z
	 M207.728,624.156l1.609-3.622c0.996,0.439,1.988,0.882,2.993,1.309c5.575,2.358,11.222,4.472,16.934,6.345l-1.239,3.775
	C221.104,629.685,214.332,627.076,207.728,624.156z M366.926,632.069l-1.274-3.935c5.657-1.86,11.251-3.957,16.771-6.292
	c1.06-0.449,2.106-0.916,3.158-1.38l1.691,3.814C380.652,627.191,373.862,629.797,366.926,632.069z M446.916,585.628l-2.853-3.167
	c2.654-2.408,5.26-4.889,7.809-7.439c2.505-2.502,4.939-5.059,7.311-7.664l3.204,2.888
	C457.481,575.619,452.316,580.754,446.916,585.628z M501.398,510.742l-4.15-1.854c0.487-1.102,0.979-2.199,1.448-3.311
	c2.317-5.482,4.401-11.031,6.251-16.645l4.382,1.417C507.013,497.305,504.364,504.108,501.398,510.742z M297.475,244.561
	c-97.227,0-176.189,78.952-176.189,176.175c0,97.219,78.96,176.173,176.189,176.173c97.232,0,176.191-78.954,176.191-176.173
	C473.666,323.513,394.707,244.561,297.475,244.561z M468.986,420.725c0,94.693-76.812,171.492-171.511,171.492
	c-94.701,0-171.508-76.799-171.508-171.492c0-94.694,76.807-171.494,171.508-171.494
	C392.184,249.231,468.986,326.031,468.986,420.725z M311.928,420.725c0,7.99-6.479,14.468-14.471,14.468
	c-7.99,0-14.469-6.479-14.469-14.468c0-7.99,6.479-14.47,14.469-14.47C305.449,406.255,311.928,412.735,311.928,420.725z
	 M311.001,237.438h-9.935v-0.983l3.189-0.5v-21.911l-3.189-0.482v-0.982h9.935v0.982l-3.187,0.482v21.911l3.187,0.5V237.438z
	 M323.683,237.438h-9.936v-0.983l3.186-0.5v-21.911l-3.186-0.482v-0.982h9.936v0.982l-3.189,0.482v21.911l3.189,0.5V237.438z
	 M281.212,237.438h-8.119v-0.983l2.745-0.5l8.452-11.234l-7.211-10.677l-2.8-0.482v-0.982h10.252v0.982l-3.151,0.482l5.154,7.674
	l5.765-7.674l-3.077-0.482v-0.982h8.136v0.982l-2.743,0.482l-6.986,9.306l8.546,12.604l2.816,0.5v0.983h-10.25v-0.983l3.151-0.5
	l-6.526-9.639l-7.229,9.639l0,0l3.076,0.5V237.438z M394.565,265.117l-8.604-4.969l0.492-0.849l3.009,1.16l10.956-18.975
	l-2.519-2.012l0.493-0.851l8.604,4.967l-0.493,0.851l-3.002-1.175l-10.959,18.974l2.515,2.027L394.565,265.117z M479.523,322.498
	l-1.182-3.001l0.853-0.492l4.969,8.605l-0.851,0.489l-2.014-2.52l-18.975,10.956l1.162,3.012l-0.851,0.491l-4.972-8.605l0.854-0.49
	l2.025,2.51L479.523,322.498z M456.294,329.058l-4.968-8.605l0.853-0.49l2.024,2.509l18.976-10.954l-1.173-3.001l0.85-0.491
	l4.966,8.604l-0.848,0.491l-2.014-2.521l-18.976,10.957l1.159,3.012L456.294,329.058z M504.819,417.185h0.986v9.935h-0.986
	l-0.479-3.188H482.43l-0.502,3.188h-0.982v-9.935h0.982l0.502,3.188h21.911L504.819,417.185z M504.819,429.863h0.986v9.935h-0.986
	l-0.479-3.189H482.43l-0.502,3.189h-0.982v-9.935h0.982l0.502,3.186h21.911L504.819,429.863z M505.806,404.505v9.936h-0.986
	l-0.479-3.19H482.43l-0.502,3.19h-0.982v-9.936h0.982l0.502,3.188h21.911l0.479-3.188H505.806z M485.777,509.49l0.85,0.491
	l-4.968,8.604l-0.851-0.49l1.179-3.003l-18.978-10.955l-2.028,2.512l-0.85-0.492l4.966-8.604l0.852,0.49l-1.16,3.012l18.977,10.955
	L485.777,509.49z M479.91,519.651l0.849,0.491l-5.02,8.699l-0.853-0.489l1.249-3.132l-19.607-2.631l12.09,15.649l2.048-2.583
	l0.853,0.49l-4.042,6.998l-0.847-0.488l0.942-2.603l-15.763-20.636l0.477-0.818l25.807,3.234L479.91,519.651z M411.595,594.488
	l0.492,0.852l-8.703,5.023l-0.487-0.852l2.646-2.086l-15.664-12.08l2.646,19.598l3.064-1.213l0.492,0.85l-6.999,4.041l-0.492-0.852
	l2.119-1.779l-3.331-25.752l0.821-0.474l20.731,15.705L411.595,594.488z M277.527,604.424h9.937v0.984l-3.189,0.499v21.912
	l3.189,0.48v0.983h-9.937V628.3l3.188-0.48v-21.912l-3.188-0.499V604.424z M313.044,627.819l2.798,0.48v0.983h-10.046V628.3
	l3.34-0.48l-7.529-18.298l-7.508,18.298l3.262,0.48v0.983h-8.082V628.3l2.725-0.48l9.99-23.968h0.946L313.044,627.819z
	 M216.237,585.265l-3.235,25.811l2.184,1.815l-0.492,0.849l-8.701-5.022l0.492-0.851l3.129,1.252l2.633-19.606l-15.652,12.089
	l2.584,2.05l-0.493,0.851l-6.999-4.04l0.493-0.852l2.602,0.945l20.636-15.761L216.237,585.265z M188.086,596.689l2.52,2.011
	l-0.491,0.85l-8.604-4.967l0.489-0.85l3.003,1.177l10.956-18.977l-2.51-2.025l0.492-0.852l8.604,4.967l-0.491,0.852l-3.012-1.161
	L188.086,596.689z M177.104,590.352l2.52,2.01l-0.49,0.85l-8.605-4.966l0.49-0.853l3.002,1.177l10.957-18.973l-2.51-2.028
	l0.49-0.852l8.605,4.967l-0.49,0.853l-3.012-1.161L177.104,590.352z M111.687,512.98l1.175,3.002l-0.85,0.492l-4.97-8.604
	l0.853-0.492l2.013,2.52l18.975-10.955l-1.16-3.012l0.85-0.488l4.97,8.604l-0.852,0.491l-2.028-2.512L111.687,512.98z
	 M147.646,527.326l0.473,0.816l-15.706,20.734l0.981,2.664l-0.852,0.491l-5.022-8.701l0.851-0.491l2.084,2.649l12.083-15.667
	l-19.599,2.646l1.214,3.066l-0.852,0.492l-4.041-6.999l0.852-0.491l1.779,2.119L147.646,527.326z M105.346,502l1.177,3.003
	l-0.852,0.491l-4.968-8.604l0.852-0.492l2.013,2.52l18.975-10.955l-1.16-3.012l0.851-0.489l4.968,8.604l-0.851,0.491l-2.027-2.512
	L105.346,502z M118.026,523.963l1.177,3.002l-0.85,0.49l-4.968-8.604l0.851-0.491l2.009,2.52l18.978-10.956l-1.162-3.011l0.85-0.49
	l4.969,8.604l-0.851,0.493l-2.028-2.511L118.026,523.963z M112.456,435.207H90.545l-0.483,3.188h-0.983v-9.936h0.983l0.483,3.189
	h21.911l0.501-3.189h0.979v9.936h-0.979L112.456,435.207z M90.063,425.066h-0.983v-10.25h0.983l0.483,3.151l7.674-5.152
	l-7.674-5.765l-0.483,3.077h-0.983v-8.138h0.983l0.483,2.743l9.304,6.988l12.606-8.545l0.501-2.818h0.979v10.252h-0.979
	l-0.501-3.151l-9.64,6.525l9.64,7.229l0.501-3.077h0.979v8.119h-0.979l-0.501-2.744l-11.234-8.451l-10.677,7.208L90.063,425.066z
	 M112.611,326.318l-0.852-0.492l5.125-8.876l0.851,0.491l-1.16,2.97l9.224-0.625l-3.763-8.831l-1.956,2.425l-0.851-0.49l4.069-7.049
	l0.85,0.492l-0.953,2.616l4.564,10.705l15.19-1.096l1.842-2.191l0.851,0.49l-5.125,8.879l-0.851-0.492l1.144-2.98l-11.612,0.833
	l4.733,11.078l1.973-2.414l0.851,0.494l-4.06,7.028l-0.85-0.491l0.938-2.626l-5.502-12.936l-12.854,0.906L112.611,326.318z
	 M179.193,249.752l-0.49-0.853l8.877-5.124l0.49,0.85l-2.487,1.994l8.301,4.069l1.156-9.528l-2.906,1.122l-0.491-0.851l7.048-4.069
	l0.49,0.852l-2.134,1.789l-1.4,11.552l13.704,6.645l2.689-0.976l0.493,0.852l-8.878,5.124l-0.492-0.852l2.479-2.008l-10.472-5.085
	l-1.441,11.961l0,0l2.915-1.103l0.491,0.851l-7.031,4.059l-0.491-0.852l2.126-1.804l1.702-13.955l-11.583-5.643L179.193,249.752z
	 M202.393,236.359l-0.49-0.852l8.604-4.967l0.493,0.85l-2.521,2.013l10.956,18.973l3.011-1.159l0.492,0.85l-8.605,4.967
	l-0.491-0.851l2.512-2.026l-10.958-18.975L202.393,236.359z"/>
</svg>
