<?xml version="1.0" encoding="utf-8"?>
<!-- Generator: Adobe Illustrator 16.0.0, SVG Export Plug-In . SVG Version: 6.00 Build 0)  -->
<!DOCTYPE svg PUBLIC "-//W3C//DTD SVG 1.1//EN" "http://www.w3.org/Graphics/SVG/1.1/DTD/svg11.dtd">
<svg version="1.1" id="Layer_1" xmlns="http://www.w3.org/2000/svg" xmlns:xlink="http://www.w3.org/1999/xlink" x="0px" y="0px"
	 width="841.891px" height="595.281px" viewBox="0 0 841.891 595.281" enable-background="new 0 0 841.891 595.281"
	 xml:space="preserve">
<path d="M588.764,213.147c-1.283,0.011-2.326-0.535-3.131-1.635c-0.803-1.104-1.214-2.583-1.229-4.447
	c-0.058-6.794,4.583-11.724,13.918-14.793l4.183-1.375c4.686-1.552,7.017-4.114,6.987-7.69c-0.021-2.406-0.88-4.304-2.581-5.688
	c-1.702-1.384-4.028-2.063-6.979-2.041c-2.604,0.024-4.753,0.564-6.454,1.629c-1.699,1.06-2.698,2.504-2.993,4.332
	c2.097,0.141,3.155,1.045,3.168,2.715c0.008,1.01-0.355,1.876-1.087,2.6c-0.732,0.727-1.644,1.091-2.729,1.099
	c-1.32,0.013-2.381-0.435-3.185-1.341s-1.215-2.096-1.224-3.574c-0.029-3.183,1.388-5.857,4.245-8.016
	c2.854-2.158,6.4-3.258,10.632-3.291c4.117-0.033,7.495,1.015,10.133,3.15c2.641,2.133,3.975,4.91,4.003,8.326
	c0.018,2.332-0.597,4.395-1.843,6.19c-1.248,1.798-2.996,3.151-5.24,4.063c-0.696,0.28-3.021,1.113-6.972,2.504
	c-2.826,0.995-5.088,1.944-6.79,2.853c-1.239,0.669-2.29,1.514-3.154,2.53c-0.867,1.02-1.39,2.244-1.573,3.681
	c1.732-1.876,3.842-2.826,6.329-2.847c2.291-0.019,4.705,0.975,7.247,2.971c2.813,2.192,4.979,3.279,6.493,3.268
	c1.087-0.009,1.968-0.375,2.642-1.101c0.675-0.725,1.007-1.646,0.996-2.775c-0.001-0.387-0.083-0.816-0.242-1.278
	c-0.615,0.625-1.313,0.941-2.09,0.949c-1.669,0.012-2.51-0.797-2.523-2.429c-0.009-0.89,0.313-1.633,0.971-2.221
	c0.655-0.587,1.526-0.884,2.616-0.896c1.434-0.01,2.596,0.497,3.477,1.516c0.883,1.023,1.332,2.389,1.345,4.096
	c0.019,2.41-0.72,4.473-2.222,6.196c-1.501,1.718-3.339,2.587-5.512,2.606c-2.062,0.019-4.545-1.068-7.454-3.259
	c-2.913-2.188-5.456-3.277-7.632-3.257c-2.175,0.018-3.527,0.806-4.057,2.362c0.388-0.005,0.619-0.004,0.698-0.007
	c1.127-0.007,1.694,0.551,1.702,1.677C591.67,212.244,590.705,213.127,588.764,213.147z M343.585,132.281
	c-0.427,0.002-1.068,0.054-1.919,0.154c-0.857,0.097-1.495,0.151-1.924,0.15c-1.747,0.007-2.644-1.332-2.691-4.011
	c-0.001-0.777-0.045-2.388-0.131-4.835c-0.044-2.019-0.067-3.631-0.072-4.834l-0.021-6.582c-0.011-3.38,0.076-7.148,0.256-11.304
	c0.037-0.817,0.056-1.282,0.055-1.398c-0.003-0.855-0.083-1.457-0.241-1.806c-0.197-0.504-0.719-0.755-1.576-0.754
	c-0.271,0.001-1.009,0.062-2.212,0.182c-0.816,0.083-1.845,0.122-3.084,0.128c-0.543,0.002-1.311-0.046-2.303-0.138
	c-0.991-0.094-1.72-0.144-2.185-0.14c-1.436,0.003-2.154,0.685-2.152,2.043c0.005,1.363,0.763,2.038,2.28,2.032
	c0.389,0.001,0.95-0.052,1.688-0.15c0.737-0.099,1.3-0.151,1.689-0.151c1.089-0.002,1.816,0.324,2.188,0.983
	c0.371,0.661,0.578,1.98,0.625,3.96l0.227,16.893c0.014,4.466-0.134,7.234-0.44,8.303c-0.308,1.069-1.14,1.605-2.5,1.608
	c-0.234,0.002-0.817-0.036-1.75-0.111c-0.621-0.115-1.223-0.17-1.805-0.168c-1.903,0.005-2.854,0.677-2.847,2.019
	c0.004,1.376,0.839,2.063,2.508,2.059c0.585-0.001,1.576-0.095,2.974-0.279c2.481-0.333,4.578-0.501,6.29-0.506
	c1.706-0.007,4.195,0.201,7.457,0.617c0.584,0.077,1.205,0.113,1.866,0.112c1.708-0.006,2.562-0.688,2.553-2.048
	C346.384,132.954,345.451,132.277,343.585,132.281z M618.315,314.567c2.914,2.115,6.544,3.177,10.896,3.177
	c4.739,0,8.612-1.304,11.622-3.906c3.01-2.602,4.516-5.96,4.516-10.078c0-3.296-1.061-6.008-3.178-8.125s-4.824-3.177-8.127-3.177
	h-1.688l10.715-10.269c0.973-0.93,1.461-1.839,1.461-2.729c0-1.394-1.145-2.087-3.424-2.087c-1.238,0-2.32,0.019-3.252,0.059
	c-1.855,0.077-3.172,0.115-3.941,0.115h-14.271c-1.548,0-2.517,0.126-2.903,0.38c-0.385,0.254-0.581,0.9-0.581,1.948v4.254
	c0,0.47-0.028,1.174-0.085,2.127c-0.059,0.953-0.087,1.662-0.087,2.125c0,1.674,0.66,2.507,1.979,2.507
	c1.359,0,2.041-1.01,2.041-3.03c0-0.388-0.041-0.948-0.117-1.689c-0.079-0.734-0.118-1.3-0.118-1.687
	c0-1.204,0.485-1.961,1.458-2.271c0.502-0.197,1.514-0.294,3.027-0.294h13.517l-12.118,11.887c-0.621,0.619-0.932,1.164-0.932,1.631
	c0,1.008,0.467,1.515,1.398,1.515c0.311,0,0.641-0.037,0.991-0.116c1.63-0.354,3.202-0.523,4.717-0.523
	c5.748,0,8.621,2.523,8.621,7.57c0,2.876-1.027,5.234-3.088,7.078c-2.059,1.848-4.699,2.769-7.92,2.769
	c-2.876,0-5.37-0.7-7.485-2.097c-2.119-1.399-3.178-3.05-3.178-4.954v-0.406h0.643c2.289,0,3.437-0.969,3.437-2.913
	c0-0.97-0.319-1.756-0.961-2.358c-0.64-0.602-1.466-0.903-2.476-0.903c-1.555,0-2.854,0.631-3.904,1.895
	c-1.047,1.262-1.573,2.806-1.573,4.633C613.945,309.802,615.403,312.449,618.315,314.567z M610.927,416.401
	c-0.854-0.003-2.001-0.131-3.436-0.374c-1.204-0.204-2.696-0.312-4.481-0.327c-1.09-0.007-2.72,0.09-4.896,0.287
	c-2.18,0.196-3.81,0.292-4.896,0.283c-1.476-0.011-2.21-0.668-2.199-1.97c0.012-1.377,0.909-2.06,2.695-2.047
	c0.389,0,0.961,0.048,1.718,0.131c0.761,0.081,1.333,0.125,1.719,0.128c1.94,0.015,2.925-1.59,2.946-4.815l0.028-3.552l-18.06-0.129
	c-1.788-0.016-2.678-0.8-2.66-2.352c0.003-0.624,0.223-1.246,0.65-1.86l15.578-19.055c1.649-2.005,2.859-3.304,3.645-3.903
	c0.782-0.596,1.672-0.891,2.687-0.881c2.095,0.015,3.135,1.4,3.111,4.157l-0.146,20.096l6.875,0.053
	c1.279,0.011,1.912,0.674,1.906,1.993c-0.012,1.321-0.695,1.977-2.056,1.965l-6.757-0.049l-0.024,3.552
	c-0.024,3.227,0.837,4.843,2.584,4.855c0.467,0.006,1.518-0.065,3.146-0.21c1.635,0.015,2.442,0.678,2.435,1.999
	C613.026,415.736,612.322,416.411,610.927,416.401z M600.152,400.187l0.546-19.048l-15.637,18.935L600.152,400.187z M412.51,108.838
	c1.707,0.003,2.563-0.673,2.566-2.034c0.003-1.359-0.925-2.041-2.793-2.045c-0.423,0-1.067,0.046-1.92,0.142
	c-0.853,0.096-1.497,0.142-1.923,0.141c-1.749-0.004-2.638-1.345-2.67-4.025c0.001-0.776-0.035-2.389-0.105-4.836
	c-0.036-2.019-0.052-3.63-0.049-4.835l0.015-6.584c0.008-3.379,0.116-7.145,0.316-11.3c0.04-0.816,0.064-1.281,0.064-1.397
	c0.002-0.853-0.077-1.458-0.231-1.806c-0.194-0.505-0.716-0.759-1.573-0.76c-0.27-0.001-1.009,0.053-2.209,0.167
	c-0.816,0.078-1.848,0.114-3.089,0.111c-0.542-0.001-1.31-0.051-2.301-0.152c-0.988-0.098-1.718-0.148-2.186-0.149
	c-1.437-0.003-2.156,0.674-2.159,2.033c-0.003,1.36,0.753,2.041,2.267,2.044c0.391,0.001,0.952-0.045,1.689-0.141
	c0.736-0.095,1.303-0.144,1.69-0.143c1.087,0.002,1.813,0.334,2.184,0.997c0.364,0.661,0.568,1.98,0.601,3.961l0.139,16.894
	c-0.01,4.466-0.173,7.233-0.484,8.301c-0.314,1.067-1.151,1.597-2.51,1.594c-0.231-0.001-0.816-0.04-1.749-0.119
	c-0.62-0.117-1.222-0.177-1.802-0.179c-1.906-0.004-2.859,0.664-2.862,2.003c-0.003,1.379,0.831,2.07,2.501,2.074
	c0.581,0.001,1.575-0.086,2.973-0.264c2.486-0.319,4.584-0.478,6.293-0.474s4.192,0.224,7.455,0.659
	C411.225,108.795,411.85,108.836,412.51,108.838z M299.518,122.808c0.012,4.466-0.136,7.232-0.443,8.302
	c-0.307,1.069-1.142,1.605-2.498,1.611c-0.235-0.001-0.818-0.037-1.749-0.113c-0.621-0.114-1.224-0.171-1.805-0.167
	c-1.905,0.004-2.853,0.677-2.849,2.018c0.003,1.379,0.839,2.066,2.509,2.058c0.581,0.001,1.576-0.091,2.971-0.277
	c2.485-0.331,4.58-0.501,6.29-0.506c1.71-0.006,4.194,0.2,7.458,0.616c0.585,0.075,1.207,0.115,1.866,0.113
	c1.708-0.007,2.561-0.688,2.558-2.047c-0.005-1.36-0.94-2.038-2.803-2.03c-0.429-0.001-1.069,0.051-1.923,0.151
	c-0.853,0.099-1.494,0.151-1.92,0.152c-1.749,0.005-2.648-1.334-2.693-4.013c-0.004-0.776-0.048-2.389-0.131-4.835
	c-0.045-2.019-0.07-3.632-0.073-4.834l-0.02-6.583c-0.012-3.379,0.075-7.145,0.257-11.302c0.033-0.818,0.055-1.283,0.054-1.399
	c-0.004-0.854-0.083-1.454-0.237-1.805c-0.198-0.505-0.725-0.756-1.579-0.754c-0.27,0.001-1.009,0.061-2.21,0.184
	c-0.814,0.08-1.845,0.124-3.088,0.125c-0.545,0.001-1.309-0.044-2.302-0.14c-0.991-0.093-1.719-0.139-2.186-0.138
	c-1.436,0.003-2.152,0.687-2.146,2.046c0.003,1.359,0.763,2.035,2.275,2.029c0.389,0.001,0.952-0.049,1.69-0.148
	c0.738-0.099,1.301-0.149,1.688-0.152c1.087-0.003,1.814,0.325,2.19,0.984c0.366,0.659,0.574,1.978,0.621,3.959L299.518,122.808z
	 M309.015,507.84c1.936-0.022,2.894-1.254,2.869-3.693c-0.008-0.07-0.058-0.913-0.145-2.53c-0.048-0.937-0.076-1.363-0.075-1.284
	c-0.046-3.936,0.614-7.295,1.981-10.073c0.946-1.958,2.727-4.104,5.339-6.434c1.268-1.143,2.117-1.93,2.538-2.366
	c0.917-0.905,1.783-1.968,2.583-3.183c1.26-1.963,1.871-4.23,1.84-6.799c-0.041-3.465-1.342-5.188-3.903-5.156
	c-0.779,0.01-1.446,0.283-2.003,0.82c-0.557,0.537-0.828,1.18-0.821,1.923c0.009,0.59,0.238,1.119,0.69,1.589
	c0.45,0.464,0.948,0.69,1.494,0.685l0.465-0.003c-0.377,1.13-1.378,1.703-3.009,1.724c-1.553,0.018-3.779-1.064-6.679-3.241
	c-2.587-1.948-4.835-2.915-6.736-2.889c-1.319,0.013-2.364,0.299-3.133,0.851c-0.77,0.555-1.635,1.612-2.584,3.175l0.107-0.643
	c0.144-0.854,0.219-1.417,0.216-1.688c-0.02-1.36-0.589-2.035-1.716-2.023c-1.358,0.021-2.031,0.823-2.009,2.414
	c0.013,0.933,0.081,2.019,0.213,3.262c0.133,1.241,0.205,2.406,0.217,3.494c0.009,0.737-0.067,1.786-0.224,3.146
	c-0.156,1.361-0.236,2.372-0.224,3.032c0.014,1.67,0.801,2.495,2.354,2.478c0.662-0.009,1.213-0.247,1.656-0.719
	c0.438-0.474,0.655-1.036,0.65-1.696c-0.01-0.662-0.185-1.669-0.521-3.027c-0.192-0.77-0.295-1.642-0.308-2.615
	c-0.036-3.186,1.192-4.792,3.694-4.821c1.053-0.012,2.016,0.287,2.879,0.896l2.422,1.779c2.401,1.759,4.854,2.622,7.353,2.594
	c2.032-0.024,3.703-0.607,5.016-1.747c-0.253,1.09-1.386,2.481-3.386,4.175c-4.882,4.098-8.064,7.669-9.54,10.716
	c-1.82,3.75-2.701,8.131-2.643,13.138C305.969,506.284,306.995,507.865,309.015,507.84z M211.681,304.458
	c-4.041,0-7.322-1.214-9.848-3.642c-2.521-2.425-3.785-5.583-3.785-9.464c0-4.08,1.391-7.469,4.164-10.165
	c2.779-2.7,6.281-4.05,10.518-4.05c4.815,0,8.601,1.699,11.359,5.097c2.757,3.398,4.137,8.069,4.137,14.011
	c0,6.951-1.535,12.407-4.604,16.37c-3.068,3.96-7.302,5.942-12.699,5.942c-3.42,0-6.32-0.817-8.711-2.444
	c-2.385-1.634-3.58-3.636-3.58-6.003c0-1.127,0.355-2.068,1.074-2.824c0.721-0.761,1.605-1.139,2.656-1.139
	c0.85,0,1.586,0.282,2.209,0.845c0.621,0.563,0.936,1.235,0.936,2.012c0,1.125-0.566,1.962-1.691,2.502
	c1.205,2.177,3.67,3.264,7.398,3.264c3.65,0,6.544-1.449,8.68-4.342c2.136-2.892,3.262-6.863,3.379-11.911
	C221.1,302.477,217.236,304.458,211.681,304.458z M212.497,300.379c3.03,0,5.407-0.835,7.136-2.506
	c1.729-1.667,2.593-3.938,2.593-6.813c0-2.954-0.864-5.322-2.593-7.106c-1.729-1.789-3.99-2.681-6.787-2.681
	c-2.914,0-5.273,0.911-7.078,2.734c-1.809,1.829-2.707,4.197-2.707,7.108c0,2.836,0.854,5.09,2.563,6.756
	C207.332,299.543,209.623,300.379,212.497,300.379z M274.731,209.649c-2.87,3.858-6.83,5.816-11.877,5.871
	c-4.932,0.055-8.827-1.716-11.682-5.315c-2.857-3.598-4.32-8.582-4.391-14.951c-0.073-6.486,1.335-11.618,4.226-15.399
	c2.889-3.782,6.877-5.697,11.966-5.756c4.854-0.052,8.708,1.7,11.564,5.26c2.854,3.561,4.32,8.411,4.387,14.544
	C278.999,200.542,277.599,205.791,274.731,209.649z M271.026,206.631c1.945-3.051,2.892-7.235,2.831-12.555
	c-0.057-5.088-1.033-8.981-2.927-11.68c-1.896-2.698-4.569-4.025-8.026-3.988c-7.145,0.081-10.794,5.463-10.945,16.146l0.01,0.873
	c0.057,5.088,1.032,9.008,2.924,11.762c1.897,2.757,4.554,4.116,7.972,4.078C266.358,211.229,269.079,209.684,271.026,206.631z
	 M240.436,421.275c-4.771-0.176-8.55-1.463-11.339-3.857c-2.789-2.397-4.113-5.496-3.972-9.3c0.136-3.606,1.597-6.412,4.392-8.407
	c1.037-0.738,2.421-1.386,4.152-1.946c-2.092-1.279-3.505-2.487-4.239-3.625c-0.736-1.136-1.073-2.575-1.008-4.321
	c0.111-2.95,1.454-5.378,4.032-7.283c2.579-1.905,5.69-2.795,9.336-2.66s6.687,1.247,9.115,3.34c2.431,2.09,3.593,4.611,3.484,7.561
	c-0.067,1.745-0.519,3.156-1.351,4.232c-0.839,1.076-2.329,2.179-4.466,3.306c1.606,0.68,2.919,1.429,3.939,2.243
	c2.638,2.157,3.894,5.06,3.761,8.707c-0.139,3.727-1.67,6.699-4.589,8.926C248.765,420.417,245.016,421.442,240.436,421.275z
	 M241.202,395.827c2.366,0.091,4.297-0.354,5.792-1.329c1.493-0.976,2.27-2.298,2.332-3.965c0.069-1.826-0.628-3.346-2.078-4.567
	c-1.449-1.218-3.322-1.87-5.612-1.959c-2.326-0.082-4.26,0.438-5.799,1.565c-1.536,1.13-2.339,2.606-2.409,4.431
	c-0.059,1.629,0.631,2.987,2.066,4.07C236.93,395.154,238.835,395.742,241.202,395.827z M240.413,417.134
	c3.103,0.115,5.65-0.578,7.627-2.077c1.978-1.503,3.016-3.513,3.11-6.035c0.091-2.525-0.765-4.587-2.57-6.188
	c-1.807-1.6-4.242-2.461-7.308-2.571c-3.341-0.127-5.977,0.525-7.914,1.95c-1.938,1.425-2.951,3.436-3.051,6.037
	c-0.093,2.525,0.79,4.604,2.655,6.249C234.829,416.141,237.312,417.019,240.413,417.134z M448.656,95.58
	c-1.089-0.002-1.96,0.287-2.623,0.867c-0.662,0.582-0.992,1.319-0.994,2.212c-0.003,1.629,0.831,2.447,2.5,2.451
	c0.776,0.001,1.479-0.306,2.099-0.926c0.153,0.465,0.23,0.894,0.229,1.28c-0.003,1.127-0.344,2.05-1.025,2.766
	c-0.682,0.717-1.566,1.074-2.653,1.072c-1.514-0.003-3.669-1.115-6.457-3.336c-2.522-2.024-4.927-3.041-7.218-3.046
	c-2.485-0.005-4.604,0.923-6.357,2.783c0.199-1.437,0.735-2.659,1.612-3.666c0.875-1.009,1.935-1.84,3.179-2.499
	c1.713-0.89,3.984-1.816,6.822-2.78c3.963-1.351,6.296-2.161,6.996-2.434c2.256-0.887,4.012-2.222,5.279-4.007
	c1.269-1.782,1.903-3.84,1.909-6.17c0.008-3.417-1.297-6.206-3.913-8.368c-2.617-2.162-5.984-3.246-10.1-3.254
	c-4.233-0.01-7.789,1.05-10.668,3.179c-2.878,2.13-4.323,4.788-4.33,7.971c-0.004,1.475,0.393,2.671,1.187,3.586
	c0.793,0.914,1.851,1.373,3.171,1.376c1.087,0.002,2.003-0.355,2.742-1.073c0.74-0.715,1.109-1.579,1.111-2.589
	c0.004-1.669-1.044-2.585-3.141-2.747c0.316-1.823,1.326-3.26,3.04-4.303c1.709-1.045,3.866-1.564,6.472-1.559
	c2.947,0.006,5.268,0.71,6.953,2.111c1.688,1.402,2.528,3.308,2.523,5.715c-0.008,3.574-2.363,6.112-7.066,7.616l-4.196,1.331
	c-9.365,2.97-14.059,7.854-14.073,14.648c-0.005,1.865,0.392,3.351,1.185,4.46c0.796,1.109,1.83,1.664,3.114,1.667
	c1.938,0.004,2.913-0.867,2.917-2.615c0.002-1.125-0.56-1.691-1.686-1.693l-0.699-0.002c0.546-1.551,1.907-2.326,4.084-2.321
	c2.176,0.005,4.706,1.119,7.595,3.339c2.89,2.22,5.362,3.332,7.421,3.336c2.174,0.005,4.021-0.845,5.54-2.551
	c1.519-1.705,2.279-3.76,2.285-6.168c0.003-1.708-0.428-3.079-1.301-4.11C451.247,96.101,450.093,95.583,448.656,95.58z
	 M513.234,479.496c-0.014,1.707,0.738,2.569,2.251,2.583l0.235,0.002c0.541-0.074,0.99-0.236,1.342-0.487
	c0.354-0.248,0.956-0.778,1.82-1.587c2.15-2.081,5.033-3.106,8.646-3.076c2.952,0.019,5.267,0.867,6.942,2.529
	c1.676,1.666,2.504,3.933,2.482,6.808c-0.025,2.991-1.041,5.438-3.059,7.343c-2.016,1.907-4.577,2.847-7.684,2.825
	c-2.525-0.021-4.803-0.551-6.835-1.598c-2.029-1.044-3.038-2.21-3.028-3.492c0.004-0.23,0.238-0.364,0.701-0.4
	c0.621,0.003,1.158-0.232,1.607-0.715c0.451-0.485,0.68-1.053,0.684-1.715c0.008-0.972-0.305-1.75-0.941-2.339
	c-0.638-0.588-1.462-0.882-2.469-0.892c-1.282-0.009-2.373,0.455-3.273,1.403c-0.9,0.941-1.361,2.113-1.368,3.51
	c-0.021,2.838,1.347,5.246,4.111,7.229c2.759,1.982,6.138,2.99,10.138,3.022c4.856,0.036,8.799-1.28,11.828-3.957
	c3.034-2.671,4.566-6.187,4.603-10.538c0.028-4-1.21-7.164-3.719-9.496c-2.503-2.329-5.933-3.513-10.278-3.547
	c-3.653-0.026-7,0.996-10.045,3.066l0.772-9.313c0.128-1.399,0.676-2.095,1.645-2.086l12.175,0.098
	c1.826,0.013,2.77,1.108,2.831,3.283c0.063,1.827,0.719,2.741,1.96,2.752c1.317,0.012,1.983-0.603,1.995-1.85
	c0-0.385-0.074-0.813-0.222-1.281c-0.303-1.361-0.447-2.549-0.441-3.559l0.061-0.405c0.018-2.291-0.749-3.444-2.301-3.454
	c-0.425-0.005-1.221,0.026-2.39,0.094c-0.584,0.035-1.438,0.051-2.563,0.039l-7.165-0.055l-3.379-0.03l-2.855-0.021
	c-0.235,0.002-0.581-0.004-1.047-0.007c-1.166-0.01-1.888,0.228-2.162,0.71c-0.277,0.483-0.442,1.795-0.498,3.929
	c-0.05,1.515-0.097,2.582-0.141,3.204l-0.903,11.237C513.254,479.339,513.237,479.419,513.234,479.496z M433.495,503.117
	c2.682,2.482,4.02,5.672,4.02,9.555c0,4.154-1.438,7.57-4.31,10.25c-2.875,2.68-6.563,4.021-11.071,4.021
	c-4.971,0-8.885-1.65-11.737-4.951c-2.854-3.301-4.281-7.809-4.281-13.52c0-7.027,1.572-12.607,4.718-16.744
	c3.143-4.137,7.38-6.203,12.7-6.203c3.262,0,6.038,0.816,8.329,2.445c2.291,1.631,3.438,3.609,3.438,5.939
	c0,1.088-0.378,2.021-1.137,2.799c-0.754,0.775-1.642,1.166-2.647,1.166c-0.816,0-1.528-0.303-2.129-0.904
	c-0.603-0.602-0.904-1.328-0.904-2.186c0-1.162,0.547-1.941,1.634-2.33c-1.164-2.059-3.474-3.086-6.933-3.086
	c-3.496,0-6.332,1.465-8.507,4.396c-2.175,2.934-3.397,6.924-3.667,11.971c2.445-4.23,6.482-6.348,12.113-6.348
	C427.358,499.388,430.816,500.632,433.495,503.117z M432.389,512.902c0-2.871-0.925-5.184-2.765-6.93
	c-1.849-1.75-4.285-2.623-7.313-2.623c-3.148,0-5.634,0.865-7.458,2.59c-1.826,1.732-2.739,4.07-2.739,7.025
	c0,3.027,0.923,5.445,2.768,7.25c1.844,1.807,4.302,2.707,7.368,2.707c2.993,0,5.429-0.93,7.313-2.793
	C431.446,518.265,432.389,515.855,432.389,512.902z M515.957,134.93c0.583,0.009,1.573-0.065,2.974-0.225
	c2.491-0.288,4.591-0.417,6.298-0.392c1.709,0.025,4.193,0.278,7.448,0.758c0.579,0.084,1.201,0.134,1.863,0.144
	c1.707,0.026,2.574-0.642,2.594-2.001c0.021-1.357-0.901-2.051-2.764-2.083c-0.428-0.005-1.072,0.034-1.926,0.119
	c-0.856,0.083-1.496,0.121-1.927,0.115c-1.744-0.03-2.618-1.381-2.615-4.059c0.013-0.779-0.001-2.391-0.043-4.836
	c-0.008-2.021,0-3.634,0.017-4.837l0.101-6.582c0.054-3.377,0.205-7.143,0.465-11.296c0.052-0.815,0.075-1.278,0.08-1.398
	c0.011-0.851-0.056-1.456-0.204-1.809c-0.188-0.506-0.71-0.767-1.563-0.78c-0.269-0.006-1.012,0.042-2.214,0.139
	c-0.818,0.066-1.848,0.09-3.092,0.071c-0.542-0.009-1.306-0.07-2.297-0.182c-0.988-0.112-1.718-0.171-2.184-0.177
	c-1.436-0.021-2.164,0.644-2.186,2.005c-0.019,1.357,0.726,2.052,2.239,2.073c0.39,0.005,0.954-0.034,1.692-0.118
	c0.739-0.086,1.303-0.126,1.692-0.121c1.086,0.016,1.809,0.359,2.168,1.024c0.358,0.667,0.542,1.99,0.552,3.97l-0.086,16.895
	c-0.067,4.465-0.267,7.232-0.595,8.292c-0.326,1.063-1.17,1.583-2.525,1.562c-0.235-0.003-0.817-0.048-1.749-0.144
	c-0.62-0.125-1.221-0.193-1.806-0.201c-1.899-0.03-2.86,0.625-2.882,1.964C513.463,134.201,514.289,134.903,515.957,134.93z
	 M219.668,177.67c0.015,1.36,0.78,2.03,2.294,2.014c0.387-0.006,0.95-0.061,1.689-0.164c0.735-0.105,1.298-0.16,1.688-0.167
	c1.086-0.011,1.815,0.311,2.196,0.967c0.376,0.656,0.594,1.975,0.655,3.953l0.364,16.892c0.05,4.465-0.074,7.233-0.373,8.303
	c-0.299,1.074-1.129,1.618-2.487,1.631c-0.232,0.004-0.816-0.03-1.749-0.096c-0.623-0.109-1.226-0.162-1.807-0.156
	c-1.904,0.021-2.85,0.701-2.833,2.042c0.015,1.377,0.859,2.059,2.529,2.041c0.581-0.006,1.57-0.108,2.967-0.304
	c2.482-0.355,4.576-0.539,6.286-0.559c1.707-0.02,4.197,0.169,7.463,0.558c0.584,0.07,1.205,0.103,1.866,0.096
	c1.708-0.02,2.555-0.708,2.538-2.069c-0.014-1.358-0.953-2.027-2.819-2.008c-0.427,0.004-1.065,0.064-1.917,0.169
	c-0.855,0.106-1.493,0.162-1.92,0.166c-1.749,0.019-2.658-1.309-2.724-3.99c-0.009-0.775-0.07-2.388-0.173-4.832
	c-0.063-2.021-0.1-3.633-0.114-4.837l-0.073-6.581c-0.036-3.379,0.016-7.147,0.164-11.305c0.03-0.816,0.044-1.283,0.043-1.398
	c-0.011-0.856-0.093-1.457-0.252-1.804c-0.201-0.502-0.729-0.751-1.583-0.741c-0.272,0.003-1.011,0.069-2.213,0.2
	c-0.813,0.089-1.844,0.136-3.084,0.151c-0.544,0.007-1.313-0.032-2.303-0.119c-0.99-0.084-1.722-0.127-2.186-0.121
	C220.365,175.624,219.654,176.313,219.668,177.67z M408.522,297.888c0.092,7.254,6.052,13.057,13.304,12.961
	c7.254-0.096,13.057-6.053,12.961-13.307c-0.096-7.255-6.054-13.056-13.306-12.962C414.225,284.677,408.424,290.635,408.522,297.888
	z M602.979,474.324c-47.173,48.432-110.385,75.598-177.991,76.488c-67.604,0.891-131.508-24.598-179.944-71.771
	c-48.431-47.17-75.596-110.383-76.487-177.988c-0.891-67.603,24.599-131.509,71.772-179.943
	c47.173-48.434,110.385-75.598,177.987-76.489c67.606-0.892,131.51,24.597,179.944,71.771
	c48.434,47.174,75.596,110.385,76.489,177.989C675.641,361.986,650.152,425.89,602.979,474.324z M672.229,268.755l-10.041,1.187
	c0.857,7.527,1.357,15.13,1.513,22.797l10.115-0.135C673.652,284.556,673.13,276.599,672.229,268.755z M667.836,242.719
	l-9.825,2.224c1.717,7.757,3.052,15.625,4.005,23.584l10.034-1.19C671.045,258.998,669.636,250.787,667.836,242.719z
	 M660.724,217.292l-9.486,3.221c2.53,7.549,4.685,15.235,6.46,23.037l9.813-2.221C665.638,233.157,663.369,225.139,660.724,217.292z
	 M650.981,192.756l-9.048,4.17c3.319,7.255,6.271,14.674,8.857,22.233l9.471-3.22C657.546,208.026,654.444,200.291,650.981,192.756z
	 M639.27,170.301l-8.56,5.093c3.867,6.583,7.403,13.338,10.614,20.241l9.067-4.18C647.014,184.21,643.299,177.154,639.27,170.301z
	 M624.082,147.419l-7.99,5.968c4.57,6.131,8.834,12.451,12.779,18.943l8.556-5.093C633.287,160.412,628.834,153.799,624.082,147.419
	z M607.245,127.098l-7.336,6.782c5.436,5.9,10.548,12.027,15.327,18.359l7.986-5.963
	C618.212,139.621,612.878,133.22,607.245,127.098z M588.401,108.626l-6.585,7.511c2.974,2.633,5.899,5.344,8.764,8.138
	c2.868,2.791,5.657,5.644,8.366,8.551l7.339-6.783C600.611,119.95,594.641,114.136,588.401,108.626z M567.729,92.225l-5.752,8.138
	c6.458,4.614,12.717,9.563,18.757,14.842l6.585-7.51C581.053,102.224,574.515,97.062,567.729,92.225z M546.402,78.576l-4.869,8.691
	c6.598,3.772,13.027,7.868,19.274,12.275l5.756-8.145C560.061,86.817,553.332,82.537,546.402,78.576z M521.849,66.256l-3.941,9.173
	c6.986,3.027,13.832,6.386,20.519,10.077l4.861-8.688C536.331,72.973,529.181,69.444,521.849,66.256z M497.112,57.034l-2.968,9.555
	c7.623,2.383,15.116,5.14,22.46,8.27l3.927-9.157C512.909,62.438,505.094,59.543,497.112,57.034z M471.539,50.459l-1.96,9.869
	c7.847,1.567,15.587,3.519,23.201,5.848l2.968-9.567C487.834,54.173,479.761,52.116,471.539,50.459z M444.497,56.67
	c7.982,0.741,15.883,1.871,23.682,3.38l1.965-9.876c-8.111-1.588-16.358-2.781-24.721-3.566L444.497,56.67z M420.117,45.507
	l0.134,10.114c7.665-0.046,15.28,0.255,22.826,0.911l0.925-10.064C436.134,45.773,428.166,45.458,420.117,45.507z M392.695,47.144
	l1.186,10.036c7.526-0.854,15.131-1.354,22.799-1.51l-0.137-10.114C408.494,45.716,400.538,46.242,392.695,47.144z M366.658,51.537
	l2.223,9.823c7.757-1.716,15.625-3.054,23.584-4.006l-1.189-10.033C382.938,48.327,374.726,49.737,366.658,51.537z M341.23,58.646
	l3.221,9.484c7.55-2.529,15.236-4.684,23.04-6.458l-2.224-9.814C357.096,53.732,349.076,56.001,341.23,58.646z M316.693,68.386
	l4.172,9.051c7.256-3.322,14.675-6.275,22.231-8.856l-3.219-9.475C331.965,61.824,324.229,64.924,316.693,68.386z M294.238,80.099
	l5.092,8.558c6.587-3.865,13.339-7.402,20.243-10.613l-4.181-9.065C308.148,72.358,301.094,76.073,294.238,80.099z M271.356,95.287
	l5.965,7.991c6.134-4.572,12.454-8.835,18.945-12.779l-5.093-8.56C284.351,86.083,277.737,90.538,271.356,95.287z M251.038,112.125
	l6.78,7.336c5.898-5.438,12.029-10.551,18.36-15.331l-5.966-7.986C263.558,101.16,257.158,106.491,251.038,112.125z
	 M232.564,130.967l7.512,6.587c2.632-2.977,5.341-5.901,8.135-8.767c2.791-2.867,5.646-5.654,8.551-8.365l-6.782-7.336
	C243.887,118.758,238.074,124.727,232.564,130.967z M216.164,151.641l8.137,5.752c4.613-6.456,9.563-12.717,14.843-18.759
	l-7.514-6.585C226.16,138.316,220.998,144.855,216.164,151.641z M202.515,172.969l8.688,4.867
	c3.772-6.596,7.867-13.024,12.278-19.275l-8.146-5.755C210.753,159.31,206.478,166.036,202.515,172.969z M190.192,197.52l9.174,3.94
	c3.029-6.985,6.386-13.831,10.079-20.513l-8.691-4.866C196.911,183.037,193.378,190.187,190.192,197.52z M180.973,222.257
	l9.553,2.967c2.383-7.623,5.141-15.116,8.271-22.456l-9.157-3.932C186.375,206.46,183.48,214.274,180.973,222.257z M174.397,247.828
	l9.867,1.962c1.567-7.847,3.519-15.587,5.85-23.2l-9.566-2.967C178.112,231.535,176.053,239.611,174.397,247.828z M170.545,273.95
	l10.063,0.922c0.74-7.98,1.871-15.881,3.381-23.68l-9.874-1.965C172.524,257.339,171.332,265.585,170.545,273.95z M169.447,299.251
	l10.113-0.133c-0.047-7.665,0.253-15.282,0.909-22.827l-10.064-0.924C169.709,283.234,169.395,291.205,169.447,299.251z
	 M171.081,326.677l10.039-1.189c-0.856-7.523-1.356-15.127-1.512-22.793l-10.113,0.135
	C169.655,310.878,170.179,318.832,171.081,326.677z M175.475,352.712l9.822-2.225c-1.716-7.758-3.057-15.621-4.005-23.582
	l-10.034,1.189C172.266,336.435,173.675,344.646,175.475,352.712z M182.586,378.142l9.482-3.221
	c-2.528-7.551-4.681-15.236-6.456-23.039l-9.815,2.221C177.67,362.273,179.938,370.292,182.586,378.142z M192.326,402.677
	l9.05-4.172c-3.323-7.256-6.276-14.672-8.856-22.229l-9.474,3.217C185.763,387.406,188.864,395.142,192.326,402.677z
	 M204.036,425.13l8.561-5.092c-3.867-6.584-7.404-13.34-10.614-20.242l-9.066,4.18C196.294,411.224,200.01,418.279,204.036,425.13z
	 M219.228,448.017l7.988-5.971c-4.572-6.135-8.836-12.451-12.78-18.943l-8.558,5.096
	C210.021,435.021,214.476,441.636,219.228,448.017z M236.064,468.335l7.334-6.783c-5.438-5.9-10.55-12.027-15.33-18.359
	l-7.984,5.965C225.099,455.81,230.431,462.214,236.064,468.335z M254.907,486.808l6.587-7.512c-2.979-2.635-5.902-5.346-8.769-8.137
	c-2.866-2.795-5.655-5.646-8.364-8.551l-7.336,6.779C242.697,475.484,248.667,481.298,254.907,486.808z M275.58,503.208l5.751-8.141
	c-6.458-4.611-12.714-9.561-18.757-14.838l-6.585,7.508C262.257,493.208,268.797,498.373,275.58,503.208z M296.908,516.857
	l4.864-8.691c-6.594-3.773-13.022-7.867-19.274-12.277l-5.751,8.146C283.247,508.613,289.975,512.896,296.908,516.857z
	 M321.459,529.173l3.941-9.172c-6.984-3.025-13.832-6.383-20.516-10.074l-4.864,8.688
	C306.977,522.458,314.127,525.99,321.459,529.173z M346.198,538.396l2.965-9.553c-7.623-2.385-15.116-5.141-22.457-8.268
	l-3.93,9.156C330.399,532.994,338.216,535.888,346.198,538.396z M371.766,544.976l1.962-9.873
	c-7.847-1.566-15.586-3.52-23.199-5.846l-2.97,9.563C355.476,541.259,363.549,543.318,371.766,544.976z M398.811,538.763
	c-7.982-0.742-15.882-1.871-23.682-3.383l-1.965,9.879c8.111,1.586,16.36,2.779,24.724,3.564L398.811,538.763z M423.19,549.923
	l-0.132-10.111c-7.667,0.045-15.285-0.258-22.828-0.908l-0.922,10.061C407.173,549.658,415.143,549.974,423.19,549.923z
	 M429.942,538.789l1.254-0.037c11.704-0.459,23.188-1.768,34.403-3.84l0,0l0.462-0.084
	c113.144-21.133,198.362-121.362,196.796-240.291c-1.753-133-111.385-239.776-244.383-238.023
	c-133,1.752-239.778,111.381-238.022,244.382c1.754,133,111.38,239.775,244.382,238.025
	C426.543,538.898,428.243,538.847,429.942,538.789z M450.617,548.287l-1.188-10.035c-5.936,0.676-11.922,1.113-17.945,1.352v0.004
	l-0.287,0.01c-0.063,0.002-0.127,0.008-0.19,0.01v-0.002l-1.407,0.047v-0.002c-0.987,0.035-1.974,0.074-2.962,0.096l0.134,10.115
	C434.813,549.714,442.774,549.189,450.617,548.287z M476.65,543.892l-2.226-9.818c-2.68,0.592-5.378,1.121-8.084,1.623v0.003
	l-0.316,0.058c-0.017,0.003-0.034,0.007-0.051,0.01l0,0l-0.374,0.067v0.001c-0.03,0.006-0.061,0.011-0.091,0.016l-0.368,0.067
	l0.001-0.003c-4.731,0.854-9.495,1.589-14.299,2.16l1.188,10.035C460.369,547.103,468.584,545.697,476.65,543.892z M502.079,536.785
	l-3.223-9.484c-7.548,2.531-15.236,4.684-23.037,6.457l2.224,9.814C486.213,541.699,494.231,539.429,502.079,536.785z
	 M526.617,527.044l-4.175-9.051c-7.254,3.318-14.673,6.271-22.229,8.857l3.217,9.473
	C511.344,533.605,519.081,530.507,526.617,527.044z M549.069,515.332l-5.092-8.555c-6.583,3.863-13.342,7.398-20.241,10.611
	l4.179,9.066C535.162,523.074,542.218,519.355,549.069,515.332z M571.951,500.142l-5.97-7.99
	c-6.127,4.572-12.447,8.838-18.94,12.779l5.095,8.561C558.961,509.345,565.57,504.894,571.951,500.142z M592.272,483.306
	l-6.782-7.334c-5.901,5.436-12.026,10.551-18.36,15.33l5.966,7.984C579.748,494.273,586.152,488.937,592.272,483.306z
	 M610.746,464.462l-7.513-6.586c-2.632,2.977-5.346,5.902-8.137,8.766c-2.794,2.869-5.646,5.658-8.556,8.367l6.784,7.334
	C599.424,476.671,605.235,470.705,610.746,464.462z M627.148,443.787l-8.144-5.748c-4.611,6.457-9.563,12.715-14.843,18.758
	l7.516,6.588C617.147,457.117,622.31,450.576,627.148,443.787z M640.796,422.462l-8.693-4.865
	c-3.772,6.594-7.866,13.023-12.273,19.275l8.146,5.754C632.553,436.121,636.832,429.396,640.796,422.462z M653.11,397.91
	l-9.172-3.939c-3.026,6.986-6.383,13.832-10.073,20.514l8.687,4.863C646.396,412.394,649.928,405.244,653.11,397.91z
	 M662.334,373.173l-9.555-2.967c-2.38,7.625-5.137,15.117-8.268,22.459l9.156,3.932
	C656.933,388.972,659.827,381.156,662.334,373.173z M668.91,347.599l-9.869-1.957c-1.567,7.846-3.518,15.59-5.849,23.199
	l9.567,2.969C665.196,363.898,667.256,355.822,668.91,347.599z M672.763,321.486L662.7,320.56
	c-0.738,7.98-1.871,15.885-3.383,23.684l9.877,1.961C670.783,338.091,671.976,329.845,672.763,321.486z M673.861,296.179
	l-10.111,0.134c0.043,7.665-0.256,15.284-0.91,22.829l10.062,0.92C673.596,312.199,673.91,304.226,673.861,296.179z"/>
</svg>
