<?xml version="1.0" encoding="utf-8"?>
<!-- Generator: Adobe Illustrator 16.0.0, SVG Export Plug-In . SVG Version: 6.00 Build 0)  -->
<!DOCTYPE svg PUBLIC "-//W3C//DTD SVG 1.1//EN" "http://www.w3.org/Graphics/SVG/1.1/DTD/svg11.dtd">
<svg version="1.1" id="Layer_1" xmlns="http://www.w3.org/2000/svg" xmlns:xlink="http://www.w3.org/1999/xlink" x="0px" y="0px"
	 width="595.28px" height="841.89px" viewBox="0 0 595.28 841.89" enable-background="new 0 0 595.28 841.89" xml:space="preserve">
<path fill="#010101" d="M281.748,253.602c-0.493,0.049-0.984,0.111-1.476,0.166l-2.827-26.9l1.476-0.156L281.748,253.602z
	 M318,612.714l1.476-0.155l-2.825-26.903c-0.493,0.054-0.986,0.104-1.478,0.153L318,612.714z M489.596,400.374l-0.156-1.477
	l-25.031,2.631c0.053,0.491,0.1,0.984,0.151,1.479L489.596,400.374z M107.327,439.059l0.156,1.478l25.033-2.634
	c-0.054-0.491-0.102-0.982-0.15-1.474L107.327,439.059z M185.97,262.244l-1.205,0.868l15.538,21.574
	c0.399-0.292,0.794-0.591,1.198-0.876L185.97,262.244z M410.943,577.183l1.205-0.868l-15.545-21.584
	c-0.4,0.289-0.797,0.583-1.199,0.872L410.943,577.183z M219.812,596.532l1.358,0.598l10.728-24.37
	c-0.454-0.198-0.909-0.395-1.36-0.596L219.812,596.532z M377.104,242.895l-1.357-0.598l-10.717,24.341
	c0.454,0.198,0.906,0.399,1.359,0.6L377.104,242.895z M123.167,339.966l-0.61,1.354l23.409,10.54c0.201-0.452,0.411-0.9,0.617-1.35
	L123.167,339.966z M473.755,499.46l0.608-1.352l-23.418-10.545c-0.201,0.45-0.411,0.898-0.616,1.349L473.755,499.46z
	 M454.22,306.458l-0.877-1.196l-20.706,15.179c0.294,0.396,0.594,0.789,0.885,1.189L454.22,306.458z M142.702,532.965l0.876,1.199
	l20.695-15.171c-0.292-0.396-0.582-0.797-0.874-1.199L142.702,532.965z M258.854,229.813l-1.451,0.306l5.622,26.454
	c0.486-0.105,0.969-0.203,1.454-0.303L258.854,229.813z M338.068,609.618l1.449-0.312l-5.623-26.461
	c-0.486,0.104-0.969,0.198-1.455,0.301L338.068,609.618z M110.396,458.934l0.31,1.452l24.623-5.235
	c-0.104-0.483-0.2-0.968-0.299-1.455L110.396,458.934z M486.528,380.502l-0.311-1.451l-24.62,5.231
	c0.105,0.487,0.199,0.97,0.299,1.456L486.528,380.502z M426.788,564.564l1.108-0.985l-17.711-19.839
	c-0.367,0.334-0.733,0.666-1.106,0.991L426.788,564.564z M170.127,274.865l-1.107,0.988l17.699,19.822
	c0.367-0.331,0.733-0.662,1.104-0.992L170.127,274.865z M358.192,235.646l-1.413-0.454l-8.113,25.335
	c0.471,0.149,0.943,0.296,1.414,0.447L358.192,235.646z M238.724,603.789l1.414,0.45l8.124-25.364
	c-0.472-0.147-0.943-0.298-1.415-0.45L238.724,603.789z M481.129,480.703l0.467-1.407l-24.402-8.045
	c-0.15,0.471-0.303,0.943-0.459,1.411L481.129,480.703z M115.791,358.725l-0.465,1.412l24.393,8.037
	c0.151-0.469,0.303-0.94,0.46-1.411L115.791,358.725z M441.529,290.799l-0.998-1.098l-18.988,17.243
	c0.336,0.365,0.66,0.738,0.99,1.106L441.529,290.799z M155.391,548.629l0.997,1.1l18.984-17.238
	c-0.333-0.363-0.659-0.737-0.99-1.105L155.391,548.629z M357.701,604.438l1.412-0.459l-8.369-25.758
	c-0.47,0.154-0.939,0.313-1.41,0.464L357.701,604.438z M239.221,234.991l-1.412,0.461l8.363,25.737
	c0.471-0.154,0.943-0.308,1.413-0.459L239.221,234.991z M115.527,478.378l0.459,1.414l23.968-7.791
	c-0.156-0.47-0.313-0.939-0.463-1.412L115.527,478.378z M481.398,361.058l-0.457-1.411l-23.965,7.787
	c0.156,0.469,0.313,0.939,0.463,1.411L481.398,361.058z M155.691,289.073l-0.999,1.101l19.666,17.858
	c0.332-0.368,0.671-0.729,1.005-1.095L155.691,289.073z M441.227,550.359l0.998-1.102l-19.681-17.873
	c-0.331,0.368-0.669,0.731-1.001,1.097L441.227,550.359z M338.626,230.411l-1.453-0.304l-5.422,26.042
	c0.485,0.099,0.97,0.194,1.453,0.298L338.626,230.411z M258.293,609.021l1.453,0.306l5.423-26.059
	c-0.484-0.096-0.966-0.21-1.45-0.314L258.293,609.021z M110.418,378.156l-0.316,1.449l25.093,5.446
	c0.103-0.485,0.207-0.969,0.314-1.452L110.418,378.156z M486.508,461.275l0.313-1.453l-25.1-5.446
	c-0.104,0.487-0.209,0.971-0.314,1.449L486.508,461.275z M427.273,276.552l-1.109-0.99l-17.082,19.134
	c0.37,0.325,0.742,0.654,1.111,0.985L427.273,276.552z M169.651,562.88l1.107,0.985l17.083-19.131
	c-0.371-0.328-0.742-0.654-1.109-0.989L169.651,562.88z M220.239,242.194l-1.357,0.605l11.011,24.734
	c0.454-0.204,0.902-0.407,1.355-0.607L220.239,242.194z M376.683,597.231l1.358-0.603l-11.022-24.762
	c-0.452,0.207-0.901,0.416-1.353,0.616L376.683,597.231z M122.66,497.178l0.604,1.355l23.041-10.256
	c-0.203-0.45-0.414-0.903-0.613-1.356L122.66,497.178z M474.266,342.257l-0.603-1.356l-23.035,10.256
	c0.202,0.453,0.413,0.901,0.613,1.352L474.266,342.257z M454.102,534.716l0.877-1.194l-21.453-15.724
	c-0.292,0.398-0.582,0.799-0.875,1.195L454.102,534.716z M142.816,304.712l-0.878,1.197l21.442,15.718
	c0.29-0.401,0.582-0.804,0.876-1.2L142.816,304.712z M318.615,227.245l-1.475-0.147l-2.67,26.453
	c0.494,0.048,0.983,0.104,1.477,0.155L318.615,227.245z M278.301,612.182l1.477,0.15l2.669-26.476
	c-0.493-0.043-0.987-0.088-1.477-0.139L278.301,612.182z M489.82,441.389l0.164-1.477l-25.51-2.789
	c-0.053,0.492-0.116,0.984-0.173,1.477L489.82,441.389z M107.103,398.039l-0.161,1.473l25.502,2.791
	c0.051-0.492,0.118-0.983,0.173-1.474L107.103,398.039z M185.323,575.558l1.204,0.87l14.998-20.828
	c-0.403-0.286-0.808-0.571-1.209-0.863L185.323,575.558z M411.602,263.868l-1.205-0.865l-14.986,20.812
	c0.404,0.286,0.807,0.572,1.207,0.864L411.602,263.868z M300.689,267.023v-14.233v-27.063h-4.456v27.059v14.236
	C297.721,267,299.205,267.004,300.689,267.023z M296.233,572.396v14.23v27.07h4.456v-27.065v-14.227
	C299.202,572.425,297.716,572.419,296.233,572.396z M145.777,417.49h-14.234h-25.191v4.454h25.187h14.232
	C145.748,420.458,145.756,418.974,145.777,417.49z M451.154,417.49c0.021,1.487,0.012,2.971-0.012,4.454h14.232h25.193v-4.454
	h-25.185H451.154z M224.613,286.078l-7.064-12.355l-13.213-23.111l-3.867,2.209l13.212,23.109l7.064,12.353
	C222.02,287.53,223.31,286.796,224.613,286.078z M372.293,553.337l7.061,12.352l13.225,23.128l3.867-2.209l-13.224-23.125
	l-7.058-12.347C374.888,551.887,373.596,552.62,372.293,553.337z M220.748,551.142l-7.062,12.35l-13.217,23.116l3.867,2.209
	l13.218-23.119l7.064-12.353C223.318,552.623,222.028,551.896,220.748,551.142z M376.179,288.266l7.064-12.352l13.202-23.092
	l-3.867-2.209l-13.205,23.095l-7.063,12.354C373.607,286.779,374.898,287.511,376.179,288.266z M167.687,340.896l-12.298-7.169
	l-22.18-12.932l-2.243,3.85l22.18,12.93l12.294,7.168C166.167,343.45,166.92,342.169,167.687,340.896z M429.227,498.528
	l12.293,7.166l22.189,12.936l2.244-3.847l-22.189-12.938l-12.291-7.165C430.746,495.977,429.994,497.256,429.227,498.528z
	 M431.146,344.937l12.263-7.149l22.544-13.142l-2.244-3.85l-22.479,13.106l-12.262,7.15L431.146,344.937z M165.46,494.676
	l-12.296,7.166l-22.198,12.941l2.243,3.847l22.194-12.936l12.292-7.166C166.932,497.26,166.19,495.97,165.46,494.676z
	 M300.545,418.726c-0.027-0.052-0.034-0.114-0.024-0.17c-0.056-0.022-0.104-0.06-0.135-0.11c-0.438-0.663-1.177-1.038-1.936-1.038
	c-0.329,0-0.662,0.072-0.976,0.22c-0.557,0.262-0.98,0.728-1.188,1.307c-0.208,0.58-0.177,1.207,0.085,1.762
	c0.261,0.559,0.727,0.98,1.307,1.19c0.581,0.206,1.206,0.175,1.762-0.087C300.59,421.257,301.087,419.878,300.545,418.726z
	 M283.61,203.933v17.908h7.546v-27.332h-6.195c-1.613,3.342-4.129,5.556-9.197,7.209v6.119c1.688-0.525,3.116-1.088,4.278-1.65
	C281.207,205.624,282.371,204.872,283.61,203.933z M308.429,208.701c-3.566,2.665-6.008,4.956-7.321,6.909
	c-1.314,1.952-2.102,4.015-2.366,6.231h22.415v-6.081h-11.639c0.676-0.677,1.276-1.201,1.765-1.616
	c0.487-0.412,1.503-1.161,3.003-2.213c2.553-1.765,4.318-3.417,5.255-4.882c0.94-1.501,1.429-3.079,1.429-4.73
	c0-1.54-0.412-2.891-1.279-4.13c-1.65-2.515-4.277-3.679-9.534-3.679c-7.548,0.188-9.763,2.44-10.851,8.56l7.475,0.638
	c0.447-3.041,1.649-4.091,3.565-4.091c1.839,0,3.189,1.351,3.189,2.966c0,0.789-0.3,1.576-0.938,2.441
	C311.995,205.848,310.605,207.087,308.429,208.701z M408.223,231.021v17.907h7.545v-27.332h-6.195
	c-1.615,3.341-4.128,5.558-9.195,7.209v6.119c1.688-0.527,3.115-1.089,4.279-1.653C405.82,232.709,406.982,231.958,408.223,231.021z
	 M482.407,322.493c0.487-0.412,1.501-1.164,3.003-2.216c2.551-1.764,4.316-3.416,5.255-4.879c0.938-1.502,1.427-3.079,1.427-4.732
	c0-1.54-0.413-2.891-1.275-4.13c-1.654-2.515-4.281-3.678-9.537-3.678c-7.545,0.187-9.76,2.44-10.852,8.558l7.473,0.639
	c0.45-3.041,1.651-4.091,3.568-4.091c1.838,0,3.188,1.352,3.188,2.965c0,0.79-0.3,1.576-0.938,2.44
	c-0.602,0.826-1.987,2.065-4.167,3.68c-3.565,2.665-6.006,4.955-7.321,6.907c-1.313,1.953-2.102,4.018-2.365,6.233h22.414v-6.083
	h-11.637C481.316,323.432,481.917,322.905,482.407,322.493z M514.726,417.84c-0.563-0.34-1.351-0.64-2.364-0.905
	c2.553-1.385,3.828-3.301,3.828-5.592c0-1.989-0.788-3.641-2.365-4.952c-1.539-1.316-4.093-1.955-7.582-1.955
	c-6.121,0-9.313,2.478-10.475,6.981l7.057,1.241c0.414-2.667,1.503-3.568,3.266-3.568c1.689,0,2.741,1.051,2.741,2.667
	c0,1.688-1.464,3.151-3.417,3.151c-0.264,0-0.563-0.035-0.975-0.075l-0.377,5.334c1.016-0.302,1.838-0.453,2.403-0.453
	c2.217,0,3.565,1.426,3.565,3.941c0,2.442-1.499,4.019-3.49,4.019c-1.914,0-3.115-0.974-3.717-3.979l-7.47,0.977
	c1.727,4.992,4.091,7.471,11.374,7.508c2.517,0,4.506-0.374,6.045-1.125c3.117-1.54,4.77-4.691,4.77-7.807
	C517.543,420.729,516.528,418.926,514.726,417.84z M483.957,528.34h3.38v5.782h-3.38v5.03h-6.494v-5.03h-13.59v-6.119l13.59-16.182
	h6.494V528.34z M477.463,519.894l-7.209,8.446h7.209V519.894z M407.961,597.521c-1.613,0-3.23,0.411-4.881,1.164l0.637-4.017h12.015
	v-5.974h-17.72l-2.365,14.457l6.345,0.9c0.603-0.64,1.165-1.124,1.653-1.39c0.674-0.335,1.388-0.524,2.103-0.524
	c2.251,0,3.753,1.464,3.753,4.653c0,3.118-1.502,4.697-3.605,4.697c-1.838,0-3.342-1.281-3.68-3.72l-7.544,0.824
	c0.712,2.555,1.726,4.097,3.491,5.447c1.801,1.311,4.241,1.952,7.809,1.952c2.478,0,4.506-0.414,6.082-1.242
	c3.153-1.647,4.957-5.181,4.957-8.633c0-2.479-0.828-4.546-2.518-6.157C412.805,598.345,410.625,597.521,407.961,597.521z
	 M307.06,630.216c1.649,1.688,2.475,3.864,2.475,6.489c-0.073,5.449-3.751,9.466-10.322,9.276c-5.368,0-8.41-1.688-10.361-5.707
	c-0.976-2.025-1.466-4.693-1.466-7.996c0-9.725,4.318-14.041,11.563-14.041c6.271,0.037,8.524,2.252,10.025,6.498l-7.433,0.935
	c-0.415-2.099-1.315-2.853-2.667-2.853c-1.238,0-2.177,0.601-2.853,1.838c-0.488,0.868-0.828,2.742-1.051,5.635
	c1.763-1.805,3.491-2.669,6.006-2.669C303.379,627.621,305.404,628.485,307.06,630.216z M302.439,636.935
	c0-3.042-1.501-4.656-3.566-4.656c-2.063,0-3.68,1.578-3.68,4.427c0,2.895,1.691,4.659,3.832,4.659
	C300.977,641.364,302.439,639.9,302.439,636.935z M177.412,595.008h13.291c-2.74,3.377-4.731,6.566-6.007,9.534
	c-1.24,2.966-2.177,6.646-2.741,11.039h7.433c0.263-3.153,0.713-5.898,1.427-8.187c0.9-2.966,2.139-5.668,3.679-8.106
	c1.24-1.989,2.814-3.832,4.73-5.558v-5.033h-21.813V595.008z M127.675,531.305c0,2.667-1.388,5.146-3.192,6.459
	c-1.801,1.238-4.616,1.805-7.657,1.805c-5.669,0-8.335-1.354-9.949-3.943c-0.788-1.317-1.166-2.741-1.166-4.356
	c0-3.155,1.467-5.368,4.507-6.573c-1.164-0.636-2.027-1.313-2.59-2.063c-0.714-1.051-1.088-2.252-1.088-3.64
	c0-2.255,1.051-4.093,3.153-5.521c1.652-1.088,3.829-1.651,6.569-1.651c3.568,0,6.233,0.673,7.959,2.064
	c1.729,1.352,2.59,3.079,2.59,5.144c0,1.238-0.336,2.365-1.049,3.416c-0.491,0.788-1.316,1.541-2.404,2.25
	C126.249,526.088,127.675,528.487,127.675,531.305z M113.558,519.445c0,1.836,1.241,3.074,3.194,3.074
	c1.686,0,2.927-1.238,2.927-3.005c0-1.91-1.277-3.15-3.042-3.15C114.799,516.364,113.558,517.604,113.558,519.445z M120.167,530.968
	c0-2.365-1.689-4.056-3.53-4.056c-1.913,0-3.489,1.575-3.489,4.093c0,2.366,1.725,4.021,3.566,4.021
	C118.515,535.025,120.167,533.33,120.167,530.968z M99.084,410.219c0.977,1.99,1.466,4.655,1.466,7.96
	c0,9.725-4.354,14.002-11.563,14.002c-4.317,0-6.494-0.939-8.148-2.854c-0.824-0.977-1.462-2.178-1.876-3.604l7.435-0.939
	c0.337,2.103,1.313,2.854,2.664,2.854c1.202,0,2.14-0.6,2.817-1.801c0.488-0.902,0.862-2.778,1.087-5.669
	c-1.764,1.839-3.492,2.664-6.006,2.664c-2.402,0-4.43-0.862-6.083-2.552c-1.651-1.726-2.477-3.903-2.477-6.496
	c0.113-5.481,3.717-9.536,10.324-9.345C94.093,404.44,97.133,406.2,99.084,410.219z M92.704,413.749c0-2.892-1.69-4.658-3.793-4.658
	c-1.952,0-3.416,1.504-3.416,4.47c0,3.004,1.54,4.656,3.529,4.656C91.128,418.216,92.704,416.601,92.704,413.749z M91.881,312.283
	v17.907h7.546v-27.331h-6.195c-1.613,3.339-4.129,5.556-9.197,7.207v6.12c1.688-0.525,3.114-1.089,4.278-1.651
	C89.478,313.972,90.642,313.22,91.881,312.283z M107.861,326.401c-1.313-1.989-2.065-5.593-2.065-9.761
	c0-5.105,0.901-8.672,2.74-10.699c1.841-2.066,4.655-3.077,8.409-3.077c3.641,0,5.821,0.976,7.284,2.438
	c1.502,1.39,2.29,2.892,2.78,4.994c0.487,1.99,0.748,4.091,0.748,6.268c0,4.883-0.825,8.448-2.476,10.701
	c-1.652,2.215-4.506,3.341-8.523,3.341C112.253,330.606,109.625,329.216,107.861,326.401z M113.191,316.677
	c0,3.417,0.3,5.745,0.9,6.983c0.639,1.239,1.502,1.877,2.667,1.877c1.503,0,2.667-1.014,3.155-3.303
	c0.26-1.164,0.412-2.929,0.412-5.369c0-3.566-0.3-5.971-0.899-7.208c-0.601-1.238-1.503-1.838-2.704-1.838
	c-1.24,0-2.142,0.637-2.704,1.876C113.455,310.934,113.191,313.262,113.191,316.677z M166.374,231.021v17.907h7.547v-27.332h-6.196
	c-1.613,3.341-4.129,5.558-9.197,7.209v6.119c1.69-0.527,3.116-1.089,4.28-1.653C163.971,232.709,165.136,231.958,166.374,231.021z
	 M189.666,231.021v17.907h7.545v-27.332h-6.194c-1.614,3.341-4.129,5.558-9.199,7.209v6.119c1.689-0.527,3.116-1.089,4.282-1.653
	C187.264,232.709,188.426,231.958,189.666,231.021z"/>
</svg>
