<?xml version="1.0" encoding="utf-8"?>
<!-- Generator: Adobe Illustrator 16.0.0, SVG Export Plug-In . SVG Version: 6.00 Build 0)  -->
<!DOCTYPE svg PUBLIC "-//W3C//DTD SVG 1.1//EN" "http://www.w3.org/Graphics/SVG/1.1/DTD/svg11.dtd">
<svg version="1.1" id="Layer_1" xmlns="http://www.w3.org/2000/svg" xmlns:xlink="http://www.w3.org/1999/xlink" x="0px" y="0px"
	 width="595.28px" height="841.89px" viewBox="0 0 595.28 841.89" enable-background="new 0 0 595.28 841.89" xml:space="preserve">
<path fill="#0B0B0B" d="M298.319,641.412c-58.593,0-113.735-22.764-155.272-64.102c-41.557-41.354-64.587-96.418-64.862-155.045
	c0-0.678,0-1.356,0-2.033c-0.266-58.79,22.383-114.182,63.779-155.954c41.392-41.771,96.579-64.923,155.385-65.191l1.022-0.003
	c58.602,0,113.75,22.769,155.287,64.112c41.56,41.356,64.593,96.422,64.856,155.056c0,0.666,0,1.336,0,2
	c0.27,58.788-22.377,114.18-63.766,155.955c-41.396,41.777-96.576,64.933-155.384,65.204h-1.037H298.319z M298.371,203.016
	l-1.003,0.003c-119.23,0.541-215.793,97.984-215.252,217.215c-0.003,0.682-0.003,1.347,0,2.01
	c0.547,118.686,97.54,215.234,216.203,215.239c0.006,0,0,0,0.009,0h1.02c57.755-0.268,111.951-23.01,152.604-64.042
	c40.654-41.025,62.896-95.432,62.629-153.188c0.003-0.673,0.003-1.331,0-1.984C514.044,299.58,417.051,203.016,298.371,203.016z
	 M316.076,237.792l6.756,0.71l-1.641,15.606l-6.758-0.709L316.076,237.792z M279.424,586.205l6.759,0.714l-1.643,15.604
	l-6.755-0.707L279.424,586.205z M335.051,240.44l6.646,1.415l-3.264,15.35l-6.645-1.414L335.051,240.44z M262.177,583.12
	l6.645,1.414l-3.262,15.352l-6.642-1.416L262.177,583.12z M353.652,245.055l6.466,2.1l-4.854,14.923l-6.462-2.099L353.652,245.055z
	 M245.363,578.233l6.464,2.1l-4.852,14.928l-6.458-2.103L245.363,578.233z M371.664,251.591l6.206,2.763l-6.384,14.336l-6.207-2.763
	L371.664,251.591z M229.14,571.632l6.205,2.759l-6.384,14.338l-6.207-2.762L229.14,571.632z M405.15,270.106l5.497,3.996
	l-9.229,12.695l-5.491-3.993L405.15,270.106z M199.203,553.524l5.495,3.99l-9.227,12.695l-5.494-3.994L199.203,553.524z
	 M420.264,281.887l5.048,4.545l-10.5,11.665l-5.051-4.547L420.264,281.887z M185.819,542.214l5.048,4.546l-10.501,11.662
	l-5.048-4.547L185.819,542.214z M434.061,295.184l4.547,5.049l-11.662,10.5l-4.547-5.049L434.061,295.184z M173.69,529.586
	l4.546,5.05l-11.664,10.498l-4.546-5.048L173.69,529.586z M446.392,309.853l3.992,5.495l-12.694,9.224l-3.997-5.496L446.392,309.853
	z M162.938,515.747l3.993,5.497l-12.695,9.223l-3.99-5.495L162.938,515.747z M466.133,342.632l2.765,6.206l-14.338,6.38
	l-2.764-6.204L466.133,342.632z M146.068,485.099l2.764,6.204l-14.338,6.384l-2.761-6.205L146.068,485.099z M473.319,360.388
	l2.099,6.461l-14.922,4.848l-2.102-6.458L473.319,360.388z M140.116,468.617l2.1,6.46l-14.925,4.854l-2.098-6.464L140.116,468.617z
	 M478.624,378.805l1.411,6.642l-15.353,3.265l-1.41-6.648L478.624,378.805z M135.931,451.613l1.411,6.643l-15.35,3.267l-1.413-6.648
	L135.931,451.613z M481.975,397.667l0.711,6.754l-15.605,1.64l-0.712-6.757L481.975,397.667z M133.555,434.254l0.713,6.757
	l-15.609,1.64l-0.712-6.756L133.555,434.254z M482.681,435.926l-0.708,6.754l-15.61-1.637l0.711-6.758L482.681,435.926z
	 M134.268,399.275l-0.708,6.754l-15.609-1.64l0.708-6.757L134.268,399.275z M480.023,454.902l-1.41,6.647l-15.35-3.267l1.41-6.645
	L480.023,454.902z M137.347,382.03l-1.414,6.645l-15.346-3.261l1.41-6.646L137.347,382.03z M475.415,473.495l-2.1,6.464
	l-14.923-4.855l2.098-6.458L475.415,473.495z M142.235,365.206l-2.098,6.461l-14.925-4.849l2.1-6.459L142.235,365.206z
	 M468.877,491.504l-2.761,6.209l-14.338-6.382l2.764-6.206L468.877,491.504z M148.838,348.981l-2.761,6.208l-14.335-6.385
	l2.761-6.206L148.838,348.981z M450.359,525l-3.996,5.498l-12.693-9.223l3.993-5.498L450.359,525z M166.946,319.053l-3.994,5.495
	l-12.695-9.223l3.992-5.496L166.946,319.053z M438.581,540.105l-4.543,5.048l-11.661-10.5l4.547-5.05L438.581,540.105z
	 M178.256,305.663l-4.546,5.047l-11.661-10.499l4.547-5.05L178.256,305.663z M425.288,553.897l-5.048,4.549l-10.499-11.664
	l5.051-4.54L425.288,553.897z M190.896,293.529l-5.048,4.544l-10.501-11.66l5.045-4.547L190.896,293.529z M410.622,566.23
	l-5.498,3.994l-9.223-12.696l5.495-3.99L410.622,566.23z M204.723,282.781l-5.494,3.995l-9.227-12.696l5.496-3.992L204.723,282.781z
	 M377.842,585.975l-6.208,2.763l-6.383-14.335l6.207-2.766L377.842,585.975z M235.377,265.909l-6.209,2.765l-6.382-14.338
	l6.206-2.76L235.377,265.909z M360.085,593.174l-6.464,2.098l-4.849-14.925l6.461-2.102L360.085,593.174z M251.855,259.972
	l-6.461,2.099l-4.849-14.924l6.46-2.101L251.855,259.972z M341.671,598.476l-6.64,1.412l-3.266-15.349l6.646-1.416L341.671,598.476z
	 M268.865,255.783l-6.648,1.412l-3.263-15.348l6.649-1.415L268.865,255.783z M322.807,601.817l-6.759,0.712l-1.636-15.608
	l6.755-0.711L322.807,601.817z M286.216,253.398l-6.755,0.709l-1.643-15.606l6.759-0.708L286.216,253.398z M292.791,237.144h15.021
	v53.322h-15.021V237.144z M292.791,549.853h15.021v53.325h-15.021V549.853z M483.323,412.645v15.026h-53.321v-15.026H483.323z
	 M170.612,412.645v15.026h-53.323v-15.026H170.612z M302.438,426.521c-3.129,1.41-6.814,0.01-8.229-3.129
	c-1.416-3.14-0.028-6.828,3.103-8.237c3.133-1.411,6.814-0.011,8.234,3.127c1.41,3.128,0.033,6.805-3.076,8.225l-2.595-5.669
	L302.438,426.521z M304.792,418.685c1.334,2.95,0.516,6.435-2.436,7.769c-2.949,1.331-6.69,0.295-8.234-2.914
	c-1.408-2.913,1.669-10.416,2.243-7.934 M397.108,575.94l-9.299,5.48l-19.443-33.01l9.303-5.476L397.108,575.94z M232.563,292.089
	l-9.494,5.591l-19.853-33.701l9.497-5.591L232.563,292.089z M388.188,257.685l9.279,5.518l-19.581,32.924l-9.276-5.516
	L388.188,257.685z M223.548,542.109l9.475,5.63l-19.991,33.616l-9.476-5.631L223.548,542.109z M455.163,322.712l5.498,9.288
	l-32.971,19.507l-5.494-9.289L455.163,322.712z M172.631,487.62l5.611,9.485l-33.661,19.916l-5.611-9.483L172.631,487.62z
	 M462.207,506.746l-5.324,9.386l-33.318-18.898l5.324-9.387L462.207,506.746z M177.696,342.149l-5.437,9.585l-34.021-19.293
	l5.436-9.587L177.696,342.149z M301.002,423.305c-1.36,0.609-2.957,0-3.571-1.364c-0.612-1.359-0.009-2.961,1.352-3.573
	c1.359-0.61,2.956-0.001,3.568,1.363c0.589,1.303,0.059,2.839-1.204,3.501 M300.932,423.143c-1.269,0.57-2.765,0.003-3.34-1.271
	c-0.572-1.275-0.006-2.771,1.267-3.342c1.269-0.572,2.761-0.002,3.336,1.272c0.547,1.219,0.054,2.655-1.13,3.272"/>
</svg>
