<svg xmlns="http://www.w3.org/2000/svg" xmlns:xlink="http://www.w3.org/1999/xlink" version="1.1" x="0px" y="0px" enable-background="new 0 0 688.487 539.462" xml:space="preserve" viewBox="0 138.62 27.95 400.84">
  <g>
    <path fill-rule="evenodd" clip-rule="evenodd" d="M26.473,519.253c-0.657-1.317-1.522-2.549-2.619-3.646         c-1.488-1.493-3.234-2.558-5.088-3.236v-0.85c0.166-3.149,0.121-6.297,0-9.45V476.3c0.027-0.184,0.063-0.366,0.089-0.553         c5.306-1.981,9.093-7.08,9.093-13.079c0-6.252-4.107-11.543-9.77-13.33c12.07-68.568-8.854-137.141-3.552-205.712         c14.417-6.447,5.021-21.018,3.239-31.2c-4.19-23.958-4.305-54.243-3.803-73.261c-0.565-0.567-2.918-0.871-3.954-0.021         c0.164,21.578,1.524,49.429-2.822,73.425c-1.885,10.411-10.94,26.453,2.822,31.056c5.484,68.771-16.54,137.546-1.884,206.316         C3.377,452.135,0,457,0,462.668c0,6.032,3.83,11.158,9.184,13.115v36.588c-1.857,0.679-3.604,1.743-5.092,3.236         c-5.456,5.451-5.456,14.305,0,19.758c5.458,5.458,14.307,5.458,19.762,0c3.208-3.209,4.517-7.588,3.95-11.76         C27.722,522.074,27.298,520.594,26.473,519.253z"/>
  </g>
</svg>