<?xml version="1.0" encoding="UTF-8" standalone="no"?>
<!DOCTYPE svg PUBLIC "-//W3C//DTD SVG 1.1//EN" "http://www.w3.org/Graphics/SVG/1.1/DTD/svg11.dtd">
<svg width="100%" height="100%" viewBox="0 0 194 919" version="1.1" xmlns="http://www.w3.org/2000/svg" xmlns:xlink="http://www.w3.org/1999/xlink" xml:space="preserve" xmlns:serif="http://www.serif.com/" style="fill-rule:evenodd;clip-rule:evenodd;stroke-linejoin:round;stroke-miterlimit:2;">
    <g transform="matrix(1,0,0,1,-7361,-15209)">
        <path d="M7443.13,15438.7C7425.59,15432.6 7412.96,15415.8 7412.96,15396C7412.96,15382.4 7429.95,15304.6 7442.92,15247.1C7444.23,15240.1 7450.3,15235.1 7457.38,15235.1C7464.46,15235.1 7470.54,15240.1 7471.85,15247.1C7484.81,15304.6 7501.8,15382.4 7501.8,15396C7501.8,15415.8 7489.17,15432.6 7471.63,15438.7L7471.63,15526C7487.78,15528.6 7499.34,15535.7 7499.34,15544C7499.34,15551.2 7490.37,15557.6 7477.19,15560.8C7490.37,15595.6 7499.34,15664 7499.34,15742.7C7499.34,15816.2 7491.51,15880.7 7479.73,15917.3C7491.51,15920.7 7499.34,15926.7 7499.34,15933.5C7499.34,15938.5 7495.01,15943.1 7487.96,15946.5C7520.9,15958.9 7544.38,15990.7 7544.38,16028C7544.38,16076 7505.4,16115 7457.38,16115C7409.37,16115 7370.39,16076 7370.39,16028C7370.39,15990.7 7393.86,15958.9 7426.81,15946.5C7419.75,15943.1 7415.43,15938.5 7415.43,15933.5C7415.43,15926.7 7423.26,15920.7 7435.03,15917.3C7423.26,15880.7 7415.43,15816.2 7415.43,15742.7C7415.43,15664 7424.4,15595.6 7437.57,15560.8C7424.4,15557.6 7415.43,15551.2 7415.43,15544C7415.43,15535.7 7426.98,15528.6 7443.13,15526L7443.13,15438.7ZM7457.38,15968.5C7490.24,15968.5 7516.93,15995.1 7516.93,16028C7516.93,16060.9 7490.24,16087.5 7457.38,16087.5C7424.52,16087.5 7397.84,16060.9 7397.84,16028C7397.84,15995.1 7424.52,15968.5 7457.38,15968.5Z"/>
    </g>
</svg>
