<?xml version="1.0" encoding="UTF-8" standalone="no"?>
<!DOCTYPE svg PUBLIC "-//W3C//DTD SVG 1.1//EN" "http://www.w3.org/Graphics/SVG/1.1/DTD/svg11.dtd">
<svg width="100%" height="100%" viewBox="0 0 161 1032" version="1.1" xmlns="http://www.w3.org/2000/svg" xmlns:xlink="http://www.w3.org/1999/xlink" xml:space="preserve" xmlns:serif="http://www.serif.com/" style="fill-rule:evenodd;clip-rule:evenodd;stroke-linejoin:round;stroke-miterlimit:2;">
    <g transform="matrix(1,0,0,1,-4727,-15278)">
        <path d="M4790.88,15327.8C4791.15,15319.1 4798.31,15312.1 4807.05,15312.1C4815.78,15312.1 4822.94,15319.1 4823.22,15327.8C4836.45,15745.4 4852.98,16267.3 4852.98,16267.3L4761.11,16267.3C4761.11,16267.3 4777.65,15745.4 4790.88,15327.8ZM4807.05,16085.6C4819.45,16085.6 4829.53,16095.7 4829.53,16108.1C4829.53,16120.5 4819.45,16130.6 4807.05,16130.6C4794.64,16130.6 4784.57,16120.5 4784.57,16108.1C4784.57,16095.7 4794.64,16085.6 4807.05,16085.6Z"/>
    </g>
</svg>
