<?xml version="1.0" encoding="UTF-8" standalone="no"?>
<!DOCTYPE svg PUBLIC "-//W3C//DTD SVG 1.1//EN" "http://www.w3.org/Graphics/SVG/1.1/DTD/svg11.dtd">
<svg width="100%" height="100%" viewBox="0 0 194 926" version="1.1" xmlns="http://www.w3.org/2000/svg" xmlns:xlink="http://www.w3.org/1999/xlink" xml:space="preserve" xmlns:serif="http://www.serif.com/" style="fill-rule:evenodd;clip-rule:evenodd;stroke-linejoin:round;stroke-miterlimit:2;">
    <g transform="matrix(1,0,0,1,-7910,-15168)">
        <path d="M7985.25,15532.6C7960.78,15523.7 7943.27,15500.3 7943.27,15472.7C7943.27,15388.1 8007.02,15190.8 8007.02,15190.8C8007.02,15190.8 8070.76,15388.1 8070.76,15472.7C8070.76,15500.1 8053.41,15523.5 8029.11,15532.5C8025.19,15544.1 8030.09,15555.3 8042.66,15566.2C8012.91,15686 8032.65,15816.3 8061.93,15935.2C8078.88,15950.3 8089.55,15972.3 8089.55,15996.7C8089.55,16042.3 8052.57,16079.3 8007.02,16079.3C7961.46,16079.3 7924.48,16042.3 7924.48,15996.7C7924.48,15972.4 7935.03,15950.5 7951.79,15935.4C7980.52,15810.8 7997.66,15687.4 7967.82,15565.5C7982,15552.9 7987.5,15542.1 7985.25,15532.6Z"/>
    </g>
</svg>
