<?xml version="1.0" encoding="UTF-8" standalone="no"?>
<!DOCTYPE svg PUBLIC "-//W3C//DTD SVG 1.1//EN" "http://www.w3.org/Graphics/SVG/1.1/DTD/svg11.dtd">
<svg width="100%" height="100%" viewBox="0 0 163 1002" version="1.1" xmlns="http://www.w3.org/2000/svg" xmlns:xlink="http://www.w3.org/1999/xlink" xml:space="preserve" xmlns:serif="http://www.serif.com/" style="fill-rule:evenodd;clip-rule:evenodd;stroke-linejoin:round;stroke-miterlimit:2;">
    <g transform="matrix(1,0,0,1,-6398,-15283)">
        <path d="M6469.65,15332.9C6469.96,15328 6474.03,15324.1 6478.95,15324.1C6483.88,15324.1 6487.95,15328 6488.25,15332.9C6503.39,15578.4 6531.69,16037.4 6531.69,16037.4C6531.69,16037.4 6501.18,16187.8 6486.57,16259.8C6485.84,16263.4 6482.65,16266 6478.95,16266C6475.26,16266 6472.07,16263.4 6471.34,16259.8C6456.73,16187.8 6426.22,16037.4 6426.22,16037.4C6426.22,16037.4 6454.52,15578.4 6469.65,15332.9ZM6478.95,16017.9C6491.36,16017.9 6501.43,16028 6501.43,16040.4C6501.43,16052.8 6491.36,16062.9 6478.95,16062.9C6466.55,16062.9 6456.47,16052.8 6456.47,16040.4C6456.47,16028 6466.55,16017.9 6478.95,16017.9Z"/>
    </g>
</svg>
