<?xml version="1.0" encoding="UTF-8" standalone="no"?>
<!DOCTYPE svg PUBLIC "-//W3C//DTD SVG 1.1//EN" "http://www.w3.org/Graphics/SVG/1.1/DTD/svg11.dtd">
<svg width="100%" height="100%" viewBox="0 0 246 1248" version="1.1" xmlns="http://www.w3.org/2000/svg" xmlns:xlink="http://www.w3.org/1999/xlink" xml:space="preserve" xmlns:serif="http://www.serif.com/" style="fill-rule:evenodd;clip-rule:evenodd;stroke-linejoin:round;stroke-miterlimit:2;">
    <g transform="matrix(1,0,0,1,-3427,-15103)">
        <path d="M3526.6,15520C3498.51,15510.7 3478.22,15484.1 3478.22,15452.9C3478.22,15352.7 3548.89,15118.9 3548.89,15118.9C3548.89,15118.9 3619.57,15352.7 3619.57,15452.9C3619.57,15484 3599.52,15510.3 3571.68,15519.8C3566.58,15532.1 3571.31,15543.9 3584.54,15555.4C3554.56,15676 3574.83,15807.4 3604.47,15927C3634.5,15945.6 3654.52,15978.9 3654.52,16016.8C3654.52,16065.3 3621.81,16106.1 3577.28,16118.6C3579.77,16136.7 3579.23,16162.1 3575.68,16188.2C3600.57,16198.7 3618.07,16223.4 3618.07,16252C3618.07,16290.2 3587.08,16321.2 3548.89,16321.2C3510.71,16321.2 3479.72,16290.2 3479.72,16252C3479.72,16223.4 3497.22,16198.7 3522.11,16188.2C3518.56,16162.1 3518.02,16136.7 3520.51,16118.6C3475.98,16106.1 3443.26,16065.3 3443.26,16016.8C3443.26,15979 3463.18,15945.8 3493.08,15927.1C3522.16,15801.6 3539.74,15677.4 3509.7,15554.6C3524.79,15541.3 3530.05,15529.8 3526.6,15520ZM3548.82,16122.4L3548.89,16122.4L3548.97,16122.4C3548.95,16122.6 3548.92,16122.7 3548.89,16122.9C3548.87,16122.7 3548.84,16122.6 3548.82,16122.4ZM3548.89,15944.5C3588.8,15944.5 3621.19,15976.9 3621.19,16016.8C3621.19,16056.7 3588.8,16089.1 3548.89,16089.1C3508.99,16089.1 3476.6,16056.7 3476.6,16016.8C3476.6,15976.9 3508.99,15944.5 3548.89,15944.5Z"/>
    </g>
</svg>
