<?xml version="1.0" encoding="UTF-8" standalone="no"?>
<!DOCTYPE svg PUBLIC "-//W3C//DTD SVG 1.1//EN" "http://www.w3.org/Graphics/SVG/1.1/DTD/svg11.dtd">
<svg width="100%" height="100%" viewBox="0 0 190 893" version="1.1" xmlns="http://www.w3.org/2000/svg" xmlns:xlink="http://www.w3.org/1999/xlink" xml:space="preserve" xmlns:serif="http://www.serif.com/" style="fill-rule:evenodd;clip-rule:evenodd;stroke-linejoin:round;stroke-miterlimit:2;">
    <g transform="matrix(1,0,0,1,-5200,-15239)">
        <path d="M5275.41,15958.4L5246.04,15891.1C5246.04,15891.1 5274.34,15495.4 5289.48,15283.8C5289.82,15279 5293.88,15275.2 5298.77,15275.2C5303.66,15275.2 5307.72,15279 5308.06,15283.8C5323.2,15495.4 5351.5,15891.1 5351.5,15891.1L5322.13,15958.4C5353.75,15968.3 5376.72,15997.9 5376.72,16032.8C5376.72,16075.8 5341.79,16110.7 5298.77,16110.7C5255.74,16110.7 5220.82,16075.8 5220.82,16032.8C5220.82,15997.9 5243.78,15968.3 5275.41,15958.4Z"/>
    </g>
</svg>
