<?xml version="1.0" encoding="UTF-8" standalone="no"?>
<!DOCTYPE svg PUBLIC "-//W3C//DTD SVG 1.1//EN" "http://www.w3.org/Graphics/SVG/1.1/DTD/svg11.dtd">
<svg width="100%" height="100%" viewBox="0 0 213 963" version="1.1" xmlns="http://www.w3.org/2000/svg" xmlns:xlink="http://www.w3.org/1999/xlink" xml:space="preserve" xmlns:serif="http://www.serif.com/" style="fill-rule:evenodd;clip-rule:evenodd;stroke-linejoin:round;stroke-miterlimit:2;">
    <g transform="matrix(1,0,0,1,-3887,-15175)">
        <path d="M3974.18,15519.7C3947.46,15512 3927.95,15488.2 3927.95,15460C3927.95,15439 3959.17,15305.7 3978.24,15226.3C3979.69,15219.5 3985.69,15214.6 3992.63,15214.6C3999.58,15214.6 4005.58,15219.5 4007.03,15226.3C4026.09,15305.7 4057.32,15439 4057.32,15460C4057.32,15488.2 4037.81,15512 4011.08,15519.7L4011.08,15957C4045.21,15965.3 4070.59,15996.1 4070.59,16032.8C4070.59,16075.7 4035.8,16110.6 3992.88,16110.7L3992.63,16110.7C3949.61,16110.7 3914.68,16075.8 3914.68,16032.8C3914.68,15996.1 3940.05,15965.3 3974.18,15957C3974.18,15957 3974.18,15519.7 3974.18,15519.7Z"/>
    </g>
</svg>
