<?xml version="1.0" encoding="UTF-8" standalone="no"?>
<!DOCTYPE svg PUBLIC "-//W3C//DTD SVG 1.1//EN" "http://www.w3.org/Graphics/SVG/1.1/DTD/svg11.dtd">
<svg width="100%" height="100%" viewBox="0 0 246 1641" version="1.1" xmlns="http://www.w3.org/2000/svg" xmlns:xlink="http://www.w3.org/1999/xlink" xml:space="preserve" xmlns:serif="http://www.serif.com/" style="fill-rule:evenodd;clip-rule:evenodd;stroke-linejoin:round;stroke-miterlimit:2;">
    <g transform="matrix(1,0,0,1,-3166,-14717)">
        <path d="M3273.19,15211.7C3241.8,15201.9 3218.98,15172.6 3218.98,15138.1C3218.98,15028.8 3296.04,14773.9 3296.04,14773.9C3296.04,14773.9 3373.1,15028.8 3373.1,15138.1C3373.1,15172.5 3350.53,15201.6 3319.41,15211.5C3313.39,15233.7 3317.98,15255 3331.68,15275.8C3301.23,15489.4 3322.62,15722.3 3353.01,15933.4C3382.27,15952.2 3401.67,15985 3401.67,16022.3C3401.67,16070.8 3368.95,16111.7 3324.42,16124.1C3326.91,16142.3 3326.38,16167.6 3322.82,16193.8C3347.71,16204.3 3365.22,16228.9 3365.22,16257.6C3365.22,16295.8 3334.22,16326.8 3296.04,16326.8C3257.86,16326.8 3226.86,16295.8 3226.86,16257.6C3226.86,16228.9 3244.36,16204.3 3269.26,16193.8C3265.7,16167.6 3265.16,16142.3 3267.66,16124.1C3223.12,16111.7 3190.41,16070.8 3190.41,16022.3C3190.41,15985.1 3209.75,15952.3 3238.94,15933.5C3268.78,15711.4 3287.32,15491.7 3256.84,15274.4C3272.65,15250.1 3277.67,15229.3 3273.19,15211.7ZM3295.96,16128L3296.04,16128L3296.11,16128C3296.09,16128.1 3296.06,16128.3 3296.04,16128.4C3296.01,16128.3 3295.99,16128.1 3295.96,16128ZM3296.04,15950C3335.94,15950 3368.33,15982.4 3368.33,16022.3C3368.33,16062.2 3335.94,16094.6 3296.04,16094.6C3256.14,16094.6 3223.74,16062.2 3223.74,16022.3C3223.74,15982.4 3256.14,15950 3296.04,15950Z"/>
    </g>
</svg>
