<?xml version="1.0" encoding="UTF-8" standalone="no"?>
<!DOCTYPE svg PUBLIC "-//W3C//DTD SVG 1.1//EN" "http://www.w3.org/Graphics/SVG/1.1/DTD/svg11.dtd">
<svg width="100%" height="100%" viewBox="0 0 194 1327" version="1.1" xmlns="http://www.w3.org/2000/svg" xmlns:xlink="http://www.w3.org/1999/xlink" xml:space="preserve" xmlns:serif="http://www.serif.com/" style="fill-rule:evenodd;clip-rule:evenodd;stroke-linejoin:round;stroke-miterlimit:2;">
    <g transform="matrix(1,0,0,1,-7654,-14765)">
        <path d="M7729.48,15221.7C7705.69,15212.4 7688.8,15189.3 7688.8,15162.2C7688.8,15049 7752.55,14784.7 7752.55,14784.7C7752.55,14784.7 7816.29,15049 7816.29,15162.2C7816.29,15189.1 7799.67,15212.1 7776.18,15221.5C7769.77,15243.9 7774.3,15265.6 7788.19,15286.6C7758.14,15497.5 7778.58,15727.1 7808.33,15935.9C7824.78,15951 7835.09,15972.7 7835.09,15996.7C7835.09,16042.3 7798.1,16079.3 7752.55,16079.3C7706.99,16079.3 7670.01,16042.3 7670.01,15996.7C7670.01,15972.8 7680.23,15951.2 7696.55,15936.1C7725.74,15716.8 7743.46,15499.9 7713.36,15285.3C7729.42,15260.6 7734.34,15239.5 7729.48,15221.7Z"/>
    </g>
</svg>
