<?xml version="1.0" encoding="UTF-8" standalone="no"?>
<!DOCTYPE svg PUBLIC "-//W3C//DTD SVG 1.1//EN" "http://www.w3.org/Graphics/SVG/1.1/DTD/svg11.dtd">
<svg width="100%" height="100%" viewBox="0 0 194 1298" version="1.1" xmlns="http://www.w3.org/2000/svg" xmlns:xlink="http://www.w3.org/1999/xlink" xml:space="preserve" xmlns:serif="http://www.serif.com/" style="fill-rule:evenodd;clip-rule:evenodd;stroke-linejoin:round;stroke-miterlimit:2;">
    <g transform="matrix(1,0,0,1,-7151,-14845)">
        <path d="M7236.05,15144.2C7218.19,15136.3 7205.26,15113.3 7205.26,15086.2C7205.26,15068 7222.14,14963.4 7235.09,14885.8C7236.1,14878.5 7242.33,14873.1 7249.68,14873.1C7257.03,14873.1 7263.26,14878.5 7264.27,14885.8C7277.22,14963.4 7294.1,15068 7294.1,15086.2C7294.1,15113.3 7281.17,15136.3 7263.32,15144.2C7263.72,15145.5 7263.93,15146.9 7263.93,15148.4L7263.93,15418.3C7280.08,15421 7291.64,15428 7291.64,15436.3C7291.64,15443.7 7282.48,15450.1 7269.09,15453.3C7282.48,15497.2 7291.64,15585.1 7291.64,15686.2C7291.64,15785.5 7282.83,15872 7269.84,15916.7C7282.83,15919.9 7291.64,15926.2 7291.64,15933.5C7291.64,15938.5 7287.31,15943.1 7280.26,15946.5C7313.2,15958.9 7336.68,15990.7 7336.68,16028C7336.68,16076 7297.69,16115 7249.68,16115C7201.66,16115 7162.68,16076 7162.68,16028C7162.68,15990.7 7186.16,15958.9 7219.11,15946.5C7212.05,15943.1 7207.73,15938.5 7207.73,15933.5C7207.73,15926.2 7216.53,15919.9 7229.52,15916.7C7216.53,15872 7207.73,15785.5 7207.73,15686.2C7207.73,15585.1 7216.88,15497.2 7230.27,15453.3C7216.88,15450.1 7207.73,15443.7 7207.73,15436.3C7207.73,15428 7219.28,15421 7235.43,15418.3L7235.43,15148.4C7235.43,15146.9 7235.65,15145.5 7236.05,15144.2ZM7249.68,15968.5C7282.54,15968.5 7309.22,15995.1 7309.22,16028C7309.22,16060.9 7282.54,16087.5 7249.68,16087.5C7216.82,16087.5 7190.14,16060.9 7190.14,16028C7190.14,15995.1 7216.82,15968.5 7249.68,15968.5Z"/>
    </g>
</svg>
