<?xml version="1.0" encoding="UTF-8" standalone="no"?>
<!DOCTYPE svg PUBLIC "-//W3C//DTD SVG 1.1//EN" "http://www.w3.org/Graphics/SVG/1.1/DTD/svg11.dtd">
<svg width="100%" height="100%" viewBox="0 0 213 1410" version="1.1" xmlns="http://www.w3.org/2000/svg" xmlns:xlink="http://www.w3.org/1999/xlink" xml:space="preserve" xmlns:serif="http://www.serif.com/" style="fill-rule:evenodd;clip-rule:evenodd;stroke-linejoin:round;stroke-miterlimit:2;">
    <g transform="matrix(1,0,0,1,-3681,-14723)">
        <path d="M3766.64,15174.2C3737.1,15164.7 3715.36,15132.7 3715.36,15094.8C3715.36,15066.5 3750.15,14884.9 3770.58,14780.7C3771.83,14773.6 3777.95,14768.5 3785.09,14768.5C3792.24,14768.5 3798.36,14773.6 3799.6,14780.7C3820.03,14884.9 3854.82,15066.5 3854.82,15094.8C3854.82,15132.7 3833.09,15164.7 3803.54,15174.2L3803.54,15962.9C3837.67,15971.2 3863.05,16002 3863.05,16038.7C3863.05,16081.7 3828.12,16116.7 3785.09,16116.7C3742.07,16116.7 3707.14,16081.7 3707.14,16038.7C3707.14,16002 3732.51,15971.2 3766.64,15962.9L3766.64,15174.2Z"/>
    </g>
</svg>
