<?xml version="1.0" encoding="UTF-8" standalone="no"?>
<!DOCTYPE svg PUBLIC "-//W3C//DTD SVG 1.1//EN" "http://www.w3.org/Graphics/SVG/1.1/DTD/svg11.dtd">
<svg width="100%" height="100%" viewBox="0 0 163 1603" version="1.1" xmlns="http://www.w3.org/2000/svg" xmlns:xlink="http://www.w3.org/1999/xlink" xml:space="preserve" xmlns:serif="http://www.serif.com/" style="fill-rule:evenodd;clip-rule:evenodd;stroke-linejoin:round;stroke-miterlimit:2;">
    <g transform="matrix(1,0,0,1,-6230,-14695)">
        <path d="M6306.33,14734.2C6306.49,14729.2 6310.61,14725.2 6315.64,14725.2C6320.67,14725.2 6324.79,14729.2 6324.95,14734.2C6340.09,15189.8 6368.37,16040.7 6368.37,16040.7C6368.37,16040.7 6337.86,16191 6323.26,16263C6322.52,16266.6 6319.34,16269.2 6315.64,16269.2C6311.94,16269.2 6308.76,16266.6 6308.02,16263C6293.41,16191 6262.91,16040.7 6262.91,16040.7C6262.91,16040.7 6291.19,15189.8 6306.33,14734.2ZM6315.64,16021.2C6328.05,16021.2 6338.12,16031.2 6338.12,16043.6C6338.12,16056.1 6328.05,16066.1 6315.64,16066.1C6303.23,16066.1 6293.16,16056.1 6293.16,16043.6C6293.16,16031.2 6303.23,16021.2 6315.64,16021.2Z"/>
    </g>
</svg>
