<?xml version="1.0" encoding="UTF-8" standalone="no"?>
<!DOCTYPE svg PUBLIC "-//W3C//DTD SVG 1.1//EN" "http://www.w3.org/Graphics/SVG/1.1/DTD/svg11.dtd">
<svg width="100%" height="100%" viewBox="0 0 161 1582" version="1.1" xmlns="http://www.w3.org/2000/svg" xmlns:xlink="http://www.w3.org/1999/xlink" xml:space="preserve" xmlns:serif="http://www.serif.com/" style="fill-rule:evenodd;clip-rule:evenodd;stroke-linejoin:round;stroke-miterlimit:2;">
    <g transform="matrix(1,0,0,1,-4572,-14715)">
        <path d="M4638.04,14755C4638.21,14746.2 4645.4,14739.1 4654.22,14739.1C4663.03,14739.1 4670.22,14746.2 4670.39,14755C4683.62,15427.2 4700.15,16267.3 4700.15,16267.3L4608.28,16267.3C4608.28,16267.3 4624.81,15427.2 4638.04,14755ZM4654.22,16085.6C4666.62,16085.6 4676.7,16095.7 4676.7,16108.1C4676.7,16120.5 4666.62,16130.6 4654.22,16130.6C4641.81,16130.6 4631.74,16120.5 4631.74,16108.1C4631.74,16095.7 4641.81,16085.6 4654.22,16085.6Z"/>
    </g>
</svg>
