<svg xmlns="http://www.w3.org/2000/svg" xmlns:xlink="http://www.w3.org/1999/xlink" xmlns:serif="http://www.serif.com/" version="1.1" xml:space="preserve" style="fill-rule:evenodd;clip-rule:evenodd;stroke-linejoin:round;stroke-miterlimit:2;" viewBox="13.86 48.57 211.26 2404.23">    <g transform="matrix(1,0,0,1,-5800,-13971)">        <path d="M5904.66,14394.2L5904.66,15934.7C5853.38,15941.9 5813.86,15986.1 5813.86,16039.3C5813.86,16092.6 5853.38,16136.7 5904.66,16143.9L5904.66,16181.8L5888.94,16181.8L5888.94,16423.8L5950.05,16423.8L5950.05,16181.8L5934.32,16181.8L5934.32,16143.9C5985.61,16136.7 6025.12,16092.6 6025.12,16039.3C6025.12,15986.1 5985.61,15941.9 5934.32,15934.7L5934.32,14034C5934.31,14032.1 5933.96,14030.3 5933.24,14028.5C5931.87,14025.2 5929.23,14022.4 5925.95,14020.9C5924.79,14020.4 5923.57,14020 5922.32,14019.8C5921.52,14019.7 5920.71,14019.6 5919.9,14019.6C5918.29,14019.5 5916.66,14019.7 5915.1,14020.1C5913.6,14020.4 5912.17,14021.1 5910.89,14022C5909.24,14023 5907.84,14024.5 5906.79,14026.2C5905.86,14027.7 5905.21,14029.3 5904.89,14031.1C5904.74,14031.9 5904.67,14032.7 5904.67,14033.6C5904.67,14074.7 5904.67,14115.9 5904.67,14157.1C5904.66,14236.1 5904.66,14315.1 5904.66,14394.2ZM5919.49,15967C5959.39,15967 5991.79,15999.4 5991.79,16039.3C5991.79,16079.2 5959.39,16111.6 5919.49,16111.6C5879.59,16111.6 5847.19,16079.2 5847.19,16039.3C5847.19,15999.4 5879.59,15967 5919.49,15967Z"></path>    </g></svg>
