<?xml version="1.0" encoding="UTF-8" standalone="no"?>
<!DOCTYPE svg PUBLIC "-//W3C//DTD SVG 1.1//EN" "http://www.w3.org/Graphics/SVG/1.1/DTD/svg11.dtd">
<svg width="100%" height="100%" viewBox="0 0 246 2482" version="1.1" xmlns="http://www.w3.org/2000/svg" xmlns:xlink="http://www.w3.org/1999/xlink" xml:space="preserve" xmlns:serif="http://www.serif.com/" style="fill-rule:evenodd;clip-rule:evenodd;stroke-linejoin:round;stroke-miterlimit:2;">
    <g transform="matrix(1,0,0,1,-5543,-13980)">
        <path d="M5683.98,15932.2L5683.98,14022L5654.33,14022L5654.33,15932.2C5603.04,15939.4 5563.53,15983.5 5563.53,16036.8C5563.53,16090.1 5603.04,16134.2 5654.33,16141.4L5654.33,16179.3L5638.6,16179.3L5638.6,16421.3L5699.71,16421.3L5699.71,16179.3L5683.98,16179.3L5683.98,16141.4C5735.27,16134.2 5774.79,16090.1 5774.79,16036.8C5774.79,15983.5 5735.27,15939.4 5683.98,15932.2ZM5669.16,15964.5C5709.06,15964.5 5741.45,15996.9 5741.45,16036.8C5741.45,16076.7 5709.06,16109.1 5669.16,16109.1C5629.26,16109.1 5596.86,16076.7 5596.86,16036.8C5596.86,15996.9 5629.26,15964.5 5669.16,15964.5Z"/>
    </g>
</svg>
