<svg xmlns="http://www.w3.org/2000/svg" xmlns:xlink="http://www.w3.org/1999/xlink" fill="currentColor" version="1.1" x="0px" y="0px" enable-background="new 0 0 688.487 539.462" xml:space="preserve" viewBox="41.9 310.13 28.21 229.33">
  <g>
    <path fill-rule="evenodd" clip-rule="evenodd" d="M61.86,513.566c12.285-31.355-8.894-63.245-2.311-94.552h-0.106         c17.167-6.861,6.682-21.938,4.451-32.363c-5.326-24.913-6.611-56.168-5.974-75.943c-0.718-0.594-3.709-0.909-5.022-0.025         c0.207,22.439,0.677,51.79-4.848,76.746c-2.388,10.787-12.566,27.011,4.674,31.859c4.785,31.369-14.475,62.929-2.512,94.248         c-4.899,2.125-8.317,6.856-8.317,12.36c0,7.492,6.317,13.566,14.107,13.566c7.792,0,14.106-6.074,14.106-13.566         C70.109,520.417,66.726,515.709,61.86,513.566z"/>
  </g>
</svg>